solid OpenSCAD_Model
  facet normal -1 0 0
    outer loop
      vertex 0 0 0
      vertex 0 20 10
      vertex 0 20 0
    endloop
  endfacet
  facet normal -1 -0 0
    outer loop
      vertex 0 20 10
      vertex 0 0 0
      vertex 0 0 10
    endloop
  endfacet
  facet normal 0 0 1
    outer loop
      vertex 17 6 10
      vertex 14.9901 5.31395 10
      vertex 15 5 10
    endloop
  endfacet
  facet normal 0 0 1
    outer loop
      vertex 17 6 10
      vertex 14.9606 5.62667 10
      vertex 14.9901 5.31395 10
    endloop
  endfacet
  facet normal 0 0 1
    outer loop
      vertex 17 6 10
      vertex 14.9114 5.93691 10
      vertex 14.9606 5.62667 10
    endloop
  endfacet
  facet normal 0 -0 1
    outer loop
      vertex 14.9114 5.93691 10
      vertex 17 6 10
      vertex 14.8973 6 10
    endloop
  endfacet
  facet normal 0 0 1
    outer loop
      vertex 17 6 10
      vertex 20 20 10
      vertex 17 20 10
    endloop
  endfacet
  facet normal 0 0 1
    outer loop
      vertex 20 20 10
      vertex 17 6 10
      vertex 20 0 10
    endloop
  endfacet
  facet normal 0 0 1
    outer loop
      vertex 14.9901 4.68605 10
      vertex 17 6 10
      vertex 15 5 10
    endloop
  endfacet
  facet normal 0 0 1
    outer loop
      vertex 14.9606 4.37333 10
      vertex 17 6 10
      vertex 14.9901 4.68605 10
    endloop
  endfacet
  facet normal 0 0 1
    outer loop
      vertex 14.9114 4.06309 10
      vertex 17 6 10
      vertex 14.9606 4.37333 10
    endloop
  endfacet
  facet normal 0 0 1
    outer loop
      vertex 14.8429 3.75655 10
      vertex 17 6 10
      vertex 14.9114 4.06309 10
    endloop
  endfacet
  facet normal 0 0 1
    outer loop
      vertex 17 6 10
      vertex 14.8429 3.75655 10
      vertex 20 0 10
    endloop
  endfacet
  facet normal -0 0 1
    outer loop
      vertex 14.7553 3.45491 10
      vertex 20 0 10
      vertex 14.8429 3.75655 10
    endloop
  endfacet
  facet normal -0 0 1
    outer loop
      vertex 14.6489 3.15938 10
      vertex 20 0 10
      vertex 14.7553 3.45491 10
    endloop
  endfacet
  facet normal -0 0 1
    outer loop
      vertex 14.5241 2.8711 10
      vertex 20 0 10
      vertex 14.6489 3.15938 10
    endloop
  endfacet
  facet normal -0 0 1
    outer loop
      vertex 14.3815 2.59123 10
      vertex 20 0 10
      vertex 14.5241 2.8711 10
    endloop
  endfacet
  facet normal -0 0 1
    outer loop
      vertex 14.2216 2.32087 10
      vertex 20 0 10
      vertex 14.3815 2.59123 10
    endloop
  endfacet
  facet normal -0 0 1
    outer loop
      vertex 14.0451 2.06107 10
      vertex 20 0 10
      vertex 14.2216 2.32087 10
    endloop
  endfacet
  facet normal -0 0 1
    outer loop
      vertex 13.8526 1.81288 10
      vertex 20 0 10
      vertex 14.0451 2.06107 10
    endloop
  endfacet
  facet normal -0 0 1
    outer loop
      vertex 13.6448 1.57726 10
      vertex 20 0 10
      vertex 13.8526 1.81288 10
    endloop
  endfacet
  facet normal -0 0 1
    outer loop
      vertex 13.4227 1.35516 10
      vertex 20 0 10
      vertex 13.6448 1.57726 10
    endloop
  endfacet
  facet normal -0 0 1
    outer loop
      vertex 13.1871 1.14743 10
      vertex 20 0 10
      vertex 13.4227 1.35516 10
    endloop
  endfacet
  facet normal -0 0 1
    outer loop
      vertex 12.9389 0.954914 10
      vertex 20 0 10
      vertex 13.1871 1.14743 10
    endloop
  endfacet
  facet normal -0 0 1
    outer loop
      vertex 12.6791 0.77836 10
      vertex 20 0 10
      vertex 12.9389 0.954914 10
    endloop
  endfacet
  facet normal -0 0 1
    outer loop
      vertex 12.4088 0.618466 10
      vertex 20 0 10
      vertex 12.6791 0.77836 10
    endloop
  endfacet
  facet normal -0 0 1
    outer loop
      vertex 12.1289 0.475864 10
      vertex 20 0 10
      vertex 12.4088 0.618466 10
    endloop
  endfacet
  facet normal -0 0 1
    outer loop
      vertex 11.8406 0.351117 10
      vertex 20 0 10
      vertex 12.1289 0.475864 10
    endloop
  endfacet
  facet normal -0 0 1
    outer loop
      vertex 11.5451 0.244717 10
      vertex 20 0 10
      vertex 11.8406 0.351117 10
    endloop
  endfacet
  facet normal -0 0 1
    outer loop
      vertex 11.2434 0.157084 10
      vertex 20 0 10
      vertex 11.5451 0.244717 10
    endloop
  endfacet
  facet normal -0 0 1
    outer loop
      vertex 10.9369 0.088563 10
      vertex 20 0 10
      vertex 11.2434 0.157084 10
    endloop
  endfacet
  facet normal -0 0 1
    outer loop
      vertex 10.6267 0.0394258 10
      vertex 20 0 10
      vertex 10.9369 0.088563 10
    endloop
  endfacet
  facet normal -0 0 1
    outer loop
      vertex 10.314 0.00986576 10
      vertex 20 0 10
      vertex 10.6267 0.0394258 10
    endloop
  endfacet
  facet normal 0 0 1
    outer loop
      vertex 20 0 10
      vertex 10.314 0.00986576 10
      vertex 10 0 10
    endloop
  endfacet
  facet normal 0 0 1
    outer loop
      vertex 3 20 10
      vertex 0 20 10
      vertex 3 6 10
    endloop
  endfacet
  facet normal 0 0 1
    outer loop
      vertex 5.00987 5.31395 10
      vertex 3 6 10
      vertex 5 5 10
    endloop
  endfacet
  facet normal 0 0 1
    outer loop
      vertex 5.03943 5.62667 10
      vertex 3 6 10
      vertex 5.00987 5.31395 10
    endloop
  endfacet
  facet normal 0 0 1
    outer loop
      vertex 5.08856 5.93691 10
      vertex 3 6 10
      vertex 5.03943 5.62667 10
    endloop
  endfacet
  facet normal -0 0 1
    outer loop
      vertex 3 6 10
      vertex 5.08856 5.93691 10
      vertex 5.10267 6 10
    endloop
  endfacet
  facet normal 0 0 1
    outer loop
      vertex 3 6 10
      vertex 5.00987 4.68605 10
      vertex 5 5 10
    endloop
  endfacet
  facet normal 0 0 1
    outer loop
      vertex 3 6 10
      vertex 5.03943 4.37333 10
      vertex 5.00987 4.68605 10
    endloop
  endfacet
  facet normal 0 0 1
    outer loop
      vertex 3 6 10
      vertex 5.08856 4.06309 10
      vertex 5.03943 4.37333 10
    endloop
  endfacet
  facet normal 0 0 1
    outer loop
      vertex 3 6 10
      vertex 5.15708 3.75655 10
      vertex 5.08856 4.06309 10
    endloop
  endfacet
  facet normal 0 0 1
    outer loop
      vertex 0 0 10
      vertex 5.15708 3.75655 10
      vertex 3 6 10
    endloop
  endfacet
  facet normal 0 0 1
    outer loop
      vertex 5.15708 3.75655 10
      vertex 0 0 10
      vertex 5.24472 3.45491 10
    endloop
  endfacet
  facet normal 0 0 1
    outer loop
      vertex 5.24472 3.45491 10
      vertex 0 0 10
      vertex 5.35112 3.15938 10
    endloop
  endfacet
  facet normal 0 0 1
    outer loop
      vertex 5.35112 3.15938 10
      vertex 0 0 10
      vertex 5.47586 2.8711 10
    endloop
  endfacet
  facet normal 0 0 1
    outer loop
      vertex 5.47586 2.8711 10
      vertex 0 0 10
      vertex 5.61847 2.59123 10
    endloop
  endfacet
  facet normal 0 0 1
    outer loop
      vertex 5.61847 2.59123 10
      vertex 0 0 10
      vertex 5.77836 2.32087 10
    endloop
  endfacet
  facet normal 0 0 1
    outer loop
      vertex 9.68605 0.00986576 10
      vertex 0 0 10
      vertex 10 0 10
    endloop
  endfacet
  facet normal 0 0 1
    outer loop
      vertex 9.37333 0.0394258 10
      vertex 0 0 10
      vertex 9.68605 0.00986576 10
    endloop
  endfacet
  facet normal 0 0 1
    outer loop
      vertex 9.06309 0.088563 10
      vertex 0 0 10
      vertex 9.37333 0.0394258 10
    endloop
  endfacet
  facet normal 0 0 1
    outer loop
      vertex 8.75655 0.157084 10
      vertex 0 0 10
      vertex 9.06309 0.088563 10
    endloop
  endfacet
  facet normal 0 0 1
    outer loop
      vertex 8.45491 0.244717 10
      vertex 0 0 10
      vertex 8.75655 0.157084 10
    endloop
  endfacet
  facet normal 0 0 1
    outer loop
      vertex 8.15938 0.351117 10
      vertex 0 0 10
      vertex 8.45491 0.244717 10
    endloop
  endfacet
  facet normal 0 0 1
    outer loop
      vertex 7.8711 0.475864 10
      vertex 0 0 10
      vertex 8.15938 0.351117 10
    endloop
  endfacet
  facet normal 0 0 1
    outer loop
      vertex 7.59123 0.618466 10
      vertex 0 0 10
      vertex 7.8711 0.475864 10
    endloop
  endfacet
  facet normal 0 0 1
    outer loop
      vertex 7.32087 0.77836 10
      vertex 0 0 10
      vertex 7.59123 0.618466 10
    endloop
  endfacet
  facet normal 0 0 1
    outer loop
      vertex 7.06107 0.954914 10
      vertex 0 0 10
      vertex 7.32087 0.77836 10
    endloop
  endfacet
  facet normal 0 0 1
    outer loop
      vertex 6.81288 1.14743 10
      vertex 0 0 10
      vertex 7.06107 0.954914 10
    endloop
  endfacet
  facet normal 0 0 1
    outer loop
      vertex 6.57726 1.35516 10
      vertex 0 0 10
      vertex 6.81288 1.14743 10
    endloop
  endfacet
  facet normal 0 0 1
    outer loop
      vertex 6.35516 1.57726 10
      vertex 0 0 10
      vertex 6.57726 1.35516 10
    endloop
  endfacet
  facet normal 0 0 1
    outer loop
      vertex 6.14743 1.81288 10
      vertex 0 0 10
      vertex 6.35516 1.57726 10
    endloop
  endfacet
  facet normal 0 0 1
    outer loop
      vertex 5.95491 2.06107 10
      vertex 0 0 10
      vertex 6.14743 1.81288 10
    endloop
  endfacet
  facet normal 0 0 1
    outer loop
      vertex 5.77836 2.32087 10
      vertex 0 0 10
      vertex 5.95491 2.06107 10
    endloop
  endfacet
  facet normal 0 0 1
    outer loop
      vertex 0 0 10
      vertex 3 6 10
      vertex 0 20 10
    endloop
  endfacet
  facet normal 0 0 1
    outer loop
      vertex 14.3333 20 10
      vertex 14.2216 7.67913 10
      vertex 14.3333 7.49027 10
    endloop
  endfacet
  facet normal 0 0 1
    outer loop
      vertex 14.3333 20 10
      vertex 14.0451 7.93893 10
      vertex 14.2216 7.67913 10
    endloop
  endfacet
  facet normal 0 0 1
    outer loop
      vertex 14.3333 20 10
      vertex 13.8526 8.18712 10
      vertex 14.0451 7.93893 10
    endloop
  endfacet
  facet normal 0 0 1
    outer loop
      vertex 14.3333 20 10
      vertex 13.6448 8.42274 10
      vertex 13.8526 8.18712 10
    endloop
  endfacet
  facet normal 0 0 1
    outer loop
      vertex 14.3333 20 10
      vertex 13.4227 8.64484 10
      vertex 13.6448 8.42274 10
    endloop
  endfacet
  facet normal 0 0 1
    outer loop
      vertex 14.3333 20 10
      vertex 13.1871 8.85257 10
      vertex 13.4227 8.64484 10
    endloop
  endfacet
  facet normal 0 0 1
    outer loop
      vertex 14.3333 20 10
      vertex 12.9389 9.04508 10
      vertex 13.1871 8.85257 10
    endloop
  endfacet
  facet normal 0 0 1
    outer loop
      vertex 14.3333 20 10
      vertex 12.6791 9.22164 10
      vertex 12.9389 9.04508 10
    endloop
  endfacet
  facet normal 0 0 1
    outer loop
      vertex 14.3333 20 10
      vertex 12.4088 9.38153 10
      vertex 12.6791 9.22164 10
    endloop
  endfacet
  facet normal 0 0 1
    outer loop
      vertex 14.3333 20 10
      vertex 12.1289 9.52413 10
      vertex 12.4088 9.38153 10
    endloop
  endfacet
  facet normal 0 0 1
    outer loop
      vertex 14.3333 20 10
      vertex 11.8406 9.64888 10
      vertex 12.1289 9.52413 10
    endloop
  endfacet
  facet normal 0 0 1
    outer loop
      vertex 14.3333 20 10
      vertex 11.5451 9.75528 10
      vertex 11.8406 9.64888 10
    endloop
  endfacet
  facet normal 0 0 1
    outer loop
      vertex 11.3333 9.8168 10
      vertex 14.3333 20 10
      vertex 11.3333 20 10
    endloop
  endfacet
  facet normal 0 0 1
    outer loop
      vertex 14.3333 20 10
      vertex 11.3333 9.8168 10
      vertex 11.5451 9.75528 10
    endloop
  endfacet
  facet normal -0 0 1
    outer loop
      vertex 5.66667 20 10
      vertex 8.66667 9.8168 10
      vertex 8.66667 20 10
    endloop
  endfacet
  facet normal 0 0 1
    outer loop
      vertex 8.66667 9.8168 10
      vertex 5.66667 20 10
      vertex 8.45491 9.75528 10
    endloop
  endfacet
  facet normal 0 0 1
    outer loop
      vertex 8.45491 9.75528 10
      vertex 5.66667 20 10
      vertex 8.15938 9.64888 10
    endloop
  endfacet
  facet normal 0 0 1
    outer loop
      vertex 8.15938 9.64888 10
      vertex 5.66667 20 10
      vertex 7.8711 9.52413 10
    endloop
  endfacet
  facet normal 0 0 1
    outer loop
      vertex 7.8711 9.52413 10
      vertex 5.66667 20 10
      vertex 7.59123 9.38153 10
    endloop
  endfacet
  facet normal 0 0 1
    outer loop
      vertex 7.59123 9.38153 10
      vertex 5.66667 20 10
      vertex 7.32087 9.22164 10
    endloop
  endfacet
  facet normal 0 0 1
    outer loop
      vertex 7.32087 9.22164 10
      vertex 5.66667 20 10
      vertex 7.06107 9.04508 10
    endloop
  endfacet
  facet normal 0 0 1
    outer loop
      vertex 7.06107 9.04508 10
      vertex 5.66667 20 10
      vertex 6.81288 8.85257 10
    endloop
  endfacet
  facet normal 0 0 1
    outer loop
      vertex 6.81288 8.85257 10
      vertex 5.66667 20 10
      vertex 6.57726 8.64484 10
    endloop
  endfacet
  facet normal 0 0 1
    outer loop
      vertex 6.57726 8.64484 10
      vertex 5.66667 20 10
      vertex 6.35516 8.42274 10
    endloop
  endfacet
  facet normal 0 0 1
    outer loop
      vertex 6.35516 8.42274 10
      vertex 5.66667 20 10
      vertex 6.14743 8.18712 10
    endloop
  endfacet
  facet normal 0 0 1
    outer loop
      vertex 6.14743 8.18712 10
      vertex 5.66667 20 10
      vertex 5.95491 7.93893 10
    endloop
  endfacet
  facet normal 0 0 1
    outer loop
      vertex 5.95491 7.93893 10
      vertex 5.66667 20 10
      vertex 5.77836 7.67913 10
    endloop
  endfacet
  facet normal 0 0 1
    outer loop
      vertex 5.77836 7.67913 10
      vertex 5.66667 20 10
      vertex 5.66667 7.49027 10
    endloop
  endfacet
  facet normal 1 -0 0
    outer loop
      vertex 3 6 10
      vertex 3 20 0
      vertex 3 20 10
    endloop
  endfacet
  facet normal 1 0 0
    outer loop
      vertex 3 20 0
      vertex 3 6 10
      vertex 3 6 0
    endloop
  endfacet
  facet normal 0 0 -1
    outer loop
      vertex 20 0 0
      vertex 17 6 0
      vertex 20 20 0
    endloop
  endfacet
  facet normal 0 0 -1
    outer loop
      vertex 20 0 0
      vertex 14.8973 6 0
      vertex 17 6 0
    endloop
  endfacet
  facet normal 0 0 -1
    outer loop
      vertex 14.8973 6 0
      vertex 14.7553 6.54508 0
      vertex 14.8429 6.24345 0
    endloop
  endfacet
  facet normal 0 0 -1
    outer loop
      vertex 14.8973 6 0
      vertex 14.6489 6.84062 0
      vertex 14.7553 6.54508 0
    endloop
  endfacet
  facet normal 0 0 -1
    outer loop
      vertex 14.8973 6 0
      vertex 14.5241 7.1289 0
      vertex 14.6489 6.84062 0
    endloop
  endfacet
  facet normal 0 0 -1
    outer loop
      vertex 14.3333 7.49027 0
      vertex 14.5241 7.1289 0
      vertex 14.8973 6 0
    endloop
  endfacet
  facet normal 0 0 -1
    outer loop
      vertex 14.5241 7.1289 0
      vertex 14.3333 7.49027 0
      vertex 14.3815 7.40877 0
    endloop
  endfacet
  facet normal 0 0 -1
    outer loop
      vertex 14.3333 7.49027 0
      vertex 11.3333 9.8168 0
      vertex 14.3333 20 0
    endloop
  endfacet
  facet normal 0 0 -1
    outer loop
      vertex 14.8973 6 0
      vertex 11.3333 9.8168 0
      vertex 14.3333 7.49027 0
    endloop
  endfacet
  facet normal 0 0 -1
    outer loop
      vertex 5.10267 6 0
      vertex 14.8973 6 0
      vertex 20 0 0
    endloop
  endfacet
  facet normal 0 0 -1
    outer loop
      vertex 14.8973 6 0
      vertex 5.10267 6 0
      vertex 11.3333 9.8168 0
    endloop
  endfacet
  facet normal 0 -0 -1
    outer loop
      vertex 10.9369 9.91144 0
      vertex 11.3333 9.8168 0
      vertex 5.10267 6 0
    endloop
  endfacet
  facet normal 0 0 -1
    outer loop
      vertex 11.3333 9.8168 0
      vertex 10.9369 9.91144 0
      vertex 11.2434 9.84292 0
    endloop
  endfacet
  facet normal -0 0 -1
    outer loop
      vertex 10.9369 9.91144 0
      vertex 5.10267 6 0
      vertex 10.6267 9.96057 0
    endloop
  endfacet
  facet normal -0 0 -1
    outer loop
      vertex 10.6267 9.96057 0
      vertex 5.10267 6 0
      vertex 10.314 9.99013 0
    endloop
  endfacet
  facet normal -0 0 -1
    outer loop
      vertex 10.314 9.99013 0
      vertex 5.10267 6 0
      vertex 10 10 0
    endloop
  endfacet
  facet normal 0 0 -1
    outer loop
      vertex 10 10 0
      vertex 5.10267 6 0
      vertex 9.68605 9.99013 0
    endloop
  endfacet
  facet normal 0 0 -1
    outer loop
      vertex 9.68605 9.99013 0
      vertex 5.10267 6 0
      vertex 9.37333 9.96057 0
    endloop
  endfacet
  facet normal 0 0 -1
    outer loop
      vertex 9.37333 9.96057 0
      vertex 5.10267 6 0
      vertex 9.06309 9.91144 0
    endloop
  endfacet
  facet normal 0 -0 -1
    outer loop
      vertex 8.66667 9.8168 0
      vertex 9.06309 9.91144 0
      vertex 5.10267 6 0
    endloop
  endfacet
  facet normal 0 0 -1
    outer loop
      vertex 5.66667 20 0
      vertex 8.66667 9.8168 0
      vertex 5.66667 7.49027 0
    endloop
  endfacet
  facet normal 0 0 -1
    outer loop
      vertex 9.06309 9.91144 0
      vertex 8.66667 9.8168 0
      vertex 8.75655 9.84292 0
    endloop
  endfacet
  facet normal 0 0 -1
    outer loop
      vertex 8.66667 9.8168 0
      vertex 5.10267 6 0
      vertex 5.66667 7.49027 0
    endloop
  endfacet
  facet normal 0 -0 -1
    outer loop
      vertex 5.47586 7.1289 0
      vertex 5.66667 7.49027 0
      vertex 5.10267 6 0
    endloop
  endfacet
  facet normal 0 0 -1
    outer loop
      vertex 5.66667 7.49027 0
      vertex 5.47586 7.1289 0
      vertex 5.61847 7.40877 0
    endloop
  endfacet
  facet normal 0 0 -1
    outer loop
      vertex 5.47586 7.1289 0
      vertex 5.10267 6 0
      vertex 5.35112 6.84062 0
    endloop
  endfacet
  facet normal 0 0 -1
    outer loop
      vertex 5.35112 6.84062 0
      vertex 5.10267 6 0
      vertex 5.24472 6.54508 0
    endloop
  endfacet
  facet normal 0 0 -1
    outer loop
      vertex 5.24472 6.54508 0
      vertex 5.10267 6 0
      vertex 5.15708 6.24345 0
    endloop
  endfacet
  facet normal 0 0 -1
    outer loop
      vertex 0 0 0
      vertex 5.10267 6 0
      vertex 20 0 0
    endloop
  endfacet
  facet normal -0 0 -1
    outer loop
      vertex 5.10267 6 0
      vertex 0 0 0
      vertex 3 6 0
    endloop
  endfacet
  facet normal 0 0 -1
    outer loop
      vertex 0 20 0
      vertex 3 6 0
      vertex 0 0 0
    endloop
  endfacet
  facet normal 0 0 -1
    outer loop
      vertex 3 6 0
      vertex 0 20 0
      vertex 3 20 0
    endloop
  endfacet
  facet normal -0 0 -1
    outer loop
      vertex 20 20 0
      vertex 17 6 0
      vertex 17 20 0
    endloop
  endfacet
  facet normal -0 0 -1
    outer loop
      vertex 14.3333 20 0
      vertex 11.3333 9.8168 0
      vertex 11.3333 20 0
    endloop
  endfacet
  facet normal 0 0 -1
    outer loop
      vertex 8.66667 9.8168 0
      vertex 5.66667 20 0
      vertex 8.66667 20 0
    endloop
  endfacet
  facet normal 0 1 -0
    outer loop
      vertex 5.10267 6 0
      vertex 3 6 10
      vertex 5.10267 6 10
    endloop
  endfacet
  facet normal 0 1 0
    outer loop
      vertex 3 6 10
      vertex 5.10267 6 0
      vertex 3 6 0
    endloop
  endfacet
  facet normal 0 1 -0
    outer loop
      vertex 17 6 0
      vertex 14.8973 6 10
      vertex 17 6 10
    endloop
  endfacet
  facet normal 0 1 0
    outer loop
      vertex 14.8973 6 10
      vertex 17 6 0
      vertex 14.8973 6 0
    endloop
  endfacet
  facet normal 0 1 -0
    outer loop
      vertex 3 20 0
      vertex 0 20 10
      vertex 3 20 10
    endloop
  endfacet
  facet normal 0 1 0
    outer loop
      vertex 0 20 10
      vertex 3 20 0
      vertex 0 20 0
    endloop
  endfacet
  facet normal -1 0 0
    outer loop
      vertex 5.66667 7.49027 0
      vertex 5.66667 20 10
      vertex 5.66667 20 0
    endloop
  endfacet
  facet normal -1 -0 0
    outer loop
      vertex 5.66667 20 10
      vertex 5.66667 7.49027 0
      vertex 5.66667 7.49027 10
    endloop
  endfacet
  facet normal 1 -0 0
    outer loop
      vertex 8.66667 9.8168 10
      vertex 8.66667 20 0
      vertex 8.66667 20 10
    endloop
  endfacet
  facet normal 1 0 0
    outer loop
      vertex 8.66667 20 0
      vertex 8.66667 9.8168 10
      vertex 8.66667 9.8168 0
    endloop
  endfacet
  facet normal 0 1 -0
    outer loop
      vertex 8.66667 20 0
      vertex 5.66667 20 10
      vertex 8.66667 20 10
    endloop
  endfacet
  facet normal 0 1 0
    outer loop
      vertex 5.66667 20 10
      vertex 8.66667 20 0
      vertex 5.66667 20 0
    endloop
  endfacet
  facet normal -1 0 0
    outer loop
      vertex 11.3333 9.8168 0
      vertex 11.3333 20 10
      vertex 11.3333 20 0
    endloop
  endfacet
  facet normal -1 -0 0
    outer loop
      vertex 11.3333 20 10
      vertex 11.3333 9.8168 0
      vertex 11.3333 9.8168 10
    endloop
  endfacet
  facet normal 1 -0 0
    outer loop
      vertex 14.3333 7.49027 10
      vertex 14.3333 20 0
      vertex 14.3333 20 10
    endloop
  endfacet
  facet normal 1 0 0
    outer loop
      vertex 14.3333 20 0
      vertex 14.3333 7.49027 10
      vertex 14.3333 7.49027 0
    endloop
  endfacet
  facet normal 0 1 -0
    outer loop
      vertex 14.3333 20 0
      vertex 11.3333 20 10
      vertex 14.3333 20 10
    endloop
  endfacet
  facet normal 0 1 0
    outer loop
      vertex 11.3333 20 10
      vertex 14.3333 20 0
      vertex 11.3333 20 0
    endloop
  endfacet
  facet normal -1 0 0
    outer loop
      vertex 17 6 0
      vertex 17 20 10
      vertex 17 20 0
    endloop
  endfacet
  facet normal -1 -0 0
    outer loop
      vertex 17 20 10
      vertex 17 6 0
      vertex 17 6 10
    endloop
  endfacet
  facet normal 1 -0 0
    outer loop
      vertex 20 0 10
      vertex 20 20 0
      vertex 20 20 10
    endloop
  endfacet
  facet normal 1 0 0
    outer loop
      vertex 20 20 0
      vertex 20 0 10
      vertex 20 0 0
    endloop
  endfacet
  facet normal 0 1 -0
    outer loop
      vertex 20 20 0
      vertex 17 20 10
      vertex 20 20 10
    endloop
  endfacet
  facet normal 0 1 0
    outer loop
      vertex 17 20 10
      vertex 20 20 0
      vertex 17 20 0
    endloop
  endfacet
  facet normal 0 -1 0
    outer loop
      vertex 0 0 0
      vertex 10 0 10
      vertex 0 0 10
    endloop
  endfacet
  facet normal 0 -1 0
    outer loop
      vertex 20 0 0
      vertex 10 0 10
      vertex 0 0 0
    endloop
  endfacet
  facet normal 0 -1 0
    outer loop
      vertex 10 0 10
      vertex 20 0 0
      vertex 20 0 10
    endloop
  endfacet
  facet normal -0.890995 -0.454014 0
    outer loop
      vertex 5.61847 2.59123 10
      vertex 5.47586 2.8711 13.75
      vertex 5.47586 2.8711 10
    endloop
  endfacet
  facet normal -0.890995 -0.454014 0
    outer loop
      vertex 5.47586 2.8711 13.75
      vertex 5.61847 2.59123 10
      vertex 5.61847 2.59123 13.75
    endloop
  endfacet
  facet normal 0.975932 0.218076 0
    outer loop
      vertex 14.8429 6.24345 13.75
      vertex 14.8973 6 10
      vertex 14.8429 6.24345 0
    endloop
  endfacet
  facet normal 0.97593 0.218083 -4.66093e-07
    outer loop
      vertex 14.9114 5.93691 13.75
      vertex 14.8973 6 10
      vertex 14.8429 6.24345 13.75
    endloop
  endfacet
  facet normal 0.975924 0.21811 0
    outer loop
      vertex 14.8973 6 10
      vertex 14.9114 5.93691 13.75
      vertex 14.9114 5.93691 10
    endloop
  endfacet
  facet normal 0.975932 0.218076 0
    outer loop
      vertex 14.8429 6.24345 0
      vertex 14.8973 6 10
      vertex 14.8973 6 0
    endloop
  endfacet
  facet normal 0.960321 0.278898 0
    outer loop
      vertex 14.8429 6.24345 13.75
      vertex 14.7553 6.54508 0
      vertex 14.7553 6.54508 13.75
    endloop
  endfacet
  facet normal 0.960321 0.278898 0
    outer loop
      vertex 14.7553 6.54508 0
      vertex 14.8429 6.24345 13.75
      vertex 14.8429 6.24345 0
    endloop
  endfacet
  facet normal 0.79018 0.612875 0
    outer loop
      vertex 14.0451 7.93893 13.75
      vertex 13.8526 8.18712 10
      vertex 13.8526 8.18712 13.75
    endloop
  endfacet
  facet normal 0.79018 0.612875 0
    outer loop
      vertex 13.8526 8.18712 10
      vertex 14.0451 7.93893 13.75
      vertex 14.0451 7.93893 10
    endloop
  endfacet
  facet normal 0.45395 0.891027 -0
    outer loop
      vertex 12.4088 9.38153 10
      vertex 12.1289 9.52413 13.75
      vertex 12.4088 9.38153 13.75
    endloop
  endfacet
  facet normal 0.45395 0.891027 0
    outer loop
      vertex 12.1289 9.52413 13.75
      vertex 12.4088 9.38153 10
      vertex 12.1289 9.52413 10
    endloop
  endfacet
  facet normal -0.917766 0.397121 0
    outer loop
      vertex 5.35112 6.84062 0
      vertex 5.47586 7.1289 13.75
      vertex 5.47586 7.1289 0
    endloop
  endfacet
  facet normal -0.917766 0.397121 0
    outer loop
      vertex 5.47586 7.1289 13.75
      vertex 5.35112 6.84062 0
      vertex 5.35112 6.84062 13.75
    endloop
  endfacet
  facet normal -0.338745 0.940878 0
    outer loop
      vertex 8.45491 9.75528 10
      vertex 8.15938 9.64888 13.75
      vertex 8.45491 9.75528 13.75
    endloop
  endfacet
  facet normal -0.338745 0.940878 0
    outer loop
      vertex 8.15938 9.64888 13.75
      vertex 8.45491 9.75528 10
      vertex 8.15938 9.64888 10
    endloop
  endfacet
  facet normal -0.612895 0.790164 0
    outer loop
      vertex 7.06107 9.04508 10
      vertex 6.81288 8.85257 13.75
      vertex 7.06107 9.04508 13.75
    endloop
  endfacet
  facet normal -0.612895 0.790164 0
    outer loop
      vertex 6.81288 8.85257 13.75
      vertex 7.06107 9.04508 10
      vertex 6.81288 8.85257 10
    endloop
  endfacet
  facet normal 0.749996 -0.661443 0
    outer loop
      vertex 13.6448 1.57726 13.75
      vertex 13.8526 1.81288 10
      vertex 13.8526 1.81288 13.75
    endloop
  endfacet
  facet normal 0.749996 -0.661443 0
    outer loop
      vertex 13.8526 1.81288 10
      vertex 13.6448 1.57726 13.75
      vertex 13.6448 1.57726 10
    endloop
  endfacet
  facet normal 0.278935 -0.96031 0
    outer loop
      vertex 11.2434 0.157084 10
      vertex 11.5451 0.244717 13.75
      vertex 11.2434 0.157084 13.75
    endloop
  endfacet
  facet normal 0.278935 -0.96031 0
    outer loop
      vertex 11.5451 0.244717 13.75
      vertex 11.2434 0.157084 10
      vertex 11.5451 0.244717 10
    endloop
  endfacet
  facet normal 0.707107 -0.707107 0
    outer loop
      vertex 13.4227 1.35516 13.75
      vertex 13.6448 1.57726 10
      vertex 13.6448 1.57726 13.75
    endloop
  endfacet
  facet normal 0.707107 -0.707107 0
    outer loop
      vertex 13.6448 1.57726 10
      vertex 13.4227 1.35516 13.75
      vertex 13.4227 1.35516 10
    endloop
  endfacet
  facet normal -0.0314091 -0.999507 0
    outer loop
      vertex 9.68605 0.00986576 10
      vertex 10 0 13.75
      vertex 9.68605 0.00986576 13.75
    endloop
  endfacet
  facet normal -0.0314091 -0.999507 -0
    outer loop
      vertex 10 0 13.75
      vertex 9.68605 0.00986576 10
      vertex 10 0 10
    endloop
  endfacet
  facet normal -0.453993 -0.891005 0
    outer loop
      vertex 7.59123 0.618466 10
      vertex 7.8711 0.475864 13.75
      vertex 7.59123 0.618466 13.75
    endloop
  endfacet
  facet normal -0.453993 -0.891005 -0
    outer loop
      vertex 7.8711 0.475864 13.75
      vertex 7.59123 0.618466 10
      vertex 7.8711 0.475864 10
    endloop
  endfacet
  facet normal -0.50905 -0.860737 0
    outer loop
      vertex 7.32087 0.77836 10
      vertex 7.59123 0.618466 13.75
      vertex 7.32087 0.77836 13.75
    endloop
  endfacet
  facet normal -0.50905 -0.860737 -0
    outer loop
      vertex 7.59123 0.618466 13.75
      vertex 7.32087 0.77836 10
      vertex 7.59123 0.618466 10
    endloop
  endfacet
  facet normal 0.891008 0.453988 0
    outer loop
      vertex 14.5241 7.1289 13.75
      vertex 14.3815 7.40877 0
      vertex 14.3815 7.40877 13.75
    endloop
  endfacet
  facet normal 0.891008 0.453988 0
    outer loop
      vertex 14.3815 7.40877 0
      vertex 14.5241 7.1289 13.75
      vertex 14.5241 7.1289 0
    endloop
  endfacet
  facet normal 0.707107 0.707107 0
    outer loop
      vertex 13.6448 8.42274 13.75
      vertex 13.4227 8.64484 10
      vertex 13.4227 8.64484 13.75
    endloop
  endfacet
  facet normal 0.707107 0.707107 0
    outer loop
      vertex 13.4227 8.64484 10
      vertex 13.6448 8.42274 13.75
      vertex 13.6448 8.42274 10
    endloop
  endfacet
  facet normal -0.0314226 0.999506 0
    outer loop
      vertex 10 10 0
      vertex 9.68605 9.99013 13.75
      vertex 10 10 13.75
    endloop
  endfacet
  facet normal -0.0314226 0.999506 0
    outer loop
      vertex 9.68605 9.99013 13.75
      vertex 10 10 0
      vertex 9.68605 9.99013 0
    endloop
  endfacet
  facet normal 0.562084 0.82708 -0
    outer loop
      vertex 12.9389 9.04508 10
      vertex 12.6791 9.22164 13.75
      vertex 12.9389 9.04508 13.75
    endloop
  endfacet
  facet normal 0.562084 0.82708 0
    outer loop
      vertex 12.6791 9.22164 13.75
      vertex 12.9389 9.04508 10
      vertex 12.6791 9.22164 10
    endloop
  endfacet
  facet normal 0.156432 0.987689 -0
    outer loop
      vertex 10.9369 9.91144 0
      vertex 10.6267 9.96057 13.75
      vertex 10.9369 9.91144 13.75
    endloop
  endfacet
  facet normal 0.156432 0.987689 0
    outer loop
      vertex 10.6267 9.96057 13.75
      vertex 10.9369 9.91144 0
      vertex 10.6267 9.96057 0
    endloop
  endfacet
  facet normal 0.0314176 0.999506 -0
    outer loop
      vertex 10.314 9.99013 0
      vertex 10 10 13.75
      vertex 10.314 9.99013 13.75
    endloop
  endfacet
  facet normal 0.0314176 0.999506 0
    outer loop
      vertex 10 10 13.75
      vertex 10.314 9.99013 0
      vertex 10 10 0
    endloop
  endfacet
  facet normal -0.987692 0.156412 0
    outer loop
      vertex 5.03943 5.62667 10
      vertex 5.08856 5.93691 13.75
      vertex 5.08856 5.93691 10
    endloop
  endfacet
  facet normal -0.987692 0.156412 0
    outer loop
      vertex 5.08856 5.93691 13.75
      vertex 5.03943 5.62667 10
      vertex 5.03943 5.62667 13.75
    endloop
  endfacet
  facet normal -0.790149 0.612915 0
    outer loop
      vertex 5.95491 7.93893 10
      vertex 6.14743 8.18712 13.75
      vertex 6.14743 8.18712 10
    endloop
  endfacet
  facet normal -0.790149 0.612915 0
    outer loop
      vertex 6.14743 8.18712 13.75
      vertex 5.95491 7.93893 10
      vertex 5.95491 7.93893 13.75
    endloop
  endfacet
  facet normal -0.890995 0.454014 0
    outer loop
      vertex 5.47586 7.1289 0
      vertex 5.61847 7.40877 13.75
      vertex 5.61847 7.40877 0
    endloop
  endfacet
  facet normal -0.890995 0.454014 0
    outer loop
      vertex 5.61847 7.40877 13.75
      vertex 5.47586 7.1289 0
      vertex 5.47586 7.1289 13.75
    endloop
  endfacet
  facet normal -0.156412 0.987692 0
    outer loop
      vertex 9.37333 9.96057 0
      vertex 9.06309 9.91144 13.75
      vertex 9.37333 9.96057 13.75
    endloop
  endfacet
  facet normal -0.156412 0.987692 0
    outer loop
      vertex 9.06309 9.91144 13.75
      vertex 9.37333 9.96057 0
      vertex 9.06309 9.91144 0
    endloop
  endfacet
  facet normal -0.279007 0.960289 -1.48872e-06
    outer loop
      vertex 8.75655 9.84292 13.75
      vertex 8.66667 9.8168 10
      vertex 8.45491 9.75528 13.75
    endloop
  endfacet
  facet normal -0.279064 0.960272 0
    outer loop
      vertex 8.75655 9.84292 0
      vertex 8.66667 9.8168 10
      vertex 8.75655 9.84292 13.75
    endloop
  endfacet
  facet normal -0.279064 0.960272 0
    outer loop
      vertex 8.66667 9.8168 10
      vertex 8.75655 9.84292 0
      vertex 8.66667 9.8168 0
    endloop
  endfacet
  facet normal -0.278983 0.960296 0
    outer loop
      vertex 8.45491 9.75528 13.75
      vertex 8.66667 9.8168 10
      vertex 8.45491 9.75528 10
    endloop
  endfacet
  facet normal -0.218144 0.975917 0
    outer loop
      vertex 9.06309 9.91144 0
      vertex 8.75655 9.84292 13.75
      vertex 9.06309 9.91144 13.75
    endloop
  endfacet
  facet normal -0.218144 0.975917 0
    outer loop
      vertex 8.75655 9.84292 13.75
      vertex 9.06309 9.91144 0
      vertex 8.75655 9.84292 0
    endloop
  endfacet
  facet normal -0.453988 0.891008 0
    outer loop
      vertex 7.8711 9.52413 10
      vertex 7.59123 9.38153 13.75
      vertex 7.8711 9.52413 13.75
    endloop
  endfacet
  facet normal -0.453988 0.891008 0
    outer loop
      vertex 7.59123 9.38153 13.75
      vertex 7.8711 9.52413 10
      vertex 7.59123 9.38153 10
    endloop
  endfacet
  facet normal -0.707107 0.707107 0
    outer loop
      vertex 6.35516 8.42274 10
      vertex 6.57726 8.64484 13.75
      vertex 6.57726 8.64484 10
    endloop
  endfacet
  facet normal -0.707107 0.707107 0
    outer loop
      vertex 6.57726 8.64484 13.75
      vertex 6.35516 8.42274 10
      vertex 6.35516 8.42274 13.75
    endloop
  endfacet
  facet normal 0.999503 0.031518 0
    outer loop
      vertex 15 5 13.75
      vertex 14.9901 5.31395 10
      vertex 14.9901 5.31395 13.75
    endloop
  endfacet
  facet normal 0.999503 0.031518 0
    outer loop
      vertex 14.9901 5.31395 10
      vertex 15 5 13.75
      vertex 15 5 10
    endloop
  endfacet
  facet normal 0.218174 -0.97591 0
    outer loop
      vertex 10.9369 0.088563 10
      vertex 11.2434 0.157084 13.75
      vertex 10.9369 0.088563 13.75
    endloop
  endfacet
  facet normal 0.218174 -0.97591 0
    outer loop
      vertex 11.2434 0.157084 13.75
      vertex 10.9369 0.088563 10
      vertex 11.2434 0.157084 10
    endloop
  endfacet
  facet normal 0.453955 -0.891025 0
    outer loop
      vertex 12.1289 0.475864 10
      vertex 12.4088 0.618466 13.75
      vertex 12.1289 0.475864 13.75
    endloop
  endfacet
  facet normal 0.453955 -0.891025 0
    outer loop
      vertex 12.4088 0.618466 13.75
      vertex 12.1289 0.475864 10
      vertex 12.4088 0.618466 10
    endloop
  endfacet
  facet normal -0.156434 -0.987688 0
    outer loop
      vertex 9.06309 0.088563 10
      vertex 9.37333 0.0394258 13.75
      vertex 9.06309 0.088563 13.75
    endloop
  endfacet
  facet normal -0.156434 -0.987688 -0
    outer loop
      vertex 9.37333 0.0394258 13.75
      vertex 9.06309 0.088563 10
      vertex 9.37333 0.0394258 10
    endloop
  endfacet
  facet normal -0.0941061 -0.995562 0
    outer loop
      vertex 9.37333 0.0394258 10
      vertex 9.68605 0.00986576 13.75
      vertex 9.37333 0.0394258 13.75
    endloop
  endfacet
  facet normal -0.0941061 -0.995562 -0
    outer loop
      vertex 9.68605 0.00986576 13.75
      vertex 9.37333 0.0394258 10
      vertex 9.68605 0.00986576 10
    endloop
  endfacet
  facet normal -0.39714 -0.917758 0
    outer loop
      vertex 7.8711 0.475864 10
      vertex 8.15938 0.351117 13.75
      vertex 7.8711 0.475864 13.75
    endloop
  endfacet
  facet normal -0.39714 -0.917758 -0
    outer loop
      vertex 8.15938 0.351117 13.75
      vertex 7.8711 0.475864 10
      vertex 8.15938 0.351117 10
    endloop
  endfacet
  facet normal -0.960289 -0.279007 0
    outer loop
      vertex 5.24472 3.45491 10
      vertex 5.15708 3.75655 13.75
      vertex 5.15708 3.75655 10
    endloop
  endfacet
  facet normal -0.960289 -0.279007 0
    outer loop
      vertex 5.15708 3.75655 13.75
      vertex 5.24472 3.45491 10
      vertex 5.24472 3.45491 13.75
    endloop
  endfacet
  facet normal -0.987692 -0.156412 0
    outer loop
      vertex 5.08856 4.06309 10
      vertex 5.03943 4.37333 13.75
      vertex 5.03943 4.37333 10
    endloop
  endfacet
  facet normal -0.987692 -0.156412 0
    outer loop
      vertex 5.03943 4.37333 13.75
      vertex 5.08856 4.06309 10
      vertex 5.08856 4.06309 13.75
    endloop
  endfacet
  facet normal 0.987657 0.15663 0
    outer loop
      vertex 14.9606 5.62667 13.75
      vertex 14.9114 5.93691 10
      vertex 14.9114 5.93691 13.75
    endloop
  endfacet
  facet normal 0.987657 0.15663 0
    outer loop
      vertex 14.9114 5.93691 10
      vertex 14.9606 5.62667 13.75
      vertex 14.9606 5.62667 10
    endloop
  endfacet
  facet normal 0.917696 0.397282 0
    outer loop
      vertex 14.6489 6.84062 13.75
      vertex 14.5241 7.1289 0
      vertex 14.5241 7.1289 13.75
    endloop
  endfacet
  facet normal 0.917696 0.397282 0
    outer loop
      vertex 14.5241 7.1289 0
      vertex 14.6489 6.84062 13.75
      vertex 14.6489 6.84062 0
    endloop
  endfacet
  facet normal 0.940882 0.338735 0
    outer loop
      vertex 14.7553 6.54508 13.75
      vertex 14.6489 6.84062 0
      vertex 14.6489 6.84062 13.75
    endloop
  endfacet
  facet normal 0.940882 0.338735 0
    outer loop
      vertex 14.6489 6.84062 0
      vertex 14.7553 6.54508 13.75
      vertex 14.7553 6.54508 0
    endloop
  endfacet
  facet normal 0.860725 0.50907 0
    outer loop
      vertex 14.2216 7.67913 13.75
      vertex 14.3333 7.49027 10
      vertex 14.2216 7.67913 10
    endloop
  endfacet
  facet normal 0.860729 0.509064 4.22787e-07
    outer loop
      vertex 14.3815 7.40877 13.75
      vertex 14.3333 7.49027 10
      vertex 14.2216 7.67913 13.75
    endloop
  endfacet
  facet normal 0.860737 0.50905 -0
    outer loop
      vertex 14.3815 7.40877 0
      vertex 14.3333 7.49027 10
      vertex 14.3815 7.40877 13.75
    endloop
  endfacet
  facet normal 0.860737 0.50905 0
    outer loop
      vertex 14.3333 7.49027 10
      vertex 14.3815 7.40877 0
      vertex 14.3333 7.49027 0
    endloop
  endfacet
  facet normal 0.827169 0.561953 0
    outer loop
      vertex 14.2216 7.67913 13.75
      vertex 14.0451 7.93893 10
      vertex 14.0451 7.93893 13.75
    endloop
  endfacet
  facet normal 0.827169 0.561953 0
    outer loop
      vertex 14.0451 7.93893 10
      vertex 14.2216 7.67913 13.75
      vertex 14.2216 7.67913 10
    endloop
  endfacet
  facet normal 0.749996 0.661443 0
    outer loop
      vertex 13.8526 8.18712 13.75
      vertex 13.6448 8.42274 10
      vertex 13.6448 8.42274 13.75
    endloop
  endfacet
  facet normal 0.749996 0.661443 0
    outer loop
      vertex 13.6448 8.42274 10
      vertex 13.8526 8.18712 13.75
      vertex 13.8526 8.18712 10
    endloop
  endfacet
  facet normal 0.661349 0.750078 -0
    outer loop
      vertex 13.4227 8.64484 10
      vertex 13.1871 8.85257 13.75
      vertex 13.4227 8.64484 13.75
    endloop
  endfacet
  facet normal 0.661349 0.750078 0
    outer loop
      vertex 13.1871 8.85257 13.75
      vertex 13.4227 8.64484 10
      vertex 13.1871 8.85257 10
    endloop
  endfacet
  facet normal 0.509124 0.860693 -0
    outer loop
      vertex 12.6791 9.22164 10
      vertex 12.4088 9.38153 13.75
      vertex 12.6791 9.22164 13.75
    endloop
  endfacet
  facet normal 0.509124 0.860693 0
    outer loop
      vertex 12.4088 9.38153 13.75
      vertex 12.6791 9.22164 10
      vertex 12.4088 9.38153 10
    endloop
  endfacet
  facet normal 0.61288 0.790176 -0
    outer loop
      vertex 13.1871 8.85257 10
      vertex 12.9389 9.04508 13.75
      vertex 13.1871 8.85257 13.75
    endloop
  endfacet
  facet normal 0.61288 0.790176 0
    outer loop
      vertex 12.9389 9.04508 13.75
      vertex 13.1871 8.85257 10
      vertex 12.9389 9.04508 10
    endloop
  endfacet
  facet normal 0.338776 0.940867 -0
    outer loop
      vertex 11.8406 9.64888 10
      vertex 11.5451 9.75528 13.75
      vertex 11.8406 9.64888 13.75
    endloop
  endfacet
  facet normal 0.338776 0.940867 0
    outer loop
      vertex 11.5451 9.75528 13.75
      vertex 11.8406 9.64888 10
      vertex 11.5451 9.75528 10
    endloop
  endfacet
  facet normal 0.397125 0.917765 -0
    outer loop
      vertex 12.1289 9.52413 10
      vertex 11.8406 9.64888 13.75
      vertex 12.1289 9.52413 13.75
    endloop
  endfacet
  facet normal 0.397125 0.917765 0
    outer loop
      vertex 11.8406 9.64888 13.75
      vertex 12.1289 9.52413 10
      vertex 11.8406 9.64888 10
    endloop
  endfacet
  facet normal 0.278934 0.96031 0
    outer loop
      vertex 11.3333 9.8168 10
      vertex 11.5451 9.75528 13.75
      vertex 11.5451 9.75528 10
    endloop
  endfacet
  facet normal 0.278956 0.960304 -1.33091e-06
    outer loop
      vertex 11.5451 9.75528 13.75
      vertex 11.3333 9.8168 10
      vertex 11.2434 9.84292 13.75
    endloop
  endfacet
  facet normal 0.279007 0.960289 0
    outer loop
      vertex 11.2434 9.84292 0
      vertex 11.3333 9.8168 10
      vertex 11.3333 9.8168 0
    endloop
  endfacet
  facet normal 0.279007 0.960289 0
    outer loop
      vertex 11.3333 9.8168 10
      vertex 11.2434 9.84292 0
      vertex 11.2434 9.84292 13.75
    endloop
  endfacet
  facet normal 0.218171 0.975911 -0
    outer loop
      vertex 11.2434 9.84292 0
      vertex 10.9369 9.91144 13.75
      vertex 11.2434 9.84292 13.75
    endloop
  endfacet
  facet normal 0.218171 0.975911 0
    outer loop
      vertex 10.9369 9.91144 13.75
      vertex 11.2434 9.84292 0
      vertex 10.9369 9.91144 0
    endloop
  endfacet
  facet normal 0.0941119 0.995562 -0
    outer loop
      vertex 10.6267 9.96057 0
      vertex 10.314 9.99013 13.75
      vertex 10.6267 9.96057 13.75
    endloop
  endfacet
  facet normal 0.0941119 0.995562 0
    outer loop
      vertex 10.314 9.99013 13.75
      vertex 10.6267 9.96057 0
      vertex 10.314 9.99013 0
    endloop
  endfacet
  facet normal -0.999506 -0.0314226 0
    outer loop
      vertex 5.00987 4.68605 10
      vertex 5 5 13.75
      vertex 5 5 10
    endloop
  endfacet
  facet normal -0.999506 -0.0314226 0
    outer loop
      vertex 5 5 13.75
      vertex 5.00987 4.68605 10
      vertex 5.00987 4.68605 13.75
    endloop
  endfacet
  facet normal -0.960287 0.279016 0
    outer loop
      vertex 5.15708 6.24345 0
      vertex 5.24472 6.54508 13.75
      vertex 5.24472 6.54508 0
    endloop
  endfacet
  facet normal -0.960287 0.279016 0
    outer loop
      vertex 5.24472 6.54508 13.75
      vertex 5.15708 6.24345 0
      vertex 5.15708 6.24345 13.75
    endloop
  endfacet
  facet normal -0.995562 0.094106 0
    outer loop
      vertex 5.00987 5.31395 10
      vertex 5.03943 5.62667 13.75
      vertex 5.03943 5.62667 10
    endloop
  endfacet
  facet normal -0.995562 0.094106 0
    outer loop
      vertex 5.03943 5.62667 13.75
      vertex 5.00987 5.31395 10
      vertex 5.00987 5.31395 13.75
    endloop
  endfacet
  facet normal -0.975923 0.218115 0
    outer loop
      vertex 5.10267 6 10
      vertex 5.15708 6.24345 0
      vertex 5.10267 6 0
    endloop
  endfacet
  facet normal -0.975923 0.218115 0
    outer loop
      vertex 5.15708 6.24345 0
      vertex 5.10267 6 10
      vertex 5.15708 6.24345 13.75
    endloop
  endfacet
  facet normal -0.975891 0.218257 0
    outer loop
      vertex 5.08856 5.93691 13.75
      vertex 5.10267 6 10
      vertex 5.08856 5.93691 10
    endloop
  endfacet
  facet normal -0.975917 0.218144 -1.9973e-06
    outer loop
      vertex 5.10267 6 10
      vertex 5.08856 5.93691 13.75
      vertex 5.15708 6.24345 13.75
    endloop
  endfacet
  facet normal -0.940882 0.338735 0
    outer loop
      vertex 5.24472 6.54508 0
      vertex 5.35112 6.84062 13.75
      vertex 5.35112 6.84062 0
    endloop
  endfacet
  facet normal -0.940882 0.338735 0
    outer loop
      vertex 5.35112 6.84062 13.75
      vertex 5.24472 6.54508 0
      vertex 5.24472 6.54508 13.75
    endloop
  endfacet
  facet normal -0.827095 0.562062 0
    outer loop
      vertex 5.77836 7.67913 10
      vertex 5.95491 7.93893 13.75
      vertex 5.95491 7.93893 10
    endloop
  endfacet
  facet normal -0.827095 0.562062 0
    outer loop
      vertex 5.95491 7.93893 13.75
      vertex 5.77836 7.67913 10
      vertex 5.77836 7.67913 13.75
    endloop
  endfacet
  facet normal -0.750106 0.661317 0
    outer loop
      vertex 6.14743 8.18712 10
      vertex 6.35516 8.42274 13.75
      vertex 6.35516 8.42274 10
    endloop
  endfacet
  facet normal -0.750106 0.661317 0
    outer loop
      vertex 6.35516 8.42274 13.75
      vertex 6.14743 8.18712 10
      vertex 6.14743 8.18712 13.75
    endloop
  endfacet
  facet normal -0.860737 0.50905 0
    outer loop
      vertex 5.66667 7.49027 0
      vertex 5.61847 7.40877 0
      vertex 5.66667 7.49027 10
    endloop
  endfacet
  facet normal -0.860745 0.509036 0
    outer loop
      vertex 5.66667 7.49027 10
      vertex 5.77836 7.67913 13.75
      vertex 5.77836 7.67913 10
    endloop
  endfacet
  facet normal -0.860743 0.50904 -2.69128e-07
    outer loop
      vertex 5.66667 7.49027 10
      vertex 5.61847 7.40877 13.75
      vertex 5.77836 7.67913 13.75
    endloop
  endfacet
  facet normal -0.860737 0.50905 0
    outer loop
      vertex 5.61847 7.40877 13.75
      vertex 5.66667 7.49027 10
      vertex 5.61847 7.40877 0
    endloop
  endfacet
  facet normal -0.397148 0.917755 0
    outer loop
      vertex 8.15938 9.64888 10
      vertex 7.8711 9.52413 13.75
      vertex 8.15938 9.64888 13.75
    endloop
  endfacet
  facet normal -0.397148 0.917755 0
    outer loop
      vertex 7.8711 9.52413 13.75
      vertex 8.15938 9.64888 10
      vertex 7.8711 9.52413 10
    endloop
  endfacet
  facet normal -0.094106 0.995562 0
    outer loop
      vertex 9.68605 9.99013 0
      vertex 9.37333 9.96057 13.75
      vertex 9.68605 9.99013 13.75
    endloop
  endfacet
  facet normal -0.094106 0.995562 0
    outer loop
      vertex 9.37333 9.96057 13.75
      vertex 9.68605 9.99013 0
      vertex 9.37333 9.96057 0
    endloop
  endfacet
  facet normal -0.50904 0.860743 0
    outer loop
      vertex 7.59123 9.38153 10
      vertex 7.32087 9.22164 13.75
      vertex 7.59123 9.38153 13.75
    endloop
  endfacet
  facet normal -0.50904 0.860743 0
    outer loop
      vertex 7.32087 9.22164 13.75
      vertex 7.59123 9.38153 10
      vertex 7.32087 9.22164 10
    endloop
  endfacet
  facet normal -0.562084 0.82708 0
    outer loop
      vertex 7.32087 9.22164 10
      vertex 7.06107 9.04508 13.75
      vertex 7.32087 9.22164 13.75
    endloop
  endfacet
  facet normal -0.562084 0.82708 0
    outer loop
      vertex 7.06107 9.04508 13.75
      vertex 7.32087 9.22164 10
      vertex 7.06107 9.04508 10
    endloop
  endfacet
  facet normal -0.661317 0.750106 0
    outer loop
      vertex 6.81288 8.85257 10
      vertex 6.57726 8.64484 13.75
      vertex 6.81288 8.85257 13.75
    endloop
  endfacet
  facet normal -0.661317 0.750106 0
    outer loop
      vertex 6.57726 8.64484 13.75
      vertex 6.81288 8.85257 10
      vertex 6.57726 8.64484 10
    endloop
  endfacet
  facet normal 0.99558 -0.0939166 0
    outer loop
      vertex 14.9606 4.37333 13.75
      vertex 14.9901 4.68605 10
      vertex 14.9901 4.68605 13.75
    endloop
  endfacet
  facet normal 0.99558 -0.0939166 0
    outer loop
      vertex 14.9901 4.68605 10
      vertex 14.9606 4.37333 13.75
      vertex 14.9606 4.37333 10
    endloop
  endfacet
  facet normal 0.0941121 -0.995562 0
    outer loop
      vertex 10.314 0.00986576 10
      vertex 10.6267 0.0394258 13.75
      vertex 10.314 0.00986576 13.75
    endloop
  endfacet
  facet normal 0.0941121 -0.995562 0
    outer loop
      vertex 10.6267 0.0394258 13.75
      vertex 10.314 0.00986576 10
      vertex 10.6267 0.0394258 10
    endloop
  endfacet
  facet normal 0.987657 -0.15663 0
    outer loop
      vertex 14.9114 4.06309 13.75
      vertex 14.9606 4.37333 10
      vertex 14.9606 4.37333 13.75
    endloop
  endfacet
  facet normal 0.987657 -0.15663 0
    outer loop
      vertex 14.9606 4.37333 10
      vertex 14.9114 4.06309 13.75
      vertex 14.9114 4.06309 10
    endloop
  endfacet
  facet normal 0.999503 -0.031518 0
    outer loop
      vertex 14.9901 4.68605 13.75
      vertex 15 5 10
      vertex 15 5 13.75
    endloop
  endfacet
  facet normal 0.999503 -0.031518 0
    outer loop
      vertex 15 5 10
      vertex 14.9901 4.68605 13.75
      vertex 14.9901 4.68605 10
    endloop
  endfacet
  facet normal 0.960323 -0.27889 0
    outer loop
      vertex 14.7553 3.45491 13.75
      vertex 14.8429 3.75655 10
      vertex 14.8429 3.75655 13.75
    endloop
  endfacet
  facet normal 0.960323 -0.27889 0
    outer loop
      vertex 14.8429 3.75655 10
      vertex 14.7553 3.45491 13.75
      vertex 14.7553 3.45491 10
    endloop
  endfacet
  facet normal 0.827169 -0.561953 0
    outer loop
      vertex 14.0451 2.06107 13.75
      vertex 14.2216 2.32087 10
      vertex 14.2216 2.32087 13.75
    endloop
  endfacet
  facet normal 0.827169 -0.561953 0
    outer loop
      vertex 14.2216 2.32087 10
      vertex 14.0451 2.06107 13.75
      vertex 14.0451 2.06107 10
    endloop
  endfacet
  facet normal 0.156454 -0.987685 0
    outer loop
      vertex 10.6267 0.0394258 10
      vertex 10.9369 0.088563 13.75
      vertex 10.6267 0.0394258 13.75
    endloop
  endfacet
  facet normal 0.156454 -0.987685 0
    outer loop
      vertex 10.9369 0.088563 13.75
      vertex 10.6267 0.0394258 10
      vertex 10.9369 0.088563 10
    endloop
  endfacet
  facet normal 0.338776 -0.940867 0
    outer loop
      vertex 11.5451 0.244717 10
      vertex 11.8406 0.351117 13.75
      vertex 11.5451 0.244717 13.75
    endloop
  endfacet
  facet normal 0.338776 -0.940867 0
    outer loop
      vertex 11.8406 0.351117 13.75
      vertex 11.5451 0.244717 10
      vertex 11.8406 0.351117 10
    endloop
  endfacet
  facet normal 0.612892 -0.790167 0
    outer loop
      vertex 12.9389 0.954914 10
      vertex 13.1871 1.14743 13.75
      vertex 12.9389 0.954914 13.75
    endloop
  endfacet
  facet normal 0.612892 -0.790167 0
    outer loop
      vertex 13.1871 1.14743 13.75
      vertex 12.9389 0.954914 10
      vertex 13.1871 1.14743 10
    endloop
  endfacet
  facet normal 0.509133 -0.860688 0
    outer loop
      vertex 12.4088 0.618466 10
      vertex 12.6791 0.77836 13.75
      vertex 12.4088 0.618466 13.75
    endloop
  endfacet
  facet normal 0.509133 -0.860688 0
    outer loop
      vertex 12.6791 0.77836 13.75
      vertex 12.4088 0.618466 10
      vertex 12.6791 0.77836 10
    endloop
  endfacet
  facet normal 0.562071 -0.827089 0
    outer loop
      vertex 12.6791 0.77836 10
      vertex 12.9389 0.954914 13.75
      vertex 12.6791 0.77836 13.75
    endloop
  endfacet
  facet normal 0.562071 -0.827089 0
    outer loop
      vertex 12.9389 0.954914 13.75
      vertex 12.6791 0.77836 10
      vertex 12.9389 0.954914 10
    endloop
  endfacet
  facet normal 0.0314041 -0.999507 0
    outer loop
      vertex 10 0 10
      vertex 10.314 0.00986576 13.75
      vertex 10 0 13.75
    endloop
  endfacet
  facet normal 0.0314041 -0.999507 0
    outer loop
      vertex 10.314 0.00986576 13.75
      vertex 10 0 10
      vertex 10.314 0.00986576 10
    endloop
  endfacet
  facet normal -0.278987 -0.960295 0
    outer loop
      vertex 8.45491 0.244717 10
      vertex 8.75655 0.157084 13.75
      vertex 8.45491 0.244717 13.75
    endloop
  endfacet
  facet normal -0.278987 -0.960295 -0
    outer loop
      vertex 8.75655 0.157084 13.75
      vertex 8.45491 0.244717 10
      vertex 8.75655 0.157084 10
    endloop
  endfacet
  facet normal -0.562071 -0.827089 0
    outer loop
      vertex 7.06107 0.954914 10
      vertex 7.32087 0.77836 13.75
      vertex 7.06107 0.954914 13.75
    endloop
  endfacet
  facet normal -0.562071 -0.827089 -0
    outer loop
      vertex 7.32087 0.77836 13.75
      vertex 7.06107 0.954914 10
      vertex 7.32087 0.77836 10
    endloop
  endfacet
  facet normal -0.661317 -0.750106 0
    outer loop
      vertex 6.57726 1.35516 10
      vertex 6.81288 1.14743 13.75
      vertex 6.57726 1.35516 13.75
    endloop
  endfacet
  facet normal -0.661317 -0.750106 -0
    outer loop
      vertex 6.81288 1.14743 13.75
      vertex 6.57726 1.35516 10
      vertex 6.81288 1.14743 10
    endloop
  endfacet
  facet normal -0.975917 -0.218144 0
    outer loop
      vertex 5.15708 3.75655 10
      vertex 5.08856 4.06309 13.75
      vertex 5.08856 4.06309 10
    endloop
  endfacet
  facet normal -0.975917 -0.218144 0
    outer loop
      vertex 5.08856 4.06309 13.75
      vertex 5.15708 3.75655 10
      vertex 5.15708 3.75655 13.75
    endloop
  endfacet
  facet normal -0.995562 -0.094106 0
    outer loop
      vertex 5.03943 4.37333 10
      vertex 5.00987 4.68605 13.75
      vertex 5.00987 4.68605 10
    endloop
  endfacet
  facet normal -0.995562 -0.094106 0
    outer loop
      vertex 5.00987 4.68605 13.75
      vertex 5.03943 4.37333 10
      vertex 5.03943 4.37333 13.75
    endloop
  endfacet
  facet normal -0.940878 -0.338745 0
    outer loop
      vertex 5.35112 3.15938 10
      vertex 5.24472 3.45491 13.75
      vertex 5.24472 3.45491 10
    endloop
  endfacet
  facet normal -0.940878 -0.338745 0
    outer loop
      vertex 5.24472 3.45491 13.75
      vertex 5.35112 3.15938 10
      vertex 5.35112 3.15938 13.75
    endloop
  endfacet
  facet normal -0.917766 -0.397121 0
    outer loop
      vertex 5.47586 2.8711 10
      vertex 5.35112 3.15938 13.75
      vertex 5.35112 3.15938 10
    endloop
  endfacet
  facet normal -0.917766 -0.397121 0
    outer loop
      vertex 5.35112 3.15938 13.75
      vertex 5.47586 2.8711 10
      vertex 5.47586 2.8711 13.75
    endloop
  endfacet
  facet normal -0.860743 -0.50904 0
    outer loop
      vertex 5.77836 2.32087 10
      vertex 5.61847 2.59123 13.75
      vertex 5.61847 2.59123 10
    endloop
  endfacet
  facet normal -0.860743 -0.50904 0
    outer loop
      vertex 5.61847 2.59123 13.75
      vertex 5.77836 2.32087 10
      vertex 5.77836 2.32087 13.75
    endloop
  endfacet
  facet normal -0.707107 -0.707107 0
    outer loop
      vertex 6.57726 1.35516 10
      vertex 6.35516 1.57726 13.75
      vertex 6.35516 1.57726 10
    endloop
  endfacet
  facet normal -0.707107 -0.707107 0
    outer loop
      vertex 6.35516 1.57726 13.75
      vertex 6.57726 1.35516 10
      vertex 6.57726 1.35516 13.75
    endloop
  endfacet
  facet normal -0.790149 -0.612915 0
    outer loop
      vertex 6.14743 1.81288 10
      vertex 5.95491 2.06107 13.75
      vertex 5.95491 2.06107 10
    endloop
  endfacet
  facet normal -0.790149 -0.612915 0
    outer loop
      vertex 5.95491 2.06107 13.75
      vertex 6.14743 1.81288 10
      vertex 6.14743 1.81288 13.75
    endloop
  endfacet
  facet normal -0.750106 -0.661317 0
    outer loop
      vertex 6.35516 1.57726 10
      vertex 6.14743 1.81288 13.75
      vertex 6.14743 1.81288 10
    endloop
  endfacet
  facet normal -0.750106 -0.661317 0
    outer loop
      vertex 6.14743 1.81288 13.75
      vertex 6.35516 1.57726 10
      vertex 6.35516 1.57726 13.75
    endloop
  endfacet
  facet normal 0.99558 0.0939166 0
    outer loop
      vertex 14.9901 5.31395 13.75
      vertex 14.9606 5.62667 10
      vertex 14.9606 5.62667 13.75
    endloop
  endfacet
  facet normal 0.99558 0.0939166 0
    outer loop
      vertex 14.9606 5.62667 10
      vertex 14.9901 5.31395 13.75
      vertex 14.9901 5.31395 10
    endloop
  endfacet
  facet normal 0 0 1
    outer loop
      vertex 14.9901 5.31395 13.75
      vertex 14.9901 4.68605 13.75
      vertex 15 5 13.75
    endloop
  endfacet
  facet normal 0 0 1
    outer loop
      vertex 14.9606 5.62667 13.75
      vertex 14.9901 4.68605 13.75
      vertex 14.9901 5.31395 13.75
    endloop
  endfacet
  facet normal 0 0 1
    outer loop
      vertex 14.9606 5.62667 13.75
      vertex 14.9606 4.37333 13.75
      vertex 14.9901 4.68605 13.75
    endloop
  endfacet
  facet normal 0 0 1
    outer loop
      vertex 14.9114 5.93691 13.75
      vertex 14.9606 4.37333 13.75
      vertex 14.9606 5.62667 13.75
    endloop
  endfacet
  facet normal 0 0 1
    outer loop
      vertex 14.9114 5.93691 13.75
      vertex 14.9114 4.06309 13.75
      vertex 14.9606 4.37333 13.75
    endloop
  endfacet
  facet normal 0 0 1
    outer loop
      vertex 14.8429 6.24345 13.75
      vertex 14.9114 4.06309 13.75
      vertex 14.9114 5.93691 13.75
    endloop
  endfacet
  facet normal 0 0 1
    outer loop
      vertex 14.8429 6.24345 13.75
      vertex 14.8429 3.75655 13.75
      vertex 14.9114 4.06309 13.75
    endloop
  endfacet
  facet normal 0 0 1
    outer loop
      vertex 14.7553 6.54508 13.75
      vertex 14.8429 3.75655 13.75
      vertex 14.8429 6.24345 13.75
    endloop
  endfacet
  facet normal 0 0 1
    outer loop
      vertex 14.7553 6.54508 13.75
      vertex 14.7553 3.45491 13.75
      vertex 14.8429 3.75655 13.75
    endloop
  endfacet
  facet normal 0 0 1
    outer loop
      vertex 14.6489 6.84062 13.75
      vertex 14.7553 3.45491 13.75
      vertex 14.7553 6.54508 13.75
    endloop
  endfacet
  facet normal 0 0 1
    outer loop
      vertex 14.6489 6.84062 13.75
      vertex 14.6489 3.15938 13.75
      vertex 14.7553 3.45491 13.75
    endloop
  endfacet
  facet normal 0 0 1
    outer loop
      vertex 14.5241 7.1289 13.75
      vertex 14.6489 3.15938 13.75
      vertex 14.6489 6.84062 13.75
    endloop
  endfacet
  facet normal 0 0 1
    outer loop
      vertex 14.5241 7.1289 13.75
      vertex 14.5241 2.8711 13.75
      vertex 14.6489 3.15938 13.75
    endloop
  endfacet
  facet normal 0 0 1
    outer loop
      vertex 14.3815 7.40877 13.75
      vertex 14.5241 2.8711 13.75
      vertex 14.5241 7.1289 13.75
    endloop
  endfacet
  facet normal 0 0 1
    outer loop
      vertex 14.3815 7.40877 13.75
      vertex 14.3815 2.59123 13.75
      vertex 14.5241 2.8711 13.75
    endloop
  endfacet
  facet normal 0 0 1
    outer loop
      vertex 14.2216 7.67913 13.75
      vertex 14.3815 2.59123 13.75
      vertex 14.3815 7.40877 13.75
    endloop
  endfacet
  facet normal 0 0 1
    outer loop
      vertex 14.2216 7.67913 13.75
      vertex 14.2216 2.32087 13.75
      vertex 14.3815 2.59123 13.75
    endloop
  endfacet
  facet normal 0 0 1
    outer loop
      vertex 14.0451 7.93893 13.75
      vertex 14.2216 2.32087 13.75
      vertex 14.2216 7.67913 13.75
    endloop
  endfacet
  facet normal 0 0 1
    outer loop
      vertex 14.0451 7.93893 13.75
      vertex 14.0451 2.06107 13.75
      vertex 14.2216 2.32087 13.75
    endloop
  endfacet
  facet normal 0 0 1
    outer loop
      vertex 13.8526 8.18712 13.75
      vertex 14.0451 2.06107 13.75
      vertex 14.0451 7.93893 13.75
    endloop
  endfacet
  facet normal 0 0 1
    outer loop
      vertex 13.8526 8.18712 13.75
      vertex 13.8526 1.81288 13.75
      vertex 14.0451 2.06107 13.75
    endloop
  endfacet
  facet normal 0 0 1
    outer loop
      vertex 13.6448 8.42274 13.75
      vertex 13.8526 1.81288 13.75
      vertex 13.8526 8.18712 13.75
    endloop
  endfacet
  facet normal 0 0 1
    outer loop
      vertex 13.6448 8.42274 13.75
      vertex 13.6448 1.57726 13.75
      vertex 13.8526 1.81288 13.75
    endloop
  endfacet
  facet normal 0 0 1
    outer loop
      vertex 13.4227 8.64484 13.75
      vertex 13.6448 1.57726 13.75
      vertex 13.6448 8.42274 13.75
    endloop
  endfacet
  facet normal 0 0 1
    outer loop
      vertex 13.4227 8.64484 13.75
      vertex 13.4227 1.35516 13.75
      vertex 13.6448 1.57726 13.75
    endloop
  endfacet
  facet normal 0 0 1
    outer loop
      vertex 13.1871 8.85257 13.75
      vertex 13.4227 1.35516 13.75
      vertex 13.4227 8.64484 13.75
    endloop
  endfacet
  facet normal 0 0 1
    outer loop
      vertex 13.1871 8.85257 13.75
      vertex 13.1871 1.14743 13.75
      vertex 13.4227 1.35516 13.75
    endloop
  endfacet
  facet normal 0 0 1
    outer loop
      vertex 12.9389 9.04508 13.75
      vertex 13.1871 1.14743 13.75
      vertex 13.1871 8.85257 13.75
    endloop
  endfacet
  facet normal 0 0 1
    outer loop
      vertex 12.9389 9.04508 13.75
      vertex 12.9389 0.954914 13.75
      vertex 13.1871 1.14743 13.75
    endloop
  endfacet
  facet normal 0 0 1
    outer loop
      vertex 12.6791 9.22164 13.75
      vertex 12.9389 0.954914 13.75
      vertex 12.9389 9.04508 13.75
    endloop
  endfacet
  facet normal 0 0 1
    outer loop
      vertex 12.6791 9.22164 13.75
      vertex 12.6791 0.77836 13.75
      vertex 12.9389 0.954914 13.75
    endloop
  endfacet
  facet normal 0 0 1
    outer loop
      vertex 12.4088 9.38153 13.75
      vertex 12.6791 0.77836 13.75
      vertex 12.6791 9.22164 13.75
    endloop
  endfacet
  facet normal 0 0 1
    outer loop
      vertex 12.4088 9.38153 13.75
      vertex 12.4088 0.618466 13.75
      vertex 12.6791 0.77836 13.75
    endloop
  endfacet
  facet normal 0 0 1
    outer loop
      vertex 12.1289 9.52413 13.75
      vertex 12.4088 0.618466 13.75
      vertex 12.4088 9.38153 13.75
    endloop
  endfacet
  facet normal 0 0 1
    outer loop
      vertex 12.1289 9.52413 13.75
      vertex 12.1289 0.475864 13.75
      vertex 12.4088 0.618466 13.75
    endloop
  endfacet
  facet normal 0 0 1
    outer loop
      vertex 11.8406 9.64888 13.75
      vertex 12.1289 0.475864 13.75
      vertex 12.1289 9.52413 13.75
    endloop
  endfacet
  facet normal 0 0 1
    outer loop
      vertex 11.8406 9.64888 13.75
      vertex 11.8406 0.351117 13.75
      vertex 12.1289 0.475864 13.75
    endloop
  endfacet
  facet normal 0 0 1
    outer loop
      vertex 11.5451 9.75528 13.75
      vertex 11.8406 0.351117 13.75
      vertex 11.8406 9.64888 13.75
    endloop
  endfacet
  facet normal 0 0 1
    outer loop
      vertex 11.5451 9.75528 13.75
      vertex 11.5451 0.244717 13.75
      vertex 11.8406 0.351117 13.75
    endloop
  endfacet
  facet normal 0 0 1
    outer loop
      vertex 11.2434 9.84292 13.75
      vertex 11.5451 0.244717 13.75
      vertex 11.5451 9.75528 13.75
    endloop
  endfacet
  facet normal 0 0 1
    outer loop
      vertex 11.2434 9.84292 13.75
      vertex 11.2434 0.157084 13.75
      vertex 11.5451 0.244717 13.75
    endloop
  endfacet
  facet normal 0 0 1
    outer loop
      vertex 10.9369 9.91144 13.75
      vertex 11.2434 0.157084 13.75
      vertex 11.2434 9.84292 13.75
    endloop
  endfacet
  facet normal 0 0 1
    outer loop
      vertex 10.9369 9.91144 13.75
      vertex 10.9369 0.088563 13.75
      vertex 11.2434 0.157084 13.75
    endloop
  endfacet
  facet normal 0 0 1
    outer loop
      vertex 10.6267 9.96057 13.75
      vertex 10.9369 0.088563 13.75
      vertex 10.9369 9.91144 13.75
    endloop
  endfacet
  facet normal 0 0 1
    outer loop
      vertex 10.6267 9.96057 13.75
      vertex 10.6267 0.0394258 13.75
      vertex 10.9369 0.088563 13.75
    endloop
  endfacet
  facet normal 0 0 1
    outer loop
      vertex 10.314 9.99013 13.75
      vertex 10.6267 0.0394258 13.75
      vertex 10.6267 9.96057 13.75
    endloop
  endfacet
  facet normal 0 0 1
    outer loop
      vertex 10.314 9.99013 13.75
      vertex 10.314 0.00986576 13.75
      vertex 10.6267 0.0394258 13.75
    endloop
  endfacet
  facet normal 0 0 1
    outer loop
      vertex 10 10 13.75
      vertex 10.314 0.00986576 13.75
      vertex 10.314 9.99013 13.75
    endloop
  endfacet
  facet normal 0 0 1
    outer loop
      vertex 10 10 13.75
      vertex 10 0 13.75
      vertex 10.314 0.00986576 13.75
    endloop
  endfacet
  facet normal -0 0 1
    outer loop
      vertex 9.68605 9.99013 13.75
      vertex 10 0 13.75
      vertex 10 10 13.75
    endloop
  endfacet
  facet normal 0 0 1
    outer loop
      vertex 9.68605 9.99013 13.75
      vertex 9.68605 0.00986576 13.75
      vertex 10 0 13.75
    endloop
  endfacet
  facet normal -0 0 1
    outer loop
      vertex 9.37333 9.96057 13.75
      vertex 9.68605 0.00986576 13.75
      vertex 9.68605 9.99013 13.75
    endloop
  endfacet
  facet normal 0 0 1
    outer loop
      vertex 9.37333 9.96057 13.75
      vertex 9.37333 0.0394258 13.75
      vertex 9.68605 0.00986576 13.75
    endloop
  endfacet
  facet normal -0 0 1
    outer loop
      vertex 9.06309 9.91144 13.75
      vertex 9.37333 0.0394258 13.75
      vertex 9.37333 9.96057 13.75
    endloop
  endfacet
  facet normal 0 0 1
    outer loop
      vertex 9.06309 9.91144 13.75
      vertex 9.06309 0.088563 13.75
      vertex 9.37333 0.0394258 13.75
    endloop
  endfacet
  facet normal -0 0 1
    outer loop
      vertex 8.75655 9.84292 13.75
      vertex 9.06309 0.088563 13.75
      vertex 9.06309 9.91144 13.75
    endloop
  endfacet
  facet normal 0 0 1
    outer loop
      vertex 8.75655 9.84292 13.75
      vertex 8.75655 0.157084 13.75
      vertex 9.06309 0.088563 13.75
    endloop
  endfacet
  facet normal -0 0 1
    outer loop
      vertex 8.45491 9.75528 13.75
      vertex 8.75655 0.157084 13.75
      vertex 8.75655 9.84292 13.75
    endloop
  endfacet
  facet normal 0 0 1
    outer loop
      vertex 8.45491 9.75528 13.75
      vertex 8.45491 0.244717 13.75
      vertex 8.75655 0.157084 13.75
    endloop
  endfacet
  facet normal -0 0 1
    outer loop
      vertex 8.15938 9.64888 13.75
      vertex 8.45491 0.244717 13.75
      vertex 8.45491 9.75528 13.75
    endloop
  endfacet
  facet normal 0 0 1
    outer loop
      vertex 8.15938 9.64888 13.75
      vertex 8.15938 0.351117 13.75
      vertex 8.45491 0.244717 13.75
    endloop
  endfacet
  facet normal -0 0 1
    outer loop
      vertex 7.8711 9.52413 13.75
      vertex 8.15938 0.351117 13.75
      vertex 8.15938 9.64888 13.75
    endloop
  endfacet
  facet normal 0 0 1
    outer loop
      vertex 7.8711 9.52413 13.75
      vertex 7.8711 0.475864 13.75
      vertex 8.15938 0.351117 13.75
    endloop
  endfacet
  facet normal -0 0 1
    outer loop
      vertex 7.59123 9.38153 13.75
      vertex 7.8711 0.475864 13.75
      vertex 7.8711 9.52413 13.75
    endloop
  endfacet
  facet normal 0 0 1
    outer loop
      vertex 7.59123 9.38153 13.75
      vertex 7.59123 0.618466 13.75
      vertex 7.8711 0.475864 13.75
    endloop
  endfacet
  facet normal -0 0 1
    outer loop
      vertex 7.32087 9.22164 13.75
      vertex 7.59123 0.618466 13.75
      vertex 7.59123 9.38153 13.75
    endloop
  endfacet
  facet normal 0 0 1
    outer loop
      vertex 7.32087 9.22164 13.75
      vertex 7.32087 0.77836 13.75
      vertex 7.59123 0.618466 13.75
    endloop
  endfacet
  facet normal -0 0 1
    outer loop
      vertex 7.06107 9.04508 13.75
      vertex 7.32087 0.77836 13.75
      vertex 7.32087 9.22164 13.75
    endloop
  endfacet
  facet normal 0 0 1
    outer loop
      vertex 7.06107 9.04508 13.75
      vertex 7.06107 0.954914 13.75
      vertex 7.32087 0.77836 13.75
    endloop
  endfacet
  facet normal -0 0 1
    outer loop
      vertex 6.81288 8.85257 13.75
      vertex 7.06107 0.954914 13.75
      vertex 7.06107 9.04508 13.75
    endloop
  endfacet
  facet normal 0 0 1
    outer loop
      vertex 6.81288 8.85257 13.75
      vertex 6.81288 1.14743 13.75
      vertex 7.06107 0.954914 13.75
    endloop
  endfacet
  facet normal -0 0 1
    outer loop
      vertex 6.57726 8.64484 13.75
      vertex 6.81288 1.14743 13.75
      vertex 6.81288 8.85257 13.75
    endloop
  endfacet
  facet normal 0 0 1
    outer loop
      vertex 6.57726 8.64484 13.75
      vertex 6.57726 1.35516 13.75
      vertex 6.81288 1.14743 13.75
    endloop
  endfacet
  facet normal -0 0 1
    outer loop
      vertex 6.35516 8.42274 13.75
      vertex 6.57726 1.35516 13.75
      vertex 6.57726 8.64484 13.75
    endloop
  endfacet
  facet normal 0 0 1
    outer loop
      vertex 6.35516 8.42274 13.75
      vertex 6.35516 1.57726 13.75
      vertex 6.57726 1.35516 13.75
    endloop
  endfacet
  facet normal -0 0 1
    outer loop
      vertex 6.14743 8.18712 13.75
      vertex 6.35516 1.57726 13.75
      vertex 6.35516 8.42274 13.75
    endloop
  endfacet
  facet normal 0 0 1
    outer loop
      vertex 6.14743 8.18712 13.75
      vertex 6.14743 1.81288 13.75
      vertex 6.35516 1.57726 13.75
    endloop
  endfacet
  facet normal -0 0 1
    outer loop
      vertex 5.95491 7.93893 13.75
      vertex 6.14743 1.81288 13.75
      vertex 6.14743 8.18712 13.75
    endloop
  endfacet
  facet normal 0 0 1
    outer loop
      vertex 5.95491 7.93893 13.75
      vertex 5.95491 2.06107 13.75
      vertex 6.14743 1.81288 13.75
    endloop
  endfacet
  facet normal -0 0 1
    outer loop
      vertex 5.77836 7.67913 13.75
      vertex 5.95491 2.06107 13.75
      vertex 5.95491 7.93893 13.75
    endloop
  endfacet
  facet normal 0 0 1
    outer loop
      vertex 5.77836 7.67913 13.75
      vertex 5.77836 2.32087 13.75
      vertex 5.95491 2.06107 13.75
    endloop
  endfacet
  facet normal -0 0 1
    outer loop
      vertex 5.61847 7.40877 13.75
      vertex 5.77836 2.32087 13.75
      vertex 5.77836 7.67913 13.75
    endloop
  endfacet
  facet normal 0 0 1
    outer loop
      vertex 5.61847 7.40877 13.75
      vertex 5.61847 2.59123 13.75
      vertex 5.77836 2.32087 13.75
    endloop
  endfacet
  facet normal -0 0 1
    outer loop
      vertex 5.47586 7.1289 13.75
      vertex 5.61847 2.59123 13.75
      vertex 5.61847 7.40877 13.75
    endloop
  endfacet
  facet normal 0 0 1
    outer loop
      vertex 5.47586 7.1289 13.75
      vertex 5.47586 2.8711 13.75
      vertex 5.61847 2.59123 13.75
    endloop
  endfacet
  facet normal -0 0 1
    outer loop
      vertex 5.35112 6.84062 13.75
      vertex 5.47586 2.8711 13.75
      vertex 5.47586 7.1289 13.75
    endloop
  endfacet
  facet normal 0 0 1
    outer loop
      vertex 5.35112 6.84062 13.75
      vertex 5.35112 3.15938 13.75
      vertex 5.47586 2.8711 13.75
    endloop
  endfacet
  facet normal -0 0 1
    outer loop
      vertex 5.24472 6.54508 13.75
      vertex 5.35112 3.15938 13.75
      vertex 5.35112 6.84062 13.75
    endloop
  endfacet
  facet normal 0 0 1
    outer loop
      vertex 5.24472 6.54508 13.75
      vertex 5.24472 3.45491 13.75
      vertex 5.35112 3.15938 13.75
    endloop
  endfacet
  facet normal -0 0 1
    outer loop
      vertex 5.15708 6.24345 13.75
      vertex 5.24472 3.45491 13.75
      vertex 5.24472 6.54508 13.75
    endloop
  endfacet
  facet normal 0 0 1
    outer loop
      vertex 5.15708 6.24345 13.75
      vertex 5.15708 3.75655 13.75
      vertex 5.24472 3.45491 13.75
    endloop
  endfacet
  facet normal -0 0 1
    outer loop
      vertex 5.08856 5.93691 13.75
      vertex 5.15708 3.75655 13.75
      vertex 5.15708 6.24345 13.75
    endloop
  endfacet
  facet normal 0 0 1
    outer loop
      vertex 5.08856 5.93691 13.75
      vertex 5.08856 4.06309 13.75
      vertex 5.15708 3.75655 13.75
    endloop
  endfacet
  facet normal -0 0 1
    outer loop
      vertex 5.03943 5.62667 13.75
      vertex 5.08856 4.06309 13.75
      vertex 5.08856 5.93691 13.75
    endloop
  endfacet
  facet normal 0 0 1
    outer loop
      vertex 5.03943 5.62667 13.75
      vertex 5.03943 4.37333 13.75
      vertex 5.08856 4.06309 13.75
    endloop
  endfacet
  facet normal -0 0 1
    outer loop
      vertex 5.00987 5.31395 13.75
      vertex 5.03943 4.37333 13.75
      vertex 5.03943 5.62667 13.75
    endloop
  endfacet
  facet normal 0 0 1
    outer loop
      vertex 5.00987 5.31395 13.75
      vertex 5.00987 4.68605 13.75
      vertex 5.03943 4.37333 13.75
    endloop
  endfacet
  facet normal 0 -0 1
    outer loop
      vertex 5.00987 4.68605 13.75
      vertex 5.00987 5.31395 13.75
      vertex 5 5 13.75
    endloop
  endfacet
  facet normal -0.999506 0.0314226 0
    outer loop
      vertex 5 5 10
      vertex 5.00987 5.31395 13.75
      vertex 5.00987 5.31395 10
    endloop
  endfacet
  facet normal -0.999506 0.0314226 0
    outer loop
      vertex 5.00987 5.31395 13.75
      vertex 5 5 10
      vertex 5 5 13.75
    endloop
  endfacet
  facet normal 0.891008 -0.453988 0
    outer loop
      vertex 14.3815 2.59123 13.75
      vertex 14.5241 2.8711 10
      vertex 14.5241 2.8711 13.75
    endloop
  endfacet
  facet normal 0.891008 -0.453988 0
    outer loop
      vertex 14.5241 2.8711 10
      vertex 14.3815 2.59123 13.75
      vertex 14.3815 2.59123 10
    endloop
  endfacet
  facet normal 0.917696 -0.397282 0
    outer loop
      vertex 14.5241 2.8711 13.75
      vertex 14.6489 3.15938 10
      vertex 14.6489 3.15938 13.75
    endloop
  endfacet
  facet normal 0.917696 -0.397282 0
    outer loop
      vertex 14.6489 3.15938 10
      vertex 14.5241 2.8711 13.75
      vertex 14.5241 2.8711 10
    endloop
  endfacet
  facet normal 0.397117 -0.917768 0
    outer loop
      vertex 11.8406 0.351117 10
      vertex 12.1289 0.475864 13.75
      vertex 11.8406 0.351117 13.75
    endloop
  endfacet
  facet normal 0.397117 -0.917768 0
    outer loop
      vertex 12.1289 0.475864 13.75
      vertex 11.8406 0.351117 10
      vertex 12.1289 0.475864 10
    endloop
  endfacet
  facet normal 0.661349 -0.750078 0
    outer loop
      vertex 13.1871 1.14743 10
      vertex 13.4227 1.35516 13.75
      vertex 13.1871 1.14743 13.75
    endloop
  endfacet
  facet normal 0.661349 -0.750078 0
    outer loop
      vertex 13.4227 1.35516 13.75
      vertex 13.1871 1.14743 10
      vertex 13.4227 1.35516 10
    endloop
  endfacet
  facet normal -0.218147 -0.975916 0
    outer loop
      vertex 8.75655 0.157084 10
      vertex 9.06309 0.088563 13.75
      vertex 8.75655 0.157084 13.75
    endloop
  endfacet
  facet normal -0.218147 -0.975916 -0
    outer loop
      vertex 9.06309 0.088563 13.75
      vertex 8.75655 0.157084 10
      vertex 9.06309 0.088563 10
    endloop
  endfacet
  facet normal -0.338745 -0.940878 0
    outer loop
      vertex 8.15938 0.351117 10
      vertex 8.45491 0.244717 13.75
      vertex 8.15938 0.351117 13.75
    endloop
  endfacet
  facet normal -0.338745 -0.940878 -0
    outer loop
      vertex 8.45491 0.244717 13.75
      vertex 8.15938 0.351117 10
      vertex 8.45491 0.244717 10
    endloop
  endfacet
  facet normal -0.612907 -0.790155 0
    outer loop
      vertex 6.81288 1.14743 10
      vertex 7.06107 0.954914 13.75
      vertex 6.81288 1.14743 13.75
    endloop
  endfacet
  facet normal -0.612907 -0.790155 -0
    outer loop
      vertex 7.06107 0.954914 13.75
      vertex 6.81288 1.14743 10
      vertex 7.06107 0.954914 10
    endloop
  endfacet
  facet normal -0.827095 -0.562062 0
    outer loop
      vertex 5.95491 2.06107 10
      vertex 5.77836 2.32087 13.75
      vertex 5.77836 2.32087 10
    endloop
  endfacet
  facet normal -0.827095 -0.562062 0
    outer loop
      vertex 5.77836 2.32087 13.75
      vertex 5.95491 2.06107 10
      vertex 5.95491 2.06107 13.75
    endloop
  endfacet
  facet normal 0.97593 -0.218083 0
    outer loop
      vertex 14.8429 3.75655 13.75
      vertex 14.9114 4.06309 10
      vertex 14.9114 4.06309 13.75
    endloop
  endfacet
  facet normal 0.97593 -0.218083 0
    outer loop
      vertex 14.9114 4.06309 10
      vertex 14.8429 3.75655 13.75
      vertex 14.8429 3.75655 10
    endloop
  endfacet
  facet normal 0.940878 -0.338745 0
    outer loop
      vertex 14.6489 3.15938 13.75
      vertex 14.7553 3.45491 10
      vertex 14.7553 3.45491 13.75
    endloop
  endfacet
  facet normal 0.940878 -0.338745 0
    outer loop
      vertex 14.7553 3.45491 10
      vertex 14.6489 3.15938 13.75
      vertex 14.6489 3.15938 10
    endloop
  endfacet
  facet normal 0.79018 -0.612875 0
    outer loop
      vertex 13.8526 1.81288 13.75
      vertex 14.0451 2.06107 10
      vertex 14.0451 2.06107 13.75
    endloop
  endfacet
  facet normal 0.79018 -0.612875 0
    outer loop
      vertex 14.0451 2.06107 10
      vertex 13.8526 1.81288 13.75
      vertex 13.8526 1.81288 10
    endloop
  endfacet
  facet normal 0.860729 -0.509064 0
    outer loop
      vertex 14.2216 2.32087 13.75
      vertex 14.3815 2.59123 10
      vertex 14.3815 2.59123 13.75
    endloop
  endfacet
  facet normal 0.860729 -0.509064 0
    outer loop
      vertex 14.3815 2.59123 10
      vertex 14.2216 2.32087 13.75
      vertex 14.2216 2.32087 10
    endloop
  endfacet
endsolid OpenSCAD_Model
