solid OpenSCAD_Model
  facet normal -1 0 0
    outer loop
      vertex 0 0 0
      vertex 0 20 10
      vertex 0 20 0
    endloop
  endfacet
  facet normal -1 -0 0
    outer loop
      vertex 0 20 10
      vertex 0 0 0
      vertex 0 0 10
    endloop
  endfacet
  facet normal -0 0 1
    outer loop
      vertex 12.5497 7.08205 10
      vertex 14.3333 6 10
      vertex 14.3333 20 10
    endloop
  endfacet
  facet normal 0 0 1
    outer loop
      vertex 14.3333 6 10
      vertex 13.9921 4.25116 10
      vertex 14 4 10
    endloop
  endfacet
  facet normal 0 0 1
    outer loop
      vertex 14.3333 6 10
      vertex 13.9685 4.50133 10
      vertex 13.9921 4.25116 10
    endloop
  endfacet
  facet normal 0 0 1
    outer loop
      vertex 14.3333 6 10
      vertex 13.9291 4.74953 10
      vertex 13.9685 4.50133 10
    endloop
  endfacet
  facet normal 0 0 1
    outer loop
      vertex 14.3333 6 10
      vertex 13.8743 4.99476 10
      vertex 13.9291 4.74953 10
    endloop
  endfacet
  facet normal 0 0 1
    outer loop
      vertex 14.3333 6 10
      vertex 13.8042 5.23607 10
      vertex 13.8743 4.99476 10
    endloop
  endfacet
  facet normal 0 0 1
    outer loop
      vertex 14.3333 6 10
      vertex 13.7191 5.4725 10
      vertex 13.8042 5.23607 10
    endloop
  endfacet
  facet normal 0 0 1
    outer loop
      vertex 14.3333 6 10
      vertex 13.6193 5.70312 10
      vertex 13.7191 5.4725 10
    endloop
  endfacet
  facet normal 0 0 1
    outer loop
      vertex 14.3333 6 10
      vertex 13.5052 5.92701 10
      vertex 13.6193 5.70312 10
    endloop
  endfacet
  facet normal 0 0 1
    outer loop
      vertex 14.3333 6 10
      vertex 13.3773 6.14331 10
      vertex 13.5052 5.92701 10
    endloop
  endfacet
  facet normal 0 0 1
    outer loop
      vertex 14.3333 6 10
      vertex 13.2361 6.35114 10
      vertex 13.3773 6.14331 10
    endloop
  endfacet
  facet normal 0 0 1
    outer loop
      vertex 14.3333 6 10
      vertex 13.0821 6.5497 10
      vertex 13.2361 6.35114 10
    endloop
  endfacet
  facet normal 0 0 1
    outer loop
      vertex 14.3333 6 10
      vertex 12.9159 6.73819 10
      vertex 13.0821 6.5497 10
    endloop
  endfacet
  facet normal 0 0 1
    outer loop
      vertex 14.3333 6 10
      vertex 12.7382 6.91587 10
      vertex 12.9159 6.73819 10
    endloop
  endfacet
  facet normal 0 0 1
    outer loop
      vertex 14.3333 6 10
      vertex 12.5497 7.08205 10
      vertex 12.7382 6.91587 10
    endloop
  endfacet
  facet normal 0 0 1
    outer loop
      vertex 14.3333 20 10
      vertex 12.3511 7.23607 10
      vertex 12.5497 7.08205 10
    endloop
  endfacet
  facet normal 0 0 1
    outer loop
      vertex 14.3333 20 10
      vertex 12.1433 7.37731 10
      vertex 12.3511 7.23607 10
    endloop
  endfacet
  facet normal 0 0 1
    outer loop
      vertex 14.3333 20 10
      vertex 11.927 7.50523 10
      vertex 12.1433 7.37731 10
    endloop
  endfacet
  facet normal 0 0 1
    outer loop
      vertex 14.3333 20 10
      vertex 11.7031 7.61931 10
      vertex 11.927 7.50523 10
    endloop
  endfacet
  facet normal 0 0 1
    outer loop
      vertex 14.3333 20 10
      vertex 11.4725 7.71911 10
      vertex 11.7031 7.61931 10
    endloop
  endfacet
  facet normal 0 0 1
    outer loop
      vertex 11.3333 7.76921 10
      vertex 14.3333 20 10
      vertex 11.3333 20 10
    endloop
  endfacet
  facet normal 0 0 1
    outer loop
      vertex 14.3333 20 10
      vertex 11.3333 7.76921 10
      vertex 11.4725 7.71911 10
    endloop
  endfacet
  facet normal 0 0 1
    outer loop
      vertex 17 6 10
      vertex 20 20 10
      vertex 17 20 10
    endloop
  endfacet
  facet normal 0 0 1
    outer loop
      vertex 20 20 10
      vertex 17 6 10
      vertex 20 0 10
    endloop
  endfacet
  facet normal 0 0 1
    outer loop
      vertex 14 4 10
      vertex 17 6 10
      vertex 14.3333 6 10
    endloop
  endfacet
  facet normal 0 0 1
    outer loop
      vertex 13.9921 3.74884 10
      vertex 17 6 10
      vertex 14 4 10
    endloop
  endfacet
  facet normal 0 0 1
    outer loop
      vertex 13.9685 3.49867 10
      vertex 17 6 10
      vertex 13.9921 3.74884 10
    endloop
  endfacet
  facet normal 0 0 1
    outer loop
      vertex 13.9291 3.25047 10
      vertex 17 6 10
      vertex 13.9685 3.49867 10
    endloop
  endfacet
  facet normal 0 0 1
    outer loop
      vertex 17 6 10
      vertex 13.9291 3.25047 10
      vertex 20 0 10
    endloop
  endfacet
  facet normal -0 0 1
    outer loop
      vertex 13.8743 3.00524 10
      vertex 20 0 10
      vertex 13.9291 3.25047 10
    endloop
  endfacet
  facet normal -0 0 1
    outer loop
      vertex 13.8042 2.76393 10
      vertex 20 0 10
      vertex 13.8743 3.00524 10
    endloop
  endfacet
  facet normal -0 0 1
    outer loop
      vertex 13.7191 2.5275 10
      vertex 20 0 10
      vertex 13.8042 2.76393 10
    endloop
  endfacet
  facet normal -0 0 1
    outer loop
      vertex 13.6193 2.29688 10
      vertex 20 0 10
      vertex 13.7191 2.5275 10
    endloop
  endfacet
  facet normal -0 0 1
    outer loop
      vertex 13.5052 2.07298 10
      vertex 20 0 10
      vertex 13.6193 2.29688 10
    endloop
  endfacet
  facet normal -0 0 1
    outer loop
      vertex 13.3773 1.85669 10
      vertex 20 0 10
      vertex 13.5052 2.07298 10
    endloop
  endfacet
  facet normal -0 0 1
    outer loop
      vertex 13.2361 1.64886 10
      vertex 20 0 10
      vertex 13.3773 1.85669 10
    endloop
  endfacet
  facet normal -0 0 1
    outer loop
      vertex 13.0821 1.4503 10
      vertex 20 0 10
      vertex 13.2361 1.64886 10
    endloop
  endfacet
  facet normal -0 0 1
    outer loop
      vertex 12.9159 1.26181 10
      vertex 20 0 10
      vertex 13.0821 1.4503 10
    endloop
  endfacet
  facet normal -0 0 1
    outer loop
      vertex 12.7382 1.08412 10
      vertex 20 0 10
      vertex 12.9159 1.26181 10
    endloop
  endfacet
  facet normal -0 0 1
    outer loop
      vertex 12.5497 0.917947 10
      vertex 20 0 10
      vertex 12.7382 1.08412 10
    endloop
  endfacet
  facet normal -0 0 1
    outer loop
      vertex 12.3511 0.763931 10
      vertex 20 0 10
      vertex 12.5497 0.917947 10
    endloop
  endfacet
  facet normal -0 0 1
    outer loop
      vertex 12.1433 0.622688 10
      vertex 20 0 10
      vertex 12.3511 0.763931 10
    endloop
  endfacet
  facet normal -0 0 1
    outer loop
      vertex 11.927 0.494773 10
      vertex 20 0 10
      vertex 12.1433 0.622688 10
    endloop
  endfacet
  facet normal -0 0 1
    outer loop
      vertex 11.7031 0.380692 10
      vertex 20 0 10
      vertex 11.927 0.494773 10
    endloop
  endfacet
  facet normal -0 0 1
    outer loop
      vertex 11.4725 0.280893 10
      vertex 20 0 10
      vertex 11.7031 0.380692 10
    endloop
  endfacet
  facet normal -0 0 1
    outer loop
      vertex 11.2361 0.195773 10
      vertex 20 0 10
      vertex 11.4725 0.280893 10
    endloop
  endfacet
  facet normal -0 0 1
    outer loop
      vertex 10.9948 0.125667 10
      vertex 20 0 10
      vertex 11.2361 0.195773 10
    endloop
  endfacet
  facet normal -0 0 1
    outer loop
      vertex 10.7495 0.0708504 10
      vertex 20 0 10
      vertex 10.9948 0.125667 10
    endloop
  endfacet
  facet normal -0 0 1
    outer loop
      vertex 10.5013 0.0315409 10
      vertex 20 0 10
      vertex 10.7495 0.0708504 10
    endloop
  endfacet
  facet normal -0 0 1
    outer loop
      vertex 10.2512 0.00789261 10
      vertex 20 0 10
      vertex 10.5013 0.0315409 10
    endloop
  endfacet
  facet normal 0 0 1
    outer loop
      vertex 20 0 10
      vertex 10.2512 0.00789261 10
      vertex 10 0 10
    endloop
  endfacet
  facet normal 0 0 1
    outer loop
      vertex 3 20 10
      vertex 0 20 10
      vertex 3 6 10
    endloop
  endfacet
  facet normal -0 0 1
    outer loop
      vertex 5.66667 20 10
      vertex 8.66667 7.76921 10
      vertex 8.66667 20 10
    endloop
  endfacet
  facet normal 0 0 1
    outer loop
      vertex 8.66667 7.76921 10
      vertex 5.66667 20 10
      vertex 8.5275 7.71911 10
    endloop
  endfacet
  facet normal 0 0 1
    outer loop
      vertex 8.5275 7.71911 10
      vertex 5.66667 20 10
      vertex 8.29688 7.61931 10
    endloop
  endfacet
  facet normal 0 0 1
    outer loop
      vertex 8.29688 7.61931 10
      vertex 5.66667 20 10
      vertex 8.07298 7.50523 10
    endloop
  endfacet
  facet normal 0 0 1
    outer loop
      vertex 8.07298 7.50523 10
      vertex 5.66667 20 10
      vertex 7.85669 7.37731 10
    endloop
  endfacet
  facet normal 0 0 1
    outer loop
      vertex 7.85669 7.37731 10
      vertex 5.66667 20 10
      vertex 7.64886 7.23607 10
    endloop
  endfacet
  facet normal 0 0 1
    outer loop
      vertex 7.64886 7.23607 10
      vertex 5.66667 20 10
      vertex 7.4503 7.08205 10
    endloop
  endfacet
  facet normal 0 0 1
    outer loop
      vertex 5.66667 6 10
      vertex 7.4503 7.08205 10
      vertex 5.66667 20 10
    endloop
  endfacet
  facet normal 0 0 1
    outer loop
      vertex 7.4503 7.08205 10
      vertex 5.66667 6 10
      vertex 7.26181 6.91587 10
    endloop
  endfacet
  facet normal 0 0 1
    outer loop
      vertex 7.26181 6.91587 10
      vertex 5.66667 6 10
      vertex 7.08412 6.73819 10
    endloop
  endfacet
  facet normal 0 0 1
    outer loop
      vertex 7.08412 6.73819 10
      vertex 5.66667 6 10
      vertex 6.91795 6.5497 10
    endloop
  endfacet
  facet normal 0 0 1
    outer loop
      vertex 6.91795 6.5497 10
      vertex 5.66667 6 10
      vertex 6.76393 6.35114 10
    endloop
  endfacet
  facet normal 0 0 1
    outer loop
      vertex 6.76393 6.35114 10
      vertex 5.66667 6 10
      vertex 6.62269 6.14331 10
    endloop
  endfacet
  facet normal 0 0 1
    outer loop
      vertex 6.49477 5.92701 10
      vertex 5.66667 6 10
      vertex 6.38069 5.70312 10
    endloop
  endfacet
  facet normal 0 0 1
    outer loop
      vertex 6.38069 5.70312 10
      vertex 5.66667 6 10
      vertex 6.28089 5.4725 10
    endloop
  endfacet
  facet normal 0 0 1
    outer loop
      vertex 6.28089 5.4725 10
      vertex 5.66667 6 10
      vertex 6.19577 5.23607 10
    endloop
  endfacet
  facet normal 0 0 1
    outer loop
      vertex 6.19577 5.23607 10
      vertex 5.66667 6 10
      vertex 6.12567 4.99476 10
    endloop
  endfacet
  facet normal -0 0 1
    outer loop
      vertex 3 6 10
      vertex 6.03154 4.50133 10
      vertex 5.66667 6 10
    endloop
  endfacet
  facet normal 0 0 1
    outer loop
      vertex 6.07085 4.74953 10
      vertex 5.66667 6 10
      vertex 6.03154 4.50133 10
    endloop
  endfacet
  facet normal 0 0 1
    outer loop
      vertex 6.12567 4.99476 10
      vertex 5.66667 6 10
      vertex 6.07085 4.74953 10
    endloop
  endfacet
  facet normal 0 0 1
    outer loop
      vertex 6.62269 6.14331 10
      vertex 5.66667 6 10
      vertex 6.49477 5.92701 10
    endloop
  endfacet
  facet normal 0 0 1
    outer loop
      vertex 6.03154 4.50133 10
      vertex 3 6 10
      vertex 6.00789 4.25116 10
    endloop
  endfacet
  facet normal 0 0 1
    outer loop
      vertex 6.00789 4.25116 10
      vertex 3 6 10
      vertex 6 4 10
    endloop
  endfacet
  facet normal 0 0 1
    outer loop
      vertex 6 4 10
      vertex 3 6 10
      vertex 6.00789 3.74884 10
    endloop
  endfacet
  facet normal 0 0 1
    outer loop
      vertex 6.00789 3.74884 10
      vertex 3 6 10
      vertex 6.03154 3.49867 10
    endloop
  endfacet
  facet normal 0 0 1
    outer loop
      vertex 3 6 10
      vertex 6.07085 3.25047 10
      vertex 6.03154 3.49867 10
    endloop
  endfacet
  facet normal 0 0 1
    outer loop
      vertex 0 0 10
      vertex 6.07085 3.25047 10
      vertex 3 6 10
    endloop
  endfacet
  facet normal 0 0 1
    outer loop
      vertex 6.07085 3.25047 10
      vertex 0 0 10
      vertex 6.12567 3.00524 10
    endloop
  endfacet
  facet normal 0 0 1
    outer loop
      vertex 6.12567 3.00524 10
      vertex 0 0 10
      vertex 6.19577 2.76393 10
    endloop
  endfacet
  facet normal 0 0 1
    outer loop
      vertex 6.19577 2.76393 10
      vertex 0 0 10
      vertex 6.28089 2.5275 10
    endloop
  endfacet
  facet normal 0 0 1
    outer loop
      vertex 6.28089 2.5275 10
      vertex 0 0 10
      vertex 6.38069 2.29688 10
    endloop
  endfacet
  facet normal 0 0 1
    outer loop
      vertex 6.38069 2.29688 10
      vertex 0 0 10
      vertex 6.49477 2.07298 10
    endloop
  endfacet
  facet normal 0 0 1
    outer loop
      vertex 6.49477 2.07298 10
      vertex 0 0 10
      vertex 6.62269 1.85669 10
    endloop
  endfacet
  facet normal 0 0 1
    outer loop
      vertex 6.62269 1.85669 10
      vertex 0 0 10
      vertex 6.76393 1.64886 10
    endloop
  endfacet
  facet normal 0 0 1
    outer loop
      vertex 9.74884 0.00789261 10
      vertex 0 0 10
      vertex 10 0 10
    endloop
  endfacet
  facet normal 0 0 1
    outer loop
      vertex 9.49867 0.0315409 10
      vertex 0 0 10
      vertex 9.74884 0.00789261 10
    endloop
  endfacet
  facet normal 0 0 1
    outer loop
      vertex 9.25047 0.0708504 10
      vertex 0 0 10
      vertex 9.49867 0.0315409 10
    endloop
  endfacet
  facet normal 0 0 1
    outer loop
      vertex 9.00524 0.125667 10
      vertex 0 0 10
      vertex 9.25047 0.0708504 10
    endloop
  endfacet
  facet normal 0 0 1
    outer loop
      vertex 8.76393 0.195773 10
      vertex 0 0 10
      vertex 9.00524 0.125667 10
    endloop
  endfacet
  facet normal 0 0 1
    outer loop
      vertex 8.5275 0.280893 10
      vertex 0 0 10
      vertex 8.76393 0.195773 10
    endloop
  endfacet
  facet normal 0 0 1
    outer loop
      vertex 8.29688 0.380692 10
      vertex 0 0 10
      vertex 8.5275 0.280893 10
    endloop
  endfacet
  facet normal 0 0 1
    outer loop
      vertex 8.07298 0.494773 10
      vertex 0 0 10
      vertex 8.29688 0.380692 10
    endloop
  endfacet
  facet normal 0 0 1
    outer loop
      vertex 7.85669 0.622688 10
      vertex 0 0 10
      vertex 8.07298 0.494773 10
    endloop
  endfacet
  facet normal 0 0 1
    outer loop
      vertex 7.64886 0.763931 10
      vertex 0 0 10
      vertex 7.85669 0.622688 10
    endloop
  endfacet
  facet normal 0 0 1
    outer loop
      vertex 7.4503 0.917947 10
      vertex 0 0 10
      vertex 7.64886 0.763931 10
    endloop
  endfacet
  facet normal 0 0 1
    outer loop
      vertex 7.26181 1.08412 10
      vertex 0 0 10
      vertex 7.4503 0.917947 10
    endloop
  endfacet
  facet normal 0 0 1
    outer loop
      vertex 7.08412 1.26181 10
      vertex 0 0 10
      vertex 7.26181 1.08412 10
    endloop
  endfacet
  facet normal 0 0 1
    outer loop
      vertex 6.91795 1.4503 10
      vertex 0 0 10
      vertex 7.08412 1.26181 10
    endloop
  endfacet
  facet normal 0 0 1
    outer loop
      vertex 6.76393 1.64886 10
      vertex 0 0 10
      vertex 6.91795 1.4503 10
    endloop
  endfacet
  facet normal 0 0 1
    outer loop
      vertex 0 0 10
      vertex 3 6 10
      vertex 0 20 10
    endloop
  endfacet
  facet normal 1 -0 0
    outer loop
      vertex 3 6 10
      vertex 3 20 0
      vertex 3 20 10
    endloop
  endfacet
  facet normal 1 0 0
    outer loop
      vertex 3 20 0
      vertex 3 6 10
      vertex 3 6 0
    endloop
  endfacet
  facet normal 0 0 -1
    outer loop
      vertex 20 0 0
      vertex 17 6 0
      vertex 20 20 0
    endloop
  endfacet
  facet normal 0 0 -1
    outer loop
      vertex 20 0 0
      vertex 14.3333 6 0
      vertex 17 6 0
    endloop
  endfacet
  facet normal 0 0 -1
    outer loop
      vertex 14.3333 6 0
      vertex 11.3333 7.76921 0
      vertex 14.3333 20 0
    endloop
  endfacet
  facet normal 0 0 -1
    outer loop
      vertex 5.66667 6 0
      vertex 14.3333 6 0
      vertex 20 0 0
    endloop
  endfacet
  facet normal 0 0 -1
    outer loop
      vertex 14.3333 6 0
      vertex 5.66667 6 0
      vertex 11.3333 7.76921 0
    endloop
  endfacet
  facet normal 0 -0 -1
    outer loop
      vertex 8.66667 7.76921 0
      vertex 11.3333 7.76921 0
      vertex 5.66667 6 0
    endloop
  endfacet
  facet normal 0 -0 -1
    outer loop
      vertex 10.9948 7.87433 0
      vertex 11.3333 7.76921 0
      vertex 8.66667 7.76921 0
    endloop
  endfacet
  facet normal 0 0 -1
    outer loop
      vertex 11.3333 7.76921 0
      vertex 10.9948 7.87433 0
      vertex 11.2361 7.80423 0
    endloop
  endfacet
  facet normal -0 0 -1
    outer loop
      vertex 10.9948 7.87433 0
      vertex 8.66667 7.76921 0
      vertex 10.7495 7.92915 0
    endloop
  endfacet
  facet normal -0 0 -1
    outer loop
      vertex 10.7495 7.92915 0
      vertex 8.66667 7.76921 0
      vertex 10.5013 7.96846 0
    endloop
  endfacet
  facet normal -0 0 -1
    outer loop
      vertex 10.5013 7.96846 0
      vertex 8.66667 7.76921 0
      vertex 10.2512 7.99211 0
    endloop
  endfacet
  facet normal -0 0 -1
    outer loop
      vertex 10.2512 7.99211 0
      vertex 8.66667 7.76921 0
      vertex 10 8 0
    endloop
  endfacet
  facet normal 0 0 -1
    outer loop
      vertex 10 8 0
      vertex 8.66667 7.76921 0
      vertex 9.74884 7.99211 0
    endloop
  endfacet
  facet normal 0 0 -1
    outer loop
      vertex 9.74884 7.99211 0
      vertex 8.66667 7.76921 0
      vertex 9.49867 7.96846 0
    endloop
  endfacet
  facet normal 0 0 -1
    outer loop
      vertex 9.25047 7.92915 0
      vertex 8.66667 7.76921 0
      vertex 9.00524 7.87433 0
    endloop
  endfacet
  facet normal 0 0 -1
    outer loop
      vertex 9.00524 7.87433 0
      vertex 8.66667 7.76921 0
      vertex 8.76393 7.80423 0
    endloop
  endfacet
  facet normal 0 0 -1
    outer loop
      vertex 5.66667 20 0
      vertex 8.66667 7.76921 0
      vertex 5.66667 6 0
    endloop
  endfacet
  facet normal 0 0 -1
    outer loop
      vertex 9.49867 7.96846 0
      vertex 8.66667 7.76921 0
      vertex 9.25047 7.92915 0
    endloop
  endfacet
  facet normal 0 0 -1
    outer loop
      vertex 0 0 0
      vertex 5.66667 6 0
      vertex 20 0 0
    endloop
  endfacet
  facet normal -0 0 -1
    outer loop
      vertex 5.66667 6 0
      vertex 0 0 0
      vertex 3 6 0
    endloop
  endfacet
  facet normal 0 0 -1
    outer loop
      vertex 0 20 0
      vertex 3 6 0
      vertex 0 0 0
    endloop
  endfacet
  facet normal 0 0 -1
    outer loop
      vertex 3 6 0
      vertex 0 20 0
      vertex 3 20 0
    endloop
  endfacet
  facet normal -0 0 -1
    outer loop
      vertex 20 20 0
      vertex 17 6 0
      vertex 17 20 0
    endloop
  endfacet
  facet normal -0 0 -1
    outer loop
      vertex 14.3333 20 0
      vertex 11.3333 7.76921 0
      vertex 11.3333 20 0
    endloop
  endfacet
  facet normal 0 0 -1
    outer loop
      vertex 8.66667 7.76921 0
      vertex 5.66667 20 0
      vertex 8.66667 20 0
    endloop
  endfacet
  facet normal 0 1 -0
    outer loop
      vertex 5.66667 6 0
      vertex 3 6 10
      vertex 5.66667 6 10
    endloop
  endfacet
  facet normal 0 1 0
    outer loop
      vertex 3 6 10
      vertex 5.66667 6 0
      vertex 3 6 0
    endloop
  endfacet
  facet normal 0 1 -0
    outer loop
      vertex 17 6 0
      vertex 14.3333 6 10
      vertex 17 6 10
    endloop
  endfacet
  facet normal 0 1 0
    outer loop
      vertex 14.3333 6 10
      vertex 17 6 0
      vertex 14.3333 6 0
    endloop
  endfacet
  facet normal 0 1 -0
    outer loop
      vertex 3 20 0
      vertex 0 20 10
      vertex 3 20 10
    endloop
  endfacet
  facet normal 0 1 0
    outer loop
      vertex 0 20 10
      vertex 3 20 0
      vertex 0 20 0
    endloop
  endfacet
  facet normal -1 0 0
    outer loop
      vertex 5.66667 6 0
      vertex 5.66667 20 10
      vertex 5.66667 20 0
    endloop
  endfacet
  facet normal -1 -0 0
    outer loop
      vertex 5.66667 20 10
      vertex 5.66667 6 0
      vertex 5.66667 6 10
    endloop
  endfacet
  facet normal 1 -0 0
    outer loop
      vertex 8.66667 7.76921 10
      vertex 8.66667 20 0
      vertex 8.66667 20 10
    endloop
  endfacet
  facet normal 1 0 0
    outer loop
      vertex 8.66667 20 0
      vertex 8.66667 7.76921 10
      vertex 8.66667 7.76921 0
    endloop
  endfacet
  facet normal 0 1 -0
    outer loop
      vertex 8.66667 20 0
      vertex 5.66667 20 10
      vertex 8.66667 20 10
    endloop
  endfacet
  facet normal 0 1 0
    outer loop
      vertex 5.66667 20 10
      vertex 8.66667 20 0
      vertex 5.66667 20 0
    endloop
  endfacet
  facet normal -1 0 0
    outer loop
      vertex 11.3333 7.76921 0
      vertex 11.3333 20 10
      vertex 11.3333 20 0
    endloop
  endfacet
  facet normal -1 -0 0
    outer loop
      vertex 11.3333 20 10
      vertex 11.3333 7.76921 0
      vertex 11.3333 7.76921 10
    endloop
  endfacet
  facet normal 1 -0 0
    outer loop
      vertex 14.3333 6 10
      vertex 14.3333 20 0
      vertex 14.3333 20 10
    endloop
  endfacet
  facet normal 1 0 0
    outer loop
      vertex 14.3333 20 0
      vertex 14.3333 6 10
      vertex 14.3333 6 0
    endloop
  endfacet
  facet normal 0 1 -0
    outer loop
      vertex 14.3333 20 0
      vertex 11.3333 20 10
      vertex 14.3333 20 10
    endloop
  endfacet
  facet normal 0 1 0
    outer loop
      vertex 11.3333 20 10
      vertex 14.3333 20 0
      vertex 11.3333 20 0
    endloop
  endfacet
  facet normal -1 0 0
    outer loop
      vertex 17 6 0
      vertex 17 20 10
      vertex 17 20 0
    endloop
  endfacet
  facet normal -1 -0 0
    outer loop
      vertex 17 20 10
      vertex 17 6 0
      vertex 17 6 10
    endloop
  endfacet
  facet normal 1 -0 0
    outer loop
      vertex 20 0 10
      vertex 20 20 0
      vertex 20 20 10
    endloop
  endfacet
  facet normal 1 0 0
    outer loop
      vertex 20 20 0
      vertex 20 0 10
      vertex 20 0 0
    endloop
  endfacet
  facet normal 0 1 -0
    outer loop
      vertex 20 20 0
      vertex 17 20 10
      vertex 20 20 10
    endloop
  endfacet
  facet normal 0 1 0
    outer loop
      vertex 17 20 10
      vertex 20 20 0
      vertex 17 20 0
    endloop
  endfacet
  facet normal 0 -1 0
    outer loop
      vertex 0 0 0
      vertex 10 0 10
      vertex 0 0 10
    endloop
  endfacet
  facet normal 0 -1 0
    outer loop
      vertex 20 0 0
      vertex 10 0 10
      vertex 0 0 0
    endloop
  endfacet
  facet normal 0 -1 0
    outer loop
      vertex 10 0 10
      vertex 20 0 0
      vertex 20 0 10
    endloop
  endfacet
  facet normal -0.397154 0.917752 0
    outer loop
      vertex 8.5275 7.71911 10
      vertex 8.29688 7.61931 13.85
      vertex 8.5275 7.71911 13.85
    endloop
  endfacet
  facet normal -0.397154 0.917752 0
    outer loop
      vertex 8.29688 7.61931 13.85
      vertex 8.5275 7.71911 10
      vertex 8.29688 7.61931 10
    endloop
  endfacet
  facet normal -0.940881 0.338738 0
    outer loop
      vertex 6.19577 5.23607 10
      vertex 6.28089 5.4725 13.85
      vertex 6.28089 5.4725 10
    endloop
  endfacet
  facet normal -0.940881 0.338738 0
    outer loop
      vertex 6.28089 5.4725 13.85
      vertex 6.19577 5.23607 10
      vertex 6.19577 5.23607 13.85
    endloop
  endfacet
  facet normal -0.891011 -0.453982 0
    outer loop
      vertex 6.49477 2.07298 10
      vertex 6.38069 2.29688 13.85
      vertex 6.38069 2.29688 10
    endloop
  endfacet
  facet normal -0.891011 -0.453982 0
    outer loop
      vertex 6.38069 2.29688 13.85
      vertex 6.49477 2.07298 10
      vertex 6.49477 2.07298 13.85
    endloop
  endfacet
  facet normal 0.97593 0.218085 0
    outer loop
      vertex 13.9291 4.74953 13.85
      vertex 13.8743 4.99476 10
      vertex 13.8743 4.99476 13.85
    endloop
  endfacet
  facet normal 0.97593 0.218085 0
    outer loop
      vertex 13.8743 4.99476 10
      vertex 13.9291 4.74953 13.85
      vertex 13.9291 4.74953 10
    endloop
  endfacet
  facet normal 0.960301 0.278965 0
    outer loop
      vertex 13.8743 4.99476 13.85
      vertex 13.8042 5.23607 10
      vertex 13.8042 5.23607 13.85
    endloop
  endfacet
  facet normal 0.960301 0.278965 0
    outer loop
      vertex 13.8042 5.23607 10
      vertex 13.8743 4.99476 13.85
      vertex 13.8743 4.99476 10
    endloop
  endfacet
  facet normal 0.790191 0.61286 0
    outer loop
      vertex 13.2361 6.35114 13.85
      vertex 13.0821 6.5497 10
      vertex 13.0821 6.5497 13.85
    endloop
  endfacet
  facet normal 0.790191 0.61286 0
    outer loop
      vertex 13.0821 6.5497 10
      vertex 13.2361 6.35114 13.85
      vertex 13.2361 6.35114 10
    endloop
  endfacet
  facet normal 0.453982 0.891011 -0
    outer loop
      vertex 11.927 7.50523 10
      vertex 11.7031 7.61931 13.85
      vertex 11.927 7.50523 13.85
    endloop
  endfacet
  facet normal 0.453982 0.891011 0
    outer loop
      vertex 11.7031 7.61931 13.85
      vertex 11.927 7.50523 10
      vertex 11.7031 7.61931 10
    endloop
  endfacet
  facet normal -0.999507 0.0313987 0
    outer loop
      vertex 6 4 10
      vertex 6.00789 4.25116 13.85
      vertex 6.00789 4.25116 10
    endloop
  endfacet
  facet normal -0.999507 0.0313987 0
    outer loop
      vertex 6.00789 4.25116 13.85
      vertex 6 4 10
      vertex 6 4 13.85
    endloop
  endfacet
  facet normal -0.61291 0.790153 0
    outer loop
      vertex 7.64886 7.23607 10
      vertex 7.4503 7.08205 13.85
      vertex 7.64886 7.23607 13.85
    endloop
  endfacet
  facet normal -0.61291 0.790153 0
    outer loop
      vertex 7.4503 7.08205 13.85
      vertex 7.64886 7.23607 10
      vertex 7.4503 7.08205 10
    endloop
  endfacet
  facet normal 0.750064 -0.661365 0
    outer loop
      vertex 12.9159 1.26181 13.85
      vertex 13.0821 1.4503 10
      vertex 13.0821 1.4503 13.85
    endloop
  endfacet
  facet normal 0.750064 -0.661365 0
    outer loop
      vertex 13.0821 1.4503 10
      vertex 12.9159 1.26181 13.85
      vertex 12.9159 1.26181 10
    endloop
  endfacet
  facet normal 0.278998 -0.960292 0
    outer loop
      vertex 10.9948 0.125667 10
      vertex 11.2361 0.195773 13.85
      vertex 10.9948 0.125667 13.85
    endloop
  endfacet
  facet normal 0.278998 -0.960292 0
    outer loop
      vertex 11.2361 0.195773 13.85
      vertex 10.9948 0.125667 10
      vertex 11.2361 0.195773 10
    endloop
  endfacet
  facet normal 0.707087 -0.707127 0
    outer loop
      vertex 12.7382 1.08412 13.85
      vertex 12.9159 1.26181 10
      vertex 12.9159 1.26181 13.85
    endloop
  endfacet
  facet normal 0.707087 -0.707127 0
    outer loop
      vertex 12.9159 1.26181 10
      vertex 12.7382 1.08412 13.85
      vertex 12.7382 1.08412 10
    endloop
  endfacet
  facet normal -0.0314091 -0.999507 0
    outer loop
      vertex 9.74884 0.00789261 10
      vertex 10 0 13.85
      vertex 9.74884 0.00789261 13.85
    endloop
  endfacet
  facet normal -0.0314091 -0.999507 -0
    outer loop
      vertex 10 0 13.85
      vertex 9.74884 0.00789261 10
      vertex 10 0 10
    endloop
  endfacet
  facet normal -0.509046 -0.860739 0
    outer loop
      vertex 7.85669 0.622688 10
      vertex 8.07298 0.494773 13.85
      vertex 7.85669 0.622688 13.85
    endloop
  endfacet
  facet normal -0.509046 -0.860739 -0
    outer loop
      vertex 8.07298 0.494773 13.85
      vertex 7.85669 0.622688 10
      vertex 8.07298 0.494773 10
    endloop
  endfacet
  facet normal 0.917752 0.397154 0
    outer loop
      vertex 13.7191 5.4725 13.85
      vertex 13.6193 5.70312 10
      vertex 13.6193 5.70312 13.85
    endloop
  endfacet
  facet normal 0.917752 0.397154 0
    outer loop
      vertex 13.6193 5.70312 10
      vertex 13.7191 5.4725 13.85
      vertex 13.7191 5.4725 10
    endloop
  endfacet
  facet normal 0.890971 0.454061 0
    outer loop
      vertex 13.6193 5.70312 13.85
      vertex 13.5052 5.92701 10
      vertex 13.5052 5.92701 13.85
    endloop
  endfacet
  facet normal 0.890971 0.454061 0
    outer loop
      vertex 13.5052 5.92701 10
      vertex 13.6193 5.70312 13.85
      vertex 13.6193 5.70312 10
    endloop
  endfacet
  facet normal 0.707067 0.707147 0
    outer loop
      vertex 12.9159 6.73819 13.85
      vertex 12.7382 6.91587 10
      vertex 12.7382 6.91587 13.85
    endloop
  endfacet
  facet normal 0.707067 0.707147 0
    outer loop
      vertex 12.7382 6.91587 10
      vertex 12.9159 6.73819 13.85
      vertex 12.9159 6.73819 10
    endloop
  endfacet
  facet normal -0.0313987 0.999507 0
    outer loop
      vertex 10 8 0
      vertex 9.74884 7.99211 13.85
      vertex 10 8 13.85
    endloop
  endfacet
  facet normal -0.0313987 0.999507 0
    outer loop
      vertex 9.74884 7.99211 13.85
      vertex 10 8 0
      vertex 9.74884 7.99211 0
    endloop
  endfacet
  facet normal 0.562136 0.827045 -0
    outer loop
      vertex 12.3511 7.23607 10
      vertex 12.1433 7.37731 13.85
      vertex 12.3511 7.23607 13.85
    endloop
  endfacet
  facet normal 0.562136 0.827045 0
    outer loop
      vertex 12.1433 7.37731 13.85
      vertex 12.3511 7.23607 10
      vertex 12.1433 7.37731 10
    endloop
  endfacet
  facet normal 0.338648 0.940913 0
    outer loop
      vertex 11.3333 7.76921 10
      vertex 11.4725 7.71911 13.85
      vertex 11.4725 7.71911 10
    endloop
  endfacet
  facet normal 0.338776 0.940867 -5.23497e-06
    outer loop
      vertex 11.4725 7.71911 13.85
      vertex 11.3333 7.76921 10
      vertex 11.2361 7.80423 13.85
    endloop
  endfacet
  facet normal 0.338959 0.940801 0
    outer loop
      vertex 11.2361 7.80423 0
      vertex 11.3333 7.76921 10
      vertex 11.3333 7.76921 0
    endloop
  endfacet
  facet normal 0.338959 0.940801 0
    outer loop
      vertex 11.3333 7.76921 10
      vertex 11.2361 7.80423 0
      vertex 11.2361 7.80423 13.85
    endloop
  endfacet
  facet normal 0.156431 0.987689 -0
    outer loop
      vertex 10.7495 7.92915 0
      vertex 10.5013 7.96846 13.85
      vertex 10.7495 7.92915 13.85
    endloop
  endfacet
  facet normal 0.156431 0.987689 0
    outer loop
      vertex 10.5013 7.96846 13.85
      vertex 10.7495 7.92915 0
      vertex 10.5013 7.96846 0
    endloop
  endfacet
  facet normal 0.0313938 0.999507 -0
    outer loop
      vertex 10.2512 7.99211 0
      vertex 10 8 13.85
      vertex 10.2512 7.99211 13.85
    endloop
  endfacet
  facet normal 0.0313938 0.999507 0
    outer loop
      vertex 10 8 13.85
      vertex 10.2512 7.99211 0
      vertex 10 8 0
    endloop
  endfacet
  facet normal -0.987689 0.156431 0
    outer loop
      vertex 6.03154 4.50133 10
      vertex 6.07085 4.74953 13.85
      vertex 6.07085 4.74953 10
    endloop
  endfacet
  facet normal -0.987689 0.156431 0
    outer loop
      vertex 6.07085 4.74953 13.85
      vertex 6.03154 4.50133 10
      vertex 6.03154 4.50133 13.85
    endloop
  endfacet
  facet normal -0.790153 0.61291 0
    outer loop
      vertex 6.76393 6.35114 10
      vertex 6.91795 6.5497 13.85
      vertex 6.91795 6.5497 10
    endloop
  endfacet
  facet normal -0.790153 0.61291 0
    outer loop
      vertex 6.91795 6.5497 13.85
      vertex 6.76393 6.35114 10
      vertex 6.76393 6.35114 13.85
    endloop
  endfacet
  facet normal -0.917752 0.397154 0
    outer loop
      vertex 6.28089 5.4725 10
      vertex 6.38069 5.70312 13.85
      vertex 6.38069 5.70312 10
    endloop
  endfacet
  facet normal -0.917752 0.397154 0
    outer loop
      vertex 6.38069 5.70312 13.85
      vertex 6.28089 5.4725 10
      vertex 6.28089 5.4725 13.85
    endloop
  endfacet
  facet normal -0.156431 0.987689 0
    outer loop
      vertex 9.49867 7.96846 0
      vertex 9.25047 7.92915 13.85
      vertex 9.49867 7.96846 13.85
    endloop
  endfacet
  facet normal -0.156431 0.987689 0
    outer loop
      vertex 9.25047 7.92915 13.85
      vertex 9.49867 7.96846 0
      vertex 9.25047 7.92915 0
    endloop
  endfacet
  facet normal -0.338738 0.940881 -1.04129e-06
    outer loop
      vertex 8.76393 7.80423 13.85
      vertex 8.66667 7.76921 10
      vertex 8.5275 7.71911 13.85
    endloop
  endfacet
  facet normal -0.338774 0.940868 0
    outer loop
      vertex 8.76393 7.80423 0
      vertex 8.66667 7.76921 10
      vertex 8.76393 7.80423 13.85
    endloop
  endfacet
  facet normal -0.338774 0.940868 0
    outer loop
      vertex 8.66667 7.76921 10
      vertex 8.76393 7.80423 0
      vertex 8.66667 7.76921 0
    endloop
  endfacet
  facet normal -0.338712 0.94089 0
    outer loop
      vertex 8.5275 7.71911 13.85
      vertex 8.66667 7.76921 10
      vertex 8.5275 7.71911 10
    endloop
  endfacet
  facet normal -0.218161 0.975913 0
    outer loop
      vertex 9.25047 7.92915 0
      vertex 9.00524 7.87433 13.85
      vertex 9.25047 7.92915 13.85
    endloop
  endfacet
  facet normal -0.218161 0.975913 0
    outer loop
      vertex 9.00524 7.87433 13.85
      vertex 9.25047 7.92915 0
      vertex 9.00524 7.87433 0
    endloop
  endfacet
  facet normal -0.453982 0.891011 0
    outer loop
      vertex 8.29688 7.61931 10
      vertex 8.07298 7.50523 13.85
      vertex 8.29688 7.61931 13.85
    endloop
  endfacet
  facet normal -0.453982 0.891011 0
    outer loop
      vertex 8.07298 7.50523 13.85
      vertex 8.29688 7.61931 10
      vertex 8.07298 7.50523 10
    endloop
  endfacet
  facet normal -0.707087 0.707127 0
    outer loop
      vertex 7.08412 6.73819 10
      vertex 7.26181 6.91587 13.85
      vertex 7.26181 6.91587 10
    endloop
  endfacet
  facet normal -0.707087 0.707127 0
    outer loop
      vertex 7.26181 6.91587 13.85
      vertex 7.08412 6.73819 10
      vertex 7.08412 6.73819 13.85
    endloop
  endfacet
  facet normal 0.999506 0.0314385 0
    outer loop
      vertex 14 4 13.85
      vertex 13.9921 4.25116 10
      vertex 13.9921 4.25116 13.85
    endloop
  endfacet
  facet normal 0.999506 0.0314385 0
    outer loop
      vertex 13.9921 4.25116 10
      vertex 14 4 13.85
      vertex 14 4 10
    endloop
  endfacet
  facet normal 0.218089 -0.975929 0
    outer loop
      vertex 10.7495 0.0708504 10
      vertex 10.9948 0.125667 13.85
      vertex 10.7495 0.0708504 13.85
    endloop
  endfacet
  facet normal 0.218089 -0.975929 0
    outer loop
      vertex 10.9948 0.125667 13.85
      vertex 10.7495 0.0708504 10
      vertex 10.9948 0.125667 10
    endloop
  endfacet
  facet normal 0.453985 -0.891009 0
    outer loop
      vertex 11.7031 0.380692 10
      vertex 11.927 0.494773 13.85
      vertex 11.7031 0.380692 13.85
    endloop
  endfacet
  facet normal 0.453985 -0.891009 0
    outer loop
      vertex 11.927 0.494773 13.85
      vertex 11.7031 0.380692 10
      vertex 11.927 0.494773 10
    endloop
  endfacet
  facet normal -0.156429 -0.987689 0
    outer loop
      vertex 9.25047 0.0708504 10
      vertex 9.49867 0.0315409 13.85
      vertex 9.25047 0.0708504 13.85
    endloop
  endfacet
  facet normal -0.156429 -0.987689 -0
    outer loop
      vertex 9.49867 0.0315409 13.85
      vertex 9.25047 0.0708504 10
      vertex 9.49867 0.0315409 10
    endloop
  endfacet
  facet normal -0.0941093 -0.995562 0
    outer loop
      vertex 9.49867 0.0315409 10
      vertex 9.74884 0.00789261 13.85
      vertex 9.49867 0.0315409 13.85
    endloop
  endfacet
  facet normal -0.0941093 -0.995562 -0
    outer loop
      vertex 9.74884 0.00789261 13.85
      vertex 9.49867 0.0315409 10
      vertex 9.74884 0.00789261 10
    endloop
  endfacet
  facet normal -0.338738 -0.940881 0
    outer loop
      vertex 8.5275 0.280893 10
      vertex 8.76393 0.195773 13.85
      vertex 8.5275 0.280893 13.85
    endloop
  endfacet
  facet normal -0.338738 -0.940881 -0
    outer loop
      vertex 8.76393 0.195773 13.85
      vertex 8.5275 0.280893 10
      vertex 8.76393 0.195773 10
    endloop
  endfacet
  facet normal -0.987689 -0.156431 0
    outer loop
      vertex 6.07085 3.25047 10
      vertex 6.03154 3.49867 13.85
      vertex 6.03154 3.49867 10
    endloop
  endfacet
  facet normal -0.987689 -0.156431 0
    outer loop
      vertex 6.03154 3.49867 13.85
      vertex 6.07085 3.25047 10
      vertex 6.07085 3.25047 13.85
    endloop
  endfacet
  facet normal 0.99558 0.0939189 0
    outer loop
      vertex 13.9921 4.25116 13.85
      vertex 13.9685 4.50133 10
      vertex 13.9685 4.50133 13.85
    endloop
  endfacet
  facet normal 0.99558 0.0939189 0
    outer loop
      vertex 13.9685 4.50133 10
      vertex 13.9921 4.25116 13.85
      vertex 13.9921 4.25116 10
    endloop
  endfacet
  facet normal 0.987634 0.15678 0
    outer loop
      vertex 13.9685 4.50133 13.85
      vertex 13.9291 4.74953 10
      vertex 13.9291 4.74953 13.85
    endloop
  endfacet
  facet normal 0.987634 0.15678 0
    outer loop
      vertex 13.9291 4.74953 10
      vertex 13.9685 4.50133 13.85
      vertex 13.9685 4.50133 10
    endloop
  endfacet
  facet normal 0.940906 0.338667 0
    outer loop
      vertex 13.8042 5.23607 13.85
      vertex 13.7191 5.4725 10
      vertex 13.7191 5.4725 13.85
    endloop
  endfacet
  facet normal 0.940906 0.338667 0
    outer loop
      vertex 13.7191 5.4725 10
      vertex 13.8042 5.23607 13.85
      vertex 13.8042 5.23607 10
    endloop
  endfacet
  facet normal 0.860776 0.508984 0
    outer loop
      vertex 13.5052 5.92701 13.85
      vertex 13.3773 6.14331 10
      vertex 13.3773 6.14331 13.85
    endloop
  endfacet
  facet normal 0.860776 0.508984 0
    outer loop
      vertex 13.3773 6.14331 10
      vertex 13.5052 5.92701 13.85
      vertex 13.5052 5.92701 10
    endloop
  endfacet
  facet normal 0.827157 0.561971 0
    outer loop
      vertex 13.3773 6.14331 13.85
      vertex 13.2361 6.35114 10
      vertex 13.2361 6.35114 13.85
    endloop
  endfacet
  facet normal 0.827157 0.561971 0
    outer loop
      vertex 13.2361 6.35114 10
      vertex 13.3773 6.14331 13.85
      vertex 13.3773 6.14331 10
    endloop
  endfacet
  facet normal 0.750064 0.661365 0
    outer loop
      vertex 13.0821 6.5497 13.85
      vertex 12.9159 6.73819 10
      vertex 12.9159 6.73819 13.85
    endloop
  endfacet
  facet normal 0.750064 0.661365 0
    outer loop
      vertex 12.9159 6.73819 10
      vertex 13.0821 6.5497 13.85
      vertex 13.0821 6.5497 10
    endloop
  endfacet
  facet normal 0.6613 0.750121 -0
    outer loop
      vertex 12.7382 6.91587 10
      vertex 12.5497 7.08205 13.85
      vertex 12.7382 6.91587 13.85
    endloop
  endfacet
  facet normal 0.6613 0.750121 0
    outer loop
      vertex 12.5497 7.08205 13.85
      vertex 12.7382 6.91587 10
      vertex 12.5497 7.08205 10
    endloop
  endfacet
  facet normal 0.509043 0.860741 -0
    outer loop
      vertex 12.1433 7.37731 10
      vertex 11.927 7.50523 13.85
      vertex 12.1433 7.37731 13.85
    endloop
  endfacet
  facet normal 0.509043 0.860741 0
    outer loop
      vertex 11.927 7.50523 13.85
      vertex 12.1433 7.37731 10
      vertex 11.927 7.50523 10
    endloop
  endfacet
  facet normal 0.612833 0.790213 -0
    outer loop
      vertex 12.5497 7.08205 10
      vertex 12.3511 7.23607 13.85
      vertex 12.5497 7.08205 13.85
    endloop
  endfacet
  facet normal 0.612833 0.790213 0
    outer loop
      vertex 12.3511 7.23607 13.85
      vertex 12.5497 7.08205 10
      vertex 12.3511 7.23607 10
    endloop
  endfacet
  facet normal 0.397183 0.917739 -0
    outer loop
      vertex 11.7031 7.61931 10
      vertex 11.4725 7.71911 13.85
      vertex 11.7031 7.61931 13.85
    endloop
  endfacet
  facet normal 0.397183 0.917739 0
    outer loop
      vertex 11.4725 7.71911 13.85
      vertex 11.7031 7.61931 10
      vertex 11.4725 7.71911 10
    endloop
  endfacet
  facet normal 0.278976 0.960298 -0
    outer loop
      vertex 11.2361 7.80423 0
      vertex 10.9948 7.87433 13.85
      vertex 11.2361 7.80423 13.85
    endloop
  endfacet
  facet normal 0.278976 0.960298 0
    outer loop
      vertex 10.9948 7.87433 13.85
      vertex 11.2361 7.80423 0
      vertex 10.9948 7.87433 0
    endloop
  endfacet
  facet normal 0.218101 0.975926 -0
    outer loop
      vertex 10.9948 7.87433 0
      vertex 10.7495 7.92915 13.85
      vertex 10.9948 7.87433 13.85
    endloop
  endfacet
  facet normal 0.218101 0.975926 0
    outer loop
      vertex 10.7495 7.92915 13.85
      vertex 10.9948 7.87433 0
      vertex 10.7495 7.92915 0
    endloop
  endfacet
  facet normal 0.0941422 0.995559 -0
    outer loop
      vertex 10.5013 7.96846 0
      vertex 10.2512 7.99211 13.85
      vertex 10.5013 7.96846 13.85
    endloop
  endfacet
  facet normal 0.0941422 0.995559 0
    outer loop
      vertex 10.2512 7.99211 13.85
      vertex 10.5013 7.96846 0
      vertex 10.2512 7.99211 0
    endloop
  endfacet
  facet normal -0.999507 -0.0313987 0
    outer loop
      vertex 6.00789 3.74884 10
      vertex 6 4 13.85
      vertex 6 4 10
    endloop
  endfacet
  facet normal -0.999507 -0.0313987 0
    outer loop
      vertex 6 4 13.85
      vertex 6.00789 3.74884 10
      vertex 6.00789 3.74884 13.85
    endloop
  endfacet
  facet normal -0.960301 0.278965 0
    outer loop
      vertex 6.12567 4.99476 10
      vertex 6.19577 5.23607 13.85
      vertex 6.19577 5.23607 10
    endloop
  endfacet
  facet normal -0.960301 0.278965 0
    outer loop
      vertex 6.19577 5.23607 13.85
      vertex 6.12567 4.99476 10
      vertex 6.12567 4.99476 13.85
    endloop
  endfacet
  facet normal -0.995561 0.0941161 0
    outer loop
      vertex 6.00789 4.25116 10
      vertex 6.03154 4.50133 13.85
      vertex 6.03154 4.50133 10
    endloop
  endfacet
  facet normal -0.995561 0.0941161 0
    outer loop
      vertex 6.03154 4.50133 13.85
      vertex 6.00789 4.25116 10
      vertex 6.00789 4.25116 13.85
    endloop
  endfacet
  facet normal -0.975913 0.218161 0
    outer loop
      vertex 6.07085 4.74953 10
      vertex 6.12567 4.99476 13.85
      vertex 6.12567 4.99476 10
    endloop
  endfacet
  facet normal -0.975913 0.218161 0
    outer loop
      vertex 6.12567 4.99476 13.85
      vertex 6.07085 4.74953 10
      vertex 6.07085 4.74953 13.85
    endloop
  endfacet
  facet normal -0.891003 0.453998 0
    outer loop
      vertex 6.38069 5.70312 10
      vertex 6.49477 5.92701 13.85
      vertex 6.49477 5.92701 10
    endloop
  endfacet
  facet normal -0.891003 0.453998 0
    outer loop
      vertex 6.49477 5.92701 13.85
      vertex 6.38069 5.70312 10
      vertex 6.38069 5.70312 13.85
    endloop
  endfacet
  facet normal -0.827083 0.56208 0
    outer loop
      vertex 6.62269 6.14331 10
      vertex 6.76393 6.35114 13.85
      vertex 6.76393 6.35114 10
    endloop
  endfacet
  facet normal -0.827083 0.56208 0
    outer loop
      vertex 6.76393 6.35114 13.85
      vertex 6.62269 6.14331 10
      vertex 6.62269 6.14331 13.85
    endloop
  endfacet
  facet normal -0.750123 0.661298 0
    outer loop
      vertex 6.91795 6.5497 10
      vertex 7.08412 6.73819 13.85
      vertex 7.08412 6.73819 10
    endloop
  endfacet
  facet normal -0.750123 0.661298 0
    outer loop
      vertex 7.08412 6.73819 13.85
      vertex 6.91795 6.5497 10
      vertex 6.91795 6.5497 13.85
    endloop
  endfacet
  facet normal -0.860741 0.509043 0
    outer loop
      vertex 6.49477 5.92701 10
      vertex 6.62269 6.14331 13.85
      vertex 6.62269 6.14331 10
    endloop
  endfacet
  facet normal -0.860741 0.509043 0
    outer loop
      vertex 6.62269 6.14331 13.85
      vertex 6.49477 5.92701 10
      vertex 6.49477 5.92701 13.85
    endloop
  endfacet
  facet normal -0.278965 0.960301 0
    outer loop
      vertex 9.00524 7.87433 0
      vertex 8.76393 7.80423 13.85
      vertex 9.00524 7.87433 13.85
    endloop
  endfacet
  facet normal -0.278965 0.960301 0
    outer loop
      vertex 8.76393 7.80423 13.85
      vertex 9.00524 7.87433 0
      vertex 8.76393 7.80423 0
    endloop
  endfacet
  facet normal -0.0941161 0.995561 0
    outer loop
      vertex 9.74884 7.99211 0
      vertex 9.49867 7.96846 13.85
      vertex 9.74884 7.99211 13.85
    endloop
  endfacet
  facet normal -0.0941161 0.995561 0
    outer loop
      vertex 9.49867 7.96846 13.85
      vertex 9.74884 7.99211 0
      vertex 9.49867 7.96846 0
    endloop
  endfacet
  facet normal -0.50906 0.860731 0
    outer loop
      vertex 8.07298 7.50523 10
      vertex 7.85669 7.37731 13.85
      vertex 8.07298 7.50523 13.85
    endloop
  endfacet
  facet normal -0.50906 0.860731 0
    outer loop
      vertex 7.85669 7.37731 13.85
      vertex 8.07298 7.50523 10
      vertex 7.85669 7.37731 10
    endloop
  endfacet
  facet normal -0.56208 0.827083 0
    outer loop
      vertex 7.85669 7.37731 10
      vertex 7.64886 7.23607 13.85
      vertex 7.85669 7.37731 13.85
    endloop
  endfacet
  facet normal -0.56208 0.827083 0
    outer loop
      vertex 7.64886 7.23607 13.85
      vertex 7.85669 7.37731 10
      vertex 7.64886 7.23607 10
    endloop
  endfacet
  facet normal -0.66132 0.750104 0
    outer loop
      vertex 7.4503 7.08205 10
      vertex 7.26181 6.91587 13.85
      vertex 7.4503 7.08205 13.85
    endloop
  endfacet
  facet normal -0.66132 0.750104 0
    outer loop
      vertex 7.26181 6.91587 13.85
      vertex 7.4503 7.08205 10
      vertex 7.26181 6.91587 10
    endloop
  endfacet
  facet normal 0.0941355 -0.995559 0
    outer loop
      vertex 10.2512 0.00789261 10
      vertex 10.5013 0.0315409 13.85
      vertex 10.2512 0.00789261 13.85
    endloop
  endfacet
  facet normal 0.0941355 -0.995559 0
    outer loop
      vertex 10.5013 0.0315409 13.85
      vertex 10.2512 0.00789261 10
      vertex 10.5013 0.0315409 10
    endloop
  endfacet
  facet normal 0.987634 -0.15678 0
    outer loop
      vertex 13.9291 3.25047 13.85
      vertex 13.9685 3.49867 10
      vertex 13.9685 3.49867 13.85
    endloop
  endfacet
  facet normal 0.987634 -0.15678 0
    outer loop
      vertex 13.9685 3.49867 10
      vertex 13.9291 3.25047 13.85
      vertex 13.9291 3.25047 10
    endloop
  endfacet
  facet normal 0.960301 -0.278965 0
    outer loop
      vertex 13.8042 2.76393 13.85
      vertex 13.8743 3.00524 10
      vertex 13.8743 3.00524 13.85
    endloop
  endfacet
  facet normal 0.960301 -0.278965 0
    outer loop
      vertex 13.8743 3.00524 10
      vertex 13.8042 2.76393 13.85
      vertex 13.8042 2.76393 10
    endloop
  endfacet
  facet normal 0.940906 -0.338667 0
    outer loop
      vertex 13.7191 2.5275 13.85
      vertex 13.8042 2.76393 10
      vertex 13.8042 2.76393 13.85
    endloop
  endfacet
  facet normal 0.940906 -0.338667 0
    outer loop
      vertex 13.8042 2.76393 10
      vertex 13.7191 2.5275 13.85
      vertex 13.7191 2.5275 10
    endloop
  endfacet
  facet normal 0.827157 -0.561971 0
    outer loop
      vertex 13.2361 1.64886 13.85
      vertex 13.3773 1.85669 10
      vertex 13.3773 1.85669 13.85
    endloop
  endfacet
  facet normal 0.827157 -0.561971 0
    outer loop
      vertex 13.3773 1.85669 10
      vertex 13.2361 1.64886 13.85
      vertex 13.2361 1.64886 10
    endloop
  endfacet
  facet normal 0.156429 -0.987689 0
    outer loop
      vertex 10.5013 0.0315409 10
      vertex 10.7495 0.0708504 13.85
      vertex 10.5013 0.0315409 13.85
    endloop
  endfacet
  facet normal 0.156429 -0.987689 0
    outer loop
      vertex 10.7495 0.0708504 13.85
      vertex 10.5013 0.0315409 10
      vertex 10.7495 0.0708504 10
    endloop
  endfacet
  facet normal 0.39718 -0.917741 0
    outer loop
      vertex 11.4725 0.280893 10
      vertex 11.7031 0.380692 13.85
      vertex 11.4725 0.280893 13.85
    endloop
  endfacet
  facet normal 0.39718 -0.917741 0
    outer loop
      vertex 11.7031 0.380692 13.85
      vertex 11.4725 0.280893 10
      vertex 11.7031 0.380692 10
    endloop
  endfacet
  facet normal 0.612823 -0.79022 0
    outer loop
      vertex 12.3511 0.763931 10
      vertex 12.5497 0.917947 13.85
      vertex 12.3511 0.763931 13.85
    endloop
  endfacet
  facet normal 0.612823 -0.79022 0
    outer loop
      vertex 12.5497 0.917947 13.85
      vertex 12.3511 0.763931 10
      vertex 12.5497 0.917947 10
    endloop
  endfacet
  facet normal 0.509028 -0.86075 0
    outer loop
      vertex 11.927 0.494773 10
      vertex 12.1433 0.622688 13.85
      vertex 11.927 0.494773 13.85
    endloop
  endfacet
  facet normal 0.509028 -0.86075 0
    outer loop
      vertex 12.1433 0.622688 13.85
      vertex 11.927 0.494773 10
      vertex 12.1433 0.622688 10
    endloop
  endfacet
  facet normal 0.562144 -0.827039 0
    outer loop
      vertex 12.1433 0.622688 10
      vertex 12.3511 0.763931 13.85
      vertex 12.1433 0.622688 13.85
    endloop
  endfacet
  facet normal 0.562144 -0.827039 0
    outer loop
      vertex 12.3511 0.763931 13.85
      vertex 12.1433 0.622688 10
      vertex 12.3511 0.763931 10
    endloop
  endfacet
  facet normal 0.0314041 -0.999507 0
    outer loop
      vertex 10 0 10
      vertex 10.2512 0.00789261 13.85
      vertex 10 0 13.85
    endloop
  endfacet
  facet normal 0.0314041 -0.999507 0
    outer loop
      vertex 10.2512 0.00789261 13.85
      vertex 10 0 10
      vertex 10.2512 0.00789261 10
    endloop
  endfacet
  facet normal -0.278987 -0.960295 0
    outer loop
      vertex 8.76393 0.195773 10
      vertex 9.00524 0.125667 13.85
      vertex 8.76393 0.195773 13.85
    endloop
  endfacet
  facet normal -0.278987 -0.960295 -0
    outer loop
      vertex 9.00524 0.125667 13.85
      vertex 8.76393 0.195773 10
      vertex 9.00524 0.125667 10
    endloop
  endfacet
  facet normal -0.453985 -0.891009 0
    outer loop
      vertex 8.07298 0.494773 10
      vertex 8.29688 0.380692 13.85
      vertex 8.07298 0.494773 13.85
    endloop
  endfacet
  facet normal -0.453985 -0.891009 -0
    outer loop
      vertex 8.29688 0.380692 13.85
      vertex 8.07298 0.494773 10
      vertex 8.29688 0.380692 10
    endloop
  endfacet
  facet normal -0.562088 -0.827077 0
    outer loop
      vertex 7.64886 0.763931 10
      vertex 7.85669 0.622688 13.85
      vertex 7.64886 0.763931 13.85
    endloop
  endfacet
  facet normal -0.562088 -0.827077 -0
    outer loop
      vertex 7.85669 0.622688 13.85
      vertex 7.64886 0.763931 10
      vertex 7.85669 0.622688 10
    endloop
  endfacet
  facet normal -0.661305 -0.750118 0
    outer loop
      vertex 7.26181 1.08412 10
      vertex 7.4503 0.917947 13.85
      vertex 7.26181 1.08412 13.85
    endloop
  endfacet
  facet normal -0.661305 -0.750118 -0
    outer loop
      vertex 7.4503 0.917947 13.85
      vertex 7.26181 1.08412 10
      vertex 7.4503 0.917947 10
    endloop
  endfacet
  facet normal -0.975913 -0.218161 0
    outer loop
      vertex 6.12567 3.00524 10
      vertex 6.07085 3.25047 13.85
      vertex 6.07085 3.25047 10
    endloop
  endfacet
  facet normal -0.975913 -0.218161 0
    outer loop
      vertex 6.07085 3.25047 13.85
      vertex 6.12567 3.00524 10
      vertex 6.12567 3.00524 13.85
    endloop
  endfacet
  facet normal -0.995561 -0.0941161 0
    outer loop
      vertex 6.03154 3.49867 10
      vertex 6.00789 3.74884 13.85
      vertex 6.00789 3.74884 10
    endloop
  endfacet
  facet normal -0.995561 -0.0941161 0
    outer loop
      vertex 6.00789 3.74884 13.85
      vertex 6.03154 3.49867 10
      vertex 6.03154 3.49867 13.85
    endloop
  endfacet
  facet normal -0.917752 -0.397154 0
    outer loop
      vertex 6.38069 2.29688 10
      vertex 6.28089 2.5275 13.85
      vertex 6.28089 2.5275 10
    endloop
  endfacet
  facet normal -0.917752 -0.397154 0
    outer loop
      vertex 6.28089 2.5275 13.85
      vertex 6.38069 2.29688 10
      vertex 6.38069 2.29688 13.85
    endloop
  endfacet
  facet normal -0.960301 -0.278965 0
    outer loop
      vertex 6.19577 2.76393 10
      vertex 6.12567 3.00524 13.85
      vertex 6.12567 3.00524 10
    endloop
  endfacet
  facet normal -0.960301 -0.278965 0
    outer loop
      vertex 6.12567 3.00524 13.85
      vertex 6.19577 2.76393 10
      vertex 6.19577 2.76393 13.85
    endloop
  endfacet
  facet normal -0.860731 -0.50906 0
    outer loop
      vertex 6.62269 1.85669 10
      vertex 6.49477 2.07298 13.85
      vertex 6.49477 2.07298 10
    endloop
  endfacet
  facet normal -0.860731 -0.50906 0
    outer loop
      vertex 6.49477 2.07298 13.85
      vertex 6.62269 1.85669 10
      vertex 6.62269 1.85669 13.85
    endloop
  endfacet
  facet normal -0.707107 -0.707107 0
    outer loop
      vertex 7.26181 1.08412 10
      vertex 7.08412 1.26181 13.85
      vertex 7.08412 1.26181 10
    endloop
  endfacet
  facet normal -0.707107 -0.707107 0
    outer loop
      vertex 7.08412 1.26181 13.85
      vertex 7.26181 1.08412 10
      vertex 7.26181 1.08412 13.85
    endloop
  endfacet
  facet normal -0.790153 -0.61291 0
    outer loop
      vertex 6.91795 1.4503 10
      vertex 6.76393 1.64886 13.85
      vertex 6.76393 1.64886 10
    endloop
  endfacet
  facet normal -0.790153 -0.61291 0
    outer loop
      vertex 6.76393 1.64886 13.85
      vertex 6.91795 1.4503 10
      vertex 6.91795 1.4503 13.85
    endloop
  endfacet
  facet normal -0.750123 -0.661298 0
    outer loop
      vertex 7.08412 1.26181 10
      vertex 6.91795 1.4503 13.85
      vertex 6.91795 1.4503 10
    endloop
  endfacet
  facet normal -0.750123 -0.661298 0
    outer loop
      vertex 6.91795 1.4503 13.85
      vertex 7.08412 1.26181 10
      vertex 7.08412 1.26181 13.85
    endloop
  endfacet
  facet normal 0 0 1
    outer loop
      vertex 13.9921 4.25116 13.85
      vertex 13.9921 3.74884 13.85
      vertex 14 4 13.85
    endloop
  endfacet
  facet normal 0 0 1
    outer loop
      vertex 13.9685 4.50133 13.85
      vertex 13.9921 3.74884 13.85
      vertex 13.9921 4.25116 13.85
    endloop
  endfacet
  facet normal 0 0 1
    outer loop
      vertex 13.9685 4.50133 13.85
      vertex 13.9685 3.49867 13.85
      vertex 13.9921 3.74884 13.85
    endloop
  endfacet
  facet normal 0 0 1
    outer loop
      vertex 13.9291 4.74953 13.85
      vertex 13.9685 3.49867 13.85
      vertex 13.9685 4.50133 13.85
    endloop
  endfacet
  facet normal 0 0 1
    outer loop
      vertex 13.9291 4.74953 13.85
      vertex 13.9291 3.25047 13.85
      vertex 13.9685 3.49867 13.85
    endloop
  endfacet
  facet normal 0 0 1
    outer loop
      vertex 13.8743 4.99476 13.85
      vertex 13.9291 3.25047 13.85
      vertex 13.9291 4.74953 13.85
    endloop
  endfacet
  facet normal 0 0 1
    outer loop
      vertex 13.8743 4.99476 13.85
      vertex 13.8743 3.00524 13.85
      vertex 13.9291 3.25047 13.85
    endloop
  endfacet
  facet normal 0 0 1
    outer loop
      vertex 13.8042 5.23607 13.85
      vertex 13.8743 3.00524 13.85
      vertex 13.8743 4.99476 13.85
    endloop
  endfacet
  facet normal 0 0 1
    outer loop
      vertex 13.8042 5.23607 13.85
      vertex 13.8042 2.76393 13.85
      vertex 13.8743 3.00524 13.85
    endloop
  endfacet
  facet normal 0 0 1
    outer loop
      vertex 13.7191 5.4725 13.85
      vertex 13.8042 2.76393 13.85
      vertex 13.8042 5.23607 13.85
    endloop
  endfacet
  facet normal 0 0 1
    outer loop
      vertex 13.7191 5.4725 13.85
      vertex 13.7191 2.5275 13.85
      vertex 13.8042 2.76393 13.85
    endloop
  endfacet
  facet normal 0 0 1
    outer loop
      vertex 13.6193 5.70312 13.85
      vertex 13.7191 2.5275 13.85
      vertex 13.7191 5.4725 13.85
    endloop
  endfacet
  facet normal 0 0 1
    outer loop
      vertex 13.6193 5.70312 13.85
      vertex 13.6193 2.29688 13.85
      vertex 13.7191 2.5275 13.85
    endloop
  endfacet
  facet normal 0 0 1
    outer loop
      vertex 13.5052 5.92701 13.85
      vertex 13.6193 2.29688 13.85
      vertex 13.6193 5.70312 13.85
    endloop
  endfacet
  facet normal 0 0 1
    outer loop
      vertex 13.5052 5.92701 13.85
      vertex 13.5052 2.07298 13.85
      vertex 13.6193 2.29688 13.85
    endloop
  endfacet
  facet normal 0 0 1
    outer loop
      vertex 13.3773 6.14331 13.85
      vertex 13.5052 2.07298 13.85
      vertex 13.5052 5.92701 13.85
    endloop
  endfacet
  facet normal 0 0 1
    outer loop
      vertex 13.3773 6.14331 13.85
      vertex 13.3773 1.85669 13.85
      vertex 13.5052 2.07298 13.85
    endloop
  endfacet
  facet normal 0 0 1
    outer loop
      vertex 13.2361 6.35114 13.85
      vertex 13.3773 1.85669 13.85
      vertex 13.3773 6.14331 13.85
    endloop
  endfacet
  facet normal 0 0 1
    outer loop
      vertex 13.2361 6.35114 13.85
      vertex 13.2361 1.64886 13.85
      vertex 13.3773 1.85669 13.85
    endloop
  endfacet
  facet normal 0 0 1
    outer loop
      vertex 13.0821 6.5497 13.85
      vertex 13.2361 1.64886 13.85
      vertex 13.2361 6.35114 13.85
    endloop
  endfacet
  facet normal 0 0 1
    outer loop
      vertex 13.0821 6.5497 13.85
      vertex 13.0821 1.4503 13.85
      vertex 13.2361 1.64886 13.85
    endloop
  endfacet
  facet normal 0 0 1
    outer loop
      vertex 12.9159 6.73819 13.85
      vertex 13.0821 1.4503 13.85
      vertex 13.0821 6.5497 13.85
    endloop
  endfacet
  facet normal 0 0 1
    outer loop
      vertex 12.9159 6.73819 13.85
      vertex 12.9159 1.26181 13.85
      vertex 13.0821 1.4503 13.85
    endloop
  endfacet
  facet normal 0 0 1
    outer loop
      vertex 12.7382 6.91587 13.85
      vertex 12.9159 1.26181 13.85
      vertex 12.9159 6.73819 13.85
    endloop
  endfacet
  facet normal 0 0 1
    outer loop
      vertex 12.7382 6.91587 13.85
      vertex 12.7382 1.08412 13.85
      vertex 12.9159 1.26181 13.85
    endloop
  endfacet
  facet normal 0 0 1
    outer loop
      vertex 12.5497 7.08205 13.85
      vertex 12.7382 1.08412 13.85
      vertex 12.7382 6.91587 13.85
    endloop
  endfacet
  facet normal 0 0 1
    outer loop
      vertex 12.5497 7.08205 13.85
      vertex 12.5497 0.917947 13.85
      vertex 12.7382 1.08412 13.85
    endloop
  endfacet
  facet normal 0 0 1
    outer loop
      vertex 12.3511 7.23607 13.85
      vertex 12.5497 0.917947 13.85
      vertex 12.5497 7.08205 13.85
    endloop
  endfacet
  facet normal 0 0 1
    outer loop
      vertex 12.3511 7.23607 13.85
      vertex 12.3511 0.763931 13.85
      vertex 12.5497 0.917947 13.85
    endloop
  endfacet
  facet normal 0 0 1
    outer loop
      vertex 12.1433 7.37731 13.85
      vertex 12.3511 0.763931 13.85
      vertex 12.3511 7.23607 13.85
    endloop
  endfacet
  facet normal 0 0 1
    outer loop
      vertex 12.1433 7.37731 13.85
      vertex 12.1433 0.622688 13.85
      vertex 12.3511 0.763931 13.85
    endloop
  endfacet
  facet normal 0 0 1
    outer loop
      vertex 11.927 7.50523 13.85
      vertex 12.1433 0.622688 13.85
      vertex 12.1433 7.37731 13.85
    endloop
  endfacet
  facet normal 0 0 1
    outer loop
      vertex 11.927 7.50523 13.85
      vertex 11.927 0.494773 13.85
      vertex 12.1433 0.622688 13.85
    endloop
  endfacet
  facet normal 0 0 1
    outer loop
      vertex 11.7031 7.61931 13.85
      vertex 11.927 0.494773 13.85
      vertex 11.927 7.50523 13.85
    endloop
  endfacet
  facet normal 0 0 1
    outer loop
      vertex 11.7031 7.61931 13.85
      vertex 11.7031 0.380692 13.85
      vertex 11.927 0.494773 13.85
    endloop
  endfacet
  facet normal 0 0 1
    outer loop
      vertex 11.4725 7.71911 13.85
      vertex 11.7031 0.380692 13.85
      vertex 11.7031 7.61931 13.85
    endloop
  endfacet
  facet normal 0 0 1
    outer loop
      vertex 11.4725 7.71911 13.85
      vertex 11.4725 0.280893 13.85
      vertex 11.7031 0.380692 13.85
    endloop
  endfacet
  facet normal 0 0 1
    outer loop
      vertex 11.2361 7.80423 13.85
      vertex 11.4725 0.280893 13.85
      vertex 11.4725 7.71911 13.85
    endloop
  endfacet
  facet normal 0 0 1
    outer loop
      vertex 11.2361 7.80423 13.85
      vertex 11.2361 0.195773 13.85
      vertex 11.4725 0.280893 13.85
    endloop
  endfacet
  facet normal 0 0 1
    outer loop
      vertex 10.9948 7.87433 13.85
      vertex 11.2361 0.195773 13.85
      vertex 11.2361 7.80423 13.85
    endloop
  endfacet
  facet normal 0 0 1
    outer loop
      vertex 10.9948 7.87433 13.85
      vertex 10.9948 0.125667 13.85
      vertex 11.2361 0.195773 13.85
    endloop
  endfacet
  facet normal 0 0 1
    outer loop
      vertex 10.7495 7.92915 13.85
      vertex 10.9948 0.125667 13.85
      vertex 10.9948 7.87433 13.85
    endloop
  endfacet
  facet normal 0 0 1
    outer loop
      vertex 10.7495 7.92915 13.85
      vertex 10.7495 0.0708504 13.85
      vertex 10.9948 0.125667 13.85
    endloop
  endfacet
  facet normal 0 0 1
    outer loop
      vertex 10.5013 7.96846 13.85
      vertex 10.7495 0.0708504 13.85
      vertex 10.7495 7.92915 13.85
    endloop
  endfacet
  facet normal 0 0 1
    outer loop
      vertex 10.5013 7.96846 13.85
      vertex 10.5013 0.0315409 13.85
      vertex 10.7495 0.0708504 13.85
    endloop
  endfacet
  facet normal 0 0 1
    outer loop
      vertex 10.2512 7.99211 13.85
      vertex 10.5013 0.0315409 13.85
      vertex 10.5013 7.96846 13.85
    endloop
  endfacet
  facet normal 0 0 1
    outer loop
      vertex 10.2512 7.99211 13.85
      vertex 10.2512 0.00789261 13.85
      vertex 10.5013 0.0315409 13.85
    endloop
  endfacet
  facet normal 0 0 1
    outer loop
      vertex 10 8 13.85
      vertex 10.2512 0.00789261 13.85
      vertex 10.2512 7.99211 13.85
    endloop
  endfacet
  facet normal 0 0 1
    outer loop
      vertex 10 8 13.85
      vertex 10 0 13.85
      vertex 10.2512 0.00789261 13.85
    endloop
  endfacet
  facet normal -0 0 1
    outer loop
      vertex 9.74884 7.99211 13.85
      vertex 10 0 13.85
      vertex 10 8 13.85
    endloop
  endfacet
  facet normal 0 0 1
    outer loop
      vertex 9.74884 7.99211 13.85
      vertex 9.74884 0.00789261 13.85
      vertex 10 0 13.85
    endloop
  endfacet
  facet normal -0 0 1
    outer loop
      vertex 9.49867 7.96846 13.85
      vertex 9.74884 0.00789261 13.85
      vertex 9.74884 7.99211 13.85
    endloop
  endfacet
  facet normal 0 0 1
    outer loop
      vertex 9.49867 7.96846 13.85
      vertex 9.49867 0.0315409 13.85
      vertex 9.74884 0.00789261 13.85
    endloop
  endfacet
  facet normal -0 0 1
    outer loop
      vertex 9.25047 7.92915 13.85
      vertex 9.49867 0.0315409 13.85
      vertex 9.49867 7.96846 13.85
    endloop
  endfacet
  facet normal 0 0 1
    outer loop
      vertex 9.25047 7.92915 13.85
      vertex 9.25047 0.0708504 13.85
      vertex 9.49867 0.0315409 13.85
    endloop
  endfacet
  facet normal -0 0 1
    outer loop
      vertex 9.00524 7.87433 13.85
      vertex 9.25047 0.0708504 13.85
      vertex 9.25047 7.92915 13.85
    endloop
  endfacet
  facet normal 0 0 1
    outer loop
      vertex 9.00524 7.87433 13.85
      vertex 9.00524 0.125667 13.85
      vertex 9.25047 0.0708504 13.85
    endloop
  endfacet
  facet normal -0 0 1
    outer loop
      vertex 8.76393 7.80423 13.85
      vertex 9.00524 0.125667 13.85
      vertex 9.00524 7.87433 13.85
    endloop
  endfacet
  facet normal 0 0 1
    outer loop
      vertex 8.76393 7.80423 13.85
      vertex 8.76393 0.195773 13.85
      vertex 9.00524 0.125667 13.85
    endloop
  endfacet
  facet normal -0 0 1
    outer loop
      vertex 8.5275 7.71911 13.85
      vertex 8.76393 0.195773 13.85
      vertex 8.76393 7.80423 13.85
    endloop
  endfacet
  facet normal 0 0 1
    outer loop
      vertex 8.5275 7.71911 13.85
      vertex 8.5275 0.280893 13.85
      vertex 8.76393 0.195773 13.85
    endloop
  endfacet
  facet normal -0 0 1
    outer loop
      vertex 8.29688 7.61931 13.85
      vertex 8.5275 0.280893 13.85
      vertex 8.5275 7.71911 13.85
    endloop
  endfacet
  facet normal 0 0 1
    outer loop
      vertex 8.29688 7.61931 13.85
      vertex 8.29688 0.380692 13.85
      vertex 8.5275 0.280893 13.85
    endloop
  endfacet
  facet normal -0 0 1
    outer loop
      vertex 8.07298 7.50523 13.85
      vertex 8.29688 0.380692 13.85
      vertex 8.29688 7.61931 13.85
    endloop
  endfacet
  facet normal 0 0 1
    outer loop
      vertex 8.07298 7.50523 13.85
      vertex 8.07298 0.494773 13.85
      vertex 8.29688 0.380692 13.85
    endloop
  endfacet
  facet normal -0 0 1
    outer loop
      vertex 7.85669 7.37731 13.85
      vertex 8.07298 0.494773 13.85
      vertex 8.07298 7.50523 13.85
    endloop
  endfacet
  facet normal 0 0 1
    outer loop
      vertex 7.85669 7.37731 13.85
      vertex 7.85669 0.622688 13.85
      vertex 8.07298 0.494773 13.85
    endloop
  endfacet
  facet normal -0 0 1
    outer loop
      vertex 7.64886 7.23607 13.85
      vertex 7.85669 0.622688 13.85
      vertex 7.85669 7.37731 13.85
    endloop
  endfacet
  facet normal 0 0 1
    outer loop
      vertex 7.64886 7.23607 13.85
      vertex 7.64886 0.763931 13.85
      vertex 7.85669 0.622688 13.85
    endloop
  endfacet
  facet normal -0 0 1
    outer loop
      vertex 7.4503 7.08205 13.85
      vertex 7.64886 0.763931 13.85
      vertex 7.64886 7.23607 13.85
    endloop
  endfacet
  facet normal 0 0 1
    outer loop
      vertex 7.4503 7.08205 13.85
      vertex 7.4503 0.917947 13.85
      vertex 7.64886 0.763931 13.85
    endloop
  endfacet
  facet normal -0 0 1
    outer loop
      vertex 7.26181 6.91587 13.85
      vertex 7.4503 0.917947 13.85
      vertex 7.4503 7.08205 13.85
    endloop
  endfacet
  facet normal 0 0 1
    outer loop
      vertex 7.26181 6.91587 13.85
      vertex 7.26181 1.08412 13.85
      vertex 7.4503 0.917947 13.85
    endloop
  endfacet
  facet normal -0 0 1
    outer loop
      vertex 7.08412 6.73819 13.85
      vertex 7.26181 1.08412 13.85
      vertex 7.26181 6.91587 13.85
    endloop
  endfacet
  facet normal 0 0 1
    outer loop
      vertex 7.08412 6.73819 13.85
      vertex 7.08412 1.26181 13.85
      vertex 7.26181 1.08412 13.85
    endloop
  endfacet
  facet normal -0 0 1
    outer loop
      vertex 6.91795 6.5497 13.85
      vertex 7.08412 1.26181 13.85
      vertex 7.08412 6.73819 13.85
    endloop
  endfacet
  facet normal 0 0 1
    outer loop
      vertex 6.91795 6.5497 13.85
      vertex 6.91795 1.4503 13.85
      vertex 7.08412 1.26181 13.85
    endloop
  endfacet
  facet normal -0 0 1
    outer loop
      vertex 6.76393 6.35114 13.85
      vertex 6.91795 1.4503 13.85
      vertex 6.91795 6.5497 13.85
    endloop
  endfacet
  facet normal 0 0 1
    outer loop
      vertex 6.76393 6.35114 13.85
      vertex 6.76393 1.64886 13.85
      vertex 6.91795 1.4503 13.85
    endloop
  endfacet
  facet normal -0 0 1
    outer loop
      vertex 6.62269 6.14331 13.85
      vertex 6.76393 1.64886 13.85
      vertex 6.76393 6.35114 13.85
    endloop
  endfacet
  facet normal 0 0 1
    outer loop
      vertex 6.62269 6.14331 13.85
      vertex 6.62269 1.85669 13.85
      vertex 6.76393 1.64886 13.85
    endloop
  endfacet
  facet normal -0 0 1
    outer loop
      vertex 6.49477 5.92701 13.85
      vertex 6.62269 1.85669 13.85
      vertex 6.62269 6.14331 13.85
    endloop
  endfacet
  facet normal 0 0 1
    outer loop
      vertex 6.49477 5.92701 13.85
      vertex 6.49477 2.07298 13.85
      vertex 6.62269 1.85669 13.85
    endloop
  endfacet
  facet normal -0 0 1
    outer loop
      vertex 6.38069 5.70312 13.85
      vertex 6.49477 2.07298 13.85
      vertex 6.49477 5.92701 13.85
    endloop
  endfacet
  facet normal 0 0 1
    outer loop
      vertex 6.38069 5.70312 13.85
      vertex 6.38069 2.29688 13.85
      vertex 6.49477 2.07298 13.85
    endloop
  endfacet
  facet normal -0 0 1
    outer loop
      vertex 6.28089 5.4725 13.85
      vertex 6.38069 2.29688 13.85
      vertex 6.38069 5.70312 13.85
    endloop
  endfacet
  facet normal 0 0 1
    outer loop
      vertex 6.28089 5.4725 13.85
      vertex 6.28089 2.5275 13.85
      vertex 6.38069 2.29688 13.85
    endloop
  endfacet
  facet normal -0 0 1
    outer loop
      vertex 6.19577 5.23607 13.85
      vertex 6.28089 2.5275 13.85
      vertex 6.28089 5.4725 13.85
    endloop
  endfacet
  facet normal 0 0 1
    outer loop
      vertex 6.19577 5.23607 13.85
      vertex 6.19577 2.76393 13.85
      vertex 6.28089 2.5275 13.85
    endloop
  endfacet
  facet normal -0 0 1
    outer loop
      vertex 6.12567 4.99476 13.85
      vertex 6.19577 2.76393 13.85
      vertex 6.19577 5.23607 13.85
    endloop
  endfacet
  facet normal 0 0 1
    outer loop
      vertex 6.12567 4.99476 13.85
      vertex 6.12567 3.00524 13.85
      vertex 6.19577 2.76393 13.85
    endloop
  endfacet
  facet normal -0 0 1
    outer loop
      vertex 6.07085 4.74953 13.85
      vertex 6.12567 3.00524 13.85
      vertex 6.12567 4.99476 13.85
    endloop
  endfacet
  facet normal 0 0 1
    outer loop
      vertex 6.07085 4.74953 13.85
      vertex 6.07085 3.25047 13.85
      vertex 6.12567 3.00524 13.85
    endloop
  endfacet
  facet normal -0 0 1
    outer loop
      vertex 6.03154 4.50133 13.85
      vertex 6.07085 3.25047 13.85
      vertex 6.07085 4.74953 13.85
    endloop
  endfacet
  facet normal 0 0 1
    outer loop
      vertex 6.03154 4.50133 13.85
      vertex 6.03154 3.49867 13.85
      vertex 6.07085 3.25047 13.85
    endloop
  endfacet
  facet normal -0 0 1
    outer loop
      vertex 6.00789 4.25116 13.85
      vertex 6.03154 3.49867 13.85
      vertex 6.03154 4.50133 13.85
    endloop
  endfacet
  facet normal 0 0 1
    outer loop
      vertex 6.00789 4.25116 13.85
      vertex 6.00789 3.74884 13.85
      vertex 6.03154 3.49867 13.85
    endloop
  endfacet
  facet normal 0 -0 1
    outer loop
      vertex 6.00789 3.74884 13.85
      vertex 6.00789 4.25116 13.85
      vertex 6 4 13.85
    endloop
  endfacet
  facet normal 0.999506 -0.0314385 0
    outer loop
      vertex 13.9921 3.74884 13.85
      vertex 14 4 10
      vertex 14 4 13.85
    endloop
  endfacet
  facet normal 0.999506 -0.0314385 0
    outer loop
      vertex 14 4 10
      vertex 13.9921 3.74884 13.85
      vertex 13.9921 3.74884 10
    endloop
  endfacet
  facet normal 0.97593 -0.218085 0
    outer loop
      vertex 13.8743 3.00524 13.85
      vertex 13.9291 3.25047 10
      vertex 13.9291 3.25047 13.85
    endloop
  endfacet
  facet normal 0.97593 -0.218085 0
    outer loop
      vertex 13.9291 3.25047 10
      vertex 13.8743 3.00524 13.85
      vertex 13.8743 3.00524 10
    endloop
  endfacet
  facet normal 0.338776 -0.940867 0
    outer loop
      vertex 11.2361 0.195773 10
      vertex 11.4725 0.280893 13.85
      vertex 11.2361 0.195773 13.85
    endloop
  endfacet
  facet normal 0.338776 -0.940867 0
    outer loop
      vertex 11.4725 0.280893 13.85
      vertex 11.2361 0.195773 10
      vertex 11.4725 0.280893 10
    endloop
  endfacet
  facet normal 0.661285 -0.750135 0
    outer loop
      vertex 12.5497 0.917947 10
      vertex 12.7382 1.08412 13.85
      vertex 12.5497 0.917947 13.85
    endloop
  endfacet
  facet normal 0.661285 -0.750135 0
    outer loop
      vertex 12.7382 1.08412 13.85
      vertex 12.5497 0.917947 10
      vertex 12.7382 1.08412 10
    endloop
  endfacet
  facet normal -0.218148 -0.975916 0
    outer loop
      vertex 9.00524 0.125667 10
      vertex 9.25047 0.0708504 13.85
      vertex 9.00524 0.125667 13.85
    endloop
  endfacet
  facet normal -0.218148 -0.975916 -0
    outer loop
      vertex 9.25047 0.0708504 13.85
      vertex 9.00524 0.125667 10
      vertex 9.25047 0.0708504 10
    endloop
  endfacet
  facet normal -0.397151 -0.917753 0
    outer loop
      vertex 8.29688 0.380692 10
      vertex 8.5275 0.280893 13.85
      vertex 8.29688 0.380692 13.85
    endloop
  endfacet
  facet normal -0.397151 -0.917753 -0
    outer loop
      vertex 8.5275 0.280893 13.85
      vertex 8.29688 0.380692 10
      vertex 8.5275 0.280893 10
    endloop
  endfacet
  facet normal -0.6129 -0.790161 0
    outer loop
      vertex 7.4503 0.917947 10
      vertex 7.64886 0.763931 13.85
      vertex 7.4503 0.917947 13.85
    endloop
  endfacet
  facet normal -0.6129 -0.790161 -0
    outer loop
      vertex 7.64886 0.763931 13.85
      vertex 7.4503 0.917947 10
      vertex 7.64886 0.763931 10
    endloop
  endfacet
  facet normal -0.940881 -0.338738 0
    outer loop
      vertex 6.28089 2.5275 10
      vertex 6.19577 2.76393 13.85
      vertex 6.19577 2.76393 10
    endloop
  endfacet
  facet normal -0.940881 -0.338738 0
    outer loop
      vertex 6.19577 2.76393 13.85
      vertex 6.28089 2.5275 10
      vertex 6.28089 2.5275 13.85
    endloop
  endfacet
  facet normal -0.827083 -0.56208 0
    outer loop
      vertex 6.76393 1.64886 10
      vertex 6.62269 1.85669 13.85
      vertex 6.62269 1.85669 10
    endloop
  endfacet
  facet normal -0.827083 -0.56208 0
    outer loop
      vertex 6.62269 1.85669 13.85
      vertex 6.76393 1.64886 10
      vertex 6.76393 1.64886 13.85
    endloop
  endfacet
  facet normal 0.99558 -0.0939189 0
    outer loop
      vertex 13.9685 3.49867 13.85
      vertex 13.9921 3.74884 10
      vertex 13.9921 3.74884 13.85
    endloop
  endfacet
  facet normal 0.99558 -0.0939189 0
    outer loop
      vertex 13.9921 3.74884 10
      vertex 13.9685 3.49867 13.85
      vertex 13.9685 3.49867 10
    endloop
  endfacet
  facet normal 0.890979 -0.454045 0
    outer loop
      vertex 13.5052 2.07298 13.85
      vertex 13.6193 2.29688 10
      vertex 13.6193 2.29688 13.85
    endloop
  endfacet
  facet normal 0.890979 -0.454045 0
    outer loop
      vertex 13.6193 2.29688 10
      vertex 13.5052 2.07298 13.85
      vertex 13.5052 2.07298 10
    endloop
  endfacet
  facet normal 0.790191 -0.61286 0
    outer loop
      vertex 13.0821 1.4503 13.85
      vertex 13.2361 1.64886 10
      vertex 13.2361 1.64886 13.85
    endloop
  endfacet
  facet normal 0.790191 -0.61286 0
    outer loop
      vertex 13.2361 1.64886 10
      vertex 13.0821 1.4503 13.85
      vertex 13.0821 1.4503 10
    endloop
  endfacet
  facet normal 0.860766 -0.509001 0
    outer loop
      vertex 13.3773 1.85669 13.85
      vertex 13.5052 2.07298 10
      vertex 13.5052 2.07298 13.85
    endloop
  endfacet
  facet normal 0.860766 -0.509001 0
    outer loop
      vertex 13.5052 2.07298 10
      vertex 13.3773 1.85669 13.85
      vertex 13.3773 1.85669 10
    endloop
  endfacet
  facet normal 0.917752 -0.397154 0
    outer loop
      vertex 13.6193 2.29688 13.85
      vertex 13.7191 2.5275 10
      vertex 13.7191 2.5275 13.85
    endloop
  endfacet
  facet normal 0.917752 -0.397154 0
    outer loop
      vertex 13.7191 2.5275 10
      vertex 13.6193 2.29688 13.85
      vertex 13.6193 2.29688 10
    endloop
  endfacet
endsolid OpenSCAD_Model
