solid OpenSCAD_Model
  facet normal 0 -1 0
    outer loop
      vertex -0.158625 5.04751 0
      vertex 0.158625 5.04751 5
      vertex -0.158625 5.04751 5
    endloop
  endfacet
  facet normal 0 -1 -0
    outer loop
      vertex 0.158625 5.04751 5
      vertex -0.158625 5.04751 0
      vertex 0.158625 5.04751 0
    endloop
  endfacet
  facet normal 0.998027 -0.06279 0
    outer loop
      vertex -5.04751 0.158625 5
      vertex -5.02759 0.475247 0
      vertex -5.02759 0.475247 5
    endloop
  endfacet
  facet normal 0.998027 -0.06279 0
    outer loop
      vertex -5.02759 0.475247 0
      vertex -5.04751 0.158625 5
      vertex -5.04751 0.158625 0
    endloop
  endfacet
  facet normal 0.982285 0.187394 0
    outer loop
      vertex -4.92838 -1.10162 5
      vertex -4.98783 -0.789994 0
      vertex -4.98783 -0.789994 5
    endloop
  endfacet
  facet normal 0.982285 0.187394 0
    outer loop
      vertex -4.98783 -0.789994 0
      vertex -4.92838 -1.10162 5
      vertex -4.92838 -1.10162 0
    endloop
  endfacet
  facet normal -1 0 0
    outer loop
      vertex 5.04751 -0.158625 0
      vertex 5.04751 0.158625 5
      vertex 5.04751 0.158625 0
    endloop
  endfacet
  facet normal -1 -0 0
    outer loop
      vertex 5.04751 0.158625 5
      vertex 5.04751 -0.158625 0
      vertex 5.04751 -0.158625 5
    endloop
  endfacet
  facet normal 0.125328 0.992115 -0
    outer loop
      vertex -0.475247 -5.02759 0
      vertex -0.789994 -4.98783 5
      vertex -0.475247 -5.02759 5
    endloop
  endfacet
  facet normal 0.125328 0.992115 0
    outer loop
      vertex -0.789994 -4.98783 5
      vertex -0.475247 -5.02759 0
      vertex -0.789994 -4.98783 0
    endloop
  endfacet
  facet normal 0.187394 0.982285 -0
    outer loop
      vertex -0.789994 -4.98783 0
      vertex -1.10162 -4.92838 5
      vertex -0.789994 -4.98783 5
    endloop
  endfacet
  facet normal 0.187394 0.982285 0
    outer loop
      vertex -1.10162 -4.92838 5
      vertex -0.789994 -4.98783 0
      vertex -1.10162 -4.92838 0
    endloop
  endfacet
  facet normal -0.06279 -0.998027 0
    outer loop
      vertex 0.158625 5.04751 0
      vertex 0.475247 5.02759 5
      vertex 0.158625 5.04751 5
    endloop
  endfacet
  facet normal -0.06279 -0.998027 -0
    outer loop
      vertex 0.475247 5.02759 5
      vertex 0.158625 5.04751 0
      vertex 0.475247 5.02759 0
    endloop
  endfacet
  facet normal 0.187394 -0.982285 0
    outer loop
      vertex -1.10162 4.92838 0
      vertex -0.789994 4.98783 5
      vertex -1.10162 4.92838 5
    endloop
  endfacet
  facet normal 0.187394 -0.982285 0
    outer loop
      vertex -0.789994 4.98783 5
      vertex -1.10162 4.92838 0
      vertex -0.789994 4.98783 0
    endloop
  endfacet
  facet normal 0.968578 -0.24871 0
    outer loop
      vertex -4.92838 1.10162 5
      vertex -4.8761 1.30522 0
      vertex -4.8761 1.30522 5
    endloop
  endfacet
  facet normal 0.968578 -0.24871 0
    outer loop
      vertex -4.8761 1.30522 0
      vertex -4.92838 1.10162 5
      vertex -4.92838 1.10162 0
    endloop
  endfacet
  facet normal 0 1 -0
    outer loop
      vertex 0.158625 -5.04751 0
      vertex -0.158625 -5.04751 5
      vertex 0.158625 -5.04751 5
    endloop
  endfacet
  facet normal 0 1 0
    outer loop
      vertex -0.158625 -5.04751 5
      vertex 0.158625 -5.04751 0
      vertex -0.158625 -5.04751 0
    endloop
  endfacet
  facet normal 0 0 -1
    outer loop
      vertex 8.78439 -5.2135 0
      vertex 5.04751 -0.158625 0
      vertex 8.78439 5.2135 0
    endloop
  endfacet
  facet normal 0 0 -1
    outer loop
      vertex 8.78439 -5.2135 0
      vertex 5.02759 -0.475247 0
      vertex 5.04751 -0.158625 0
    endloop
  endfacet
  facet normal 0 0 -1
    outer loop
      vertex 8.78439 -5.2135 0
      vertex 4.98783 -0.789994 0
      vertex 5.02759 -0.475247 0
    endloop
  endfacet
  facet normal 0 0 -1
    outer loop
      vertex 8.78439 -5.2135 0
      vertex 4.92838 -1.10162 0
      vertex 4.98783 -0.789994 0
    endloop
  endfacet
  facet normal 0 -0 -1
    outer loop
      vertex 4.92838 -1.10162 0
      vertex 8.78439 -5.2135 0
      vertex 4.8761 -1.30522 0
    endloop
  endfacet
  facet normal 0 0 -1
    outer loop
      vertex 62.4852 -0.470928 0
      vertex 62.4852 0.470928 0
      vertex 62.5 0 0
    endloop
  endfacet
  facet normal 0 0 -1
    outer loop
      vertex 62.4409 -0.939999 0
      vertex 62.4852 0.470928 0
      vertex 62.4852 -0.470928 0
    endloop
  endfacet
  facet normal 0 0 -1
    outer loop
      vertex 62.4409 -0.939999 0
      vertex 62.4409 0.939999 0
      vertex 62.4852 0.470928 0
    endloop
  endfacet
  facet normal 0 0 -1
    outer loop
      vertex 62.3672 -1.40536 0
      vertex 62.4409 0.939999 0
      vertex 62.4409 -0.939999 0
    endloop
  endfacet
  facet normal 0 0 -1
    outer loop
      vertex 62.3672 -1.40536 0
      vertex 62.3672 1.40536 0
      vertex 62.4409 0.939999 0
    endloop
  endfacet
  facet normal 0 0 -1
    outer loop
      vertex 62.2644 -1.86517 0
      vertex 62.3672 1.40536 0
      vertex 62.3672 -1.40536 0
    endloop
  endfacet
  facet normal 0 0 -1
    outer loop
      vertex 62.2644 -1.86517 0
      vertex 62.2644 1.86517 0
      vertex 62.3672 1.40536 0
    endloop
  endfacet
  facet normal 0 0 -1
    outer loop
      vertex 62.1329 -2.31763 0
      vertex 62.2644 1.86517 0
      vertex 62.2644 -1.86517 0
    endloop
  endfacet
  facet normal 0 0 -1
    outer loop
      vertex 62.1329 -2.31763 0
      vertex 62.1329 2.31763 0
      vertex 62.2644 1.86517 0
    endloop
  endfacet
  facet normal 0 0 -1
    outer loop
      vertex 61.9733 -2.76093 0
      vertex 62.1329 2.31763 0
      vertex 62.1329 -2.31763 0
    endloop
  endfacet
  facet normal 0 0 -1
    outer loop
      vertex 61.9733 -2.76093 0
      vertex 61.9733 2.76093 0
      vertex 62.1329 2.31763 0
    endloop
  endfacet
  facet normal 0 0 -1
    outer loop
      vertex 61.7862 -3.19334 0
      vertex 61.9733 2.76093 0
      vertex 61.9733 -2.76093 0
    endloop
  endfacet
  facet normal 0 0 -1
    outer loop
      vertex 61.7862 -3.19334 0
      vertex 61.7862 3.19334 0
      vertex 61.9733 2.76093 0
    endloop
  endfacet
  facet normal 0 0 -1
    outer loop
      vertex 61.5723 -3.61315 0
      vertex 61.7862 3.19334 0
      vertex 61.7862 -3.19334 0
    endloop
  endfacet
  facet normal 0 0 -1
    outer loop
      vertex 61.5723 -3.61315 0
      vertex 61.5723 3.61315 0
      vertex 61.7862 3.19334 0
    endloop
  endfacet
  facet normal 0 0 -1
    outer loop
      vertex 61.3325 -4.0187 0
      vertex 61.5723 3.61315 0
      vertex 61.5723 -3.61315 0
    endloop
  endfacet
  facet normal 0 0 -1
    outer loop
      vertex 61.3325 -4.0187 0
      vertex 61.3325 4.0187 0
      vertex 61.5723 3.61315 0
    endloop
  endfacet
  facet normal 0 0 -1
    outer loop
      vertex 61.0676 -4.40839 0
      vertex 61.3325 4.0187 0
      vertex 61.3325 -4.0187 0
    endloop
  endfacet
  facet normal 0 0 -1
    outer loop
      vertex 61.0676 -4.40839 0
      vertex 61.0676 4.40839 0
      vertex 61.3325 4.0187 0
    endloop
  endfacet
  facet normal 0 0 -1
    outer loop
      vertex 60.7788 -4.78068 0
      vertex 61.0676 4.40839 0
      vertex 61.0676 -4.40839 0
    endloop
  endfacet
  facet normal 0 0 -1
    outer loop
      vertex 60.7788 -4.78068 0
      vertex 60.7788 4.78068 0
      vertex 61.0676 4.40839 0
    endloop
  endfacet
  facet normal 0 0 -1
    outer loop
      vertex 60.4673 -5.1341 0
      vertex 60.7788 4.78068 0
      vertex 60.7788 -4.78068 0
    endloop
  endfacet
  facet normal 0 0 -1
    outer loop
      vertex 60.4673 -5.1341 0
      vertex 60.4673 5.1341 0
      vertex 60.7788 4.78068 0
    endloop
  endfacet
  facet normal 0 0 -1
    outer loop
      vertex 60.1341 -5.46726 0
      vertex 60.4673 5.1341 0
      vertex 60.4673 -5.1341 0
    endloop
  endfacet
  facet normal 0 0 -1
    outer loop
      vertex 60.1341 -5.46726 0
      vertex 60.1341 5.46726 0
      vertex 60.4673 5.1341 0
    endloop
  endfacet
  facet normal 0 0 -1
    outer loop
      vertex 59.7807 -5.77885 0
      vertex 60.1341 5.46726 0
      vertex 60.1341 -5.46726 0
    endloop
  endfacet
  facet normal 0 0 -1
    outer loop
      vertex 59.7807 -5.77885 0
      vertex 59.7807 5.77885 0
      vertex 60.1341 5.46726 0
    endloop
  endfacet
  facet normal 0 0 -1
    outer loop
      vertex 59.4084 -6.06763 0
      vertex 59.7807 5.77885 0
      vertex 59.7807 -5.77885 0
    endloop
  endfacet
  facet normal 0 0 -1
    outer loop
      vertex 59.4084 -6.06763 0
      vertex 59.4084 6.06763 0
      vertex 59.7807 5.77885 0
    endloop
  endfacet
  facet normal 0 0 -1
    outer loop
      vertex 59.0187 -6.33246 0
      vertex 59.4084 6.06763 0
      vertex 59.4084 -6.06763 0
    endloop
  endfacet
  facet normal 0 0 -1
    outer loop
      vertex 59.0187 -6.33246 0
      vertex 59.0187 6.33246 0
      vertex 59.4084 6.06763 0
    endloop
  endfacet
  facet normal 0 0 -1
    outer loop
      vertex 58.6132 -6.5723 0
      vertex 59.0187 6.33246 0
      vertex 59.0187 -6.33246 0
    endloop
  endfacet
  facet normal 0 0 -1
    outer loop
      vertex 58.6132 -6.5723 0
      vertex 58.6132 6.5723 0
      vertex 59.0187 6.33246 0
    endloop
  endfacet
  facet normal 0 0 -1
    outer loop
      vertex 58.1933 -6.7862 0
      vertex 58.6132 6.5723 0
      vertex 58.6132 -6.5723 0
    endloop
  endfacet
  facet normal 0 0 -1
    outer loop
      vertex 58.1933 -6.7862 0
      vertex 58.1933 6.7862 0
      vertex 58.6132 6.5723 0
    endloop
  endfacet
  facet normal 0 0 -1
    outer loop
      vertex 57.7609 -6.97332 0
      vertex 58.1933 6.7862 0
      vertex 58.1933 -6.7862 0
    endloop
  endfacet
  facet normal 0 0 -1
    outer loop
      vertex 57.7609 -6.97332 0
      vertex 57.7609 6.97332 0
      vertex 58.1933 6.7862 0
    endloop
  endfacet
  facet normal 0 0 -1
    outer loop
      vertex 57.3176 -7.13292 0
      vertex 57.7609 6.97332 0
      vertex 57.7609 -6.97332 0
    endloop
  endfacet
  facet normal 0 0 -1
    outer loop
      vertex 57.3176 -7.13292 0
      vertex 57.3176 7.13292 0
      vertex 57.7609 6.97332 0
    endloop
  endfacet
  facet normal 0 0 -1
    outer loop
      vertex 56.8652 -7.26437 0
      vertex 57.3176 7.13292 0
      vertex 57.3176 -7.13292 0
    endloop
  endfacet
  facet normal 0 0 -1
    outer loop
      vertex 56.8652 -7.26437 0
      vertex 56.8652 7.26437 0
      vertex 57.3176 7.13292 0
    endloop
  endfacet
  facet normal 0 0 -1
    outer loop
      vertex 56.4054 -7.36715 0
      vertex 56.8652 7.26437 0
      vertex 56.8652 -7.26437 0
    endloop
  endfacet
  facet normal 0 0 -1
    outer loop
      vertex 56.4054 -7.36715 0
      vertex 56.4054 7.36715 0
      vertex 56.8652 7.26437 0
    endloop
  endfacet
  facet normal 0 0 -1
    outer loop
      vertex 55.94 -7.44086 0
      vertex 56.4054 7.36715 0
      vertex 56.4054 -7.36715 0
    endloop
  endfacet
  facet normal 0 0 -1
    outer loop
      vertex 55.94 -7.44086 0
      vertex 55.94 7.44086 0
      vertex 56.4054 7.36715 0
    endloop
  endfacet
  facet normal 0 0 -1
    outer loop
      vertex 55.94 -7.44086 0
      vertex 8.78439 -5.2135 0
      vertex 55.94 7.44086 0
    endloop
  endfacet
  facet normal 0 0 -1
    outer loop
      vertex 1.88 -14.8817 0
      vertex 8.78439 -5.2135 0
      vertex 55.94 -7.44086 0
    endloop
  endfacet
  facet normal 0 0 -1
    outer loop
      vertex 8.78439 -5.2135 0
      vertex 1.88 -14.8817 0
      vertex 5.2135 -8.78439 0
    endloop
  endfacet
  facet normal 0 0 -1
    outer loop
      vertex 0.941857 -14.9704 0
      vertex 5.2135 -8.78439 0
      vertex 1.88 -14.8817 0
    endloop
  endfacet
  facet normal 0 0 -1
    outer loop
      vertex 5.2135 -8.78439 0
      vertex 1.10162 -4.92838 0
      vertex 1.30522 -4.8761 0
    endloop
  endfacet
  facet normal 0 0 -1
    outer loop
      vertex 0.158625 -5.04751 0
      vertex 5.2135 -8.78439 0
      vertex 0.941857 -14.9704 0
    endloop
  endfacet
  facet normal 0 0 -1
    outer loop
      vertex 5.2135 -8.78439 0
      vertex 0.789994 -4.98783 0
      vertex 1.10162 -4.92838 0
    endloop
  endfacet
  facet normal 0 0 -1
    outer loop
      vertex 5.2135 -8.78439 0
      vertex 0.475247 -5.02759 0
      vertex 0.789994 -4.98783 0
    endloop
  endfacet
  facet normal 0 0 -1
    outer loop
      vertex 5.2135 -8.78439 0
      vertex 0.158625 -5.04751 0
      vertex 0.475247 -5.02759 0
    endloop
  endfacet
  facet normal 0 0 -1
    outer loop
      vertex 0 -15 0
      vertex 0.158625 -5.04751 0
      vertex 0.941857 -14.9704 0
    endloop
  endfacet
  facet normal 0 0 -1
    outer loop
      vertex 0 -15 0
      vertex -0.158625 -5.04751 0
      vertex 0.158625 -5.04751 0
    endloop
  endfacet
  facet normal 0 0 -1
    outer loop
      vertex -0.941857 -14.9704 0
      vertex -0.158625 -5.04751 0
      vertex 0 -15 0
    endloop
  endfacet
  facet normal 0 0 -1
    outer loop
      vertex -5.2135 -8.78439 0
      vertex -0.158625 -5.04751 0
      vertex -0.941857 -14.9704 0
    endloop
  endfacet
  facet normal -0 0 -1
    outer loop
      vertex -0.158625 -5.04751 0
      vertex -5.2135 -8.78439 0
      vertex -0.475247 -5.02759 0
    endloop
  endfacet
  facet normal -0 0 -1
    outer loop
      vertex -0.475247 -5.02759 0
      vertex -5.2135 -8.78439 0
      vertex -0.789994 -4.98783 0
    endloop
  endfacet
  facet normal -0 0 -1
    outer loop
      vertex -0.789994 -4.98783 0
      vertex -5.2135 -8.78439 0
      vertex -1.10162 -4.92838 0
    endloop
  endfacet
  facet normal 0 0 -1
    outer loop
      vertex -5.2135 -8.78439 0
      vertex -0.941857 -14.9704 0
      vertex -1.88 -14.8817 0
    endloop
  endfacet
  facet normal 0 0 -1
    outer loop
      vertex -5.2135 -8.78439 0
      vertex -1.88 -14.8817 0
      vertex -2.81072 -14.7343 0
    endloop
  endfacet
  facet normal 0 0 -1
    outer loop
      vertex -5.2135 -8.78439 0
      vertex -2.81072 -14.7343 0
      vertex -3.73035 -14.5287 0
    endloop
  endfacet
  facet normal 0 0 -1
    outer loop
      vertex -5.2135 -8.78439 0
      vertex -3.73035 -14.5287 0
      vertex -4.63525 -14.2658 0
    endloop
  endfacet
  facet normal -0 0 -1
    outer loop
      vertex -1.10162 -4.92838 0
      vertex -5.2135 -8.78439 0
      vertex -1.30522 -4.8761 0
    endloop
  endfacet
  facet normal 0 0 -1
    outer loop
      vertex -5.52187 -13.9466 0
      vertex -5.2135 -8.78439 0
      vertex -4.63525 -14.2658 0
    endloop
  endfacet
  facet normal 0 0 -1
    outer loop
      vertex -6.38669 -13.5724 0
      vertex -5.2135 -8.78439 0
      vertex -5.52187 -13.9466 0
    endloop
  endfacet
  facet normal 0 0 -1
    outer loop
      vertex -7.22631 -13.1446 0
      vertex -5.2135 -8.78439 0
      vertex -6.38669 -13.5724 0
    endloop
  endfacet
  facet normal 0 0 -1
    outer loop
      vertex -8.0374 -12.6649 0
      vertex -5.2135 -8.78439 0
      vertex -7.22631 -13.1446 0
    endloop
  endfacet
  facet normal 0 0 -1
    outer loop
      vertex -8.81678 -12.1353 0
      vertex -5.2135 -8.78439 0
      vertex -8.0374 -12.6649 0
    endloop
  endfacet
  facet normal 0 0 -1
    outer loop
      vertex -10.2682 -10.9345 0
      vertex -5.2135 -8.78439 0
      vertex -9.56136 -11.5577 0
    endloop
  endfacet
  facet normal 0 0 -1
    outer loop
      vertex -9.56136 -11.5577 0
      vertex -5.2135 -8.78439 0
      vertex -8.81678 -12.1353 0
    endloop
  endfacet
  facet normal 0 0 -1
    outer loop
      vertex 8.78439 5.2135 0
      vertex 55.94 7.44086 0
      vertex 8.78439 -5.2135 0
    endloop
  endfacet
  facet normal 0 0 -1
    outer loop
      vertex 1.88 14.8817 0
      vertex 8.78439 5.2135 0
      vertex 5.2135 8.78439 0
    endloop
  endfacet
  facet normal 0 0 -1
    outer loop
      vertex 8.78439 5.2135 0
      vertex 1.88 14.8817 0
      vertex 55.94 7.44086 0
    endloop
  endfacet
  facet normal 0 0 -1
    outer loop
      vertex 1.10162 4.92838 0
      vertex 5.2135 8.78439 0
      vertex 1.30522 4.8761 0
    endloop
  endfacet
  facet normal 0 0 -1
    outer loop
      vertex 0.789994 4.98783 0
      vertex 5.2135 8.78439 0
      vertex 1.10162 4.92838 0
    endloop
  endfacet
  facet normal 0 0 -1
    outer loop
      vertex 0.475247 5.02759 0
      vertex 5.2135 8.78439 0
      vertex 0.789994 4.98783 0
    endloop
  endfacet
  facet normal 0 0 -1
    outer loop
      vertex 0.158625 5.04751 0
      vertex 5.2135 8.78439 0
      vertex 0.475247 5.02759 0
    endloop
  endfacet
  facet normal 0 0 -1
    outer loop
      vertex 5.2135 8.78439 0
      vertex 0.941857 14.9704 0
      vertex 1.88 14.8817 0
    endloop
  endfacet
  facet normal -0 0 -1
    outer loop
      vertex 5.2135 8.78439 0
      vertex 0.158625 5.04751 0
      vertex 0.941857 14.9704 0
    endloop
  endfacet
  facet normal 0 0 -1
    outer loop
      vertex 0.158625 5.04751 0
      vertex 0 15 0
      vertex 0.941857 14.9704 0
    endloop
  endfacet
  facet normal 0 0 -1
    outer loop
      vertex -0.158625 5.04751 0
      vertex 0 15 0
      vertex 0.158625 5.04751 0
    endloop
  endfacet
  facet normal 0 0 -1
    outer loop
      vertex -5.2135 8.78439 0
      vertex -0.158625 5.04751 0
      vertex -0.475247 5.02759 0
    endloop
  endfacet
  facet normal 0 0 -1
    outer loop
      vertex -5.2135 8.78439 0
      vertex -0.475247 5.02759 0
      vertex -0.789994 4.98783 0
    endloop
  endfacet
  facet normal 0 0 -1
    outer loop
      vertex -0.158625 5.04751 0
      vertex -0.941857 14.9704 0
      vertex 0 15 0
    endloop
  endfacet
  facet normal 0 0 -1
    outer loop
      vertex -5.2135 8.78439 0
      vertex -0.789994 4.98783 0
      vertex -1.10162 4.92838 0
    endloop
  endfacet
  facet normal 0 0 -1
    outer loop
      vertex -5.2135 8.78439 0
      vertex -1.10162 4.92838 0
      vertex -1.30522 4.8761 0
    endloop
  endfacet
  facet normal 0 0 -1
    outer loop
      vertex -0.158625 5.04751 0
      vertex -5.2135 8.78439 0
      vertex -0.941857 14.9704 0
    endloop
  endfacet
  facet normal 0 0 -1
    outer loop
      vertex -0.941857 14.9704 0
      vertex -5.2135 8.78439 0
      vertex -1.88 14.8817 0
    endloop
  endfacet
  facet normal 0 0 -1
    outer loop
      vertex -1.88 14.8817 0
      vertex -5.2135 8.78439 0
      vertex -2.81072 14.7343 0
    endloop
  endfacet
  facet normal 0 0 -1
    outer loop
      vertex -2.81072 14.7343 0
      vertex -5.2135 8.78439 0
      vertex -3.73035 14.5287 0
    endloop
  endfacet
  facet normal 0 0 -1
    outer loop
      vertex -3.73035 14.5287 0
      vertex -5.2135 8.78439 0
      vertex -4.63525 14.2658 0
    endloop
  endfacet
  facet normal 0 0 -1
    outer loop
      vertex -5.2135 8.78439 0
      vertex -5.52187 13.9466 0
      vertex -4.63525 14.2658 0
    endloop
  endfacet
  facet normal 0 0 -1
    outer loop
      vertex -5.2135 8.78439 0
      vertex -6.38669 13.5724 0
      vertex -5.52187 13.9466 0
    endloop
  endfacet
  facet normal 0 0 -1
    outer loop
      vertex -5.2135 8.78439 0
      vertex -7.22631 13.1446 0
      vertex -6.38669 13.5724 0
    endloop
  endfacet
  facet normal 0 0 -1
    outer loop
      vertex -5.2135 8.78439 0
      vertex -8.0374 12.6649 0
      vertex -7.22631 13.1446 0
    endloop
  endfacet
  facet normal 0 0 -1
    outer loop
      vertex -10.2682 10.9345 0
      vertex -5.2135 8.78439 0
      vertex -8.78439 5.2135 0
    endloop
  endfacet
  facet normal 0 0 -1
    outer loop
      vertex -5.2135 8.78439 0
      vertex -8.81678 12.1353 0
      vertex -8.0374 12.6649 0
    endloop
  endfacet
  facet normal -0 0 -1
    outer loop
      vertex -5.2135 -8.78439 0
      vertex -10.2682 -10.9345 0
      vertex -8.78439 -5.2135 0
    endloop
  endfacet
  facet normal 0 0 -1
    outer loop
      vertex -10.9345 -10.2682 0
      vertex -8.78439 -5.2135 0
      vertex -10.2682 -10.9345 0
    endloop
  endfacet
  facet normal 0 0 -1
    outer loop
      vertex -5.2135 8.78439 0
      vertex -9.56136 11.5577 0
      vertex -8.81678 12.1353 0
    endloop
  endfacet
  facet normal 0 0 -1
    outer loop
      vertex -11.5577 -9.56136 0
      vertex -8.78439 -5.2135 0
      vertex -10.9345 -10.2682 0
    endloop
  endfacet
  facet normal 0 0 -1
    outer loop
      vertex -5.2135 8.78439 0
      vertex -10.2682 10.9345 0
      vertex -9.56136 11.5577 0
    endloop
  endfacet
  facet normal 0 0 -1
    outer loop
      vertex -12.1353 -8.81678 0
      vertex -8.78439 -5.2135 0
      vertex -11.5577 -9.56136 0
    endloop
  endfacet
  facet normal 0 0 -1
    outer loop
      vertex -8.78439 5.2135 0
      vertex -10.9345 10.2682 0
      vertex -10.2682 10.9345 0
    endloop
  endfacet
  facet normal 0 0 -1
    outer loop
      vertex -12.6649 -8.0374 0
      vertex -8.78439 -5.2135 0
      vertex -12.1353 -8.81678 0
    endloop
  endfacet
  facet normal 0 0 -1
    outer loop
      vertex -8.78439 5.2135 0
      vertex -11.5577 9.56136 0
      vertex -10.9345 10.2682 0
    endloop
  endfacet
  facet normal 0 0 -1
    outer loop
      vertex -13.1446 -7.22631 0
      vertex -8.78439 -5.2135 0
      vertex -12.6649 -8.0374 0
    endloop
  endfacet
  facet normal 0 0 -1
    outer loop
      vertex -8.78439 5.2135 0
      vertex -12.1353 8.81678 0
      vertex -11.5577 9.56136 0
    endloop
  endfacet
  facet normal 0 0 -1
    outer loop
      vertex -13.5724 -6.38669 0
      vertex -8.78439 -5.2135 0
      vertex -13.1446 -7.22631 0
    endloop
  endfacet
  facet normal 0 0 -1
    outer loop
      vertex -8.78439 5.2135 0
      vertex -12.6649 8.0374 0
      vertex -12.1353 8.81678 0
    endloop
  endfacet
  facet normal 0 0 -1
    outer loop
      vertex -13.9466 -5.52187 0
      vertex -8.78439 -5.2135 0
      vertex -13.5724 -6.38669 0
    endloop
  endfacet
  facet normal 0 0 -1
    outer loop
      vertex -8.78439 5.2135 0
      vertex -13.1446 7.22631 0
      vertex -12.6649 8.0374 0
    endloop
  endfacet
  facet normal 0 0 -1
    outer loop
      vertex -14.2658 -4.63525 0
      vertex -8.78439 -5.2135 0
      vertex -13.9466 -5.52187 0
    endloop
  endfacet
  facet normal 0 0 -1
    outer loop
      vertex -8.78439 5.2135 0
      vertex -13.5724 6.38669 0
      vertex -13.1446 7.22631 0
    endloop
  endfacet
  facet normal 0 0 -1
    outer loop
      vertex -14.5287 -3.73035 0
      vertex -8.78439 -5.2135 0
      vertex -14.2658 -4.63525 0
    endloop
  endfacet
  facet normal 0 0 -1
    outer loop
      vertex -8.78439 5.2135 0
      vertex -13.9466 5.52187 0
      vertex -13.5724 6.38669 0
    endloop
  endfacet
  facet normal 0 0 -1
    outer loop
      vertex -14.7343 -2.81072 0
      vertex -8.78439 -5.2135 0
      vertex -14.5287 -3.73035 0
    endloop
  endfacet
  facet normal -0 0 -1
    outer loop
      vertex -8.78439 5.2135 0
      vertex -14.2658 4.63525 0
      vertex -13.9466 5.52187 0
    endloop
  endfacet
  facet normal 0 0 -1
    outer loop
      vertex -14.8817 -1.88 0
      vertex -8.78439 -5.2135 0
      vertex -14.7343 -2.81072 0
    endloop
  endfacet
  facet normal 0 0 -1
    outer loop
      vertex -8.78439 5.2135 0
      vertex -14.5287 3.73035 0
      vertex -14.2658 4.63525 0
    endloop
  endfacet
  facet normal 0 0 -1
    outer loop
      vertex -14.9704 -0.941857 0
      vertex -8.78439 -5.2135 0
      vertex -14.8817 -1.88 0
    endloop
  endfacet
  facet normal 0 0 -1
    outer loop
      vertex -8.78439 5.2135 0
      vertex -14.7343 2.81072 0
      vertex -14.5287 3.73035 0
    endloop
  endfacet
  facet normal 0 0 -1
    outer loop
      vertex -15 0 0
      vertex -8.78439 -5.2135 0
      vertex -14.9704 -0.941857 0
    endloop
  endfacet
  facet normal 0 0 -1
    outer loop
      vertex -8.78439 5.2135 0
      vertex -14.8817 1.88 0
      vertex -14.7343 2.81072 0
    endloop
  endfacet
  facet normal 0 0 -1
    outer loop
      vertex -8.78439 -5.2135 0
      vertex -15 0 0
      vertex -8.78439 5.2135 0
    endloop
  endfacet
  facet normal 0 0 -1
    outer loop
      vertex -8.78439 5.2135 0
      vertex -14.9704 0.941857 0
      vertex -14.8817 1.88 0
    endloop
  endfacet
  facet normal 0 0 -1
    outer loop
      vertex -8.78439 5.2135 0
      vertex -15 0 0
      vertex -14.9704 0.941857 0
    endloop
  endfacet
  facet normal 0 0 -1
    outer loop
      vertex 5.04751 0.158625 0
      vertex 8.78439 5.2135 0
      vertex 5.04751 -0.158625 0
    endloop
  endfacet
  facet normal 0 0 -1
    outer loop
      vertex 5.02759 0.475247 0
      vertex 8.78439 5.2135 0
      vertex 5.04751 0.158625 0
    endloop
  endfacet
  facet normal 0 0 -1
    outer loop
      vertex 4.98783 0.789994 0
      vertex 8.78439 5.2135 0
      vertex 5.02759 0.475247 0
    endloop
  endfacet
  facet normal 0 0 -1
    outer loop
      vertex 4.92838 1.10162 0
      vertex 8.78439 5.2135 0
      vertex 4.98783 0.789994 0
    endloop
  endfacet
  facet normal 0 0 -1
    outer loop
      vertex 8.78439 5.2135 0
      vertex 4.92838 1.10162 0
      vertex 4.8761 1.30522 0
    endloop
  endfacet
  facet normal -0 0 -1
    outer loop
      vertex -5.04751 -0.158625 0
      vertex -8.78439 -5.2135 0
      vertex -5.04751 0.158625 0
    endloop
  endfacet
  facet normal -0 0 -1
    outer loop
      vertex -5.02759 -0.475247 0
      vertex -8.78439 -5.2135 0
      vertex -5.04751 -0.158625 0
    endloop
  endfacet
  facet normal -0 0 -1
    outer loop
      vertex -4.98783 -0.789994 0
      vertex -8.78439 -5.2135 0
      vertex -5.02759 -0.475247 0
    endloop
  endfacet
  facet normal -0 0 -1
    outer loop
      vertex -4.92838 -1.10162 0
      vertex -8.78439 -5.2135 0
      vertex -4.98783 -0.789994 0
    endloop
  endfacet
  facet normal 0 0 -1
    outer loop
      vertex -8.78439 -5.2135 0
      vertex -4.92838 -1.10162 0
      vertex -4.8761 -1.30522 0
    endloop
  endfacet
  facet normal 0 0 -1
    outer loop
      vertex -8.78439 5.2135 0
      vertex -5.04751 0.158625 0
      vertex -8.78439 -5.2135 0
    endloop
  endfacet
  facet normal 0 0 -1
    outer loop
      vertex -5.04751 0.158625 0
      vertex -8.78439 5.2135 0
      vertex -5.02759 0.475247 0
    endloop
  endfacet
  facet normal 0 0 -1
    outer loop
      vertex -5.02759 0.475247 0
      vertex -8.78439 5.2135 0
      vertex -4.98783 0.789994 0
    endloop
  endfacet
  facet normal 0 0 -1
    outer loop
      vertex -4.98783 0.789994 0
      vertex -8.78439 5.2135 0
      vertex -4.92838 1.10162 0
    endloop
  endfacet
  facet normal 0 0 -1
    outer loop
      vertex -4.92838 1.10162 0
      vertex -8.78439 5.2135 0
      vertex -4.8761 1.30522 0
    endloop
  endfacet
  facet normal -0.125328 -0.992115 0
    outer loop
      vertex 0.475247 5.02759 0
      vertex 0.789994 4.98783 5
      vertex 0.475247 5.02759 5
    endloop
  endfacet
  facet normal -0.125328 -0.992115 -0
    outer loop
      vertex 0.789994 4.98783 5
      vertex 0.475247 5.02759 0
      vertex 0.789994 4.98783 0
    endloop
  endfacet
  facet normal -0.187394 -0.982285 0
    outer loop
      vertex 0.789994 4.98783 0
      vertex 1.10162 4.92838 5
      vertex 0.789994 4.98783 5
    endloop
  endfacet
  facet normal -0.187394 -0.982285 -0
    outer loop
      vertex 1.10162 4.92838 5
      vertex 0.789994 4.98783 0
      vertex 1.10162 4.92838 0
    endloop
  endfacet
  facet normal -0.24871 -0.968578 0
    outer loop
      vertex 1.10162 4.92838 0
      vertex 1.30522 4.8761 5
      vertex 1.10162 4.92838 5
    endloop
  endfacet
  facet normal -0.24871 -0.968578 -0
    outer loop
      vertex 1.30522 4.8761 5
      vertex 1.10162 4.92838 0
      vertex 1.30522 4.8761 0
    endloop
  endfacet
  facet normal 0.24871 -0.968578 0
    outer loop
      vertex -1.30522 4.8761 0
      vertex -1.10162 4.92838 5
      vertex -1.30522 4.8761 5
    endloop
  endfacet
  facet normal 0.24871 -0.968578 0
    outer loop
      vertex -1.10162 4.92838 5
      vertex -1.30522 4.8761 0
      vertex -1.10162 4.92838 0
    endloop
  endfacet
  facet normal 0.125328 -0.992115 0
    outer loop
      vertex -0.789994 4.98783 0
      vertex -0.475247 5.02759 5
      vertex -0.789994 4.98783 5
    endloop
  endfacet
  facet normal 0.125328 -0.992115 0
    outer loop
      vertex -0.475247 5.02759 5
      vertex -0.789994 4.98783 0
      vertex -0.475247 5.02759 0
    endloop
  endfacet
  facet normal 0.06279 -0.998027 0
    outer loop
      vertex -0.475247 5.02759 0
      vertex -0.158625 5.04751 5
      vertex -0.475247 5.02759 5
    endloop
  endfacet
  facet normal 0.06279 -0.998027 0
    outer loop
      vertex -0.158625 5.04751 5
      vertex -0.475247 5.02759 0
      vertex -0.158625 5.04751 0
    endloop
  endfacet
  facet normal 0.968578 0.24871 0
    outer loop
      vertex -4.8761 -1.30522 5
      vertex -4.92838 -1.10162 0
      vertex -4.92838 -1.10162 5
    endloop
  endfacet
  facet normal 0.968578 0.24871 0
    outer loop
      vertex -4.92838 -1.10162 0
      vertex -4.8761 -1.30522 5
      vertex -4.8761 -1.30522 0
    endloop
  endfacet
  facet normal 0.982285 -0.187394 0
    outer loop
      vertex -4.98783 0.789994 5
      vertex -4.92838 1.10162 0
      vertex -4.92838 1.10162 5
    endloop
  endfacet
  facet normal 0.982285 -0.187394 0
    outer loop
      vertex -4.92838 1.10162 0
      vertex -4.98783 0.789994 5
      vertex -4.98783 0.789994 0
    endloop
  endfacet
  facet normal -0.992115 0.125328 0
    outer loop
      vertex 4.98783 -0.789994 0
      vertex 5.02759 -0.475247 5
      vertex 5.02759 -0.475247 0
    endloop
  endfacet
  facet normal -0.992115 0.125328 0
    outer loop
      vertex 5.02759 -0.475247 5
      vertex 4.98783 -0.789994 0
      vertex 4.98783 -0.789994 5
    endloop
  endfacet
  facet normal -0.968578 0.24871 0
    outer loop
      vertex 4.8761 -1.30522 0
      vertex 4.92838 -1.10162 5
      vertex 4.92838 -1.10162 0
    endloop
  endfacet
  facet normal -0.968578 0.24871 0
    outer loop
      vertex 4.92838 -1.10162 5
      vertex 4.8761 -1.30522 0
      vertex 4.8761 -1.30522 5
    endloop
  endfacet
  facet normal -0.998027 -0.06279 0
    outer loop
      vertex 5.04751 0.158625 0
      vertex 5.02759 0.475247 5
      vertex 5.02759 0.475247 0
    endloop
  endfacet
  facet normal -0.998027 -0.06279 0
    outer loop
      vertex 5.02759 0.475247 5
      vertex 5.04751 0.158625 0
      vertex 5.04751 0.158625 5
    endloop
  endfacet
  facet normal -0.982285 -0.187394 0
    outer loop
      vertex 4.98783 0.789994 0
      vertex 4.92838 1.10162 5
      vertex 4.92838 1.10162 0
    endloop
  endfacet
  facet normal -0.982285 -0.187394 0
    outer loop
      vertex 4.92838 1.10162 5
      vertex 4.98783 0.789994 0
      vertex 4.98783 0.789994 5
    endloop
  endfacet
  facet normal -0.06279 0.998027 0
    outer loop
      vertex 0.475247 -5.02759 0
      vertex 0.158625 -5.04751 5
      vertex 0.475247 -5.02759 5
    endloop
  endfacet
  facet normal -0.06279 0.998027 0
    outer loop
      vertex 0.158625 -5.04751 5
      vertex 0.475247 -5.02759 0
      vertex 0.158625 -5.04751 0
    endloop
  endfacet
  facet normal -0.187394 0.982285 0
    outer loop
      vertex 1.10162 -4.92838 0
      vertex 0.789994 -4.98783 5
      vertex 1.10162 -4.92838 5
    endloop
  endfacet
  facet normal -0.187394 0.982285 0
    outer loop
      vertex 0.789994 -4.98783 5
      vertex 1.10162 -4.92838 0
      vertex 0.789994 -4.98783 0
    endloop
  endfacet
  facet normal 0.24871 0.968578 -0
    outer loop
      vertex -1.10162 -4.92838 0
      vertex -1.30522 -4.8761 5
      vertex -1.10162 -4.92838 5
    endloop
  endfacet
  facet normal 0.24871 0.968578 0
    outer loop
      vertex -1.30522 -4.8761 5
      vertex -1.10162 -4.92838 0
      vertex -1.30522 -4.8761 0
    endloop
  endfacet
  facet normal 0.992115 0.125328 0
    outer loop
      vertex -4.98783 -0.789994 5
      vertex -5.02759 -0.475247 0
      vertex -5.02759 -0.475247 5
    endloop
  endfacet
  facet normal 0.992115 0.125328 0
    outer loop
      vertex -5.02759 -0.475247 0
      vertex -4.98783 -0.789994 5
      vertex -4.98783 -0.789994 0
    endloop
  endfacet
  facet normal 0.998027 0.06279 0
    outer loop
      vertex -5.02759 -0.475247 5
      vertex -5.04751 -0.158625 0
      vertex -5.04751 -0.158625 5
    endloop
  endfacet
  facet normal 0.998027 0.06279 0
    outer loop
      vertex -5.04751 -0.158625 0
      vertex -5.02759 -0.475247 5
      vertex -5.02759 -0.475247 0
    endloop
  endfacet
  facet normal 1 -0 0
    outer loop
      vertex -5.04751 -0.158625 5
      vertex -5.04751 0.158625 0
      vertex -5.04751 0.158625 5
    endloop
  endfacet
  facet normal 1 0 0
    outer loop
      vertex -5.04751 0.158625 0
      vertex -5.04751 -0.158625 5
      vertex -5.04751 -0.158625 0
    endloop
  endfacet
  facet normal 0.992115 -0.125328 0
    outer loop
      vertex -5.02759 0.475247 5
      vertex -4.98783 0.789994 0
      vertex -4.98783 0.789994 5
    endloop
  endfacet
  facet normal 0.992115 -0.125328 0
    outer loop
      vertex -4.98783 0.789994 0
      vertex -5.02759 0.475247 5
      vertex -5.02759 0.475247 0
    endloop
  endfacet
  facet normal -0.998027 0.06279 0
    outer loop
      vertex 5.02759 -0.475247 0
      vertex 5.04751 -0.158625 5
      vertex 5.04751 -0.158625 0
    endloop
  endfacet
  facet normal -0.998027 0.06279 0
    outer loop
      vertex 5.04751 -0.158625 5
      vertex 5.02759 -0.475247 0
      vertex 5.02759 -0.475247 5
    endloop
  endfacet
  facet normal -0.982285 0.187394 0
    outer loop
      vertex 4.92838 -1.10162 0
      vertex 4.98783 -0.789994 5
      vertex 4.98783 -0.789994 0
    endloop
  endfacet
  facet normal -0.982285 0.187394 0
    outer loop
      vertex 4.98783 -0.789994 5
      vertex 4.92838 -1.10162 0
      vertex 4.92838 -1.10162 5
    endloop
  endfacet
  facet normal -0.968578 -0.24871 0
    outer loop
      vertex 4.92838 1.10162 0
      vertex 4.8761 1.30522 5
      vertex 4.8761 1.30522 0
    endloop
  endfacet
  facet normal -0.968578 -0.24871 0
    outer loop
      vertex 4.8761 1.30522 5
      vertex 4.92838 1.10162 0
      vertex 4.92838 1.10162 5
    endloop
  endfacet
  facet normal -0.992115 -0.125328 0
    outer loop
      vertex 5.02759 0.475247 0
      vertex 4.98783 0.789994 5
      vertex 4.98783 0.789994 0
    endloop
  endfacet
  facet normal -0.992115 -0.125328 0
    outer loop
      vertex 4.98783 0.789994 5
      vertex 5.02759 0.475247 0
      vertex 5.02759 0.475247 5
    endloop
  endfacet
  facet normal -0.125328 0.992115 0
    outer loop
      vertex 0.789994 -4.98783 0
      vertex 0.475247 -5.02759 5
      vertex 0.789994 -4.98783 5
    endloop
  endfacet
  facet normal -0.125328 0.992115 0
    outer loop
      vertex 0.475247 -5.02759 5
      vertex 0.789994 -4.98783 0
      vertex 0.475247 -5.02759 0
    endloop
  endfacet
  facet normal -0.24871 0.968578 0
    outer loop
      vertex 1.30522 -4.8761 0
      vertex 1.10162 -4.92838 5
      vertex 1.30522 -4.8761 5
    endloop
  endfacet
  facet normal -0.24871 0.968578 0
    outer loop
      vertex 1.10162 -4.92838 5
      vertex 1.30522 -4.8761 0
      vertex 1.10162 -4.92838 0
    endloop
  endfacet
  facet normal 0.06279 0.998027 -0
    outer loop
      vertex -0.158625 -5.04751 0
      vertex -0.475247 -5.02759 5
      vertex -0.158625 -5.04751 5
    endloop
  endfacet
  facet normal 0.06279 0.998027 0
    outer loop
      vertex -0.475247 -5.02759 5
      vertex -0.158625 -5.04751 0
      vertex -0.475247 -5.02759 0
    endloop
  endfacet
  facet normal 0.707107 0.707107 0
    outer loop
      vertex -5.2135 -8.78439 5
      vertex -8.78439 -5.2135 0
      vertex -8.78439 -5.2135 5
    endloop
  endfacet
  facet normal 0.707107 0.707107 0
    outer loop
      vertex -8.78439 -5.2135 0
      vertex -5.2135 -8.78439 5
      vertex -5.2135 -8.78439 0
    endloop
  endfacet
  facet normal -0.707107 -0.707107 0
    outer loop
      vertex 8.78439 5.2135 0
      vertex 5.2135 8.78439 5
      vertex 5.2135 8.78439 0
    endloop
  endfacet
  facet normal -0.707107 -0.707107 0
    outer loop
      vertex 5.2135 8.78439 5
      vertex 8.78439 5.2135 0
      vertex 8.78439 5.2135 5
    endloop
  endfacet
  facet normal 0.707108 -0.707106 0
    outer loop
      vertex 1.30522 4.8761 5
      vertex 5.2135 8.78439 0
      vertex 5.2135 8.78439 5
    endloop
  endfacet
  facet normal 0.707108 -0.707106 0
    outer loop
      vertex 5.2135 8.78439 0
      vertex 1.30522 4.8761 5
      vertex 1.30522 4.8761 0
    endloop
  endfacet
  facet normal 0.707106 -0.707108 0
    outer loop
      vertex -8.78439 -5.2135 5
      vertex -4.8761 -1.30522 0
      vertex -4.8761 -1.30522 5
    endloop
  endfacet
  facet normal 0.707106 -0.707108 0
    outer loop
      vertex -4.8761 -1.30522 0
      vertex -8.78439 -5.2135 5
      vertex -8.78439 -5.2135 0
    endloop
  endfacet
  facet normal -0.707106 0.707108 0
    outer loop
      vertex 4.8761 1.30522 0
      vertex 8.78439 5.2135 5
      vertex 8.78439 5.2135 0
    endloop
  endfacet
  facet normal -0.707106 0.707108 0
    outer loop
      vertex 8.78439 5.2135 5
      vertex 4.8761 1.30522 0
      vertex 4.8761 1.30522 5
    endloop
  endfacet
  facet normal -0.707108 0.707106 0
    outer loop
      vertex -5.2135 -8.78439 0
      vertex -1.30522 -4.8761 5
      vertex -1.30522 -4.8761 0
    endloop
  endfacet
  facet normal -0.707108 0.707106 0
    outer loop
      vertex -1.30522 -4.8761 5
      vertex -5.2135 -8.78439 0
      vertex -5.2135 -8.78439 5
    endloop
  endfacet
  facet normal 0.707107 -0.707107 0
    outer loop
      vertex -8.78439 5.2135 5
      vertex -5.2135 8.78439 0
      vertex -5.2135 8.78439 5
    endloop
  endfacet
  facet normal 0.707107 -0.707107 0
    outer loop
      vertex -5.2135 8.78439 0
      vertex -8.78439 5.2135 5
      vertex -8.78439 5.2135 0
    endloop
  endfacet
  facet normal -0.707107 0.707107 0
    outer loop
      vertex 5.2135 -8.78439 0
      vertex 8.78439 -5.2135 5
      vertex 8.78439 -5.2135 0
    endloop
  endfacet
  facet normal -0.707107 0.707107 0
    outer loop
      vertex 8.78439 -5.2135 5
      vertex 5.2135 -8.78439 0
      vertex 5.2135 -8.78439 5
    endloop
  endfacet
  facet normal -0.707108 -0.707106 0
    outer loop
      vertex -1.30522 4.8761 0
      vertex -5.2135 8.78439 5
      vertex -5.2135 8.78439 0
    endloop
  endfacet
  facet normal -0.707108 -0.707106 0
    outer loop
      vertex -5.2135 8.78439 5
      vertex -1.30522 4.8761 0
      vertex -1.30522 4.8761 5
    endloop
  endfacet
  facet normal -0.707106 -0.707108 0
    outer loop
      vertex 8.78439 -5.2135 0
      vertex 4.8761 -1.30522 5
      vertex 4.8761 -1.30522 0
    endloop
  endfacet
  facet normal -0.707106 -0.707108 0
    outer loop
      vertex 4.8761 -1.30522 5
      vertex 8.78439 -5.2135 0
      vertex 8.78439 -5.2135 5
    endloop
  endfacet
  facet normal 0.707106 0.707108 0
    outer loop
      vertex -4.8761 1.30522 5
      vertex -8.78439 5.2135 0
      vertex -8.78439 5.2135 5
    endloop
  endfacet
  facet normal 0.707106 0.707108 0
    outer loop
      vertex -8.78439 5.2135 0
      vertex -4.8761 1.30522 5
      vertex -4.8761 1.30522 0
    endloop
  endfacet
  facet normal 0.707108 0.707106 0
    outer loop
      vertex 5.2135 -8.78439 5
      vertex 1.30522 -4.8761 0
      vertex 1.30522 -4.8761 5
    endloop
  endfacet
  facet normal 0.707108 0.707106 0
    outer loop
      vertex 1.30522 -4.8761 0
      vertex 5.2135 -8.78439 5
      vertex 5.2135 -8.78439 0
    endloop
  endfacet
  facet normal -0.999507 0.0314118 0
    outer loop
      vertex -15 0 0
      vertex -14.9704 0.941857 5
      vertex -14.9704 0.941857 0
    endloop
  endfacet
  facet normal -0.999507 0.0314118 0
    outer loop
      vertex -14.9704 0.941857 5
      vertex -15 0 0
      vertex -15 0 5
    endloop
  endfacet
  facet normal -0.999507 -0.0314118 0
    outer loop
      vertex -14.9704 -0.941857 0
      vertex -15 0 5
      vertex -15 0 0
    endloop
  endfacet
  facet normal -0.999507 -0.0314118 0
    outer loop
      vertex -15 0 5
      vertex -14.9704 -0.941857 0
      vertex -14.9704 -0.941857 5
    endloop
  endfacet
  facet normal 0.136355 0.99066 -0
    outer loop
      vertex 55.94 7.44086 0
      vertex 1.88 14.8817 5
      vertex 55.94 7.44086 5
    endloop
  endfacet
  facet normal 0.136355 0.99066 0
    outer loop
      vertex 1.88 14.8817 5
      vertex 55.94 7.44086 0
      vertex 1.88 14.8817 0
    endloop
  endfacet
  facet normal -0.750092 0.661334 0
    outer loop
      vertex -11.5577 9.56136 0
      vertex -10.9345 10.2682 5
      vertex -10.9345 10.2682 0
    endloop
  endfacet
  facet normal -0.750092 0.661334 0
    outer loop
      vertex -10.9345 10.2682 5
      vertex -11.5577 9.56136 0
      vertex -11.5577 9.56136 5
    endloop
  endfacet
  facet normal -0.940882 0.338735 0
    outer loop
      vertex -14.2658 4.63525 0
      vertex -13.9466 5.52187 5
      vertex -13.9466 5.52187 0
    endloop
  endfacet
  facet normal -0.940882 0.338735 0
    outer loop
      vertex -13.9466 5.52187 5
      vertex -14.2658 4.63525 0
      vertex -14.2658 4.63525 5
    endloop
  endfacet
  facet normal 0 0 1
    outer loop
      vertex 8.78439 5.2135 5
      vertex 5.04751 0.158625 5
      vertex 8.78439 -5.2135 5
    endloop
  endfacet
  facet normal 0 0 1
    outer loop
      vertex 8.78439 5.2135 5
      vertex 5.02759 0.475247 5
      vertex 5.04751 0.158625 5
    endloop
  endfacet
  facet normal 0 0 1
    outer loop
      vertex 8.78439 5.2135 5
      vertex 4.98783 0.789994 5
      vertex 5.02759 0.475247 5
    endloop
  endfacet
  facet normal 0 0 1
    outer loop
      vertex 8.78439 5.2135 5
      vertex 4.92838 1.10162 5
      vertex 4.98783 0.789994 5
    endloop
  endfacet
  facet normal 0 -0 1
    outer loop
      vertex 4.92838 1.10162 5
      vertex 8.78439 5.2135 5
      vertex 4.8761 1.30522 5
    endloop
  endfacet
  facet normal 0 0 1
    outer loop
      vertex 62.4852 0.470928 5
      vertex 62.4852 -0.470928 5
      vertex 62.5 0 5
    endloop
  endfacet
  facet normal 0 0 1
    outer loop
      vertex 62.4409 0.939999 5
      vertex 62.4852 -0.470928 5
      vertex 62.4852 0.470928 5
    endloop
  endfacet
  facet normal 0 0 1
    outer loop
      vertex 62.4409 0.939999 5
      vertex 62.4409 -0.939999 5
      vertex 62.4852 -0.470928 5
    endloop
  endfacet
  facet normal 0 0 1
    outer loop
      vertex 62.3672 1.40536 5
      vertex 62.4409 -0.939999 5
      vertex 62.4409 0.939999 5
    endloop
  endfacet
  facet normal 0 0 1
    outer loop
      vertex 62.3672 1.40536 5
      vertex 62.3672 -1.40536 5
      vertex 62.4409 -0.939999 5
    endloop
  endfacet
  facet normal 0 0 1
    outer loop
      vertex 62.2644 1.86517 5
      vertex 62.3672 -1.40536 5
      vertex 62.3672 1.40536 5
    endloop
  endfacet
  facet normal 0 0 1
    outer loop
      vertex 62.2644 1.86517 5
      vertex 62.2644 -1.86517 5
      vertex 62.3672 -1.40536 5
    endloop
  endfacet
  facet normal 0 0 1
    outer loop
      vertex 62.1329 2.31763 5
      vertex 62.2644 -1.86517 5
      vertex 62.2644 1.86517 5
    endloop
  endfacet
  facet normal 0 0 1
    outer loop
      vertex 62.1329 2.31763 5
      vertex 62.1329 -2.31763 5
      vertex 62.2644 -1.86517 5
    endloop
  endfacet
  facet normal 0 0 1
    outer loop
      vertex 61.9733 2.76093 5
      vertex 62.1329 -2.31763 5
      vertex 62.1329 2.31763 5
    endloop
  endfacet
  facet normal 0 0 1
    outer loop
      vertex 61.9733 2.76093 5
      vertex 61.9733 -2.76093 5
      vertex 62.1329 -2.31763 5
    endloop
  endfacet
  facet normal 0 0 1
    outer loop
      vertex 61.7862 3.19334 5
      vertex 61.9733 -2.76093 5
      vertex 61.9733 2.76093 5
    endloop
  endfacet
  facet normal 0 0 1
    outer loop
      vertex 61.7862 3.19334 5
      vertex 61.7862 -3.19334 5
      vertex 61.9733 -2.76093 5
    endloop
  endfacet
  facet normal 0 0 1
    outer loop
      vertex 61.5723 3.61315 5
      vertex 61.7862 -3.19334 5
      vertex 61.7862 3.19334 5
    endloop
  endfacet
  facet normal 0 0 1
    outer loop
      vertex 61.5723 3.61315 5
      vertex 61.5723 -3.61315 5
      vertex 61.7862 -3.19334 5
    endloop
  endfacet
  facet normal 0 0 1
    outer loop
      vertex 61.3325 4.0187 5
      vertex 61.5723 -3.61315 5
      vertex 61.5723 3.61315 5
    endloop
  endfacet
  facet normal 0 0 1
    outer loop
      vertex 61.3325 4.0187 5
      vertex 61.3325 -4.0187 5
      vertex 61.5723 -3.61315 5
    endloop
  endfacet
  facet normal 0 0 1
    outer loop
      vertex 61.0676 4.40839 5
      vertex 61.3325 -4.0187 5
      vertex 61.3325 4.0187 5
    endloop
  endfacet
  facet normal 0 0 1
    outer loop
      vertex 61.0676 4.40839 5
      vertex 61.0676 -4.40839 5
      vertex 61.3325 -4.0187 5
    endloop
  endfacet
  facet normal 0 0 1
    outer loop
      vertex 60.7788 4.78068 5
      vertex 61.0676 -4.40839 5
      vertex 61.0676 4.40839 5
    endloop
  endfacet
  facet normal 0 0 1
    outer loop
      vertex 60.7788 4.78068 5
      vertex 60.7788 -4.78068 5
      vertex 61.0676 -4.40839 5
    endloop
  endfacet
  facet normal 0 0 1
    outer loop
      vertex 60.4673 5.1341 5
      vertex 60.7788 -4.78068 5
      vertex 60.7788 4.78068 5
    endloop
  endfacet
  facet normal 0 0 1
    outer loop
      vertex 60.4673 5.1341 5
      vertex 60.4673 -5.1341 5
      vertex 60.7788 -4.78068 5
    endloop
  endfacet
  facet normal 0 0 1
    outer loop
      vertex 60.1341 5.46726 5
      vertex 60.4673 -5.1341 5
      vertex 60.4673 5.1341 5
    endloop
  endfacet
  facet normal 0 0 1
    outer loop
      vertex 60.1341 5.46726 5
      vertex 60.1341 -5.46726 5
      vertex 60.4673 -5.1341 5
    endloop
  endfacet
  facet normal 0 0 1
    outer loop
      vertex 59.7807 5.77885 5
      vertex 60.1341 -5.46726 5
      vertex 60.1341 5.46726 5
    endloop
  endfacet
  facet normal 0 0 1
    outer loop
      vertex 59.7807 5.77885 5
      vertex 59.7807 -5.77885 5
      vertex 60.1341 -5.46726 5
    endloop
  endfacet
  facet normal 0 0 1
    outer loop
      vertex 59.4084 6.06763 5
      vertex 59.7807 -5.77885 5
      vertex 59.7807 5.77885 5
    endloop
  endfacet
  facet normal 0 0 1
    outer loop
      vertex 59.4084 6.06763 5
      vertex 59.4084 -6.06763 5
      vertex 59.7807 -5.77885 5
    endloop
  endfacet
  facet normal 0 0 1
    outer loop
      vertex 59.0187 6.33246 5
      vertex 59.4084 -6.06763 5
      vertex 59.4084 6.06763 5
    endloop
  endfacet
  facet normal 0 0 1
    outer loop
      vertex 59.0187 6.33246 5
      vertex 59.0187 -6.33246 5
      vertex 59.4084 -6.06763 5
    endloop
  endfacet
  facet normal 0 0 1
    outer loop
      vertex 58.6132 6.5723 5
      vertex 59.0187 -6.33246 5
      vertex 59.0187 6.33246 5
    endloop
  endfacet
  facet normal 0 0 1
    outer loop
      vertex 58.6132 6.5723 5
      vertex 58.6132 -6.5723 5
      vertex 59.0187 -6.33246 5
    endloop
  endfacet
  facet normal 0 0 1
    outer loop
      vertex 58.1933 6.7862 5
      vertex 58.6132 -6.5723 5
      vertex 58.6132 6.5723 5
    endloop
  endfacet
  facet normal 0 0 1
    outer loop
      vertex 58.1933 6.7862 5
      vertex 58.1933 -6.7862 5
      vertex 58.6132 -6.5723 5
    endloop
  endfacet
  facet normal 0 0 1
    outer loop
      vertex 57.7609 6.97332 5
      vertex 58.1933 -6.7862 5
      vertex 58.1933 6.7862 5
    endloop
  endfacet
  facet normal 0 0 1
    outer loop
      vertex 57.7609 6.97332 5
      vertex 57.7609 -6.97332 5
      vertex 58.1933 -6.7862 5
    endloop
  endfacet
  facet normal 0 0 1
    outer loop
      vertex 57.3176 7.13292 5
      vertex 57.7609 -6.97332 5
      vertex 57.7609 6.97332 5
    endloop
  endfacet
  facet normal 0 0 1
    outer loop
      vertex 57.3176 7.13292 5
      vertex 57.3176 -7.13292 5
      vertex 57.7609 -6.97332 5
    endloop
  endfacet
  facet normal 0 0 1
    outer loop
      vertex 56.8652 7.26437 5
      vertex 57.3176 -7.13292 5
      vertex 57.3176 7.13292 5
    endloop
  endfacet
  facet normal 0 0 1
    outer loop
      vertex 56.8652 7.26437 5
      vertex 56.8652 -7.26437 5
      vertex 57.3176 -7.13292 5
    endloop
  endfacet
  facet normal 0 0 1
    outer loop
      vertex 56.4054 7.36715 5
      vertex 56.8652 -7.26437 5
      vertex 56.8652 7.26437 5
    endloop
  endfacet
  facet normal 0 0 1
    outer loop
      vertex 56.4054 7.36715 5
      vertex 56.4054 -7.36715 5
      vertex 56.8652 -7.26437 5
    endloop
  endfacet
  facet normal 0 0 1
    outer loop
      vertex 55.94 7.44086 5
      vertex 56.4054 -7.36715 5
      vertex 56.4054 7.36715 5
    endloop
  endfacet
  facet normal 0 0 1
    outer loop
      vertex 55.94 7.44086 5
      vertex 55.94 -7.44086 5
      vertex 56.4054 -7.36715 5
    endloop
  endfacet
  facet normal 0 0 1
    outer loop
      vertex 55.94 7.44086 5
      vertex 8.78439 5.2135 5
      vertex 55.94 -7.44086 5
    endloop
  endfacet
  facet normal 0 0 1
    outer loop
      vertex 1.88 14.8817 5
      vertex 8.78439 5.2135 5
      vertex 55.94 7.44086 5
    endloop
  endfacet
  facet normal 0 0 1
    outer loop
      vertex 8.78439 5.2135 5
      vertex 1.88 14.8817 5
      vertex 5.2135 8.78439 5
    endloop
  endfacet
  facet normal 0 0 1
    outer loop
      vertex 0.941857 14.9704 5
      vertex 5.2135 8.78439 5
      vertex 1.88 14.8817 5
    endloop
  endfacet
  facet normal 0 0 1
    outer loop
      vertex 5.2135 8.78439 5
      vertex 1.10162 4.92838 5
      vertex 1.30522 4.8761 5
    endloop
  endfacet
  facet normal 0 0 1
    outer loop
      vertex 0.158625 5.04751 5
      vertex 5.2135 8.78439 5
      vertex 0.941857 14.9704 5
    endloop
  endfacet
  facet normal 0 0 1
    outer loop
      vertex 5.2135 8.78439 5
      vertex 0.789994 4.98783 5
      vertex 1.10162 4.92838 5
    endloop
  endfacet
  facet normal 0 0 1
    outer loop
      vertex 5.2135 8.78439 5
      vertex 0.475247 5.02759 5
      vertex 0.789994 4.98783 5
    endloop
  endfacet
  facet normal 0 0 1
    outer loop
      vertex 5.2135 8.78439 5
      vertex 0.158625 5.04751 5
      vertex 0.475247 5.02759 5
    endloop
  endfacet
  facet normal 0 0 1
    outer loop
      vertex 0 15 5
      vertex 0.158625 5.04751 5
      vertex 0.941857 14.9704 5
    endloop
  endfacet
  facet normal 0 0 1
    outer loop
      vertex 0 15 5
      vertex -0.158625 5.04751 5
      vertex 0.158625 5.04751 5
    endloop
  endfacet
  facet normal -0 0 1
    outer loop
      vertex -0.941857 14.9704 5
      vertex -0.158625 5.04751 5
      vertex 0 15 5
    endloop
  endfacet
  facet normal -0 0 1
    outer loop
      vertex -5.2135 8.78439 5
      vertex -0.158625 5.04751 5
      vertex -0.941857 14.9704 5
    endloop
  endfacet
  facet normal 0 0 1
    outer loop
      vertex -0.158625 5.04751 5
      vertex -5.2135 8.78439 5
      vertex -0.475247 5.02759 5
    endloop
  endfacet
  facet normal 0 0 1
    outer loop
      vertex -0.475247 5.02759 5
      vertex -5.2135 8.78439 5
      vertex -0.789994 4.98783 5
    endloop
  endfacet
  facet normal 0 0 1
    outer loop
      vertex -0.789994 4.98783 5
      vertex -5.2135 8.78439 5
      vertex -1.10162 4.92838 5
    endloop
  endfacet
  facet normal 0 0 1
    outer loop
      vertex -5.2135 8.78439 5
      vertex -0.941857 14.9704 5
      vertex -1.88 14.8817 5
    endloop
  endfacet
  facet normal 0 0 1
    outer loop
      vertex -5.2135 8.78439 5
      vertex -1.88 14.8817 5
      vertex -2.81072 14.7343 5
    endloop
  endfacet
  facet normal 0 0 1
    outer loop
      vertex -5.2135 8.78439 5
      vertex -2.81072 14.7343 5
      vertex -3.73035 14.5287 5
    endloop
  endfacet
  facet normal 0 0 1
    outer loop
      vertex -5.2135 8.78439 5
      vertex -3.73035 14.5287 5
      vertex -4.63525 14.2658 5
    endloop
  endfacet
  facet normal 0 0 1
    outer loop
      vertex -1.10162 4.92838 5
      vertex -5.2135 8.78439 5
      vertex -1.30522 4.8761 5
    endloop
  endfacet
  facet normal -0 0 1
    outer loop
      vertex -5.52187 13.9466 5
      vertex -5.2135 8.78439 5
      vertex -4.63525 14.2658 5
    endloop
  endfacet
  facet normal -0 0 1
    outer loop
      vertex -6.38669 13.5724 5
      vertex -5.2135 8.78439 5
      vertex -5.52187 13.9466 5
    endloop
  endfacet
  facet normal -0 0 1
    outer loop
      vertex -7.22631 13.1446 5
      vertex -5.2135 8.78439 5
      vertex -6.38669 13.5724 5
    endloop
  endfacet
  facet normal -0 0 1
    outer loop
      vertex -8.0374 12.6649 5
      vertex -5.2135 8.78439 5
      vertex -7.22631 13.1446 5
    endloop
  endfacet
  facet normal -0 0 1
    outer loop
      vertex -8.81678 12.1353 5
      vertex -5.2135 8.78439 5
      vertex -8.0374 12.6649 5
    endloop
  endfacet
  facet normal -0 0 1
    outer loop
      vertex -10.2682 10.9345 5
      vertex -5.2135 8.78439 5
      vertex -9.56136 11.5577 5
    endloop
  endfacet
  facet normal -0 0 1
    outer loop
      vertex -9.56136 11.5577 5
      vertex -5.2135 8.78439 5
      vertex -8.81678 12.1353 5
    endloop
  endfacet
  facet normal -0 0 1
    outer loop
      vertex 8.78439 -5.2135 5
      vertex 55.94 -7.44086 5
      vertex 8.78439 5.2135 5
    endloop
  endfacet
  facet normal 0 0 1
    outer loop
      vertex 1.88 -14.8817 5
      vertex 8.78439 -5.2135 5
      vertex 5.2135 -8.78439 5
    endloop
  endfacet
  facet normal 0 0 1
    outer loop
      vertex 8.78439 -5.2135 5
      vertex 1.88 -14.8817 5
      vertex 55.94 -7.44086 5
    endloop
  endfacet
  facet normal -0 0 1
    outer loop
      vertex 1.10162 -4.92838 5
      vertex 5.2135 -8.78439 5
      vertex 1.30522 -4.8761 5
    endloop
  endfacet
  facet normal -0 0 1
    outer loop
      vertex 0.789994 -4.98783 5
      vertex 5.2135 -8.78439 5
      vertex 1.10162 -4.92838 5
    endloop
  endfacet
  facet normal -0 0 1
    outer loop
      vertex 0.475247 -5.02759 5
      vertex 5.2135 -8.78439 5
      vertex 0.789994 -4.98783 5
    endloop
  endfacet
  facet normal -0 0 1
    outer loop
      vertex 0.158625 -5.04751 5
      vertex 5.2135 -8.78439 5
      vertex 0.475247 -5.02759 5
    endloop
  endfacet
  facet normal 0 0 1
    outer loop
      vertex 5.2135 -8.78439 5
      vertex 0.941857 -14.9704 5
      vertex 1.88 -14.8817 5
    endloop
  endfacet
  facet normal 0 0 1
    outer loop
      vertex 5.2135 -8.78439 5
      vertex 0.158625 -5.04751 5
      vertex 0.941857 -14.9704 5
    endloop
  endfacet
  facet normal 0 0 1
    outer loop
      vertex 0.158625 -5.04751 5
      vertex 0 -15 5
      vertex 0.941857 -14.9704 5
    endloop
  endfacet
  facet normal -0 0 1
    outer loop
      vertex -0.158625 -5.04751 5
      vertex 0 -15 5
      vertex 0.158625 -5.04751 5
    endloop
  endfacet
  facet normal 0 0 1
    outer loop
      vertex -5.2135 -8.78439 5
      vertex -0.158625 -5.04751 5
      vertex -0.475247 -5.02759 5
    endloop
  endfacet
  facet normal 0 0 1
    outer loop
      vertex -5.2135 -8.78439 5
      vertex -0.475247 -5.02759 5
      vertex -0.789994 -4.98783 5
    endloop
  endfacet
  facet normal 0 0 1
    outer loop
      vertex -0.158625 -5.04751 5
      vertex -0.941857 -14.9704 5
      vertex 0 -15 5
    endloop
  endfacet
  facet normal 0 0 1
    outer loop
      vertex -5.2135 -8.78439 5
      vertex -0.789994 -4.98783 5
      vertex -1.10162 -4.92838 5
    endloop
  endfacet
  facet normal 0 0 1
    outer loop
      vertex -5.2135 -8.78439 5
      vertex -1.10162 -4.92838 5
      vertex -1.30522 -4.8761 5
    endloop
  endfacet
  facet normal 0 0 1
    outer loop
      vertex -0.158625 -5.04751 5
      vertex -5.2135 -8.78439 5
      vertex -0.941857 -14.9704 5
    endloop
  endfacet
  facet normal 0 0 1
    outer loop
      vertex -0.941857 -14.9704 5
      vertex -5.2135 -8.78439 5
      vertex -1.88 -14.8817 5
    endloop
  endfacet
  facet normal 0 0 1
    outer loop
      vertex -1.88 -14.8817 5
      vertex -5.2135 -8.78439 5
      vertex -2.81072 -14.7343 5
    endloop
  endfacet
  facet normal 0 0 1
    outer loop
      vertex -2.81072 -14.7343 5
      vertex -5.2135 -8.78439 5
      vertex -3.73035 -14.5287 5
    endloop
  endfacet
  facet normal 0 0 1
    outer loop
      vertex -3.73035 -14.5287 5
      vertex -5.2135 -8.78439 5
      vertex -4.63525 -14.2658 5
    endloop
  endfacet
  facet normal 0 0 1
    outer loop
      vertex -5.2135 -8.78439 5
      vertex -5.52187 -13.9466 5
      vertex -4.63525 -14.2658 5
    endloop
  endfacet
  facet normal 0 0 1
    outer loop
      vertex -5.2135 -8.78439 5
      vertex -6.38669 -13.5724 5
      vertex -5.52187 -13.9466 5
    endloop
  endfacet
  facet normal 0 0 1
    outer loop
      vertex -5.2135 -8.78439 5
      vertex -7.22631 -13.1446 5
      vertex -6.38669 -13.5724 5
    endloop
  endfacet
  facet normal 0 0 1
    outer loop
      vertex -5.2135 -8.78439 5
      vertex -8.0374 -12.6649 5
      vertex -7.22631 -13.1446 5
    endloop
  endfacet
  facet normal 0 0 1
    outer loop
      vertex -10.2682 -10.9345 5
      vertex -5.2135 -8.78439 5
      vertex -8.78439 -5.2135 5
    endloop
  endfacet
  facet normal 0 0 1
    outer loop
      vertex -5.2135 -8.78439 5
      vertex -8.81678 -12.1353 5
      vertex -8.0374 -12.6649 5
    endloop
  endfacet
  facet normal 0 0 1
    outer loop
      vertex -5.2135 8.78439 5
      vertex -10.2682 10.9345 5
      vertex -8.78439 5.2135 5
    endloop
  endfacet
  facet normal -0 0 1
    outer loop
      vertex -10.9345 10.2682 5
      vertex -8.78439 5.2135 5
      vertex -10.2682 10.9345 5
    endloop
  endfacet
  facet normal 0 0 1
    outer loop
      vertex -5.2135 -8.78439 5
      vertex -9.56136 -11.5577 5
      vertex -8.81678 -12.1353 5
    endloop
  endfacet
  facet normal -0 0 1
    outer loop
      vertex -11.5577 9.56136 5
      vertex -8.78439 5.2135 5
      vertex -10.9345 10.2682 5
    endloop
  endfacet
  facet normal 0 0 1
    outer loop
      vertex -5.2135 -8.78439 5
      vertex -10.2682 -10.9345 5
      vertex -9.56136 -11.5577 5
    endloop
  endfacet
  facet normal -0 0 1
    outer loop
      vertex -12.1353 8.81678 5
      vertex -8.78439 5.2135 5
      vertex -11.5577 9.56136 5
    endloop
  endfacet
  facet normal 0 0 1
    outer loop
      vertex -8.78439 -5.2135 5
      vertex -10.9345 -10.2682 5
      vertex -10.2682 -10.9345 5
    endloop
  endfacet
  facet normal -0 0 1
    outer loop
      vertex -12.6649 8.0374 5
      vertex -8.78439 5.2135 5
      vertex -12.1353 8.81678 5
    endloop
  endfacet
  facet normal 0 0 1
    outer loop
      vertex -8.78439 -5.2135 5
      vertex -11.5577 -9.56136 5
      vertex -10.9345 -10.2682 5
    endloop
  endfacet
  facet normal -0 0 1
    outer loop
      vertex -13.1446 7.22631 5
      vertex -8.78439 5.2135 5
      vertex -12.6649 8.0374 5
    endloop
  endfacet
  facet normal 0 0 1
    outer loop
      vertex -8.78439 -5.2135 5
      vertex -12.1353 -8.81678 5
      vertex -11.5577 -9.56136 5
    endloop
  endfacet
  facet normal -0 0 1
    outer loop
      vertex -13.5724 6.38669 5
      vertex -8.78439 5.2135 5
      vertex -13.1446 7.22631 5
    endloop
  endfacet
  facet normal 0 0 1
    outer loop
      vertex -8.78439 -5.2135 5
      vertex -12.6649 -8.0374 5
      vertex -12.1353 -8.81678 5
    endloop
  endfacet
  facet normal -0 0 1
    outer loop
      vertex -13.9466 5.52187 5
      vertex -8.78439 5.2135 5
      vertex -13.5724 6.38669 5
    endloop
  endfacet
  facet normal 0 0 1
    outer loop
      vertex -8.78439 -5.2135 5
      vertex -13.1446 -7.22631 5
      vertex -12.6649 -8.0374 5
    endloop
  endfacet
  facet normal 0 0 1
    outer loop
      vertex -14.2658 4.63525 5
      vertex -8.78439 5.2135 5
      vertex -13.9466 5.52187 5
    endloop
  endfacet
  facet normal 0 0 1
    outer loop
      vertex -8.78439 -5.2135 5
      vertex -13.5724 -6.38669 5
      vertex -13.1446 -7.22631 5
    endloop
  endfacet
  facet normal 0 0 1
    outer loop
      vertex -14.5287 3.73035 5
      vertex -8.78439 5.2135 5
      vertex -14.2658 4.63525 5
    endloop
  endfacet
  facet normal 0 0 1
    outer loop
      vertex -8.78439 -5.2135 5
      vertex -13.9466 -5.52187 5
      vertex -13.5724 -6.38669 5
    endloop
  endfacet
  facet normal 0 0 1
    outer loop
      vertex -14.7343 2.81072 5
      vertex -8.78439 5.2135 5
      vertex -14.5287 3.73035 5
    endloop
  endfacet
  facet normal 0 0 1
    outer loop
      vertex -8.78439 -5.2135 5
      vertex -14.2658 -4.63525 5
      vertex -13.9466 -5.52187 5
    endloop
  endfacet
  facet normal 0 0 1
    outer loop
      vertex -14.8817 1.88 5
      vertex -8.78439 5.2135 5
      vertex -14.7343 2.81072 5
    endloop
  endfacet
  facet normal 0 0 1
    outer loop
      vertex -8.78439 -5.2135 5
      vertex -14.5287 -3.73035 5
      vertex -14.2658 -4.63525 5
    endloop
  endfacet
  facet normal 0 0 1
    outer loop
      vertex -14.9704 0.941857 5
      vertex -8.78439 5.2135 5
      vertex -14.8817 1.88 5
    endloop
  endfacet
  facet normal 0 0 1
    outer loop
      vertex -8.78439 -5.2135 5
      vertex -14.7343 -2.81072 5
      vertex -14.5287 -3.73035 5
    endloop
  endfacet
  facet normal 0 0 1
    outer loop
      vertex -15 0 5
      vertex -8.78439 5.2135 5
      vertex -14.9704 0.941857 5
    endloop
  endfacet
  facet normal 0 0 1
    outer loop
      vertex -8.78439 -5.2135 5
      vertex -14.8817 -1.88 5
      vertex -14.7343 -2.81072 5
    endloop
  endfacet
  facet normal 0 0 1
    outer loop
      vertex -8.78439 5.2135 5
      vertex -15 0 5
      vertex -8.78439 -5.2135 5
    endloop
  endfacet
  facet normal 0 0 1
    outer loop
      vertex -8.78439 -5.2135 5
      vertex -14.9704 -0.941857 5
      vertex -14.8817 -1.88 5
    endloop
  endfacet
  facet normal 0 0 1
    outer loop
      vertex -8.78439 -5.2135 5
      vertex -15 0 5
      vertex -14.9704 -0.941857 5
    endloop
  endfacet
  facet normal -0 0 1
    outer loop
      vertex 5.04751 -0.158625 5
      vertex 8.78439 -5.2135 5
      vertex 5.04751 0.158625 5
    endloop
  endfacet
  facet normal -0 0 1
    outer loop
      vertex 5.02759 -0.475247 5
      vertex 8.78439 -5.2135 5
      vertex 5.04751 -0.158625 5
    endloop
  endfacet
  facet normal -0 0 1
    outer loop
      vertex 4.98783 -0.789994 5
      vertex 8.78439 -5.2135 5
      vertex 5.02759 -0.475247 5
    endloop
  endfacet
  facet normal -0 0 1
    outer loop
      vertex 4.92838 -1.10162 5
      vertex 8.78439 -5.2135 5
      vertex 4.98783 -0.789994 5
    endloop
  endfacet
  facet normal 0 0 1
    outer loop
      vertex 8.78439 -5.2135 5
      vertex 4.92838 -1.10162 5
      vertex 4.8761 -1.30522 5
    endloop
  endfacet
  facet normal 0 0 1
    outer loop
      vertex -5.04751 0.158625 5
      vertex -8.78439 5.2135 5
      vertex -5.04751 -0.158625 5
    endloop
  endfacet
  facet normal 0 0 1
    outer loop
      vertex -5.02759 0.475247 5
      vertex -8.78439 5.2135 5
      vertex -5.04751 0.158625 5
    endloop
  endfacet
  facet normal 0 0 1
    outer loop
      vertex -4.98783 0.789994 5
      vertex -8.78439 5.2135 5
      vertex -5.02759 0.475247 5
    endloop
  endfacet
  facet normal 0 0 1
    outer loop
      vertex -4.92838 1.10162 5
      vertex -8.78439 5.2135 5
      vertex -4.98783 0.789994 5
    endloop
  endfacet
  facet normal 0 0 1
    outer loop
      vertex -8.78439 5.2135 5
      vertex -4.92838 1.10162 5
      vertex -4.8761 1.30522 5
    endloop
  endfacet
  facet normal 0 0 1
    outer loop
      vertex -8.78439 -5.2135 5
      vertex -5.04751 -0.158625 5
      vertex -8.78439 5.2135 5
    endloop
  endfacet
  facet normal 0 0 1
    outer loop
      vertex -5.04751 -0.158625 5
      vertex -8.78439 -5.2135 5
      vertex -5.02759 -0.475247 5
    endloop
  endfacet
  facet normal 0 0 1
    outer loop
      vertex -5.02759 -0.475247 5
      vertex -8.78439 -5.2135 5
      vertex -4.98783 -0.789994 5
    endloop
  endfacet
  facet normal 0 0 1
    outer loop
      vertex -4.98783 -0.789994 5
      vertex -8.78439 -5.2135 5
      vertex -4.92838 -1.10162 5
    endloop
  endfacet
  facet normal 0 0 1
    outer loop
      vertex -4.92838 -1.10162 5
      vertex -8.78439 -5.2135 5
      vertex -4.8761 -1.30522 5
    endloop
  endfacet
  facet normal -0.975908 -0.218182 0
    outer loop
      vertex -14.5287 -3.73035 0
      vertex -14.7343 -2.81072 5
      vertex -14.7343 -2.81072 0
    endloop
  endfacet
  facet normal -0.975908 -0.218182 0
    outer loop
      vertex -14.7343 -2.81072 5
      vertex -14.5287 -3.73035 0
      vertex -14.5287 -3.73035 5
    endloop
  endfacet
  facet normal 0.940879 -0.338742 0
    outer loop
      vertex 61.9733 -2.76093 5
      vertex 62.1329 -2.31763 0
      vertex 62.1329 -2.31763 5
    endloop
  endfacet
  facet normal 0.940879 -0.338742 0
    outer loop
      vertex 62.1329 -2.31763 0
      vertex 61.9733 -2.76093 5
      vertex 61.9733 -2.76093 0
    endloop
  endfacet
  facet normal 0.136355 -0.99066 0
    outer loop
      vertex 1.88 -14.8817 0
      vertex 55.94 -7.44086 5
      vertex 1.88 -14.8817 5
    endloop
  endfacet
  facet normal 0.136355 -0.99066 0
    outer loop
      vertex 55.94 -7.44086 5
      vertex 1.88 -14.8817 0
      vertex 55.94 -7.44086 0
    endloop
  endfacet
  facet normal -0.750092 -0.661334 0
    outer loop
      vertex -10.9345 -10.2682 0
      vertex -11.5577 -9.56136 5
      vertex -11.5577 -9.56136 0
    endloop
  endfacet
  facet normal -0.750092 -0.661334 0
    outer loop
      vertex -11.5577 -9.56136 5
      vertex -10.9345 -10.2682 0
      vertex -10.9345 -10.2682 5
    endloop
  endfacet
  facet normal 0.0314118 0.999507 -0
    outer loop
      vertex 0.941857 14.9704 0
      vertex 0 15 5
      vertex 0.941857 14.9704 5
    endloop
  endfacet
  facet normal 0.0314118 0.999507 0
    outer loop
      vertex 0 15 5
      vertex 0.941857 14.9704 0
      vertex 0 15 0
    endloop
  endfacet
  facet normal 0.15643 0.987689 -0
    outer loop
      vertex 56.4054 7.36715 0
      vertex 55.94 7.44086 5
      vertex 56.4054 7.36715 5
    endloop
  endfacet
  facet normal 0.15643 0.987689 0
    outer loop
      vertex 55.94 7.44086 5
      vertex 56.4054 7.36715 0
      vertex 55.94 7.44086 0
    endloop
  endfacet
  facet normal 0.0941287 0.99556 -0
    outer loop
      vertex 1.88 14.8817 0
      vertex 0.941857 14.9704 5
      vertex 1.88 14.8817 5
    endloop
  endfacet
  facet normal 0.0941287 0.99556 0
    outer loop
      vertex 0.941857 14.9704 5
      vertex 1.88 14.8817 0
      vertex 0.941857 14.9704 0
    endloop
  endfacet
  facet normal -0.397111 0.91777 0
    outer loop
      vertex -5.52187 13.9466 0
      vertex -6.38669 13.5724 5
      vertex -5.52187 13.9466 5
    endloop
  endfacet
  facet normal -0.397111 0.91777 0
    outer loop
      vertex -6.38669 13.5724 5
      vertex -5.52187 13.9466 0
      vertex -6.38669 13.5724 0
    endloop
  endfacet
  facet normal -0.156422 0.98769 0
    outer loop
      vertex -1.88 14.8817 0
      vertex -2.81072 14.7343 5
      vertex -1.88 14.8817 5
    endloop
  endfacet
  facet normal -0.156422 0.98769 0
    outer loop
      vertex -2.81072 14.7343 5
      vertex -1.88 14.8817 0
      vertex -2.81072 14.7343 0
    endloop
  endfacet
  facet normal -0.790132 0.612937 0
    outer loop
      vertex -12.1353 8.81678 0
      vertex -11.5577 9.56136 5
      vertex -11.5577 9.56136 0
    endloop
  endfacet
  facet normal -0.790132 0.612937 0
    outer loop
      vertex -11.5577 9.56136 5
      vertex -12.1353 8.81678 0
      vertex -12.1353 8.81678 5
    endloop
  endfacet
  facet normal -0.99556 0.0941287 0
    outer loop
      vertex -14.9704 0.941857 0
      vertex -14.8817 1.88 5
      vertex -14.8817 1.88 0
    endloop
  endfacet
  facet normal -0.99556 0.0941287 0
    outer loop
      vertex -14.8817 1.88 5
      vertex -14.9704 0.941857 0
      vertex -14.9704 0.941857 5
    endloop
  endfacet
  facet normal 0.509085 -0.860716 0
    outer loop
      vertex 58.6132 -6.5723 0
      vertex 59.0187 -6.33246 5
      vertex 58.6132 -6.5723 5
    endloop
  endfacet
  facet normal 0.509085 -0.860716 0
    outer loop
      vertex 59.0187 -6.33246 5
      vertex 58.6132 -6.5723 0
      vertex 59.0187 -6.33246 0
    endloop
  endfacet
  facet normal -0.98769 -0.156422 0
    outer loop
      vertex -14.7343 -2.81072 0
      vertex -14.8817 -1.88 5
      vertex -14.8817 -1.88 0
    endloop
  endfacet
  facet normal -0.98769 -0.156422 0
    outer loop
      vertex -14.8817 -1.88 5
      vertex -14.7343 -2.81072 0
      vertex -14.7343 -2.81072 5
    endloop
  endfacet
  facet normal -0.827113 -0.562035 0
    outer loop
      vertex -12.1353 -8.81678 0
      vertex -12.6649 -8.0374 5
      vertex -12.6649 -8.0374 0
    endloop
  endfacet
  facet normal -0.827113 -0.562035 0
    outer loop
      vertex -12.6649 -8.0374 5
      vertex -12.1353 -8.81678 0
      vertex -12.1353 -8.81678 5
    endloop
  endfacet
  facet normal -0.860731 -0.509059 0
    outer loop
      vertex -12.6649 -8.0374 0
      vertex -13.1446 -7.22631 5
      vertex -13.1446 -7.22631 0
    endloop
  endfacet
  facet normal -0.860731 -0.509059 0
    outer loop
      vertex -13.1446 -7.22631 5
      vertex -12.6649 -8.0374 0
      vertex -12.6649 -8.0374 5
    endloop
  endfacet
  facet normal 0.975908 0.218184 0
    outer loop
      vertex 62.3672 1.40536 5
      vertex 62.2644 1.86517 0
      vertex 62.2644 1.86517 5
    endloop
  endfacet
  facet normal 0.975908 0.218184 0
    outer loop
      vertex 62.2644 1.86517 0
      vertex 62.3672 1.40536 5
      vertex 62.3672 1.40536 0
    endloop
  endfacet
  facet normal -0.562035 0.827113 0
    outer loop
      vertex -8.0374 12.6649 0
      vertex -8.81678 12.1353 5
      vertex -8.0374 12.6649 5
    endloop
  endfacet
  facet normal -0.562035 0.827113 0
    outer loop
      vertex -8.81678 12.1353 5
      vertex -8.0374 12.6649 0
      vertex -8.81678 12.1353 0
    endloop
  endfacet
  facet normal -0.661334 0.750092 0
    outer loop
      vertex -9.56136 11.5577 0
      vertex -10.2682 10.9345 5
      vertex -9.56136 11.5577 5
    endloop
  endfacet
  facet normal -0.661334 0.750092 0
    outer loop
      vertex -10.2682 10.9345 5
      vertex -9.56136 11.5577 0
      vertex -10.2682 10.9345 0
    endloop
  endfacet
  facet normal -0.612937 0.790132 0
    outer loop
      vertex -8.81678 12.1353 0
      vertex -9.56136 11.5577 5
      vertex -8.81678 12.1353 5
    endloop
  endfacet
  facet normal -0.612937 0.790132 0
    outer loop
      vertex -9.56136 11.5577 5
      vertex -8.81678 12.1353 0
      vertex -9.56136 11.5577 0
    endloop
  endfacet
  facet normal -0.509059 0.860731 0
    outer loop
      vertex -7.22631 13.1446 0
      vertex -8.0374 12.6649 5
      vertex -7.22631 13.1446 5
    endloop
  endfacet
  facet normal -0.509059 0.860731 0
    outer loop
      vertex -8.0374 12.6649 5
      vertex -7.22631 13.1446 0
      vertex -8.0374 12.6649 0
    endloop
  endfacet
  facet normal -0.453984 0.89101 0
    outer loop
      vertex -6.38669 13.5724 0
      vertex -7.22631 13.1446 5
      vertex -6.38669 13.5724 5
    endloop
  endfacet
  facet normal -0.453984 0.89101 0
    outer loop
      vertex -7.22631 13.1446 5
      vertex -6.38669 13.5724 0
      vertex -7.22631 13.1446 0
    endloop
  endfacet
  facet normal -0.338735 0.940882 0
    outer loop
      vertex -4.63525 14.2658 0
      vertex -5.52187 13.9466 5
      vertex -4.63525 14.2658 5
    endloop
  endfacet
  facet normal -0.338735 0.940882 0
    outer loop
      vertex -5.52187 13.9466 5
      vertex -4.63525 14.2658 0
      vertex -5.52187 13.9466 0
    endloop
  endfacet
  facet normal -0.0314118 0.999507 0
    outer loop
      vertex 0 15 0
      vertex -0.941857 14.9704 5
      vertex 0 15 5
    endloop
  endfacet
  facet normal -0.0314118 0.999507 0
    outer loop
      vertex -0.941857 14.9704 5
      vertex 0 15 0
      vertex -0.941857 14.9704 0
    endloop
  endfacet
  facet normal -0.707107 0.707107 0
    outer loop
      vertex -10.9345 10.2682 0
      vertex -10.2682 10.9345 5
      vertex -10.2682 10.9345 0
    endloop
  endfacet
  facet normal -0.707107 0.707107 0
    outer loop
      vertex -10.2682 10.9345 5
      vertex -10.9345 10.2682 0
      vertex -10.9345 10.2682 5
    endloop
  endfacet
  facet normal -0.91777 0.397111 0
    outer loop
      vertex -13.9466 5.52187 0
      vertex -13.5724 6.38669 5
      vertex -13.5724 6.38669 0
    endloop
  endfacet
  facet normal -0.91777 0.397111 0
    outer loop
      vertex -13.5724 6.38669 5
      vertex -13.9466 5.52187 0
      vertex -13.9466 5.52187 5
    endloop
  endfacet
  facet normal -0.89101 0.453984 0
    outer loop
      vertex -13.5724 6.38669 0
      vertex -13.1446 7.22631 5
      vertex -13.1446 7.22631 0
    endloop
  endfacet
  facet normal -0.89101 0.453984 0
    outer loop
      vertex -13.1446 7.22631 5
      vertex -13.5724 6.38669 0
      vertex -13.5724 6.38669 5
    endloop
  endfacet
  facet normal -0.975908 0.218182 0
    outer loop
      vertex -14.7343 2.81072 0
      vertex -14.5287 3.73035 5
      vertex -14.5287 3.73035 0
    endloop
  endfacet
  facet normal -0.975908 0.218182 0
    outer loop
      vertex -14.5287 3.73035 5
      vertex -14.7343 2.81072 0
      vertex -14.7343 2.81072 5
    endloop
  endfacet
  facet normal -0.98769 0.156422 0
    outer loop
      vertex -14.8817 1.88 0
      vertex -14.7343 2.81072 5
      vertex -14.7343 2.81072 0
    endloop
  endfacet
  facet normal -0.98769 0.156422 0
    outer loop
      vertex -14.7343 2.81072 5
      vertex -14.8817 1.88 0
      vertex -14.8817 1.88 5
    endloop
  endfacet
  facet normal 0.279022 -0.960285 0
    outer loop
      vertex 56.8652 -7.26437 0
      vertex 57.3176 -7.13292 5
      vertex 56.8652 -7.26437 5
    endloop
  endfacet
  facet normal 0.279022 -0.960285 0
    outer loop
      vertex 57.3176 -7.13292 5
      vertex 56.8652 -7.26437 0
      vertex 57.3176 -7.13292 0
    endloop
  endfacet
  facet normal 0.860781 -0.508976 0
    outer loop
      vertex 61.3325 -4.0187 5
      vertex 61.5723 -3.61315 0
      vertex 61.5723 -3.61315 5
    endloop
  endfacet
  facet normal 0.860781 -0.508976 0
    outer loop
      vertex 61.5723 -3.61315 0
      vertex 61.3325 -4.0187 5
      vertex 61.3325 -4.0187 0
    endloop
  endfacet
  facet normal -0.99556 -0.0941287 0
    outer loop
      vertex -14.8817 -1.88 0
      vertex -14.9704 -0.941857 5
      vertex -14.9704 -0.941857 0
    endloop
  endfacet
  facet normal -0.99556 -0.0941287 0
    outer loop
      vertex -14.9704 -0.941857 5
      vertex -14.8817 -1.88 0
      vertex -14.8817 -1.88 5
    endloop
  endfacet
  facet normal -0.940882 -0.338735 0
    outer loop
      vertex -13.9466 -5.52187 0
      vertex -14.2658 -4.63525 5
      vertex -14.2658 -4.63525 0
    endloop
  endfacet
  facet normal -0.940882 -0.338735 0
    outer loop
      vertex -14.2658 -4.63525 5
      vertex -13.9466 -5.52187 0
      vertex -13.9466 -5.52187 5
    endloop
  endfacet
  facet normal -0.960293 -0.278993 0
    outer loop
      vertex -14.2658 -4.63525 0
      vertex -14.5287 -3.73035 5
      vertex -14.5287 -3.73035 0
    endloop
  endfacet
  facet normal -0.960293 -0.278993 0
    outer loop
      vertex -14.5287 -3.73035 5
      vertex -14.2658 -4.63525 0
      vertex -14.2658 -4.63525 5
    endloop
  endfacet
  facet normal -0.790132 -0.612937 0
    outer loop
      vertex -11.5577 -9.56136 0
      vertex -12.1353 -8.81678 5
      vertex -12.1353 -8.81678 0
    endloop
  endfacet
  facet normal -0.790132 -0.612937 0
    outer loop
      vertex -12.1353 -8.81678 5
      vertex -11.5577 -9.56136 0
      vertex -11.5577 -9.56136 5
    endloop
  endfacet
  facet normal -0.91777 -0.397111 0
    outer loop
      vertex -13.5724 -6.38669 0
      vertex -13.9466 -5.52187 5
      vertex -13.9466 -5.52187 0
    endloop
  endfacet
  facet normal -0.91777 -0.397111 0
    outer loop
      vertex -13.9466 -5.52187 5
      vertex -13.5724 -6.38669 0
      vertex -13.5724 -6.38669 5
    endloop
  endfacet
  facet normal -0.89101 -0.453984 0
    outer loop
      vertex -13.1446 -7.22631 0
      vertex -13.5724 -6.38669 5
      vertex -13.5724 -6.38669 0
    endloop
  endfacet
  facet normal -0.89101 -0.453984 0
    outer loop
      vertex -13.5724 -6.38669 5
      vertex -13.1446 -7.22631 0
      vertex -13.1446 -7.22631 5
    endloop
  endfacet
  facet normal -0.453984 -0.89101 0
    outer loop
      vertex -7.22631 -13.1446 0
      vertex -6.38669 -13.5724 5
      vertex -7.22631 -13.1446 5
    endloop
  endfacet
  facet normal -0.453984 -0.89101 -0
    outer loop
      vertex -6.38669 -13.5724 5
      vertex -7.22631 -13.1446 0
      vertex -6.38669 -13.5724 0
    endloop
  endfacet
  facet normal -0.218182 -0.975908 0
    outer loop
      vertex -3.73035 -14.5287 0
      vertex -2.81072 -14.7343 5
      vertex -3.73035 -14.5287 5
    endloop
  endfacet
  facet normal -0.218182 -0.975908 -0
    outer loop
      vertex -2.81072 -14.7343 5
      vertex -3.73035 -14.5287 0
      vertex -2.81072 -14.7343 0
    endloop
  endfacet
  facet normal 0.218148 0.975916 -0
    outer loop
      vertex 56.8652 7.26437 0
      vertex 56.4054 7.36715 5
      vertex 56.8652 7.26437 5
    endloop
  endfacet
  facet normal 0.218148 0.975916 0
    outer loop
      vertex 56.4054 7.36715 5
      vertex 56.8652 7.26437 0
      vertex 56.4054 7.36715 0
    endloop
  endfacet
  facet normal 0.279022 0.960285 -0
    outer loop
      vertex 57.3176 7.13292 0
      vertex 56.8652 7.26437 5
      vertex 57.3176 7.13292 5
    endloop
  endfacet
  facet normal 0.279022 0.960285 0
    outer loop
      vertex 56.8652 7.26437 5
      vertex 57.3176 7.13292 0
      vertex 56.8652 7.26437 0
    endloop
  endfacet
  facet normal 0.509085 0.860716 -0
    outer loop
      vertex 59.0187 6.33246 0
      vertex 58.6132 6.5723 5
      vertex 59.0187 6.33246 5
    endloop
  endfacet
  facet normal 0.509085 0.860716 0
    outer loop
      vertex 58.6132 6.5723 5
      vertex 59.0187 6.33246 0
      vertex 58.6132 6.5723 0
    endloop
  endfacet
  facet normal 0.338742 0.940879 -0
    outer loop
      vertex 57.7609 6.97332 0
      vertex 57.3176 7.13292 5
      vertex 57.7609 6.97332 5
    endloop
  endfacet
  facet normal 0.338742 0.940879 0
    outer loop
      vertex 57.3176 7.13292 5
      vertex 57.7609 6.97332 0
      vertex 57.3176 7.13292 0
    endloop
  endfacet
  facet normal 0.6129 0.790161 -0
    outer loop
      vertex 59.7807 5.77885 0
      vertex 59.4084 6.06763 5
      vertex 59.7807 5.77885 5
    endloop
  endfacet
  facet normal 0.6129 0.790161 0
    outer loop
      vertex 59.4084 6.06763 5
      vertex 59.7807 5.77885 0
      vertex 59.4084 6.06763 0
    endloop
  endfacet
  facet normal 0.453907 0.891049 -0
    outer loop
      vertex 58.6132 6.5723 0
      vertex 58.1933 6.7862 5
      vertex 58.6132 6.5723 5
    endloop
  endfacet
  facet normal 0.453907 0.891049 0
    outer loop
      vertex 58.1933 6.7862 5
      vertex 58.6132 6.5723 0
      vertex 58.1933 6.7862 0
    endloop
  endfacet
  facet normal 0.827015 0.562181 0
    outer loop
      vertex 61.3325 4.0187 5
      vertex 61.0676 4.40839 0
      vertex 61.0676 4.40839 5
    endloop
  endfacet
  facet normal 0.827015 0.562181 0
    outer loop
      vertex 61.0676 4.40839 0
      vertex 61.3325 4.0187 5
      vertex 61.3325 4.0187 0
    endloop
  endfacet
  facet normal 0.940879 0.338742 0
    outer loop
      vertex 62.1329 2.31763 5
      vertex 61.9733 2.76093 0
      vertex 61.9733 2.76093 5
    endloop
  endfacet
  facet normal 0.940879 0.338742 0
    outer loop
      vertex 61.9733 2.76093 0
      vertex 62.1329 2.31763 5
      vertex 62.1329 2.31763 0
    endloop
  endfacet
  facet normal 0.99557 0.0940236 0
    outer loop
      vertex 62.4852 0.470928 5
      vertex 62.4409 0.939999 0
      vertex 62.4409 0.939999 5
    endloop
  endfacet
  facet normal 0.99557 0.0940236 0
    outer loop
      vertex 62.4409 0.939999 0
      vertex 62.4852 0.470928 5
      vertex 62.4852 0.470928 0
    endloop
  endfacet
  facet normal 0.98769 0.156422 0
    outer loop
      vertex 62.4409 0.939999 5
      vertex 62.3672 1.40536 0
      vertex 62.3672 1.40536 5
    endloop
  endfacet
  facet normal 0.98769 0.156422 0
    outer loop
      vertex 62.3672 1.40536 0
      vertex 62.4409 0.939999 5
      vertex 62.4409 0.939999 0
    endloop
  endfacet
  facet normal 0.960266 0.279085 0
    outer loop
      vertex 62.2644 1.86517 5
      vertex 62.1329 2.31763 0
      vertex 62.1329 2.31763 5
    endloop
  endfacet
  facet normal 0.960266 0.279085 0
    outer loop
      vertex 62.1329 2.31763 0
      vertex 62.2644 1.86517 5
      vertex 62.2644 1.86517 0
    endloop
  endfacet
  facet normal -0.278993 0.960293 0
    outer loop
      vertex -3.73035 14.5287 0
      vertex -4.63525 14.2658 5
      vertex -3.73035 14.5287 5
    endloop
  endfacet
  facet normal -0.278993 0.960293 0
    outer loop
      vertex -4.63525 14.2658 5
      vertex -3.73035 14.5287 0
      vertex -4.63525 14.2658 0
    endloop
  endfacet
  facet normal -0.218182 0.975908 0
    outer loop
      vertex -2.81072 14.7343 0
      vertex -3.73035 14.5287 5
      vertex -2.81072 14.7343 5
    endloop
  endfacet
  facet normal -0.218182 0.975908 0
    outer loop
      vertex -3.73035 14.5287 5
      vertex -2.81072 14.7343 0
      vertex -3.73035 14.5287 0
    endloop
  endfacet
  facet normal -0.0941287 0.99556 0
    outer loop
      vertex -0.941857 14.9704 0
      vertex -1.88 14.8817 5
      vertex -0.941857 14.9704 5
    endloop
  endfacet
  facet normal -0.0941287 0.99556 0
    outer loop
      vertex -1.88 14.8817 5
      vertex -0.941857 14.9704 0
      vertex -1.88 14.8817 0
    endloop
  endfacet
  facet normal -0.860731 0.509059 0
    outer loop
      vertex -13.1446 7.22631 0
      vertex -12.6649 8.0374 5
      vertex -12.6649 8.0374 0
    endloop
  endfacet
  facet normal -0.860731 0.509059 0
    outer loop
      vertex -12.6649 8.0374 5
      vertex -13.1446 7.22631 0
      vertex -13.1446 7.22631 5
    endloop
  endfacet
  facet normal -0.827113 0.562035 0
    outer loop
      vertex -12.6649 8.0374 0
      vertex -12.1353 8.81678 5
      vertex -12.1353 8.81678 0
    endloop
  endfacet
  facet normal -0.827113 0.562035 0
    outer loop
      vertex -12.1353 8.81678 5
      vertex -12.6649 8.0374 0
      vertex -12.6649 8.0374 5
    endloop
  endfacet
  facet normal -0.960293 0.278993 0
    outer loop
      vertex -14.5287 3.73035 0
      vertex -14.2658 4.63525 5
      vertex -14.2658 4.63525 0
    endloop
  endfacet
  facet normal -0.960293 0.278993 0
    outer loop
      vertex -14.2658 4.63525 5
      vertex -14.5287 3.73035 0
      vertex -14.5287 3.73035 5
    endloop
  endfacet
  facet normal 0.98769 -0.156422 0
    outer loop
      vertex 62.3672 -1.40536 5
      vertex 62.4409 -0.939999 0
      vertex 62.4409 -0.939999 5
    endloop
  endfacet
  facet normal 0.98769 -0.156422 0
    outer loop
      vertex 62.4409 -0.939999 0
      vertex 62.3672 -1.40536 5
      vertex 62.3672 -1.40536 0
    endloop
  endfacet
  facet normal 0.15643 -0.987689 0
    outer loop
      vertex 55.94 -7.44086 0
      vertex 56.4054 -7.36715 5
      vertex 55.94 -7.44086 5
    endloop
  endfacet
  facet normal 0.15643 -0.987689 0
    outer loop
      vertex 56.4054 -7.36715 5
      vertex 55.94 -7.44086 0
      vertex 56.4054 -7.36715 0
    endloop
  endfacet
  facet normal 0.99557 -0.0940236 0
    outer loop
      vertex 62.4409 -0.939999 5
      vertex 62.4852 -0.470928 0
      vertex 62.4852 -0.470928 5
    endloop
  endfacet
  facet normal 0.99557 -0.0940236 0
    outer loop
      vertex 62.4852 -0.470928 0
      vertex 62.4409 -0.939999 5
      vertex 62.4409 -0.939999 0
    endloop
  endfacet
  facet normal 0.338742 -0.940879 0
    outer loop
      vertex 57.3176 -7.13292 0
      vertex 57.7609 -6.97332 5
      vertex 57.3176 -7.13292 5
    endloop
  endfacet
  facet normal 0.338742 -0.940879 0
    outer loop
      vertex 57.7609 -6.97332 5
      vertex 57.3176 -7.13292 0
      vertex 57.7609 -6.97332 0
    endloop
  endfacet
  facet normal 0.750197 -0.661214 0
    outer loop
      vertex 60.4673 -5.1341 5
      vertex 60.7788 -4.78068 0
      vertex 60.7788 -4.78068 5
    endloop
  endfacet
  facet normal 0.750197 -0.661214 0
    outer loop
      vertex 60.7788 -4.78068 0
      vertex 60.4673 -5.1341 5
      vertex 60.4673 -5.1341 0
    endloop
  endfacet
  facet normal 0.89101 -0.453984 0
    outer loop
      vertex 61.5723 -3.61315 5
      vertex 61.7862 -3.19334 0
      vertex 61.7862 -3.19334 5
    endloop
  endfacet
  facet normal 0.89101 -0.453984 0
    outer loop
      vertex 61.7862 -3.19334 0
      vertex 61.5723 -3.61315 5
      vertex 61.5723 -3.61315 0
    endloop
  endfacet
  facet normal 0.790132 -0.612937 0
    outer loop
      vertex 60.7788 -4.78068 5
      vertex 61.0676 -4.40839 0
      vertex 61.0676 -4.40839 5
    endloop
  endfacet
  facet normal 0.790132 -0.612937 0
    outer loop
      vertex 61.0676 -4.40839 0
      vertex 60.7788 -4.78068 5
      vertex 60.7788 -4.78068 0
    endloop
  endfacet
  facet normal 0.91777 -0.397111 0
    outer loop
      vertex 61.7862 -3.19334 5
      vertex 61.9733 -2.76093 0
      vertex 61.9733 -2.76093 5
    endloop
  endfacet
  facet normal 0.91777 -0.397111 0
    outer loop
      vertex 61.9733 -2.76093 0
      vertex 61.7862 -3.19334 5
      vertex 61.7862 -3.19334 0
    endloop
  endfacet
  facet normal 0.0941287 -0.99556 0
    outer loop
      vertex 0.941857 -14.9704 0
      vertex 1.88 -14.8817 5
      vertex 0.941857 -14.9704 5
    endloop
  endfacet
  facet normal 0.0941287 -0.99556 0
    outer loop
      vertex 1.88 -14.8817 5
      vertex 0.941857 -14.9704 0
      vertex 1.88 -14.8817 0
    endloop
  endfacet
  facet normal -0.707107 -0.707107 0
    outer loop
      vertex -10.2682 -10.9345 0
      vertex -10.9345 -10.2682 5
      vertex -10.9345 -10.2682 0
    endloop
  endfacet
  facet normal -0.707107 -0.707107 0
    outer loop
      vertex -10.9345 -10.2682 5
      vertex -10.2682 -10.9345 0
      vertex -10.2682 -10.9345 5
    endloop
  endfacet
  facet normal -0.612937 -0.790132 0
    outer loop
      vertex -9.56136 -11.5577 0
      vertex -8.81678 -12.1353 5
      vertex -9.56136 -11.5577 5
    endloop
  endfacet
  facet normal -0.612937 -0.790132 -0
    outer loop
      vertex -8.81678 -12.1353 5
      vertex -9.56136 -11.5577 0
      vertex -8.81678 -12.1353 0
    endloop
  endfacet
  facet normal -0.0314118 -0.999507 0
    outer loop
      vertex -0.941857 -14.9704 0
      vertex 0 -15 5
      vertex -0.941857 -14.9704 5
    endloop
  endfacet
  facet normal -0.0314118 -0.999507 -0
    outer loop
      vertex 0 -15 5
      vertex -0.941857 -14.9704 0
      vertex 0 -15 0
    endloop
  endfacet
  facet normal -0.338735 -0.940882 0
    outer loop
      vertex -5.52187 -13.9466 0
      vertex -4.63525 -14.2658 5
      vertex -5.52187 -13.9466 5
    endloop
  endfacet
  facet normal -0.338735 -0.940882 -0
    outer loop
      vertex -4.63525 -14.2658 5
      vertex -5.52187 -13.9466 0
      vertex -4.63525 -14.2658 0
    endloop
  endfacet
  facet normal 0.397155 0.917752 -0
    outer loop
      vertex 58.1933 6.7862 0
      vertex 57.7609 6.97332 5
      vertex 58.1933 6.7862 5
    endloop
  endfacet
  facet normal 0.397155 0.917752 0
    outer loop
      vertex 57.7609 6.97332 5
      vertex 58.1933 6.7862 0
      vertex 57.7609 6.97332 0
    endloop
  endfacet
  facet normal 0.707064 0.707149 0
    outer loop
      vertex 60.4673 5.1341 5
      vertex 60.1341 5.46726 0
      vertex 60.1341 5.46726 5
    endloop
  endfacet
  facet normal 0.707064 0.707149 0
    outer loop
      vertex 60.1341 5.46726 0
      vertex 60.4673 5.1341 5
      vertex 60.4673 5.1341 0
    endloop
  endfacet
  facet normal 0.750197 0.661214 0
    outer loop
      vertex 60.7788 4.78068 5
      vertex 60.4673 5.1341 0
      vertex 60.4673 5.1341 5
    endloop
  endfacet
  facet normal 0.750197 0.661214 0
    outer loop
      vertex 60.4673 5.1341 0
      vertex 60.7788 4.78068 5
      vertex 60.7788 4.78068 0
    endloop
  endfacet
  facet normal 0.790132 0.612937 0
    outer loop
      vertex 61.0676 4.40839 5
      vertex 60.7788 4.78068 0
      vertex 60.7788 4.78068 5
    endloop
  endfacet
  facet normal 0.790132 0.612937 0
    outer loop
      vertex 60.7788 4.78068 0
      vertex 61.0676 4.40839 5
      vertex 61.0676 4.40839 0
    endloop
  endfacet
  facet normal 0.562069 0.82709 -0
    outer loop
      vertex 59.4084 6.06763 0
      vertex 59.0187 6.33246 5
      vertex 59.4084 6.06763 5
    endloop
  endfacet
  facet normal 0.562069 0.82709 0
    outer loop
      vertex 59.0187 6.33246 5
      vertex 59.4084 6.06763 0
      vertex 59.0187 6.33246 0
    endloop
  endfacet
  facet normal 0.860781 0.508976 0
    outer loop
      vertex 61.5723 3.61315 5
      vertex 61.3325 4.0187 0
      vertex 61.3325 4.0187 5
    endloop
  endfacet
  facet normal 0.860781 0.508976 0
    outer loop
      vertex 61.3325 4.0187 0
      vertex 61.5723 3.61315 5
      vertex 61.5723 3.61315 0
    endloop
  endfacet
  facet normal 0.91777 0.397111 0
    outer loop
      vertex 61.9733 2.76093 5
      vertex 61.7862 3.19334 0
      vertex 61.7862 3.19334 5
    endloop
  endfacet
  facet normal 0.91777 0.397111 0
    outer loop
      vertex 61.7862 3.19334 0
      vertex 61.9733 2.76093 5
      vertex 61.9733 2.76093 0
    endloop
  endfacet
  facet normal 0.89101 0.453984 0
    outer loop
      vertex 61.7862 3.19334 5
      vertex 61.5723 3.61315 0
      vertex 61.5723 3.61315 5
    endloop
  endfacet
  facet normal 0.89101 0.453984 0
    outer loop
      vertex 61.5723 3.61315 0
      vertex 61.7862 3.19334 5
      vertex 61.7862 3.19334 0
    endloop
  endfacet
  facet normal 0.999507 0.0314118 0
    outer loop
      vertex 62.5 0 5
      vertex 62.4852 0.470928 0
      vertex 62.4852 0.470928 5
    endloop
  endfacet
  facet normal 0.999507 0.0314118 0
    outer loop
      vertex 62.4852 0.470928 0
      vertex 62.5 0 5
      vertex 62.5 0 0
    endloop
  endfacet
  facet normal 0.999507 -0.0314118 0
    outer loop
      vertex 62.4852 -0.470928 5
      vertex 62.5 0 0
      vertex 62.5 0 5
    endloop
  endfacet
  facet normal 0.999507 -0.0314118 0
    outer loop
      vertex 62.5 0 0
      vertex 62.4852 -0.470928 5
      vertex 62.4852 -0.470928 0
    endloop
  endfacet
  facet normal 0.975908 -0.218184 0
    outer loop
      vertex 62.2644 -1.86517 5
      vertex 62.3672 -1.40536 0
      vertex 62.3672 -1.40536 5
    endloop
  endfacet
  facet normal 0.975908 -0.218184 0
    outer loop
      vertex 62.3672 -1.40536 0
      vertex 62.2644 -1.86517 5
      vertex 62.2644 -1.86517 0
    endloop
  endfacet
  facet normal 0.960266 -0.279085 0
    outer loop
      vertex 62.1329 -2.31763 5
      vertex 62.2644 -1.86517 0
      vertex 62.2644 -1.86517 5
    endloop
  endfacet
  facet normal 0.960266 -0.279085 0
    outer loop
      vertex 62.2644 -1.86517 0
      vertex 62.1329 -2.31763 5
      vertex 62.1329 -2.31763 0
    endloop
  endfacet
  facet normal 0.218148 -0.975916 0
    outer loop
      vertex 56.4054 -7.36715 0
      vertex 56.8652 -7.26437 5
      vertex 56.4054 -7.36715 5
    endloop
  endfacet
  facet normal 0.218148 -0.975916 0
    outer loop
      vertex 56.8652 -7.26437 5
      vertex 56.4054 -7.36715 0
      vertex 56.8652 -7.26437 0
    endloop
  endfacet
  facet normal 0.397155 -0.917752 0
    outer loop
      vertex 57.7609 -6.97332 0
      vertex 58.1933 -6.7862 5
      vertex 57.7609 -6.97332 5
    endloop
  endfacet
  facet normal 0.397155 -0.917752 0
    outer loop
      vertex 58.1933 -6.7862 5
      vertex 57.7609 -6.97332 0
      vertex 58.1933 -6.7862 0
    endloop
  endfacet
  facet normal 0.6129 -0.790161 0
    outer loop
      vertex 59.4084 -6.06763 0
      vertex 59.7807 -5.77885 5
      vertex 59.4084 -6.06763 5
    endloop
  endfacet
  facet normal 0.6129 -0.790161 0
    outer loop
      vertex 59.7807 -5.77885 5
      vertex 59.4084 -6.06763 0
      vertex 59.7807 -5.77885 0
    endloop
  endfacet
  facet normal 0.661343 -0.750084 0
    outer loop
      vertex 59.7807 -5.77885 0
      vertex 60.1341 -5.46726 5
      vertex 59.7807 -5.77885 5
    endloop
  endfacet
  facet normal 0.661343 -0.750084 0
    outer loop
      vertex 60.1341 -5.46726 5
      vertex 59.7807 -5.77885 0
      vertex 60.1341 -5.46726 0
    endloop
  endfacet
  facet normal 0.827015 -0.562181 0
    outer loop
      vertex 61.0676 -4.40839 5
      vertex 61.3325 -4.0187 0
      vertex 61.3325 -4.0187 5
    endloop
  endfacet
  facet normal 0.827015 -0.562181 0
    outer loop
      vertex 61.3325 -4.0187 0
      vertex 61.0676 -4.40839 5
      vertex 61.0676 -4.40839 0
    endloop
  endfacet
  facet normal -0.661334 -0.750092 0
    outer loop
      vertex -10.2682 -10.9345 0
      vertex -9.56136 -11.5577 5
      vertex -10.2682 -10.9345 5
    endloop
  endfacet
  facet normal -0.661334 -0.750092 -0
    outer loop
      vertex -9.56136 -11.5577 5
      vertex -10.2682 -10.9345 0
      vertex -9.56136 -11.5577 0
    endloop
  endfacet
  facet normal 0.0314118 -0.999507 0
    outer loop
      vertex 0 -15 0
      vertex 0.941857 -14.9704 5
      vertex 0 -15 5
    endloop
  endfacet
  facet normal 0.0314118 -0.999507 0
    outer loop
      vertex 0.941857 -14.9704 5
      vertex 0 -15 0
      vertex 0.941857 -14.9704 0
    endloop
  endfacet
  facet normal -0.278993 -0.960293 0
    outer loop
      vertex -4.63525 -14.2658 0
      vertex -3.73035 -14.5287 5
      vertex -4.63525 -14.2658 5
    endloop
  endfacet
  facet normal -0.278993 -0.960293 -0
    outer loop
      vertex -3.73035 -14.5287 5
      vertex -4.63525 -14.2658 0
      vertex -3.73035 -14.5287 0
    endloop
  endfacet
  facet normal -0.397111 -0.91777 0
    outer loop
      vertex -6.38669 -13.5724 0
      vertex -5.52187 -13.9466 5
      vertex -6.38669 -13.5724 5
    endloop
  endfacet
  facet normal -0.397111 -0.91777 -0
    outer loop
      vertex -5.52187 -13.9466 5
      vertex -6.38669 -13.5724 0
      vertex -5.52187 -13.9466 0
    endloop
  endfacet
  facet normal -0.509059 -0.860731 0
    outer loop
      vertex -8.0374 -12.6649 0
      vertex -7.22631 -13.1446 5
      vertex -8.0374 -12.6649 5
    endloop
  endfacet
  facet normal -0.509059 -0.860731 -0
    outer loop
      vertex -7.22631 -13.1446 5
      vertex -8.0374 -12.6649 0
      vertex -7.22631 -13.1446 0
    endloop
  endfacet
  facet normal -0.562035 -0.827113 0
    outer loop
      vertex -8.81678 -12.1353 0
      vertex -8.0374 -12.6649 5
      vertex -8.81678 -12.1353 5
    endloop
  endfacet
  facet normal -0.562035 -0.827113 -0
    outer loop
      vertex -8.0374 -12.6649 5
      vertex -8.81678 -12.1353 0
      vertex -8.0374 -12.6649 0
    endloop
  endfacet
  facet normal 0.661343 0.750084 -0
    outer loop
      vertex 60.1341 5.46726 0
      vertex 59.7807 5.77885 5
      vertex 60.1341 5.46726 5
    endloop
  endfacet
  facet normal 0.661343 0.750084 0
    outer loop
      vertex 59.7807 5.77885 5
      vertex 60.1341 5.46726 0
      vertex 59.7807 5.77885 0
    endloop
  endfacet
  facet normal 0.453907 -0.891049 0
    outer loop
      vertex 58.1933 -6.7862 0
      vertex 58.6132 -6.5723 5
      vertex 58.1933 -6.7862 5
    endloop
  endfacet
  facet normal 0.453907 -0.891049 0
    outer loop
      vertex 58.6132 -6.5723 5
      vertex 58.1933 -6.7862 0
      vertex 58.6132 -6.5723 0
    endloop
  endfacet
  facet normal 0.562069 -0.82709 0
    outer loop
      vertex 59.0187 -6.33246 0
      vertex 59.4084 -6.06763 5
      vertex 59.0187 -6.33246 5
    endloop
  endfacet
  facet normal 0.562069 -0.82709 0
    outer loop
      vertex 59.4084 -6.06763 5
      vertex 59.0187 -6.33246 0
      vertex 59.4084 -6.06763 0
    endloop
  endfacet
  facet normal 0.707064 -0.707149 0
    outer loop
      vertex 60.1341 -5.46726 5
      vertex 60.4673 -5.1341 0
      vertex 60.4673 -5.1341 5
    endloop
  endfacet
  facet normal 0.707064 -0.707149 0
    outer loop
      vertex 60.4673 -5.1341 0
      vertex 60.1341 -5.46726 5
      vertex 60.1341 -5.46726 0
    endloop
  endfacet
  facet normal -0.0941287 -0.99556 0
    outer loop
      vertex -1.88 -14.8817 0
      vertex -0.941857 -14.9704 5
      vertex -1.88 -14.8817 5
    endloop
  endfacet
  facet normal -0.0941287 -0.99556 -0
    outer loop
      vertex -0.941857 -14.9704 5
      vertex -1.88 -14.8817 0
      vertex -0.941857 -14.9704 0
    endloop
  endfacet
  facet normal -0.156422 -0.98769 0
    outer loop
      vertex -2.81072 -14.7343 0
      vertex -1.88 -14.8817 5
      vertex -2.81072 -14.7343 5
    endloop
  endfacet
  facet normal -0.156422 -0.98769 -0
    outer loop
      vertex -1.88 -14.8817 5
      vertex -2.81072 -14.7343 0
      vertex -1.88 -14.8817 0
    endloop
  endfacet
endsolid OpenSCAD_Model
