solid OpenSCAD_Model
  facet normal -0.707107 -0.707107 0
    outer loop
      vertex 3.71774 3.49119 0
      vertex 3.49119 3.71774 10
      vertex 3.49119 3.71774 0
    endloop
  endfacet
  facet normal -0.707107 -0.707107 0
    outer loop
      vertex 3.49119 3.71774 10
      vertex 3.71774 3.49119 0
      vertex 3.71774 3.49119 10
    endloop
  endfacet
  facet normal 0.827081 0.562083 0
    outer loop
      vertex -4.12599 -2.9977 10
      vertex -4.30607 -2.73272 0
      vertex -4.30607 -2.73272 10
    endloop
  endfacet
  facet normal 0.827081 0.562083 0
    outer loop
      vertex -4.30607 -2.73272 0
      vertex -4.12599 -2.9977 10
      vertex -4.12599 -2.9977 0
    endloop
  endfacet
  facet normal 0.827081 -0.562083 0
    outer loop
      vertex -4.30607 2.73272 10
      vertex -4.12599 2.9977 0
      vertex -4.12599 2.9977 10
    endloop
  endfacet
  facet normal 0.827081 -0.562083 0
    outer loop
      vertex -4.12599 2.9977 0
      vertex -4.30607 2.73272 10
      vertex -4.30607 2.73272 0
    endloop
  endfacet
  facet normal 0.612905 -0.790157 0
    outer loop
      vertex -3.25086 3.92962 0
      vertex -2.9977 4.12599 10
      vertex -3.25086 3.92962 10
    endloop
  endfacet
  facet normal 0.612905 -0.790157 0
    outer loop
      vertex -2.9977 4.12599 10
      vertex -3.25086 3.92962 0
      vertex -2.9977 4.12599 0
    endloop
  endfacet
  facet normal -0.707107 0.707107 0
    outer loop
      vertex 3.49119 -3.71774 0
      vertex 3.71774 -3.49119 10
      vertex 3.71774 -3.49119 0
    endloop
  endfacet
  facet normal -0.707107 0.707107 0
    outer loop
      vertex 3.71774 -3.49119 10
      vertex 3.49119 -3.71774 0
      vertex 3.49119 -3.71774 10
    endloop
  endfacet
  facet normal -0.75011 -0.661313 0
    outer loop
      vertex 3.92962 3.25086 0
      vertex 3.71774 3.49119 10
      vertex 3.71774 3.49119 0
    endloop
  endfacet
  facet normal -0.75011 -0.661313 0
    outer loop
      vertex 3.71774 3.49119 10
      vertex 3.92962 3.25086 0
      vertex 3.92962 3.25086 10
    endloop
  endfacet
  facet normal -0.612905 -0.790157 0
    outer loop
      vertex 2.9977 4.12599 0
      vertex 3.25086 3.92962 10
      vertex 2.9977 4.12599 10
    endloop
  endfacet
  facet normal -0.612905 -0.790157 -0
    outer loop
      vertex 3.25086 3.92962 10
      vertex 2.9977 4.12599 0
      vertex 3.25086 3.92962 0
    endloop
  endfacet
  facet normal -0.562083 -0.827081 0
    outer loop
      vertex 2.73272 4.30607 0
      vertex 2.9977 4.12599 10
      vertex 2.73272 4.30607 10
    endloop
  endfacet
  facet normal -0.562083 -0.827081 -0
    outer loop
      vertex 2.9977 4.12599 10
      vertex 2.73272 4.30607 0
      vertex 2.9977 4.12599 0
    endloop
  endfacet
  facet normal 0.509026 -0.860751 0
    outer loop
      vertex -2.73272 4.30607 0
      vertex -2.5296 4.42619 10
      vertex -2.73272 4.30607 10
    endloop
  endfacet
  facet normal 0.509026 -0.860751 0
    outer loop
      vertex -2.5296 4.42619 10
      vertex -2.73272 4.30607 0
      vertex -2.5296 4.42619 0
    endloop
  endfacet
  facet normal 0.707107 0.707107 0
    outer loop
      vertex -3.49119 -3.71774 10
      vertex -3.71774 -3.49119 0
      vertex -3.71774 -3.49119 10
    endloop
  endfacet
  facet normal 0.707107 0.707107 0
    outer loop
      vertex -3.71774 -3.49119 0
      vertex -3.49119 -3.71774 10
      vertex -3.49119 -3.71774 0
    endloop
  endfacet
  facet normal 0.612905 0.790157 -0
    outer loop
      vertex -2.9977 -4.12599 0
      vertex -3.25086 -3.92962 10
      vertex -2.9977 -4.12599 10
    endloop
  endfacet
  facet normal 0.612905 0.790157 0
    outer loop
      vertex -3.25086 -3.92962 10
      vertex -2.9977 -4.12599 0
      vertex -3.25086 -3.92962 0
    endloop
  endfacet
  facet normal -0 0 -1
    outer loop
      vertex -2.5296 4.42619 0
      vertex -2.73272 4.30607 0
      vertex -2.5296 9.894 0
    endloop
  endfacet
  facet normal 0 0 -1
    outer loop
      vertex 2.5296 -9.894 0
      vertex 9.94612 -15.4902 0
      vertex 6.5551 -16.8607 0
    endloop
  endfacet
  facet normal 0 0 -1
    outer loop
      vertex 9.94612 -15.4902 0
      vertex 2.5296 -9.894 0
      vertex 9.894 -2.5296 0
    endloop
  endfacet
  facet normal -0 0 -1
    outer loop
      vertex 9.894 -2.5296 0
      vertex 4.30607 -2.73272 0
      vertex 4.42619 -2.5296 0
    endloop
  endfacet
  facet normal 0 0 -1
    outer loop
      vertex 9.894 -2.5296 0
      vertex 4.12599 -2.9977 0
      vertex 4.30607 -2.73272 0
    endloop
  endfacet
  facet normal 0 -0 -1
    outer loop
      vertex 3.71774 -3.49119 0
      vertex 9.894 -2.5296 0
      vertex 2.5296 -9.894 0
    endloop
  endfacet
  facet normal 0 0 -1
    outer loop
      vertex 9.894 -2.5296 0
      vertex 3.92962 -3.25086 0
      vertex 4.12599 -2.9977 0
    endloop
  endfacet
  facet normal 0 0 -1
    outer loop
      vertex 9.894 -2.5296 0
      vertex 3.71774 -3.49119 0
      vertex 3.92962 -3.25086 0
    endloop
  endfacet
  facet normal 0 0 -1
    outer loop
      vertex 3.71774 -3.49119 0
      vertex 2.5296 -9.894 0
      vertex 3.49119 -3.71774 0
    endloop
  endfacet
  facet normal 0 0 -1
    outer loop
      vertex 2.5296 -9.894 0
      vertex 6.5551 -16.8607 0
      vertex 3.02061 -17.5132 0
    endloop
  endfacet
  facet normal 0 0 -1
    outer loop
      vertex 3.49119 -3.71774 0
      vertex 2.5296 -9.894 0
      vertex 3.25086 -3.92962 0
    endloop
  endfacet
  facet normal 0 0 -1
    outer loop
      vertex 3.25086 -3.92962 0
      vertex 2.5296 -9.894 0
      vertex 2.9977 -4.12599 0
    endloop
  endfacet
  facet normal 0 0 -1
    outer loop
      vertex 2.9977 -4.12599 0
      vertex 2.5296 -9.894 0
      vertex 2.73272 -4.30607 0
    endloop
  endfacet
  facet normal 0 0 -1
    outer loop
      vertex -0.509628 -17.4461 0
      vertex 2.5296 -9.894 0
      vertex 3.02061 -17.5132 0
    endloop
  endfacet
  facet normal 0 0 -1
    outer loop
      vertex -0.509628 -17.4461 0
      vertex -2.5296 -9.894 0
      vertex 2.5296 -9.894 0
    endloop
  endfacet
  facet normal 0 0 -1
    outer loop
      vertex -2.5296 -9.894 0
      vertex -2.73272 -4.30607 0
      vertex -2.5296 -4.42619 0
    endloop
  endfacet
  facet normal 0 0 -1
    outer loop
      vertex -2.5296 -9.894 0
      vertex -2.9977 -4.12599 0
      vertex -2.73272 -4.30607 0
    endloop
  endfacet
  facet normal 0 0 -1
    outer loop
      vertex -2.5296 -9.894 0
      vertex -3.25086 -3.92962 0
      vertex -2.9977 -4.12599 0
    endloop
  endfacet
  facet normal 0 0 -1
    outer loop
      vertex -2.5296 -9.894 0
      vertex -3.49119 -3.71774 0
      vertex -3.25086 -3.92962 0
    endloop
  endfacet
  facet normal 0 0 -1
    outer loop
      vertex -2.5296 -9.894 0
      vertex -3.71774 -3.49119 0
      vertex -3.49119 -3.71774 0
    endloop
  endfacet
  facet normal 0 0 -1
    outer loop
      vertex -3.89314 -16.6871 0
      vertex -2.5296 -9.894 0
      vertex -0.509628 -17.4461 0
    endloop
  endfacet
  facet normal 0 0 -1
    outer loop
      vertex -6.99829 -15.2915 0
      vertex -2.5296 -9.894 0
      vertex -3.89314 -16.6871 0
    endloop
  endfacet
  facet normal 0 0 -1
    outer loop
      vertex -9.70943 -13.3391 0
      vertex -2.5296 -9.894 0
      vertex -6.99829 -15.2915 0
    endloop
  endfacet
  facet normal 0 0 -1
    outer loop
      vertex -11.9312 -10.9292 0
      vertex -2.5296 -9.894 0
      vertex -9.70943 -13.3391 0
    endloop
  endfacet
  facet normal -0 0 -1
    outer loop
      vertex -2.5296 -9.894 0
      vertex -11.9312 -10.9292 0
      vertex -3.71774 -3.49119 0
    endloop
  endfacet
  facet normal 0 -0 -1
    outer loop
      vertex -9.894 -2.5296 0
      vertex -3.71774 -3.49119 0
      vertex -11.9312 -10.9292 0
    endloop
  endfacet
  facet normal 0 0 -1
    outer loop
      vertex -3.71774 -3.49119 0
      vertex -9.894 -2.5296 0
      vertex -3.92962 -3.25086 0
    endloop
  endfacet
  facet normal 0 0 -1
    outer loop
      vertex -3.92962 -3.25086 0
      vertex -9.894 -2.5296 0
      vertex -4.12599 -2.9977 0
    endloop
  endfacet
  facet normal 0 0 -1
    outer loop
      vertex -4.12599 -2.9977 0
      vertex -9.894 -2.5296 0
      vertex -4.30607 -2.73272 0
    endloop
  endfacet
  facet normal 0 0 -1
    outer loop
      vertex -14.8816 0.870178 0
      vertex -9.894 2.5296 0
      vertex -9.894 -2.5296 0
    endloop
  endfacet
  facet normal 0 0 -1
    outer loop
      vertex -4.30607 -2.73272 0
      vertex -9.894 -2.5296 0
      vertex -4.42619 -2.5296 0
    endloop
  endfacet
  facet normal 0 0 -1
    outer loop
      vertex -13.5919 -8.17686 0
      vertex -9.894 -2.5296 0
      vertex -11.9312 -10.9292 0
    endloop
  endfacet
  facet normal 0 0 -1
    outer loop
      vertex -14.6456 -5.20694 0
      vertex -9.894 -2.5296 0
      vertex -13.5919 -8.17686 0
    endloop
  endfacet
  facet normal 0 0 -1
    outer loop
      vertex -15.073 -2.14859 0
      vertex -9.894 -2.5296 0
      vertex -14.6456 -5.20694 0
    endloop
  endfacet
  facet normal 0 0 -1
    outer loop
      vertex -9.894 2.5296 0
      vertex -12.7971 6.31494 0
      vertex -11.0357 8.5367 0
    endloop
  endfacet
  facet normal 0 0 -1
    outer loop
      vertex -9.894 2.5296 0
      vertex -14.1044 3.72801 0
      vertex -12.7971 6.31494 0
    endloop
  endfacet
  facet normal -0 0 -1
    outer loop
      vertex -9.894 2.5296 0
      vertex -14.8816 0.870178 0
      vertex -14.1044 3.72801 0
    endloop
  endfacet
  facet normal 0 0 -1
    outer loop
      vertex -9.894 -2.5296 0
      vertex -15.073 -2.14859 0
      vertex -14.8816 0.870178 0
    endloop
  endfacet
  facet normal 0 0 -1
    outer loop
      vertex 9.894 -2.5296 0
      vertex 19.2894 -3.91014 0
      vertex 17.8349 -7.54045 0
    endloop
  endfacet
  facet normal 0 0 -1
    outer loop
      vertex 9.894 -2.5296 0
      vertex 17.8349 -7.54045 0
      vertex 15.7186 -10.7536 0
    endloop
  endfacet
  facet normal 0 0 -1
    outer loop
      vertex 9.894 -2.5296 0
      vertex 15.7186 -10.7536 0
      vertex 13.0471 -13.4337 0
    endloop
  endfacet
  facet normal 0 0 -1
    outer loop
      vertex 9.894 -2.5296 0
      vertex 13.0471 -13.4337 0
      vertex 9.94612 -15.4902 0
    endloop
  endfacet
  facet normal 0 0 -1
    outer loop
      vertex 19.2894 -3.91014 0
      vertex 9.894 -2.5296 0
      vertex 20 0 0
    endloop
  endfacet
  facet normal 0 0 -1
    outer loop
      vertex 9.894 2.5296 0
      vertex 20 0 0
      vertex 9.894 -2.5296 0
    endloop
  endfacet
  facet normal 0 0 -1
    outer loop
      vertex 9.894 2.5296 0
      vertex 5.49286 10.3576 0
      vertex 20 0 0
    endloop
  endfacet
  facet normal 0 0 -1
    outer loop
      vertex 4.30607 2.73272 0
      vertex 9.894 2.5296 0
      vertex 4.42619 2.5296 0
    endloop
  endfacet
  facet normal 0 0 -1
    outer loop
      vertex 4.12599 2.9977 0
      vertex 9.894 2.5296 0
      vertex 4.30607 2.73272 0
    endloop
  endfacet
  facet normal 0 0 -1
    outer loop
      vertex 3.92962 3.25086 0
      vertex 9.894 2.5296 0
      vertex 4.12599 2.9977 0
    endloop
  endfacet
  facet normal 0 0 -1
    outer loop
      vertex 9.894 2.5296 0
      vertex 3.92962 3.25086 0
      vertex 5.49286 10.3576 0
    endloop
  endfacet
  facet normal 0 0 -1
    outer loop
      vertex 3.71774 3.49119 0
      vertex 5.49286 10.3576 0
      vertex 3.92962 3.25086 0
    endloop
  endfacet
  facet normal 0 0 -1
    outer loop
      vertex 3.49119 3.71774 0
      vertex 5.49286 10.3576 0
      vertex 3.71774 3.49119 0
    endloop
  endfacet
  facet normal 0 0 -1
    outer loop
      vertex 3.25086 3.92962 0
      vertex 5.49286 10.3576 0
      vertex 3.49119 3.71774 0
    endloop
  endfacet
  facet normal 0 0 -1
    outer loop
      vertex 2.9977 4.12599 0
      vertex 5.49286 10.3576 0
      vertex 3.25086 3.92962 0
    endloop
  endfacet
  facet normal 0 0 -1
    outer loop
      vertex 2.73272 4.30607 0
      vertex 5.49286 10.3576 0
      vertex 2.9977 4.12599 0
    endloop
  endfacet
  facet normal 0 0 -1
    outer loop
      vertex 5.49286 10.3576 0
      vertex 2.73272 4.30607 0
      vertex 2.5296 9.894 0
    endloop
  endfacet
  facet normal 0 0 -1
    outer loop
      vertex 2.5296 9.894 0
      vertex 2.73272 4.30607 0
      vertex 2.5296 4.42619 0
    endloop
  endfacet
  facet normal -0 0 -1
    outer loop
      vertex 5.49286 10.3576 0
      vertex 2.5296 9.894 0
      vertex 3.41592 11.5476 0
    endloop
  endfacet
  facet normal 0 0 -1
    outer loop
      vertex 2.5296 9.894 0
      vertex 1.08153 12.3131 0
      vertex 3.41592 11.5476 0
    endloop
  endfacet
  facet normal 0 0 -1
    outer loop
      vertex -2.5296 9.894 0
      vertex 1.08153 12.3131 0
      vertex 2.5296 9.894 0
    endloop
  endfacet
  facet normal -0 0 -1
    outer loop
      vertex 1.08153 12.3131 0
      vertex -2.5296 9.894 0
      vertex -1.42197 12.5989 0
    endloop
  endfacet
  facet normal 0 0 -1
    outer loop
      vertex -2.9977 4.12599 0
      vertex -2.5296 9.894 0
      vertex -2.73272 4.30607 0
    endloop
  endfacet
  facet normal 0 0 -1
    outer loop
      vertex -3.25086 3.92962 0
      vertex -2.5296 9.894 0
      vertex -2.9977 4.12599 0
    endloop
  endfacet
  facet normal 0 0 -1
    outer loop
      vertex -8.91164 10.3181 0
      vertex -3.25086 3.92962 0
      vertex -3.49119 3.71774 0
    endloop
  endfacet
  facet normal 0 0 -1
    outer loop
      vertex -8.91164 10.3181 0
      vertex -3.49119 3.71774 0
      vertex -3.71774 3.49119 0
    endloop
  endfacet
  facet normal 0 0 -1
    outer loop
      vertex -8.91164 10.3181 0
      vertex -3.71774 3.49119 0
      vertex -3.92962 3.25086 0
    endloop
  endfacet
  facet normal 0 0 -1
    outer loop
      vertex -2.5296 9.894 0
      vertex -3.99446 12.3681 0
      vertex -1.42197 12.5989 0
    endloop
  endfacet
  facet normal 0 0 -1
    outer loop
      vertex -3.25086 3.92962 0
      vertex -8.91164 10.3181 0
      vertex -2.5296 9.894 0
    endloop
  endfacet
  facet normal 0 0 -1
    outer loop
      vertex -9.894 2.5296 0
      vertex -3.92962 3.25086 0
      vertex -4.12599 2.9977 0
    endloop
  endfacet
  facet normal 0 0 -1
    outer loop
      vertex -9.894 2.5296 0
      vertex -4.12599 2.9977 0
      vertex -4.30607 2.73272 0
    endloop
  endfacet
  facet normal 0 0 -1
    outer loop
      vertex -9.894 2.5296 0
      vertex -4.30607 2.73272 0
      vertex -4.42619 2.5296 0
    endloop
  endfacet
  facet normal 0 0 -1
    outer loop
      vertex -2.5296 9.894 0
      vertex -6.52806 11.6055 0
      vertex -3.99446 12.3681 0
    endloop
  endfacet
  facet normal 0 0 -1
    outer loop
      vertex -2.5296 9.894 0
      vertex -8.91164 10.3181 0
      vertex -6.52806 11.6055 0
    endloop
  endfacet
  facet normal -0 0 -1
    outer loop
      vertex -3.92962 3.25086 0
      vertex -9.894 2.5296 0
      vertex -11.0357 8.5367 0
    endloop
  endfacet
  facet normal 0 0 -1
    outer loop
      vertex -3.92962 3.25086 0
      vertex -11.0357 8.5367 0
      vertex -8.91164 10.3181 0
    endloop
  endfacet
  facet normal 0 0 -1
    outer loop
      vertex 2.73272 -4.30607 0
      vertex 2.5296 -9.894 0
      vertex 2.5296 -4.42619 0
    endloop
  endfacet
  facet normal -0.790157 -0.612905 0
    outer loop
      vertex 4.12599 2.9977 0
      vertex 3.92962 3.25086 10
      vertex 3.92962 3.25086 0
    endloop
  endfacet
  facet normal -0.790157 -0.612905 0
    outer loop
      vertex 3.92962 3.25086 10
      vertex 4.12599 2.9977 0
      vertex 4.12599 2.9977 10
    endloop
  endfacet
  facet normal -0.860751 -0.509026 0
    outer loop
      vertex 4.42619 2.5296 0
      vertex 4.30607 2.73272 10
      vertex 4.30607 2.73272 0
    endloop
  endfacet
  facet normal -0.860751 -0.509026 0
    outer loop
      vertex 4.30607 2.73272 10
      vertex 4.42619 2.5296 0
      vertex 4.42619 2.5296 10
    endloop
  endfacet
  facet normal -0.827081 -0.562083 0
    outer loop
      vertex 4.30607 2.73272 0
      vertex 4.12599 2.9977 10
      vertex 4.12599 2.9977 0
    endloop
  endfacet
  facet normal -0.827081 -0.562083 0
    outer loop
      vertex 4.12599 2.9977 10
      vertex 4.30607 2.73272 0
      vertex 4.30607 2.73272 10
    endloop
  endfacet
  facet normal -0.509026 -0.860751 0
    outer loop
      vertex 2.5296 4.42619 0
      vertex 2.73272 4.30607 10
      vertex 2.5296 4.42619 10
    endloop
  endfacet
  facet normal -0.509026 -0.860751 -0
    outer loop
      vertex 2.73272 4.30607 10
      vertex 2.5296 4.42619 0
      vertex 2.73272 4.30607 0
    endloop
  endfacet
  facet normal -0.661313 -0.75011 0
    outer loop
      vertex 3.25086 3.92962 0
      vertex 3.49119 3.71774 10
      vertex 3.25086 3.92962 10
    endloop
  endfacet
  facet normal -0.661313 -0.75011 -0
    outer loop
      vertex 3.49119 3.71774 10
      vertex 3.25086 3.92962 0
      vertex 3.49119 3.71774 0
    endloop
  endfacet
  facet normal 0.860751 -0.509026 0
    outer loop
      vertex -4.42619 2.5296 10
      vertex -4.30607 2.73272 0
      vertex -4.30607 2.73272 10
    endloop
  endfacet
  facet normal 0.860751 -0.509026 0
    outer loop
      vertex -4.30607 2.73272 0
      vertex -4.42619 2.5296 10
      vertex -4.42619 2.5296 0
    endloop
  endfacet
  facet normal 0.661313 -0.75011 0
    outer loop
      vertex -3.49119 3.71774 0
      vertex -3.25086 3.92962 10
      vertex -3.49119 3.71774 10
    endloop
  endfacet
  facet normal 0.661313 -0.75011 0
    outer loop
      vertex -3.25086 3.92962 10
      vertex -3.49119 3.71774 0
      vertex -3.25086 3.92962 0
    endloop
  endfacet
  facet normal 0.562083 -0.827081 0
    outer loop
      vertex -2.9977 4.12599 0
      vertex -2.73272 4.30607 10
      vertex -2.9977 4.12599 10
    endloop
  endfacet
  facet normal 0.562083 -0.827081 0
    outer loop
      vertex -2.73272 4.30607 10
      vertex -2.9977 4.12599 0
      vertex -2.73272 4.30607 0
    endloop
  endfacet
  facet normal -0.612905 0.790157 0
    outer loop
      vertex 3.25086 -3.92962 0
      vertex 2.9977 -4.12599 10
      vertex 3.25086 -3.92962 10
    endloop
  endfacet
  facet normal -0.612905 0.790157 0
    outer loop
      vertex 2.9977 -4.12599 10
      vertex 3.25086 -3.92962 0
      vertex 2.9977 -4.12599 0
    endloop
  endfacet
  facet normal -0.509026 0.860751 0
    outer loop
      vertex 2.73272 -4.30607 0
      vertex 2.5296 -4.42619 10
      vertex 2.73272 -4.30607 10
    endloop
  endfacet
  facet normal -0.509026 0.860751 0
    outer loop
      vertex 2.5296 -4.42619 10
      vertex 2.73272 -4.30607 0
      vertex 2.5296 -4.42619 0
    endloop
  endfacet
  facet normal -0.562083 0.827081 0
    outer loop
      vertex 2.9977 -4.12599 0
      vertex 2.73272 -4.30607 10
      vertex 2.9977 -4.12599 10
    endloop
  endfacet
  facet normal -0.562083 0.827081 0
    outer loop
      vertex 2.73272 -4.30607 10
      vertex 2.9977 -4.12599 0
      vertex 2.73272 -4.30607 0
    endloop
  endfacet
  facet normal -0.75011 0.661313 0
    outer loop
      vertex 3.71774 -3.49119 0
      vertex 3.92962 -3.25086 10
      vertex 3.92962 -3.25086 0
    endloop
  endfacet
  facet normal -0.75011 0.661313 0
    outer loop
      vertex 3.92962 -3.25086 10
      vertex 3.71774 -3.49119 0
      vertex 3.71774 -3.49119 10
    endloop
  endfacet
  facet normal -0.827081 0.562083 0
    outer loop
      vertex 4.12599 -2.9977 0
      vertex 4.30607 -2.73272 10
      vertex 4.30607 -2.73272 0
    endloop
  endfacet
  facet normal -0.827081 0.562083 0
    outer loop
      vertex 4.30607 -2.73272 10
      vertex 4.12599 -2.9977 0
      vertex 4.12599 -2.9977 10
    endloop
  endfacet
  facet normal 0.562083 0.827081 -0
    outer loop
      vertex -2.73272 -4.30607 0
      vertex -2.9977 -4.12599 10
      vertex -2.73272 -4.30607 10
    endloop
  endfacet
  facet normal 0.562083 0.827081 0
    outer loop
      vertex -2.9977 -4.12599 10
      vertex -2.73272 -4.30607 0
      vertex -2.9977 -4.12599 0
    endloop
  endfacet
  facet normal 0.661313 0.75011 -0
    outer loop
      vertex -3.25086 -3.92962 0
      vertex -3.49119 -3.71774 10
      vertex -3.25086 -3.92962 10
    endloop
  endfacet
  facet normal 0.661313 0.75011 0
    outer loop
      vertex -3.49119 -3.71774 10
      vertex -3.25086 -3.92962 0
      vertex -3.49119 -3.71774 0
    endloop
  endfacet
  facet normal 0.790157 0.612905 0
    outer loop
      vertex -3.92962 -3.25086 10
      vertex -4.12599 -2.9977 0
      vertex -4.12599 -2.9977 10
    endloop
  endfacet
  facet normal 0.790157 0.612905 0
    outer loop
      vertex -4.12599 -2.9977 0
      vertex -3.92962 -3.25086 10
      vertex -3.92962 -3.25086 0
    endloop
  endfacet
  facet normal 0.860751 0.509026 0
    outer loop
      vertex -4.30607 -2.73272 10
      vertex -4.42619 -2.5296 0
      vertex -4.42619 -2.5296 10
    endloop
  endfacet
  facet normal 0.860751 0.509026 0
    outer loop
      vertex -4.42619 -2.5296 0
      vertex -4.30607 -2.73272 10
      vertex -4.30607 -2.73272 0
    endloop
  endfacet
  facet normal 0.790157 -0.612905 0
    outer loop
      vertex -4.12599 2.9977 10
      vertex -3.92962 3.25086 0
      vertex -3.92962 3.25086 10
    endloop
  endfacet
  facet normal 0.790157 -0.612905 0
    outer loop
      vertex -3.92962 3.25086 0
      vertex -4.12599 2.9977 10
      vertex -4.12599 2.9977 0
    endloop
  endfacet
  facet normal 0.75011 -0.661313 0
    outer loop
      vertex -3.92962 3.25086 10
      vertex -3.71774 3.49119 0
      vertex -3.71774 3.49119 10
    endloop
  endfacet
  facet normal 0.75011 -0.661313 0
    outer loop
      vertex -3.71774 3.49119 0
      vertex -3.92962 3.25086 10
      vertex -3.92962 3.25086 0
    endloop
  endfacet
  facet normal 0.707107 -0.707107 0
    outer loop
      vertex -3.71774 3.49119 10
      vertex -3.49119 3.71774 0
      vertex -3.49119 3.71774 10
    endloop
  endfacet
  facet normal 0.707107 -0.707107 0
    outer loop
      vertex -3.49119 3.71774 0
      vertex -3.71774 3.49119 10
      vertex -3.71774 3.49119 0
    endloop
  endfacet
  facet normal -0.661313 0.75011 0
    outer loop
      vertex 3.49119 -3.71774 0
      vertex 3.25086 -3.92962 10
      vertex 3.49119 -3.71774 10
    endloop
  endfacet
  facet normal -0.661313 0.75011 0
    outer loop
      vertex 3.25086 -3.92962 10
      vertex 3.49119 -3.71774 0
      vertex 3.25086 -3.92962 0
    endloop
  endfacet
  facet normal -0.860751 0.509026 0
    outer loop
      vertex 4.30607 -2.73272 0
      vertex 4.42619 -2.5296 10
      vertex 4.42619 -2.5296 0
    endloop
  endfacet
  facet normal -0.860751 0.509026 0
    outer loop
      vertex 4.42619 -2.5296 10
      vertex 4.30607 -2.73272 0
      vertex 4.30607 -2.73272 10
    endloop
  endfacet
  facet normal 0.509026 0.860751 -0
    outer loop
      vertex -2.5296 -4.42619 0
      vertex -2.73272 -4.30607 10
      vertex -2.5296 -4.42619 10
    endloop
  endfacet
  facet normal 0.509026 0.860751 0
    outer loop
      vertex -2.73272 -4.30607 10
      vertex -2.5296 -4.42619 0
      vertex -2.73272 -4.30607 0
    endloop
  endfacet
  facet normal 0.75011 0.661313 0
    outer loop
      vertex -3.71774 -3.49119 10
      vertex -3.92962 -3.25086 0
      vertex -3.92962 -3.25086 10
    endloop
  endfacet
  facet normal 0.75011 0.661313 0
    outer loop
      vertex -3.92962 -3.25086 0
      vertex -3.71774 -3.49119 10
      vertex -3.71774 -3.49119 0
    endloop
  endfacet
  facet normal -0.790157 0.612905 0
    outer loop
      vertex 3.92962 -3.25086 0
      vertex 4.12599 -2.9977 10
      vertex 4.12599 -2.9977 0
    endloop
  endfacet
  facet normal -0.790157 0.612905 0
    outer loop
      vertex 4.12599 -2.9977 10
      vertex 3.92962 -3.25086 0
      vertex 3.92962 -3.25086 10
    endloop
  endfacet
  facet normal 1 -0 0
    outer loop
      vertex -9.894 -2.5296 10
      vertex -9.894 2.5296 0
      vertex -9.894 2.5296 10
    endloop
  endfacet
  facet normal 1 0 0
    outer loop
      vertex -9.894 2.5296 0
      vertex -9.894 -2.5296 10
      vertex -9.894 -2.5296 0
    endloop
  endfacet
  facet normal -1 0 0
    outer loop
      vertex 9.894 -2.5296 0
      vertex 9.894 2.5296 10
      vertex 9.894 2.5296 0
    endloop
  endfacet
  facet normal -1 -0 0
    outer loop
      vertex 9.894 2.5296 10
      vertex 9.894 -2.5296 0
      vertex 9.894 -2.5296 10
    endloop
  endfacet
  facet normal 0 -1 0
    outer loop
      vertex 4.42619 2.5296 0
      vertex 9.894 2.5296 10
      vertex 4.42619 2.5296 10
    endloop
  endfacet
  facet normal 0 -1 -0
    outer loop
      vertex 9.894 2.5296 10
      vertex 4.42619 2.5296 0
      vertex 9.894 2.5296 0
    endloop
  endfacet
  facet normal 0 -1 0
    outer loop
      vertex -9.894 2.5296 0
      vertex -4.42619 2.5296 10
      vertex -9.894 2.5296 10
    endloop
  endfacet
  facet normal 0 -1 -0
    outer loop
      vertex -4.42619 2.5296 10
      vertex -9.894 2.5296 0
      vertex -4.42619 2.5296 0
    endloop
  endfacet
  facet normal 0 1 -0
    outer loop
      vertex 9.894 -2.5296 0
      vertex 4.42619 -2.5296 10
      vertex 9.894 -2.5296 10
    endloop
  endfacet
  facet normal 0 1 0
    outer loop
      vertex 4.42619 -2.5296 10
      vertex 9.894 -2.5296 0
      vertex 4.42619 -2.5296 0
    endloop
  endfacet
  facet normal 0 1 -0
    outer loop
      vertex -4.42619 -2.5296 0
      vertex -9.894 -2.5296 10
      vertex -4.42619 -2.5296 10
    endloop
  endfacet
  facet normal 0 1 0
    outer loop
      vertex -9.894 -2.5296 10
      vertex -4.42619 -2.5296 0
      vertex -9.894 -2.5296 0
    endloop
  endfacet
  facet normal 0 -1 0
    outer loop
      vertex -2.5296 9.894 0
      vertex 2.5296 9.894 10
      vertex -2.5296 9.894 10
    endloop
  endfacet
  facet normal 0 -1 -0
    outer loop
      vertex 2.5296 9.894 10
      vertex -2.5296 9.894 0
      vertex 2.5296 9.894 0
    endloop
  endfacet
  facet normal 0 1 -0
    outer loop
      vertex 2.5296 -9.894 0
      vertex -2.5296 -9.894 10
      vertex 2.5296 -9.894 10
    endloop
  endfacet
  facet normal 0 1 0
    outer loop
      vertex -2.5296 -9.894 10
      vertex 2.5296 -9.894 0
      vertex -2.5296 -9.894 0
    endloop
  endfacet
  facet normal -1 0 0
    outer loop
      vertex 2.5296 4.42619 0
      vertex 2.5296 9.894 10
      vertex 2.5296 9.894 0
    endloop
  endfacet
  facet normal -1 -0 0
    outer loop
      vertex 2.5296 9.894 10
      vertex 2.5296 4.42619 0
      vertex 2.5296 4.42619 10
    endloop
  endfacet
  facet normal -1 0 0
    outer loop
      vertex 2.5296 -9.894 0
      vertex 2.5296 -4.42619 10
      vertex 2.5296 -4.42619 0
    endloop
  endfacet
  facet normal -1 -0 0
    outer loop
      vertex 2.5296 -4.42619 10
      vertex 2.5296 -9.894 0
      vertex 2.5296 -9.894 10
    endloop
  endfacet
  facet normal 1 -0 0
    outer loop
      vertex -2.5296 4.42619 10
      vertex -2.5296 9.894 0
      vertex -2.5296 9.894 10
    endloop
  endfacet
  facet normal 1 0 0
    outer loop
      vertex -2.5296 9.894 0
      vertex -2.5296 4.42619 10
      vertex -2.5296 4.42619 0
    endloop
  endfacet
  facet normal 1 -0 0
    outer loop
      vertex -2.5296 -9.894 10
      vertex -2.5296 -4.42619 0
      vertex -2.5296 -4.42619 10
    endloop
  endfacet
  facet normal 1 0 0
    outer loop
      vertex -2.5296 -4.42619 0
      vertex -2.5296 -9.894 10
      vertex -2.5296 -9.894 0
    endloop
  endfacet
  facet normal 0.181542 -0.983383 0
    outer loop
      vertex 3.02061 -17.5132 0
      vertex 6.5551 -16.8607 10
      vertex 3.02061 -17.5132 10
    endloop
  endfacet
  facet normal 0.181542 -0.983383 0
    outer loop
      vertex 6.5551 -16.8607 10
      vertex 3.02061 -17.5132 0
      vertex 6.5551 -16.8607 0
    endloop
  endfacet
  facet normal 0.37471 -0.927142 0
    outer loop
      vertex 6.5551 -16.8607 0
      vertex 9.94612 -15.4902 10
      vertex 6.5551 -16.8607 10
    endloop
  endfacet
  facet normal 0.37471 -0.927142 0
    outer loop
      vertex 9.94612 -15.4902 10
      vertex 6.5551 -16.8607 0
      vertex 9.94612 -15.4902 0
    endloop
  endfacet
  facet normal 0.581066 0.813857 -0
    outer loop
      vertex 20 0 0
      vertex 5.49286 10.3576 10
      vertex 20 0 10
    endloop
  endfacet
  facet normal 0.581066 0.813857 0
    outer loop
      vertex 5.49286 10.3576 10
      vertex 20 0 0
      vertex 5.49286 10.3576 0
    endloop
  endfacet
  facet normal -0.964953 0.262423 0
    outer loop
      vertex -14.8816 0.870178 0
      vertex -14.1044 3.72801 10
      vertex -14.1044 3.72801 0
    endloop
  endfacet
  facet normal -0.964953 0.262423 0
    outer loop
      vertex -14.1044 3.72801 10
      vertex -14.8816 0.870178 0
      vertex -14.8816 0.870178 10
    endloop
  endfacet
  facet normal 0.552685 -0.83339 0
    outer loop
      vertex 9.94612 -15.4902 0
      vertex 13.0471 -13.4337 10
      vertex 9.94612 -15.4902 10
    endloop
  endfacet
  facet normal 0.552685 -0.83339 0
    outer loop
      vertex 13.0471 -13.4337 10
      vertex 9.94612 -15.4902 0
      vertex 13.0471 -13.4337 0
    endloop
  endfacet
  facet normal 0.113423 0.993547 -0
    outer loop
      vertex 1.08153 12.3131 0
      vertex -1.42197 12.5989 10
      vertex 1.08153 12.3131 10
    endloop
  endfacet
  facet normal 0.113423 0.993547 0
    outer loop
      vertex -1.42197 12.5989 10
      vertex 1.08153 12.3131 0
      vertex -1.42197 12.5989 0
    endloop
  endfacet
  facet normal 0.983885 -0.178804 0
    outer loop
      vertex 19.2894 -3.91014 10
      vertex 20 0 0
      vertex 20 0 10
    endloop
  endfacet
  facet normal 0.983885 -0.178804 0
    outer loop
      vertex 20 0 0
      vertex 19.2894 -3.91014 10
      vertex 19.2894 -3.91014 0
    endloop
  endfacet
  facet normal -0.642598 0.766204 0
    outer loop
      vertex -8.91164 10.3181 0
      vertex -11.0357 8.5367 10
      vertex -8.91164 10.3181 10
    endloop
  endfacet
  facet normal -0.642598 0.766204 0
    outer loop
      vertex -11.0357 8.5367 10
      vertex -8.91164 10.3181 0
      vertex -11.0357 8.5367 0
    endloop
  endfacet
  facet normal -0.288222 0.957564 0
    outer loop
      vertex -3.99446 12.3681 0
      vertex -6.52806 11.6055 10
      vertex -3.99446 12.3681 10
    endloop
  endfacet
  facet normal -0.288222 0.957564 0
    outer loop
      vertex -6.52806 11.6055 10
      vertex -3.99446 12.3681 0
      vertex -6.52806 11.6055 0
    endloop
  endfacet
  facet normal -0.856214 -0.516621 0
    outer loop
      vertex -11.9312 -10.9292 0
      vertex -13.5919 -8.17686 10
      vertex -13.5919 -8.17686 0
    endloop
  endfacet
  facet normal -0.856214 -0.516621 0
    outer loop
      vertex -13.5919 -8.17686 10
      vertex -11.9312 -10.9292 0
      vertex -11.9312 -10.9292 10
    endloop
  endfacet
  facet normal -0.0190038 -0.999819 0
    outer loop
      vertex -0.509628 -17.4461 0
      vertex 3.02061 -17.5132 10
      vertex -0.509628 -17.4461 10
    endloop
  endfacet
  facet normal -0.0190038 -0.999819 -0
    outer loop
      vertex 3.02061 -17.5132 10
      vertex -0.509628 -17.4461 0
      vertex 3.02061 -17.5132 0
    endloop
  endfacet
  facet normal 0.708242 -0.70597 0
    outer loop
      vertex 13.0471 -13.4337 10
      vertex 15.7186 -10.7536 0
      vertex 15.7186 -10.7536 10
    endloop
  endfacet
  facet normal 0.708242 -0.70597 0
    outer loop
      vertex 15.7186 -10.7536 0
      vertex 13.0471 -13.4337 10
      vertex 13.0471 -13.4337 0
    endloop
  endfacet
  facet normal -0.783615 0.621246 0
    outer loop
      vertex -12.7971 6.31494 0
      vertex -11.0357 8.5367 10
      vertex -11.0357 8.5367 0
    endloop
  endfacet
  facet normal -0.783615 0.621246 0
    outer loop
      vertex -11.0357 8.5367 10
      vertex -12.7971 6.31494 0
      vertex -12.7971 6.31494 10
    endloop
  endfacet
  facet normal -0.89251 0.451028 0
    outer loop
      vertex -14.1044 3.72801 0
      vertex -12.7971 6.31494 10
      vertex -12.7971 6.31494 0
    endloop
  endfacet
  facet normal -0.89251 0.451028 0
    outer loop
      vertex -12.7971 6.31494 10
      vertex -14.1044 3.72801 0
      vertex -14.1044 3.72801 10
    endloop
  endfacet
  facet normal -0.475225 0.879864 0
    outer loop
      vertex -6.52806 11.6055 0
      vertex -8.91164 10.3181 10
      vertex -6.52806 11.6055 10
    endloop
  endfacet
  facet normal -0.475225 0.879864 0
    outer loop
      vertex -8.91164 10.3181 10
      vertex -6.52806 11.6055 0
      vertex -8.91164 10.3181 0
    endloop
  endfacet
  facet normal -0.0893596 0.995999 0
    outer loop
      vertex -1.42197 12.5989 0
      vertex -3.99446 12.3681 10
      vertex -1.42197 12.5989 10
    endloop
  endfacet
  facet normal -0.0893596 0.995999 0
    outer loop
      vertex -3.99446 12.3681 10
      vertex -1.42197 12.5989 0
      vertex -3.99446 12.3681 0
    endloop
  endfacet
  facet normal -0.997996 0.0632763 0
    outer loop
      vertex -15.073 -2.14859 0
      vertex -14.8816 0.870178 10
      vertex -14.8816 0.870178 0
    endloop
  endfacet
  facet normal -0.997996 0.0632763 0
    outer loop
      vertex -14.8816 0.870178 10
      vertex -15.073 -2.14859 0
      vertex -15.073 -2.14859 10
    endloop
  endfacet
  facet normal -0.942442 -0.33437 0
    outer loop
      vertex -13.5919 -8.17686 0
      vertex -14.6456 -5.20694 10
      vertex -14.6456 -5.20694 0
    endloop
  endfacet
  facet normal -0.942442 -0.33437 0
    outer loop
      vertex -14.6456 -5.20694 10
      vertex -13.5919 -8.17686 0
      vertex -13.5919 -8.17686 10
    endloop
  endfacet
  facet normal -0.735222 -0.677826 0
    outer loop
      vertex -9.70943 -13.3391 0
      vertex -11.9312 -10.9292 10
      vertex -11.9312 -10.9292 0
    endloop
  endfacet
  facet normal -0.735222 -0.677826 0
    outer loop
      vertex -11.9312 -10.9292 10
      vertex -9.70943 -13.3391 0
      vertex -9.70943 -13.3391 10
    endloop
  endfacet
  facet normal -0.409945 -0.91211 0
    outer loop
      vertex -6.99829 -15.2915 0
      vertex -3.89314 -16.6871 10
      vertex -6.99829 -15.2915 10
    endloop
  endfacet
  facet normal -0.409945 -0.91211 -0
    outer loop
      vertex -3.89314 -16.6871 10
      vertex -6.99829 -15.2915 0
      vertex -3.89314 -16.6871 0
    endloop
  endfacet
  facet normal -0.584379 -0.811481 0
    outer loop
      vertex -9.70943 -13.3391 0
      vertex -6.99829 -15.2915 10
      vertex -9.70943 -13.3391 10
    endloop
  endfacet
  facet normal -0.584379 -0.811481 -0
    outer loop
      vertex -6.99829 -15.2915 10
      vertex -9.70943 -13.3391 0
      vertex -6.99829 -15.2915 0
    endloop
  endfacet
  facet normal -0.218884 -0.975751 0
    outer loop
      vertex -3.89314 -16.6871 0
      vertex -0.509628 -17.4461 10
      vertex -3.89314 -16.6871 10
    endloop
  endfacet
  facet normal -0.218884 -0.975751 -0
    outer loop
      vertex -0.509628 -17.4461 10
      vertex -3.89314 -16.6871 0
      vertex -0.509628 -17.4461 0
    endloop
  endfacet
  facet normal 0.311597 0.950214 -0
    outer loop
      vertex 3.41592 11.5476 0
      vertex 1.08153 12.3131 10
      vertex 3.41592 11.5476 10
    endloop
  endfacet
  facet normal 0.311597 0.950214 0
    outer loop
      vertex 1.08153 12.3131 10
      vertex 3.41592 11.5476 0
      vertex 1.08153 12.3131 0
    endloop
  endfacet
  facet normal 0.928267 -0.371914 0
    outer loop
      vertex 17.8349 -7.54045 10
      vertex 19.2894 -3.91014 0
      vertex 19.2894 -3.91014 10
    endloop
  endfacet
  facet normal 0.928267 -0.371914 0
    outer loop
      vertex 19.2894 -3.91014 0
      vertex 17.8349 -7.54045 10
      vertex 17.8349 -7.54045 0
    endloop
  endfacet
  facet normal 0.835132 -0.550049 0
    outer loop
      vertex 15.7186 -10.7536 10
      vertex 17.8349 -7.54045 0
      vertex 17.8349 -7.54045 10
    endloop
  endfacet
  facet normal 0.835132 -0.550049 0
    outer loop
      vertex 17.8349 -7.54045 0
      vertex 15.7186 -10.7536 10
      vertex 15.7186 -10.7536 0
    endloop
  endfacet
  facet normal -0.990376 -0.138404 0
    outer loop
      vertex -14.6456 -5.20694 0
      vertex -15.073 -2.14859 10
      vertex -15.073 -2.14859 0
    endloop
  endfacet
  facet normal -0.990376 -0.138404 0
    outer loop
      vertex -15.073 -2.14859 10
      vertex -14.6456 -5.20694 0
      vertex -14.6456 -5.20694 10
    endloop
  endfacet
  facet normal 0 0 1
    outer loop
      vertex -2.5296 -4.42619 10
      vertex -2.73272 -4.30607 10
      vertex -2.5296 -9.894 10
    endloop
  endfacet
  facet normal -0 0 1
    outer loop
      vertex 9.894 -2.5296 10
      vertex 19.2894 -3.91014 10
      vertex 20 0 10
    endloop
  endfacet
  facet normal 0 0 1
    outer loop
      vertex 19.2894 -3.91014 10
      vertex 9.894 -2.5296 10
      vertex 17.8349 -7.54045 10
    endloop
  endfacet
  facet normal 0 0 1
    outer loop
      vertex 17.8349 -7.54045 10
      vertex 9.894 -2.5296 10
      vertex 15.7186 -10.7536 10
    endloop
  endfacet
  facet normal 0 0 1
    outer loop
      vertex 15.7186 -10.7536 10
      vertex 9.894 -2.5296 10
      vertex 13.0471 -13.4337 10
    endloop
  endfacet
  facet normal 0 0 1
    outer loop
      vertex 9.894 -2.5296 10
      vertex 20 0 10
      vertex 9.894 2.5296 10
    endloop
  endfacet
  facet normal 0 0 1
    outer loop
      vertex 5.49286 10.3576 10
      vertex 9.894 2.5296 10
      vertex 20 0 10
    endloop
  endfacet
  facet normal -0 0 1
    outer loop
      vertex 3.92962 3.25086 10
      vertex 9.894 2.5296 10
      vertex 5.49286 10.3576 10
    endloop
  endfacet
  facet normal 0 0 1
    outer loop
      vertex 9.894 2.5296 10
      vertex 4.30607 2.73272 10
      vertex 4.42619 2.5296 10
    endloop
  endfacet
  facet normal 0 0 1
    outer loop
      vertex 9.894 2.5296 10
      vertex 4.12599 2.9977 10
      vertex 4.30607 2.73272 10
    endloop
  endfacet
  facet normal 0 0 1
    outer loop
      vertex 9.894 2.5296 10
      vertex 3.92962 3.25086 10
      vertex 4.12599 2.9977 10
    endloop
  endfacet
  facet normal 0 0 1
    outer loop
      vertex 5.49286 10.3576 10
      vertex 3.71774 3.49119 10
      vertex 3.92962 3.25086 10
    endloop
  endfacet
  facet normal 0 0 1
    outer loop
      vertex 5.49286 10.3576 10
      vertex 3.49119 3.71774 10
      vertex 3.71774 3.49119 10
    endloop
  endfacet
  facet normal 0 0 1
    outer loop
      vertex 2.5296 9.894 10
      vertex 5.49286 10.3576 10
      vertex 3.41592 11.5476 10
    endloop
  endfacet
  facet normal 0 -0 1
    outer loop
      vertex 2.73272 4.30607 10
      vertex 5.49286 10.3576 10
      vertex 2.5296 9.894 10
    endloop
  endfacet
  facet normal 0 0 1
    outer loop
      vertex 5.49286 10.3576 10
      vertex 3.25086 3.92962 10
      vertex 3.49119 3.71774 10
    endloop
  endfacet
  facet normal 0 0 1
    outer loop
      vertex 5.49286 10.3576 10
      vertex 2.9977 4.12599 10
      vertex 3.25086 3.92962 10
    endloop
  endfacet
  facet normal 0 0 1
    outer loop
      vertex 5.49286 10.3576 10
      vertex 2.73272 4.30607 10
      vertex 2.9977 4.12599 10
    endloop
  endfacet
  facet normal 0 0 1
    outer loop
      vertex 1.08153 12.3131 10
      vertex 2.5296 9.894 10
      vertex 3.41592 11.5476 10
    endloop
  endfacet
  facet normal 0 0 1
    outer loop
      vertex -2.5296 9.894 10
      vertex 1.08153 12.3131 10
      vertex -1.42197 12.5989 10
    endloop
  endfacet
  facet normal 0 0 1
    outer loop
      vertex 1.08153 12.3131 10
      vertex -2.5296 9.894 10
      vertex 2.5296 9.894 10
    endloop
  endfacet
  facet normal 0 0 1
    outer loop
      vertex -2.5296 9.894 10
      vertex -2.73272 4.30607 10
      vertex -2.5296 4.42619 10
    endloop
  endfacet
  facet normal 0 0 1
    outer loop
      vertex -2.5296 9.894 10
      vertex -2.9977 4.12599 10
      vertex -2.73272 4.30607 10
    endloop
  endfacet
  facet normal 0 0 1
    outer loop
      vertex -2.5296 9.894 10
      vertex -3.25086 3.92962 10
      vertex -2.9977 4.12599 10
    endloop
  endfacet
  facet normal 0 0 1
    outer loop
      vertex -8.91164 10.3181 10
      vertex -3.25086 3.92962 10
      vertex -2.5296 9.894 10
    endloop
  endfacet
  facet normal 0 0 1
    outer loop
      vertex -3.25086 3.92962 10
      vertex -8.91164 10.3181 10
      vertex -3.49119 3.71774 10
    endloop
  endfacet
  facet normal 0 0 1
    outer loop
      vertex -3.49119 3.71774 10
      vertex -8.91164 10.3181 10
      vertex -3.71774 3.49119 10
    endloop
  endfacet
  facet normal -0 0 1
    outer loop
      vertex -3.99446 12.3681 10
      vertex -2.5296 9.894 10
      vertex -1.42197 12.5989 10
    endloop
  endfacet
  facet normal -0 0 1
    outer loop
      vertex -6.52806 11.6055 10
      vertex -2.5296 9.894 10
      vertex -3.99446 12.3681 10
    endloop
  endfacet
  facet normal -0 0 1
    outer loop
      vertex -8.91164 10.3181 10
      vertex -2.5296 9.894 10
      vertex -6.52806 11.6055 10
    endloop
  endfacet
  facet normal 0 0 1
    outer loop
      vertex -3.71774 3.49119 10
      vertex -8.91164 10.3181 10
      vertex -3.92962 3.25086 10
    endloop
  endfacet
  facet normal -0 0 1
    outer loop
      vertex -11.0357 8.5367 10
      vertex -3.92962 3.25086 10
      vertex -8.91164 10.3181 10
    endloop
  endfacet
  facet normal 0 -0 1
    outer loop
      vertex -9.894 2.5296 10
      vertex -3.92962 3.25086 10
      vertex -11.0357 8.5367 10
    endloop
  endfacet
  facet normal 0 0 1
    outer loop
      vertex -4.12599 2.9977 10
      vertex -9.894 2.5296 10
      vertex -4.30607 2.73272 10
    endloop
  endfacet
  facet normal 0 0 1
    outer loop
      vertex -4.30607 2.73272 10
      vertex -9.894 2.5296 10
      vertex -4.42619 2.5296 10
    endloop
  endfacet
  facet normal -0 0 1
    outer loop
      vertex -12.7971 6.31494 10
      vertex -9.894 2.5296 10
      vertex -11.0357 8.5367 10
    endloop
  endfacet
  facet normal 0 0 1
    outer loop
      vertex -3.92962 3.25086 10
      vertex -9.894 2.5296 10
      vertex -4.12599 2.9977 10
    endloop
  endfacet
  facet normal -0 0 1
    outer loop
      vertex 2.5296 -9.894 10
      vertex 13.0471 -13.4337 10
      vertex 9.894 -2.5296 10
    endloop
  endfacet
  facet normal 0 0 1
    outer loop
      vertex 13.0471 -13.4337 10
      vertex 2.5296 -9.894 10
      vertex 9.94612 -15.4902 10
    endloop
  endfacet
  facet normal 0 0 1
    outer loop
      vertex 4.30607 -2.73272 10
      vertex 9.894 -2.5296 10
      vertex 4.42619 -2.5296 10
    endloop
  endfacet
  facet normal 0 0 1
    outer loop
      vertex 4.12599 -2.9977 10
      vertex 9.894 -2.5296 10
      vertex 4.30607 -2.73272 10
    endloop
  endfacet
  facet normal 0 0 1
    outer loop
      vertex 3.92962 -3.25086 10
      vertex 9.894 -2.5296 10
      vertex 4.12599 -2.9977 10
    endloop
  endfacet
  facet normal 0 0 1
    outer loop
      vertex 3.71774 -3.49119 10
      vertex 9.894 -2.5296 10
      vertex 3.92962 -3.25086 10
    endloop
  endfacet
  facet normal 0 0 1
    outer loop
      vertex 9.894 -2.5296 10
      vertex 3.71774 -3.49119 10
      vertex 2.5296 -9.894 10
    endloop
  endfacet
  facet normal 0 0 1
    outer loop
      vertex 2.5296 -9.894 10
      vertex 3.71774 -3.49119 10
      vertex 3.49119 -3.71774 10
    endloop
  endfacet
  facet normal 0 0 1
    outer loop
      vertex 2.5296 -9.894 10
      vertex 3.49119 -3.71774 10
      vertex 3.25086 -3.92962 10
    endloop
  endfacet
  facet normal 0 0 1
    outer loop
      vertex 9.94612 -15.4902 10
      vertex 2.5296 -9.894 10
      vertex 6.5551 -16.8607 10
    endloop
  endfacet
  facet normal 0 0 1
    outer loop
      vertex 2.5296 -9.894 10
      vertex 3.25086 -3.92962 10
      vertex 2.9977 -4.12599 10
    endloop
  endfacet
  facet normal 0 0 1
    outer loop
      vertex 2.5296 -9.894 10
      vertex 2.9977 -4.12599 10
      vertex 2.73272 -4.30607 10
    endloop
  endfacet
  facet normal 0 0 1
    outer loop
      vertex 2.5296 -9.894 10
      vertex 2.73272 -4.30607 10
      vertex 2.5296 -4.42619 10
    endloop
  endfacet
  facet normal 0 0 1
    outer loop
      vertex 6.5551 -16.8607 10
      vertex 2.5296 -9.894 10
      vertex 3.02061 -17.5132 10
    endloop
  endfacet
  facet normal 0 0 1
    outer loop
      vertex 2.5296 -9.894 10
      vertex -0.509628 -17.4461 10
      vertex 3.02061 -17.5132 10
    endloop
  endfacet
  facet normal -0 0 1
    outer loop
      vertex -2.5296 -9.894 10
      vertex -0.509628 -17.4461 10
      vertex 2.5296 -9.894 10
    endloop
  endfacet
  facet normal 0 0 1
    outer loop
      vertex -2.9977 -4.12599 10
      vertex -2.5296 -9.894 10
      vertex -2.73272 -4.30607 10
    endloop
  endfacet
  facet normal 0 0 1
    outer loop
      vertex -3.25086 -3.92962 10
      vertex -2.5296 -9.894 10
      vertex -2.9977 -4.12599 10
    endloop
  endfacet
  facet normal 0 0 1
    outer loop
      vertex -3.49119 -3.71774 10
      vertex -2.5296 -9.894 10
      vertex -3.25086 -3.92962 10
    endloop
  endfacet
  facet normal 0 0 1
    outer loop
      vertex -3.71774 -3.49119 10
      vertex -2.5296 -9.894 10
      vertex -3.49119 -3.71774 10
    endloop
  endfacet
  facet normal 0 0 1
    outer loop
      vertex -2.5296 -9.894 10
      vertex -3.89314 -16.6871 10
      vertex -0.509628 -17.4461 10
    endloop
  endfacet
  facet normal 0 0 1
    outer loop
      vertex -11.9312 -10.9292 10
      vertex -2.5296 -9.894 10
      vertex -3.71774 -3.49119 10
    endloop
  endfacet
  facet normal 0 0 1
    outer loop
      vertex -9.894 -2.5296 10
      vertex -3.71774 -3.49119 10
      vertex -3.92962 -3.25086 10
    endloop
  endfacet
  facet normal 0 0 1
    outer loop
      vertex -9.894 -2.5296 10
      vertex -3.92962 -3.25086 10
      vertex -4.12599 -2.9977 10
    endloop
  endfacet
  facet normal 0 0 1
    outer loop
      vertex -9.894 -2.5296 10
      vertex -4.12599 -2.9977 10
      vertex -4.30607 -2.73272 10
    endloop
  endfacet
  facet normal -0 0 1
    outer loop
      vertex -9.894 -2.5296 10
      vertex -4.30607 -2.73272 10
      vertex -4.42619 -2.5296 10
    endloop
  endfacet
  facet normal 0 0 1
    outer loop
      vertex -2.5296 -9.894 10
      vertex -6.99829 -15.2915 10
      vertex -3.89314 -16.6871 10
    endloop
  endfacet
  facet normal 0 0 1
    outer loop
      vertex -2.5296 -9.894 10
      vertex -9.70943 -13.3391 10
      vertex -6.99829 -15.2915 10
    endloop
  endfacet
  facet normal 0 0 1
    outer loop
      vertex -3.71774 -3.49119 10
      vertex -9.894 -2.5296 10
      vertex -11.9312 -10.9292 10
    endloop
  endfacet
  facet normal -0 0 1
    outer loop
      vertex -14.1044 3.72801 10
      vertex -9.894 2.5296 10
      vertex -12.7971 6.31494 10
    endloop
  endfacet
  facet normal 0 0 1
    outer loop
      vertex -2.5296 -9.894 10
      vertex -11.9312 -10.9292 10
      vertex -9.70943 -13.3391 10
    endloop
  endfacet
  facet normal 0 0 1
    outer loop
      vertex -14.8816 0.870178 10
      vertex -9.894 2.5296 10
      vertex -14.1044 3.72801 10
    endloop
  endfacet
  facet normal 0 0 1
    outer loop
      vertex -9.894 -2.5296 10
      vertex -13.5919 -8.17686 10
      vertex -11.9312 -10.9292 10
    endloop
  endfacet
  facet normal 0 0 1
    outer loop
      vertex -9.894 2.5296 10
      vertex -14.8816 0.870178 10
      vertex -9.894 -2.5296 10
    endloop
  endfacet
  facet normal 0 0 1
    outer loop
      vertex -9.894 -2.5296 10
      vertex -14.6456 -5.20694 10
      vertex -13.5919 -8.17686 10
    endloop
  endfacet
  facet normal -0 0 1
    outer loop
      vertex -15.073 -2.14859 10
      vertex -9.894 -2.5296 10
      vertex -14.8816 0.870178 10
    endloop
  endfacet
  facet normal 0 0 1
    outer loop
      vertex -9.894 -2.5296 10
      vertex -15.073 -2.14859 10
      vertex -14.6456 -5.20694 10
    endloop
  endfacet
  facet normal 0 0 1
    outer loop
      vertex 2.73272 4.30607 10
      vertex 2.5296 9.894 10
      vertex 2.5296 4.42619 10
    endloop
  endfacet
  facet normal 0.497139 0.867671 -0
    outer loop
      vertex 5.49286 10.3576 0
      vertex 3.41592 11.5476 10
      vertex 5.49286 10.3576 10
    endloop
  endfacet
  facet normal 0.497139 0.867671 0
    outer loop
      vertex 3.41592 11.5476 10
      vertex 5.49286 10.3576 0
      vertex 3.41592 11.5476 0
    endloop
  endfacet
endsolid OpenSCAD_Model
