solid OpenSCAD_Model
  facet normal -0.707107 -0.707107 0
    outer loop
      vertex 3.68129 3.45696 0
      vertex 3.45696 3.68129 10
      vertex 3.45696 3.68129 0
    endloop
  endfacet
  facet normal -0.707107 -0.707107 0
    outer loop
      vertex 3.45696 3.68129 10
      vertex 3.68129 3.45696 0
      vertex 3.68129 3.45696 10
    endloop
  endfacet
  facet normal 0.661314 -0.750109 0
    outer loop
      vertex -3.45696 3.68129 0
      vertex -3.21899 3.89109 10
      vertex -3.45696 3.68129 10
    endloop
  endfacet
  facet normal 0.661314 -0.750109 0
    outer loop
      vertex -3.21899 3.89109 10
      vertex -3.45696 3.68129 0
      vertex -3.21899 3.89109 0
    endloop
  endfacet
  facet normal -0.562062 -0.827095 0
    outer loop
      vertex 2.70592 4.26385 0
      vertex 2.96831 4.08554 10
      vertex 2.70592 4.26385 10
    endloop
  endfacet
  facet normal -0.562062 -0.827095 -0
    outer loop
      vertex 2.96831 4.08554 10
      vertex 2.70592 4.26385 0
      vertex 2.96831 4.08554 0
    endloop
  endfacet
  facet normal 0.790151 0.612912 0
    outer loop
      vertex -3.89109 -3.21899 10
      vertex -4.08554 -2.96831 0
      vertex -4.08554 -2.96831 10
    endloop
  endfacet
  facet normal 0.790151 0.612912 0
    outer loop
      vertex -4.08554 -2.96831 0
      vertex -3.89109 -3.21899 10
      vertex -3.89109 -3.21899 0
    endloop
  endfacet
  facet normal -0.827095 -0.562062 0
    outer loop
      vertex 4.26385 2.70592 0
      vertex 4.08554 2.96831 10
      vertex 4.08554 2.96831 0
    endloop
  endfacet
  facet normal -0.827095 -0.562062 0
    outer loop
      vertex 4.08554 2.96831 10
      vertex 4.26385 2.70592 0
      vertex 4.26385 2.70592 10
    endloop
  endfacet
  facet normal -0.750109 -0.661314 0
    outer loop
      vertex 3.89109 3.21899 0
      vertex 3.68129 3.45696 10
      vertex 3.68129 3.45696 0
    endloop
  endfacet
  facet normal -0.750109 -0.661314 0
    outer loop
      vertex 3.68129 3.45696 10
      vertex 3.89109 3.21899 0
      vertex 3.89109 3.21899 10
    endloop
  endfacet
  facet normal -0.509056 -0.860733 0
    outer loop
      vertex 2.525 4.37085 0
      vertex 2.70592 4.26385 10
      vertex 2.525 4.37085 10
    endloop
  endfacet
  facet normal -0.509056 -0.860733 -0
    outer loop
      vertex 2.70592 4.26385 10
      vertex 2.525 4.37085 0
      vertex 2.70592 4.26385 0
    endloop
  endfacet
  facet normal -0.612912 -0.790151 0
    outer loop
      vertex 2.96831 4.08554 0
      vertex 3.21899 3.89109 10
      vertex 2.96831 4.08554 10
    endloop
  endfacet
  facet normal -0.612912 -0.790151 -0
    outer loop
      vertex 3.21899 3.89109 10
      vertex 2.96831 4.08554 0
      vertex 3.21899 3.89109 0
    endloop
  endfacet
  facet normal 0.750109 -0.661314 0
    outer loop
      vertex -3.89109 3.21899 10
      vertex -3.68129 3.45696 0
      vertex -3.68129 3.45696 10
    endloop
  endfacet
  facet normal 0.750109 -0.661314 0
    outer loop
      vertex -3.68129 3.45696 0
      vertex -3.89109 3.21899 10
      vertex -3.89109 3.21899 0
    endloop
  endfacet
  facet normal 0.707107 -0.707107 0
    outer loop
      vertex -3.68129 3.45696 10
      vertex -3.45696 3.68129 0
      vertex -3.45696 3.68129 10
    endloop
  endfacet
  facet normal 0.707107 -0.707107 0
    outer loop
      vertex -3.45696 3.68129 0
      vertex -3.68129 3.45696 10
      vertex -3.68129 3.45696 0
    endloop
  endfacet
  facet normal 0.509056 -0.860733 0
    outer loop
      vertex -2.70592 4.26385 0
      vertex -2.525 4.37085 10
      vertex -2.70592 4.26385 10
    endloop
  endfacet
  facet normal 0.509056 -0.860733 0
    outer loop
      vertex -2.525 4.37085 10
      vertex -2.70592 4.26385 0
      vertex -2.525 4.37085 0
    endloop
  endfacet
  facet normal 0.562062 -0.827095 0
    outer loop
      vertex -2.96831 4.08554 0
      vertex -2.70592 4.26385 10
      vertex -2.96831 4.08554 10
    endloop
  endfacet
  facet normal 0.562062 -0.827095 0
    outer loop
      vertex -2.70592 4.26385 10
      vertex -2.96831 4.08554 0
      vertex -2.70592 4.26385 0
    endloop
  endfacet
  facet normal -0.562062 0.827095 0
    outer loop
      vertex 2.96831 -4.08554 0
      vertex 2.70592 -4.26385 10
      vertex 2.96831 -4.08554 10
    endloop
  endfacet
  facet normal -0.562062 0.827095 0
    outer loop
      vertex 2.70592 -4.26385 10
      vertex 2.96831 -4.08554 0
      vertex 2.70592 -4.26385 0
    endloop
  endfacet
  facet normal -0.827095 0.562062 0
    outer loop
      vertex 4.08554 -2.96831 0
      vertex 4.26385 -2.70592 10
      vertex 4.26385 -2.70592 0
    endloop
  endfacet
  facet normal -0.827095 0.562062 0
    outer loop
      vertex 4.26385 -2.70592 10
      vertex 4.08554 -2.96831 0
      vertex 4.08554 -2.96831 10
    endloop
  endfacet
  facet normal 0.661314 0.750109 -0
    outer loop
      vertex -3.21899 -3.89109 0
      vertex -3.45696 -3.68129 10
      vertex -3.21899 -3.89109 10
    endloop
  endfacet
  facet normal 0.661314 0.750109 0
    outer loop
      vertex -3.45696 -3.68129 10
      vertex -3.21899 -3.89109 0
      vertex -3.45696 -3.68129 0
    endloop
  endfacet
  facet normal 0.707107 0.707107 0
    outer loop
      vertex -3.45696 -3.68129 10
      vertex -3.68129 -3.45696 0
      vertex -3.68129 -3.45696 10
    endloop
  endfacet
  facet normal 0.707107 0.707107 0
    outer loop
      vertex -3.68129 -3.45696 0
      vertex -3.45696 -3.68129 10
      vertex -3.45696 -3.68129 0
    endloop
  endfacet
  facet normal 0.860733 0.509056 0
    outer loop
      vertex -4.26385 -2.70592 10
      vertex -4.37085 -2.525 0
      vertex -4.37085 -2.525 10
    endloop
  endfacet
  facet normal 0.860733 0.509056 0
    outer loop
      vertex -4.37085 -2.525 0
      vertex -4.26385 -2.70592 10
      vertex -4.26385 -2.70592 0
    endloop
  endfacet
  facet normal 0.827095 0.562062 0
    outer loop
      vertex -4.08554 -2.96831 10
      vertex -4.26385 -2.70592 0
      vertex -4.26385 -2.70592 10
    endloop
  endfacet
  facet normal 0.827095 0.562062 0
    outer loop
      vertex -4.26385 -2.70592 0
      vertex -4.08554 -2.96831 10
      vertex -4.08554 -2.96831 0
    endloop
  endfacet
  facet normal -0 0 -1
    outer loop
      vertex -2.525 4.37085 0
      vertex -2.70592 4.26385 0
      vertex -2.525 9.898 0
    endloop
  endfacet
  facet normal 0 0 -1
    outer loop
      vertex 2.525 -9.898 0
      vertex 12.4904 -13.872 0
      vertex 9.16666 -15.8771 0
    endloop
  endfacet
  facet normal 0 0 -1
    outer loop
      vertex 2.525 -9.898 0
      vertex 9.16666 -15.8771 0
      vertex 5.5623 -17.119 0
    endloop
  endfacet
  facet normal 0 0 -1
    outer loop
      vertex 12.4904 -13.872 0
      vertex 2.525 -9.898 0
      vertex 9.898 -2.525 0
    endloop
  endfacet
  facet normal -0 0 -1
    outer loop
      vertex 9.898 -2.525 0
      vertex 4.26385 -2.70592 0
      vertex 4.37085 -2.525 0
    endloop
  endfacet
  facet normal 0 -0 -1
    outer loop
      vertex 3.68129 -3.45696 0
      vertex 9.898 -2.525 0
      vertex 2.525 -9.898 0
    endloop
  endfacet
  facet normal 0 0 -1
    outer loop
      vertex 9.898 -2.525 0
      vertex 4.08554 -2.96831 0
      vertex 4.26385 -2.70592 0
    endloop
  endfacet
  facet normal 0 0 -1
    outer loop
      vertex 9.898 -2.525 0
      vertex 3.89109 -3.21899 0
      vertex 4.08554 -2.96831 0
    endloop
  endfacet
  facet normal 0 0 -1
    outer loop
      vertex 9.898 -2.525 0
      vertex 3.68129 -3.45696 0
      vertex 3.89109 -3.21899 0
    endloop
  endfacet
  facet normal 0 0 -1
    outer loop
      vertex 3.68129 -3.45696 0
      vertex 2.525 -9.898 0
      vertex 3.45696 -3.68129 0
    endloop
  endfacet
  facet normal 0 0 -1
    outer loop
      vertex 3.45696 -3.68129 0
      vertex 2.525 -9.898 0
      vertex 3.21899 -3.89109 0
    endloop
  endfacet
  facet normal 0 0 -1
    outer loop
      vertex 3.21899 -3.89109 0
      vertex 2.525 -9.898 0
      vertex 2.96831 -4.08554 0
    endloop
  endfacet
  facet normal 0 0 -1
    outer loop
      vertex 2.96831 -4.08554 0
      vertex 2.525 -9.898 0
      vertex 2.70592 -4.26385 0
    endloop
  endfacet
  facet normal 0 0 -1
    outer loop
      vertex 1.84666 -17.5699 0
      vertex 2.525 -9.898 0
      vertex 5.5623 -17.119 0
    endloop
  endfacet
  facet normal 0 0 -1
    outer loop
      vertex -1.81181 -17.2384 0
      vertex 2.525 -9.898 0
      vertex 1.84666 -17.5699 0
    endloop
  endfacet
  facet normal 0 0 -1
    outer loop
      vertex -1.81181 -17.2384 0
      vertex -2.525 -9.898 0
      vertex 2.525 -9.898 0
    endloop
  endfacet
  facet normal 0 0 -1
    outer loop
      vertex -2.525 -9.898 0
      vertex -2.70592 -4.26385 0
      vertex -2.525 -4.37085 0
    endloop
  endfacet
  facet normal 0 0 -1
    outer loop
      vertex -2.525 -9.898 0
      vertex -2.96831 -4.08554 0
      vertex -2.70592 -4.26385 0
    endloop
  endfacet
  facet normal 0 0 -1
    outer loop
      vertex -2.525 -9.898 0
      vertex -3.21899 -3.89109 0
      vertex -2.96831 -4.08554 0
    endloop
  endfacet
  facet normal 0 0 -1
    outer loop
      vertex -5.25328 -16.168 0
      vertex -2.525 -9.898 0
      vertex -1.81181 -17.2384 0
    endloop
  endfacet
  facet normal 0 0 -1
    outer loop
      vertex -8.33333 -14.4337 0
      vertex -2.525 -9.898 0
      vertex -5.25328 -16.168 0
    endloop
  endfacet
  facet normal 0 0 -1
    outer loop
      vertex -10.9291 -12.138 0
      vertex -2.525 -9.898 0
      vertex -8.33333 -14.4337 0
    endloop
  endfacet
  facet normal 0 -0 -1
    outer loop
      vertex -9.898 -2.525 0
      vertex -2.525 -9.898 0
      vertex -10.9291 -12.138 0
    endloop
  endfacet
  facet normal 0 0 -1
    outer loop
      vertex -2.525 -9.898 0
      vertex -3.45696 -3.68129 0
      vertex -3.21899 -3.89109 0
    endloop
  endfacet
  facet normal 0 0 -1
    outer loop
      vertex -2.525 -9.898 0
      vertex -9.898 -2.525 0
      vertex -3.45696 -3.68129 0
    endloop
  endfacet
  facet normal 0 0 -1
    outer loop
      vertex -3.45696 -3.68129 0
      vertex -9.898 -2.525 0
      vertex -3.68129 -3.45696 0
    endloop
  endfacet
  facet normal 0 0 -1
    outer loop
      vertex -3.68129 -3.45696 0
      vertex -9.898 -2.525 0
      vertex -3.89109 -3.21899 0
    endloop
  endfacet
  facet normal 0 0 -1
    outer loop
      vertex -3.89109 -3.21899 0
      vertex -9.898 -2.525 0
      vertex -4.08554 -2.96831 0
    endloop
  endfacet
  facet normal 0 0 -1
    outer loop
      vertex -4.08554 -2.96831 0
      vertex -9.898 -2.525 0
      vertex -4.26385 -2.70592 0
    endloop
  endfacet
  facet normal 0 0 -1
    outer loop
      vertex -12.9443 -9.40456 0
      vertex -9.898 -2.525 0
      vertex -10.9291 -12.138 0
    endloop
  endfacet
  facet normal 0 0 -1
    outer loop
      vertex -4.26385 -2.70592 0
      vertex -9.898 -2.525 0
      vertex -4.37085 -2.525 0
    endloop
  endfacet
  facet normal 0 0 -1
    outer loop
      vertex 9.898 -2.525 0
      vertex 19.2369 -4.08893 0
      vertex 17.6619 -7.86357 0
    endloop
  endfacet
  facet normal 0 0 -1
    outer loop
      vertex 9.898 -2.525 0
      vertex 17.6619 -7.86357 0
      vertex 15.3713 -11.1679 0
    endloop
  endfacet
  facet normal 0 0 -1
    outer loop
      vertex 9.898 -2.525 0
      vertex 15.3713 -11.1679 0
      vertex 12.4904 -13.872 0
    endloop
  endfacet
  facet normal 0 0 -1
    outer loop
      vertex 19.2369 -4.08893 0
      vertex 9.898 -2.525 0
      vertex 20 0 0
    endloop
  endfacet
  facet normal 0 0 -1
    outer loop
      vertex 9.898 2.525 0
      vertex 20 0 0
      vertex 9.898 -2.525 0
    endloop
  endfacet
  facet normal 0 0 -1
    outer loop
      vertex 9.898 2.525 0
      vertex 5.83333 10.1036 0
      vertex 20 0 0
    endloop
  endfacet
  facet normal 0 0 -1
    outer loop
      vertex 4.26385 2.70592 0
      vertex 9.898 2.525 0
      vertex 4.37085 2.525 0
    endloop
  endfacet
  facet normal 0 0 -1
    outer loop
      vertex 4.08554 2.96831 0
      vertex 9.898 2.525 0
      vertex 4.26385 2.70592 0
    endloop
  endfacet
  facet normal 0 0 -1
    outer loop
      vertex 3.89109 3.21899 0
      vertex 9.898 2.525 0
      vertex 4.08554 2.96831 0
    endloop
  endfacet
  facet normal 0 0 -1
    outer loop
      vertex 9.898 2.525 0
      vertex 3.89109 3.21899 0
      vertex 5.83333 10.1036 0
    endloop
  endfacet
  facet normal 0 0 -1
    outer loop
      vertex 3.68129 3.45696 0
      vertex 5.83333 10.1036 0
      vertex 3.89109 3.21899 0
    endloop
  endfacet
  facet normal 0 0 -1
    outer loop
      vertex 3.45696 3.68129 0
      vertex 5.83333 10.1036 0
      vertex 3.68129 3.45696 0
    endloop
  endfacet
  facet normal 0 0 -1
    outer loop
      vertex 3.21899 3.89109 0
      vertex 5.83333 10.1036 0
      vertex 3.45696 3.68129 0
    endloop
  endfacet
  facet normal 0 0 -1
    outer loop
      vertex 2.96831 4.08554 0
      vertex 5.83333 10.1036 0
      vertex 3.21899 3.89109 0
    endloop
  endfacet
  facet normal 0 0 -1
    outer loop
      vertex 2.70592 4.26385 0
      vertex 5.83333 10.1036 0
      vertex 2.96831 4.08554 0
    endloop
  endfacet
  facet normal 0 0 -1
    outer loop
      vertex 5.83333 10.1036 0
      vertex 2.70592 4.26385 0
      vertex 2.525 9.898 0
    endloop
  endfacet
  facet normal 0 0 -1
    outer loop
      vertex 2.525 9.898 0
      vertex 2.70592 4.26385 0
      vertex 2.525 4.37085 0
    endloop
  endfacet
  facet normal -0 0 -1
    outer loop
      vertex 5.83333 10.1036 0
      vertex 2.525 9.898 0
      vertex 3.70819 11.4127 0
    endloop
  endfacet
  facet normal 0 0 -1
    outer loop
      vertex 2.525 9.898 0
      vertex 1.28917 12.2658 0
      vertex 3.70819 11.4127 0
    endloop
  endfacet
  facet normal 0 0 -1
    outer loop
      vertex -2.525 9.898 0
      vertex 1.28917 12.2658 0
      vertex 2.525 9.898 0
    endloop
  endfacet
  facet normal -0 0 -1
    outer loop
      vertex 1.28917 12.2658 0
      vertex -2.525 9.898 0
      vertex -1.32402 12.5973 0
    endloop
  endfacet
  facet normal 0 0 -1
    outer loop
      vertex -2.96831 4.08554 0
      vertex -2.525 9.898 0
      vertex -2.70592 4.26385 0
    endloop
  endfacet
  facet normal 0 0 -1
    outer loop
      vertex -3.21899 3.89109 0
      vertex -2.525 9.898 0
      vertex -2.96831 4.08554 0
    endloop
  endfacet
  facet normal 0 0 -1
    outer loop
      vertex -9.14478 10.1563 0
      vertex -3.21899 3.89109 0
      vertex -3.45696 3.68129 0
    endloop
  endfacet
  facet normal 0 0 -1
    outer loop
      vertex -9.14478 10.1563 0
      vertex -3.45696 3.68129 0
      vertex -3.68129 3.45696 0
    endloop
  endfacet
  facet normal 0 0 -1
    outer loop
      vertex -9.14478 10.1563 0
      vertex -3.68129 3.45696 0
      vertex -3.89109 3.21899 0
    endloop
  endfacet
  facet normal 0 0 -1
    outer loop
      vertex -2.525 9.898 0
      vertex -4.01721 12.3637 0
      vertex -1.32402 12.5973 0
    endloop
  endfacet
  facet normal 0 0 -1
    outer loop
      vertex -3.21899 3.89109 0
      vertex -9.14478 10.1563 0
      vertex -2.525 9.898 0
    endloop
  endfacet
  facet normal 0 0 -1
    outer loop
      vertex -9.898 2.525 0
      vertex -3.89109 3.21899 0
      vertex -4.08554 2.96831 0
    endloop
  endfacet
  facet normal 0 0 -1
    outer loop
      vertex -9.898 2.525 0
      vertex -4.08554 2.96831 0
      vertex -4.26385 2.70592 0
    endloop
  endfacet
  facet normal 0 0 -1
    outer loop
      vertex -9.898 2.525 0
      vertex -4.26385 2.70592 0
      vertex -4.37085 2.525 0
    endloop
  endfacet
  facet normal 0 0 -1
    outer loop
      vertex -2.525 9.898 0
      vertex -6.66666 11.547 0
      vertex -4.01721 12.3637 0
    endloop
  endfacet
  facet normal 0 0 -1
    outer loop
      vertex -2.525 9.898 0
      vertex -9.14478 10.1563 0
      vertex -6.66666 11.547 0
    endloop
  endfacet
  facet normal -0 0 -1
    outer loop
      vertex -3.89109 3.21899 0
      vertex -9.898 2.525 0
      vertex -9.14478 10.1563 0
    endloop
  endfacet
  facet normal 0 0 -1
    outer loop
      vertex -9.898 2.525 0
      vertex -11.3262 8.22899 0
      vertex -9.14478 10.1563 0
    endloop
  endfacet
  facet normal 0 0 -1
    outer loop
      vertex -14.3122 -6.37219 0
      vertex -9.898 -2.525 0
      vertex -12.9443 -9.40456 0
    endloop
  endfacet
  facet normal 0 0 -1
    outer loop
      vertex -14.9983 -3.18797 0
      vertex -9.898 -2.525 0
      vertex -14.3122 -6.37219 0
    endloop
  endfacet
  facet normal 0 0 -1
    outer loop
      vertex -15 0 0
      vertex -9.898 -2.525 0
      vertex -14.9983 -3.18797 0
    endloop
  endfacet
  facet normal 0 0 -1
    outer loop
      vertex -9.898 2.525 0
      vertex -13.0941 5.82988 0
      vertex -11.3262 8.22899 0
    endloop
  endfacet
  facet normal 0 0 -1
    outer loop
      vertex -9.898 2.525 0
      vertex -14.3462 3.04936 0
      vertex -13.0941 5.82988 0
    endloop
  endfacet
  facet normal 0 0 -1
    outer loop
      vertex -9.898 -2.525 0
      vertex -15 0 0
      vertex -9.898 2.525 0
    endloop
  endfacet
  facet normal -0 0 -1
    outer loop
      vertex -9.898 2.525 0
      vertex -15 0 0
      vertex -14.3462 3.04936 0
    endloop
  endfacet
  facet normal 0 0 -1
    outer loop
      vertex 2.70592 -4.26385 0
      vertex 2.525 -9.898 0
      vertex 2.525 -4.37085 0
    endloop
  endfacet
  facet normal -0.661314 -0.750109 0
    outer loop
      vertex 3.21899 3.89109 0
      vertex 3.45696 3.68129 10
      vertex 3.21899 3.89109 10
    endloop
  endfacet
  facet normal -0.661314 -0.750109 -0
    outer loop
      vertex 3.45696 3.68129 10
      vertex 3.21899 3.89109 0
      vertex 3.45696 3.68129 0
    endloop
  endfacet
  facet normal 0.790151 -0.612912 0
    outer loop
      vertex -4.08554 2.96831 10
      vertex -3.89109 3.21899 0
      vertex -3.89109 3.21899 10
    endloop
  endfacet
  facet normal 0.790151 -0.612912 0
    outer loop
      vertex -3.89109 3.21899 0
      vertex -4.08554 2.96831 10
      vertex -4.08554 2.96831 0
    endloop
  endfacet
  facet normal 0.827095 -0.562062 0
    outer loop
      vertex -4.26385 2.70592 10
      vertex -4.08554 2.96831 0
      vertex -4.08554 2.96831 10
    endloop
  endfacet
  facet normal 0.827095 -0.562062 0
    outer loop
      vertex -4.08554 2.96831 0
      vertex -4.26385 2.70592 10
      vertex -4.26385 2.70592 0
    endloop
  endfacet
  facet normal 0.860733 -0.509056 0
    outer loop
      vertex -4.37085 2.525 10
      vertex -4.26385 2.70592 0
      vertex -4.26385 2.70592 10
    endloop
  endfacet
  facet normal 0.860733 -0.509056 0
    outer loop
      vertex -4.26385 2.70592 0
      vertex -4.37085 2.525 10
      vertex -4.37085 2.525 0
    endloop
  endfacet
  facet normal -0.707107 0.707107 0
    outer loop
      vertex 3.45696 -3.68129 0
      vertex 3.68129 -3.45696 10
      vertex 3.68129 -3.45696 0
    endloop
  endfacet
  facet normal -0.707107 0.707107 0
    outer loop
      vertex 3.68129 -3.45696 10
      vertex 3.45696 -3.68129 0
      vertex 3.45696 -3.68129 10
    endloop
  endfacet
  facet normal -0.612912 0.790151 0
    outer loop
      vertex 3.21899 -3.89109 0
      vertex 2.96831 -4.08554 10
      vertex 3.21899 -3.89109 10
    endloop
  endfacet
  facet normal -0.612912 0.790151 0
    outer loop
      vertex 2.96831 -4.08554 10
      vertex 3.21899 -3.89109 0
      vertex 2.96831 -4.08554 0
    endloop
  endfacet
  facet normal -0.661314 0.750109 0
    outer loop
      vertex 3.45696 -3.68129 0
      vertex 3.21899 -3.89109 10
      vertex 3.45696 -3.68129 10
    endloop
  endfacet
  facet normal -0.661314 0.750109 0
    outer loop
      vertex 3.21899 -3.89109 10
      vertex 3.45696 -3.68129 0
      vertex 3.21899 -3.89109 0
    endloop
  endfacet
  facet normal -0.509056 0.860733 0
    outer loop
      vertex 2.70592 -4.26385 0
      vertex 2.525 -4.37085 10
      vertex 2.70592 -4.26385 10
    endloop
  endfacet
  facet normal -0.509056 0.860733 0
    outer loop
      vertex 2.525 -4.37085 10
      vertex 2.70592 -4.26385 0
      vertex 2.525 -4.37085 0
    endloop
  endfacet
  facet normal -0.750109 0.661314 0
    outer loop
      vertex 3.68129 -3.45696 0
      vertex 3.89109 -3.21899 10
      vertex 3.89109 -3.21899 0
    endloop
  endfacet
  facet normal -0.750109 0.661314 0
    outer loop
      vertex 3.89109 -3.21899 10
      vertex 3.68129 -3.45696 0
      vertex 3.68129 -3.45696 10
    endloop
  endfacet
  facet normal -0.790151 0.612912 0
    outer loop
      vertex 3.89109 -3.21899 0
      vertex 4.08554 -2.96831 10
      vertex 4.08554 -2.96831 0
    endloop
  endfacet
  facet normal -0.790151 0.612912 0
    outer loop
      vertex 4.08554 -2.96831 10
      vertex 3.89109 -3.21899 0
      vertex 3.89109 -3.21899 10
    endloop
  endfacet
  facet normal 0.562062 0.827095 -0
    outer loop
      vertex -2.70592 -4.26385 0
      vertex -2.96831 -4.08554 10
      vertex -2.70592 -4.26385 10
    endloop
  endfacet
  facet normal 0.562062 0.827095 0
    outer loop
      vertex -2.96831 -4.08554 10
      vertex -2.70592 -4.26385 0
      vertex -2.96831 -4.08554 0
    endloop
  endfacet
  facet normal 0.750109 0.661314 0
    outer loop
      vertex -3.68129 -3.45696 10
      vertex -3.89109 -3.21899 0
      vertex -3.89109 -3.21899 10
    endloop
  endfacet
  facet normal 0.750109 0.661314 0
    outer loop
      vertex -3.89109 -3.21899 0
      vertex -3.68129 -3.45696 10
      vertex -3.68129 -3.45696 0
    endloop
  endfacet
  facet normal -0.790151 -0.612912 0
    outer loop
      vertex 4.08554 2.96831 0
      vertex 3.89109 3.21899 10
      vertex 3.89109 3.21899 0
    endloop
  endfacet
  facet normal -0.790151 -0.612912 0
    outer loop
      vertex 3.89109 3.21899 10
      vertex 4.08554 2.96831 0
      vertex 4.08554 2.96831 10
    endloop
  endfacet
  facet normal -0.860733 -0.509056 0
    outer loop
      vertex 4.37085 2.525 0
      vertex 4.26385 2.70592 10
      vertex 4.26385 2.70592 0
    endloop
  endfacet
  facet normal -0.860733 -0.509056 0
    outer loop
      vertex 4.26385 2.70592 10
      vertex 4.37085 2.525 0
      vertex 4.37085 2.525 10
    endloop
  endfacet
  facet normal 0.612912 -0.790151 0
    outer loop
      vertex -3.21899 3.89109 0
      vertex -2.96831 4.08554 10
      vertex -3.21899 3.89109 10
    endloop
  endfacet
  facet normal 0.612912 -0.790151 0
    outer loop
      vertex -2.96831 4.08554 10
      vertex -3.21899 3.89109 0
      vertex -2.96831 4.08554 0
    endloop
  endfacet
  facet normal -0.860733 0.509056 0
    outer loop
      vertex 4.26385 -2.70592 0
      vertex 4.37085 -2.525 10
      vertex 4.37085 -2.525 0
    endloop
  endfacet
  facet normal -0.860733 0.509056 0
    outer loop
      vertex 4.37085 -2.525 10
      vertex 4.26385 -2.70592 0
      vertex 4.26385 -2.70592 10
    endloop
  endfacet
  facet normal 0.612912 0.790151 -0
    outer loop
      vertex -2.96831 -4.08554 0
      vertex -3.21899 -3.89109 10
      vertex -2.96831 -4.08554 10
    endloop
  endfacet
  facet normal 0.612912 0.790151 0
    outer loop
      vertex -3.21899 -3.89109 10
      vertex -2.96831 -4.08554 0
      vertex -3.21899 -3.89109 0
    endloop
  endfacet
  facet normal 0.509056 0.860733 -0
    outer loop
      vertex -2.525 -4.37085 0
      vertex -2.70592 -4.26385 10
      vertex -2.525 -4.37085 10
    endloop
  endfacet
  facet normal 0.509056 0.860733 0
    outer loop
      vertex -2.70592 -4.26385 10
      vertex -2.525 -4.37085 0
      vertex -2.70592 -4.26385 0
    endloop
  endfacet
  facet normal 1 -0 0
    outer loop
      vertex -9.898 -2.525 10
      vertex -9.898 2.525 0
      vertex -9.898 2.525 10
    endloop
  endfacet
  facet normal 1 0 0
    outer loop
      vertex -9.898 2.525 0
      vertex -9.898 -2.525 10
      vertex -9.898 -2.525 0
    endloop
  endfacet
  facet normal -1 0 0
    outer loop
      vertex 9.898 -2.525 0
      vertex 9.898 2.525 10
      vertex 9.898 2.525 0
    endloop
  endfacet
  facet normal -1 -0 0
    outer loop
      vertex 9.898 2.525 10
      vertex 9.898 -2.525 0
      vertex 9.898 -2.525 10
    endloop
  endfacet
  facet normal 0 -1 0
    outer loop
      vertex 4.37085 2.525 0
      vertex 9.898 2.525 10
      vertex 4.37085 2.525 10
    endloop
  endfacet
  facet normal 0 -1 -0
    outer loop
      vertex 9.898 2.525 10
      vertex 4.37085 2.525 0
      vertex 9.898 2.525 0
    endloop
  endfacet
  facet normal 0 -1 0
    outer loop
      vertex -9.898 2.525 0
      vertex -4.37085 2.525 10
      vertex -9.898 2.525 10
    endloop
  endfacet
  facet normal 0 -1 -0
    outer loop
      vertex -4.37085 2.525 10
      vertex -9.898 2.525 0
      vertex -4.37085 2.525 0
    endloop
  endfacet
  facet normal 0 1 -0
    outer loop
      vertex 9.898 -2.525 0
      vertex 4.37085 -2.525 10
      vertex 9.898 -2.525 10
    endloop
  endfacet
  facet normal 0 1 0
    outer loop
      vertex 4.37085 -2.525 10
      vertex 9.898 -2.525 0
      vertex 4.37085 -2.525 0
    endloop
  endfacet
  facet normal 0 1 -0
    outer loop
      vertex -4.37085 -2.525 0
      vertex -9.898 -2.525 10
      vertex -4.37085 -2.525 10
    endloop
  endfacet
  facet normal 0 1 0
    outer loop
      vertex -9.898 -2.525 10
      vertex -4.37085 -2.525 0
      vertex -9.898 -2.525 0
    endloop
  endfacet
  facet normal 0 -1 0
    outer loop
      vertex -2.525 9.898 0
      vertex 2.525 9.898 10
      vertex -2.525 9.898 10
    endloop
  endfacet
  facet normal 0 -1 -0
    outer loop
      vertex 2.525 9.898 10
      vertex -2.525 9.898 0
      vertex 2.525 9.898 0
    endloop
  endfacet
  facet normal 0 1 -0
    outer loop
      vertex 2.525 -9.898 0
      vertex -2.525 -9.898 10
      vertex 2.525 -9.898 10
    endloop
  endfacet
  facet normal 0 1 0
    outer loop
      vertex -2.525 -9.898 10
      vertex 2.525 -9.898 0
      vertex -2.525 -9.898 0
    endloop
  endfacet
  facet normal -1 0 0
    outer loop
      vertex 2.525 4.37085 0
      vertex 2.525 9.898 10
      vertex 2.525 9.898 0
    endloop
  endfacet
  facet normal -1 -0 0
    outer loop
      vertex 2.525 9.898 10
      vertex 2.525 4.37085 0
      vertex 2.525 4.37085 10
    endloop
  endfacet
  facet normal -1 0 0
    outer loop
      vertex 2.525 -9.898 0
      vertex 2.525 -4.37085 10
      vertex 2.525 -4.37085 0
    endloop
  endfacet
  facet normal -1 -0 0
    outer loop
      vertex 2.525 -4.37085 10
      vertex 2.525 -9.898 0
      vertex 2.525 -9.898 10
    endloop
  endfacet
  facet normal 1 -0 0
    outer loop
      vertex -2.525 4.37085 10
      vertex -2.525 9.898 0
      vertex -2.525 9.898 10
    endloop
  endfacet
  facet normal 1 0 0
    outer loop
      vertex -2.525 9.898 0
      vertex -2.525 4.37085 10
      vertex -2.525 4.37085 0
    endloop
  endfacet
  facet normal 1 -0 0
    outer loop
      vertex -2.525 -9.898 10
      vertex -2.525 -4.37085 0
      vertex -2.525 -4.37085 10
    endloop
  endfacet
  facet normal 1 0 0
    outer loop
      vertex -2.525 -4.37085 0
      vertex -2.525 -9.898 10
      vertex -2.525 -9.898 0
    endloop
  endfacet
  facet normal 0.120468 -0.992717 0
    outer loop
      vertex 1.84666 -17.5699 0
      vertex 5.5623 -17.119 10
      vertex 1.84666 -17.5699 10
    endloop
  endfacet
  facet normal 0.120468 -0.992717 0
    outer loop
      vertex 5.5623 -17.119 10
      vertex 1.84666 -17.5699 0
      vertex 5.5623 -17.119 0
    endloop
  endfacet
  facet normal 0.32576 -0.945452 0
    outer loop
      vertex 5.5623 -17.119 0
      vertex 9.16666 -15.8771 10
      vertex 5.5623 -17.119 10
    endloop
  endfacet
  facet normal 0.32576 -0.945452 0
    outer loop
      vertex 9.16666 -15.8771 10
      vertex 5.5623 -17.119 0
      vertex 9.16666 -15.8771 0
    endloop
  endfacet
  facet normal 0.58065 0.814153 -0
    outer loop
      vertex 20 0 0
      vertex 5.83333 10.1036 10
      vertex 20 0 10
    endloop
  endfacet
  facet normal 0.58065 0.814153 0
    outer loop
      vertex 5.83333 10.1036 10
      vertex 20 0 0
      vertex 5.83333 10.1036 0
    endloop
  endfacet
  facet normal -0.911815 0.410601 0
    outer loop
      vertex -14.3462 3.04936 0
      vertex -13.0941 5.82988 10
      vertex -13.0941 5.82988 0
    endloop
  endfacet
  facet normal -0.911815 0.410601 0
    outer loop
      vertex -13.0941 5.82988 10
      vertex -14.3462 3.04936 0
      vertex -14.3462 3.04936 10
    endloop
  endfacet
  facet normal 0.821844 -0.569712 0
    outer loop
      vertex 15.3713 -11.1679 10
      vertex 17.6619 -7.86357 0
      vertex 17.6619 -7.86357 10
    endloop
  endfacet
  facet normal 0.821844 -0.569712 0
    outer loop
      vertex 17.6619 -7.86357 0
      vertex 15.3713 -11.1679 10
      vertex 15.3713 -11.1679 0
    endloop
  endfacet
  facet normal 0.125848 0.99205 -0
    outer loop
      vertex 1.28917 12.2658 0
      vertex -1.32402 12.5973 10
      vertex 1.28917 12.2658 10
    endloop
  endfacet
  facet normal 0.125848 0.99205 0
    outer loop
      vertex -1.32402 12.5973 10
      vertex 1.28917 12.2658 0
      vertex -1.32402 12.5973 0
    endloop
  endfacet
  facet normal 0.983027 -0.183458 0
    outer loop
      vertex 19.2369 -4.08893 10
      vertex 20 0 0
      vertex 20 0 10
    endloop
  endfacet
  facet normal 0.983027 -0.183458 0
    outer loop
      vertex 20 0 0
      vertex 19.2369 -4.08893 10
      vertex 19.2369 -4.08893 0
    endloop
  endfacet
  facet normal -0.489394 0.872063 0
    outer loop
      vertex -6.66666 11.547 0
      vertex -9.14478 10.1563 10
      vertex -6.66666 11.547 10
    endloop
  endfacet
  facet normal -0.489394 0.872063 0
    outer loop
      vertex -9.14478 10.1563 10
      vertex -6.66666 11.547 0
      vertex -9.14478 10.1563 0
    endloop
  endfacet
  facet normal -0.294575 0.955628 0
    outer loop
      vertex -4.01721 12.3637 0
      vertex -6.66666 11.547 10
      vertex -4.01721 12.3637 10
    endloop
  endfacet
  facet normal -0.294575 0.955628 0
    outer loop
      vertex -6.66666 11.547 10
      vertex -4.01721 12.3637 0
      vertex -6.66666 11.547 0
    endloop
  endfacet
  facet normal -0.911546 -0.411198 0
    outer loop
      vertex -12.9443 -9.40456 0
      vertex -14.3122 -6.37219 10
      vertex -14.3122 -6.37219 0
    endloop
  endfacet
  facet normal -0.911546 -0.411198 0
    outer loop
      vertex -14.3122 -6.37219 10
      vertex -12.9443 -9.40456 0
      vertex -12.9443 -9.40456 10
    endloop
  endfacet
  facet normal -0.0902419 -0.99592 0
    outer loop
      vertex -1.81181 -17.2384 0
      vertex 1.84666 -17.5699 10
      vertex -1.81181 -17.2384 10
    endloop
  endfacet
  facet normal -0.0902419 -0.99592 -0
    outer loop
      vertex 1.84666 -17.5699 10
      vertex -1.81181 -17.2384 0
      vertex 1.84666 -17.5699 0
    endloop
  endfacet
  facet normal 0.524481 0.851422 -0
    outer loop
      vertex 5.83333 10.1036 0
      vertex 3.70819 11.4127 10
      vertex 5.83333 10.1036 10
    endloop
  endfacet
  facet normal 0.524481 0.851422 0
    outer loop
      vertex 3.70819 11.4127 10
      vertex 5.83333 10.1036 0
      vertex 3.70819 11.4127 0
    endloop
  endfacet
  facet normal 0.332587 0.943072 -0
    outer loop
      vertex 3.70819 11.4127 0
      vertex 1.28917 12.2658 10
      vertex 3.70819 11.4127 10
    endloop
  endfacet
  facet normal 0.332587 0.943072 0
    outer loop
      vertex 1.28917 12.2658 10
      vertex 3.70819 11.4127 0
      vertex 1.28917 12.2658 0
    endloop
  endfacet
  facet normal 0.68438 -0.729126 0
    outer loop
      vertex 12.4904 -13.872 0
      vertex 15.3713 -11.1679 10
      vertex 12.4904 -13.872 10
    endloop
  endfacet
  facet normal 0.68438 -0.729126 0
    outer loop
      vertex 15.3713 -11.1679 10
      vertex 12.4904 -13.872 0
      vertex 15.3713 -11.1679 0
    endloop
  endfacet
  facet normal 0.516551 -0.856257 0
    outer loop
      vertex 9.16666 -15.8771 0
      vertex 12.4904 -13.872 10
      vertex 9.16666 -15.8771 10
    endloop
  endfacet
  facet normal 0.516551 -0.856257 0
    outer loop
      vertex 12.4904 -13.872 10
      vertex 9.16666 -15.8771 0
      vertex 12.4904 -13.872 0
    endloop
  endfacet
  facet normal -0.66211 0.749407 0
    outer loop
      vertex -9.14478 10.1563 0
      vertex -11.3262 8.22899 10
      vertex -9.14478 10.1563 10
    endloop
  endfacet
  facet normal -0.66211 0.749407 0
    outer loop
      vertex -11.3262 8.22899 10
      vertex -9.14478 10.1563 0
      vertex -11.3262 8.22899 0
    endloop
  endfacet
  facet normal -0.805034 0.593228 0
    outer loop
      vertex -13.0941 5.82988 0
      vertex -11.3262 8.22899 10
      vertex -11.3262 8.22899 0
    endloop
  endfacet
  facet normal -0.805034 0.593228 0
    outer loop
      vertex -11.3262 8.22899 10
      vertex -13.0941 5.82988 0
      vertex -13.0941 5.82988 10
    endloop
  endfacet
  facet normal -0.0864128 0.996259 0
    outer loop
      vertex -1.32402 12.5973 0
      vertex -4.01721 12.3637 10
      vertex -1.32402 12.5973 10
    endloop
  endfacet
  facet normal -0.0864128 0.996259 0
    outer loop
      vertex -4.01721 12.3637 10
      vertex -1.32402 12.5973 0
      vertex -4.01721 12.3637 0
    endloop
  endfacet
  facet normal -0.977778 0.209641 0
    outer loop
      vertex -15 0 0
      vertex -14.3462 3.04936 10
      vertex -14.3462 3.04936 0
    endloop
  endfacet
  facet normal -0.977778 0.209641 0
    outer loop
      vertex -14.3462 3.04936 10
      vertex -15 0 0
      vertex -15 0 10
    endloop
  endfacet
  facet normal -0.977565 -0.210635 0
    outer loop
      vertex -14.3122 -6.37219 0
      vertex -14.9983 -3.18797 10
      vertex -14.9983 -3.18797 0
    endloop
  endfacet
  facet normal -0.977565 -0.210635 0
    outer loop
      vertex -14.9983 -3.18797 10
      vertex -14.3122 -6.37219 0
      vertex -14.3122 -6.37219 10
    endloop
  endfacet
  facet normal -0.804903 -0.593406 0
    outer loop
      vertex -10.9291 -12.138 0
      vertex -12.9443 -9.40456 10
      vertex -12.9443 -9.40456 0
    endloop
  endfacet
  facet normal -0.804903 -0.593406 0
    outer loop
      vertex -12.9443 -9.40456 10
      vertex -10.9291 -12.138 0
      vertex -10.9291 -12.138 10
    endloop
  endfacet
  facet normal -0.662484 -0.749076 0
    outer loop
      vertex -10.9291 -12.138 0
      vertex -8.33333 -14.4337 10
      vertex -10.9291 -12.138 10
    endloop
  endfacet
  facet normal -0.662484 -0.749076 -0
    outer loop
      vertex -8.33333 -14.4337 10
      vertex -10.9291 -12.138 0
      vertex -8.33333 -14.4337 0
    endloop
  endfacet
  facet normal -0.296996 -0.954879 0
    outer loop
      vertex -5.25328 -16.168 0
      vertex -1.81181 -17.2384 10
      vertex -5.25328 -16.168 10
    endloop
  endfacet
  facet normal -0.296996 -0.954879 -0
    outer loop
      vertex -1.81181 -17.2384 10
      vertex -5.25328 -16.168 0
      vertex -1.81181 -17.2384 0
    endloop
  endfacet
  facet normal 0.922883 -0.385081 0
    outer loop
      vertex 17.6619 -7.86357 10
      vertex 19.2369 -4.08893 0
      vertex 19.2369 -4.08893 10
    endloop
  endfacet
  facet normal 0.922883 -0.385081 0
    outer loop
      vertex 19.2369 -4.08893 0
      vertex 17.6619 -7.86357 10
      vertex 17.6619 -7.86357 0
    endloop
  endfacet
  facet normal -1 -0.000533255 0
    outer loop
      vertex -14.9983 -3.18797 0
      vertex -15 0 10
      vertex -15 0 0
    endloop
  endfacet
  facet normal -1 -0.000533255 0
    outer loop
      vertex -15 0 10
      vertex -14.9983 -3.18797 0
      vertex -14.9983 -3.18797 10
    endloop
  endfacet
  facet normal 0 0 1
    outer loop
      vertex -2.525 -4.37085 10
      vertex -2.70592 -4.26385 10
      vertex -2.525 -9.898 10
    endloop
  endfacet
  facet normal -0 0 1
    outer loop
      vertex 9.898 -2.525 10
      vertex 19.2369 -4.08893 10
      vertex 20 0 10
    endloop
  endfacet
  facet normal 0 0 1
    outer loop
      vertex 19.2369 -4.08893 10
      vertex 9.898 -2.525 10
      vertex 17.6619 -7.86357 10
    endloop
  endfacet
  facet normal 0 0 1
    outer loop
      vertex 17.6619 -7.86357 10
      vertex 9.898 -2.525 10
      vertex 15.3713 -11.1679 10
    endloop
  endfacet
  facet normal 0 0 1
    outer loop
      vertex 9.898 -2.525 10
      vertex 20 0 10
      vertex 9.898 2.525 10
    endloop
  endfacet
  facet normal 0 0 1
    outer loop
      vertex 5.83333 10.1036 10
      vertex 9.898 2.525 10
      vertex 20 0 10
    endloop
  endfacet
  facet normal -0 0 1
    outer loop
      vertex 3.89109 3.21899 10
      vertex 9.898 2.525 10
      vertex 5.83333 10.1036 10
    endloop
  endfacet
  facet normal 0 0 1
    outer loop
      vertex 9.898 2.525 10
      vertex 4.26385 2.70592 10
      vertex 4.37085 2.525 10
    endloop
  endfacet
  facet normal 0 0 1
    outer loop
      vertex 9.898 2.525 10
      vertex 4.08554 2.96831 10
      vertex 4.26385 2.70592 10
    endloop
  endfacet
  facet normal 0 0 1
    outer loop
      vertex 9.898 2.525 10
      vertex 3.89109 3.21899 10
      vertex 4.08554 2.96831 10
    endloop
  endfacet
  facet normal 0 0 1
    outer loop
      vertex 2.525 9.898 10
      vertex 5.83333 10.1036 10
      vertex 3.70819 11.4127 10
    endloop
  endfacet
  facet normal 0 0 1
    outer loop
      vertex 5.83333 10.1036 10
      vertex 3.68129 3.45696 10
      vertex 3.89109 3.21899 10
    endloop
  endfacet
  facet normal 0 0 1
    outer loop
      vertex 5.83333 10.1036 10
      vertex 3.45696 3.68129 10
      vertex 3.68129 3.45696 10
    endloop
  endfacet
  facet normal 0 -0 1
    outer loop
      vertex 2.70592 4.26385 10
      vertex 5.83333 10.1036 10
      vertex 2.525 9.898 10
    endloop
  endfacet
  facet normal 0 0 1
    outer loop
      vertex 5.83333 10.1036 10
      vertex 3.21899 3.89109 10
      vertex 3.45696 3.68129 10
    endloop
  endfacet
  facet normal 0 0 1
    outer loop
      vertex 5.83333 10.1036 10
      vertex 2.96831 4.08554 10
      vertex 3.21899 3.89109 10
    endloop
  endfacet
  facet normal 0 0 1
    outer loop
      vertex 5.83333 10.1036 10
      vertex 2.70592 4.26385 10
      vertex 2.96831 4.08554 10
    endloop
  endfacet
  facet normal 0 0 1
    outer loop
      vertex 1.28917 12.2658 10
      vertex 2.525 9.898 10
      vertex 3.70819 11.4127 10
    endloop
  endfacet
  facet normal 0 0 1
    outer loop
      vertex -2.525 9.898 10
      vertex 1.28917 12.2658 10
      vertex -1.32402 12.5973 10
    endloop
  endfacet
  facet normal 0 0 1
    outer loop
      vertex 1.28917 12.2658 10
      vertex -2.525 9.898 10
      vertex 2.525 9.898 10
    endloop
  endfacet
  facet normal 0 0 1
    outer loop
      vertex -2.525 9.898 10
      vertex -2.70592 4.26385 10
      vertex -2.525 4.37085 10
    endloop
  endfacet
  facet normal 0 0 1
    outer loop
      vertex -2.525 9.898 10
      vertex -2.96831 4.08554 10
      vertex -2.70592 4.26385 10
    endloop
  endfacet
  facet normal 0 0 1
    outer loop
      vertex -2.525 9.898 10
      vertex -3.21899 3.89109 10
      vertex -2.96831 4.08554 10
    endloop
  endfacet
  facet normal 0 0 1
    outer loop
      vertex -9.14478 10.1563 10
      vertex -3.21899 3.89109 10
      vertex -2.525 9.898 10
    endloop
  endfacet
  facet normal 0 0 1
    outer loop
      vertex -3.21899 3.89109 10
      vertex -9.14478 10.1563 10
      vertex -3.45696 3.68129 10
    endloop
  endfacet
  facet normal 0 0 1
    outer loop
      vertex -3.45696 3.68129 10
      vertex -9.14478 10.1563 10
      vertex -3.68129 3.45696 10
    endloop
  endfacet
  facet normal -0 0 1
    outer loop
      vertex -4.01721 12.3637 10
      vertex -2.525 9.898 10
      vertex -1.32402 12.5973 10
    endloop
  endfacet
  facet normal -0 0 1
    outer loop
      vertex -6.66666 11.547 10
      vertex -2.525 9.898 10
      vertex -4.01721 12.3637 10
    endloop
  endfacet
  facet normal -0 0 1
    outer loop
      vertex -9.14478 10.1563 10
      vertex -2.525 9.898 10
      vertex -6.66666 11.547 10
    endloop
  endfacet
  facet normal 0 0 1
    outer loop
      vertex -3.68129 3.45696 10
      vertex -9.14478 10.1563 10
      vertex -3.89109 3.21899 10
    endloop
  endfacet
  facet normal 0 0 1
    outer loop
      vertex -9.898 2.525 10
      vertex -3.89109 3.21899 10
      vertex -9.14478 10.1563 10
    endloop
  endfacet
  facet normal 0 0 1
    outer loop
      vertex -3.89109 3.21899 10
      vertex -9.898 2.525 10
      vertex -4.08554 2.96831 10
    endloop
  endfacet
  facet normal 0 0 1
    outer loop
      vertex -4.08554 2.96831 10
      vertex -9.898 2.525 10
      vertex -4.26385 2.70592 10
    endloop
  endfacet
  facet normal 0 0 1
    outer loop
      vertex -4.26385 2.70592 10
      vertex -9.898 2.525 10
      vertex -4.37085 2.525 10
    endloop
  endfacet
  facet normal -0 0 1
    outer loop
      vertex -15 0 10
      vertex -9.898 -2.525 10
      vertex -9.898 2.525 10
    endloop
  endfacet
  facet normal -0 0 1
    outer loop
      vertex -11.3262 8.22899 10
      vertex -9.898 2.525 10
      vertex -9.14478 10.1563 10
    endloop
  endfacet
  facet normal -0 0 1
    outer loop
      vertex -13.0941 5.82988 10
      vertex -9.898 2.525 10
      vertex -11.3262 8.22899 10
    endloop
  endfacet
  facet normal 0 0 1
    outer loop
      vertex -9.898 -2.525 10
      vertex -12.9443 -9.40456 10
      vertex -10.9291 -12.138 10
    endloop
  endfacet
  facet normal -0 0 1
    outer loop
      vertex -14.3462 3.04936 10
      vertex -9.898 2.525 10
      vertex -13.0941 5.82988 10
    endloop
  endfacet
  facet normal 0 0 1
    outer loop
      vertex -9.898 -2.525 10
      vertex -14.3122 -6.37219 10
      vertex -12.9443 -9.40456 10
    endloop
  endfacet
  facet normal 0 0 1
    outer loop
      vertex -15 0 10
      vertex -9.898 2.525 10
      vertex -14.3462 3.04936 10
    endloop
  endfacet
  facet normal 0 0 1
    outer loop
      vertex -9.898 -2.525 10
      vertex -14.9983 -3.18797 10
      vertex -14.3122 -6.37219 10
    endloop
  endfacet
  facet normal 0 0 1
    outer loop
      vertex -9.898 -2.525 10
      vertex -15 0 10
      vertex -14.9983 -3.18797 10
    endloop
  endfacet
  facet normal 0 0 1
    outer loop
      vertex 15.3713 -11.1679 10
      vertex 9.898 -2.525 10
      vertex 12.4904 -13.872 10
    endloop
  endfacet
  facet normal -0 0 1
    outer loop
      vertex 2.525 -9.898 10
      vertex 12.4904 -13.872 10
      vertex 9.898 -2.525 10
    endloop
  endfacet
  facet normal 0 0 1
    outer loop
      vertex 12.4904 -13.872 10
      vertex 2.525 -9.898 10
      vertex 9.16666 -15.8771 10
    endloop
  endfacet
  facet normal 0 0 1
    outer loop
      vertex 4.26385 -2.70592 10
      vertex 9.898 -2.525 10
      vertex 4.37085 -2.525 10
    endloop
  endfacet
  facet normal 0 0 1
    outer loop
      vertex 4.08554 -2.96831 10
      vertex 9.898 -2.525 10
      vertex 4.26385 -2.70592 10
    endloop
  endfacet
  facet normal 0 0 1
    outer loop
      vertex 3.89109 -3.21899 10
      vertex 9.898 -2.525 10
      vertex 4.08554 -2.96831 10
    endloop
  endfacet
  facet normal 0 0 1
    outer loop
      vertex 3.68129 -3.45696 10
      vertex 9.898 -2.525 10
      vertex 3.89109 -3.21899 10
    endloop
  endfacet
  facet normal 0 0 1
    outer loop
      vertex 9.898 -2.525 10
      vertex 3.68129 -3.45696 10
      vertex 2.525 -9.898 10
    endloop
  endfacet
  facet normal 0 0 1
    outer loop
      vertex 2.525 -9.898 10
      vertex 3.68129 -3.45696 10
      vertex 3.45696 -3.68129 10
    endloop
  endfacet
  facet normal 0 0 1
    outer loop
      vertex 2.525 -9.898 10
      vertex 3.45696 -3.68129 10
      vertex 3.21899 -3.89109 10
    endloop
  endfacet
  facet normal 0 0 1
    outer loop
      vertex 2.525 -9.898 10
      vertex 3.21899 -3.89109 10
      vertex 2.96831 -4.08554 10
    endloop
  endfacet
  facet normal 0 0 1
    outer loop
      vertex 2.525 -9.898 10
      vertex 2.96831 -4.08554 10
      vertex 2.70592 -4.26385 10
    endloop
  endfacet
  facet normal 0 0 1
    outer loop
      vertex 2.525 -9.898 10
      vertex 2.70592 -4.26385 10
      vertex 2.525 -4.37085 10
    endloop
  endfacet
  facet normal 0 0 1
    outer loop
      vertex 9.16666 -15.8771 10
      vertex 2.525 -9.898 10
      vertex 5.5623 -17.119 10
    endloop
  endfacet
  facet normal 0 0 1
    outer loop
      vertex 2.525 -9.898 10
      vertex 1.84666 -17.5699 10
      vertex 5.5623 -17.119 10
    endloop
  endfacet
  facet normal 0 0 1
    outer loop
      vertex 2.525 -9.898 10
      vertex -1.81181 -17.2384 10
      vertex 1.84666 -17.5699 10
    endloop
  endfacet
  facet normal -0 0 1
    outer loop
      vertex -2.525 -9.898 10
      vertex -1.81181 -17.2384 10
      vertex 2.525 -9.898 10
    endloop
  endfacet
  facet normal 0 0 1
    outer loop
      vertex -2.96831 -4.08554 10
      vertex -2.525 -9.898 10
      vertex -2.70592 -4.26385 10
    endloop
  endfacet
  facet normal 0 0 1
    outer loop
      vertex -3.21899 -3.89109 10
      vertex -2.525 -9.898 10
      vertex -2.96831 -4.08554 10
    endloop
  endfacet
  facet normal 0 0 1
    outer loop
      vertex -3.45696 -3.68129 10
      vertex -2.525 -9.898 10
      vertex -3.21899 -3.89109 10
    endloop
  endfacet
  facet normal 0 0 1
    outer loop
      vertex -9.898 -2.525 10
      vertex -2.525 -9.898 10
      vertex -3.45696 -3.68129 10
    endloop
  endfacet
  facet normal 0 0 1
    outer loop
      vertex -9.898 -2.525 10
      vertex -3.45696 -3.68129 10
      vertex -3.68129 -3.45696 10
    endloop
  endfacet
  facet normal 0 0 1
    outer loop
      vertex -9.898 -2.525 10
      vertex -3.68129 -3.45696 10
      vertex -3.89109 -3.21899 10
    endloop
  endfacet
  facet normal 0 0 1
    outer loop
      vertex -9.898 -2.525 10
      vertex -3.89109 -3.21899 10
      vertex -4.08554 -2.96831 10
    endloop
  endfacet
  facet normal 0 0 1
    outer loop
      vertex -9.898 -2.525 10
      vertex -4.08554 -2.96831 10
      vertex -4.26385 -2.70592 10
    endloop
  endfacet
  facet normal -0 0 1
    outer loop
      vertex -9.898 -2.525 10
      vertex -4.26385 -2.70592 10
      vertex -4.37085 -2.525 10
    endloop
  endfacet
  facet normal 0 0 1
    outer loop
      vertex -2.525 -9.898 10
      vertex -5.25328 -16.168 10
      vertex -1.81181 -17.2384 10
    endloop
  endfacet
  facet normal 0 0 1
    outer loop
      vertex -2.525 -9.898 10
      vertex -8.33333 -14.4337 10
      vertex -5.25328 -16.168 10
    endloop
  endfacet
  facet normal 0 0 1
    outer loop
      vertex -2.525 -9.898 10
      vertex -9.898 -2.525 10
      vertex -10.9291 -12.138 10
    endloop
  endfacet
  facet normal 0 0 1
    outer loop
      vertex -2.525 -9.898 10
      vertex -10.9291 -12.138 10
      vertex -8.33333 -14.4337 10
    endloop
  endfacet
  facet normal 0 0 1
    outer loop
      vertex 2.70592 4.26385 10
      vertex 2.525 9.898 10
      vertex 2.525 4.37085 10
    endloop
  endfacet
  facet normal -0.490642 -0.871361 0
    outer loop
      vertex -8.33333 -14.4337 0
      vertex -5.25328 -16.168 10
      vertex -8.33333 -14.4337 10
    endloop
  endfacet
  facet normal -0.490642 -0.871361 -0
    outer loop
      vertex -5.25328 -16.168 10
      vertex -8.33333 -14.4337 0
      vertex -5.25328 -16.168 0
    endloop
  endfacet
endsolid OpenSCAD_Model
