solid OpenSCAD_Model
  facet normal 0.66132 0.750104 -0
    outer loop
      vertex 2.73819 2.91587 0
      vertex 2.5497 3.08205 23.85
      vertex 2.73819 2.91587 23.85
    endloop
  endfacet
  facet normal 0.66132 0.750104 0
    outer loop
      vertex 2.5497 3.08205 23.85
      vertex 2.73819 2.91587 0
      vertex 2.5497 3.08205 0
    endloop
  endfacet
  facet normal -0.338738 0.940881 0
    outer loop
      vertex -1.23607 3.80423 20
      vertex -1.4725 3.71911 23.85
      vertex -1.23607 3.80423 23.85
    endloop
  endfacet
  facet normal -0.338738 0.940881 0
    outer loop
      vertex -1.4725 3.71911 23.85
      vertex -1.23607 3.80423 20
      vertex -1.4725 3.71911 20
    endloop
  endfacet
  facet normal -0.917752 0.397154 0
    outer loop
      vertex -3.71911 1.4725 20
      vertex -3.61931 1.70312 23.85
      vertex -3.61931 1.70312 20
    endloop
  endfacet
  facet normal -0.917752 0.397154 0
    outer loop
      vertex -3.61931 1.70312 23.85
      vertex -3.71911 1.4725 20
      vertex -3.71911 1.4725 23.85
    endloop
  endfacet
  facet normal 0.917752 0.397154 0
    outer loop
      vertex 3.71911 1.4725 23.85
      vertex 3.61931 1.70312 20
      vertex 3.61931 1.70312 23.85
    endloop
  endfacet
  facet normal 0.917752 0.397154 0
    outer loop
      vertex 3.61931 1.70312 20
      vertex 3.71911 1.4725 23.85
      vertex 3.71911 1.4725 20
    endloop
  endfacet
  facet normal 0.891003 0.453998 0
    outer loop
      vertex 3.61931 1.70312 23.85
      vertex 3.50523 1.92701 20
      vertex 3.50523 1.92701 23.85
    endloop
  endfacet
  facet normal 0.891003 0.453998 0
    outer loop
      vertex 3.50523 1.92701 20
      vertex 3.61931 1.70312 23.85
      vertex 3.61931 1.70312 20
    endloop
  endfacet
  facet normal 0.397154 0.917752 -0
    outer loop
      vertex 1.70312 3.61931 20
      vertex 1.4725 3.71911 23.85
      vertex 1.70312 3.61931 23.85
    endloop
  endfacet
  facet normal 0.397154 0.917752 0
    outer loop
      vertex 1.4725 3.71911 23.85
      vertex 1.70312 3.61931 20
      vertex 1.4725 3.71911 20
    endloop
  endfacet
  facet normal -0.707107 0.707107 0
    outer loop
      vertex -2.91587 2.73819 0
      vertex -2.73819 2.91587 23.85
      vertex -2.73819 2.91587 0
    endloop
  endfacet
  facet normal -0.707107 0.707107 0
    outer loop
      vertex -2.73819 2.91587 23.85
      vertex -2.91587 2.73819 0
      vertex -2.91587 2.73819 23.85
    endloop
  endfacet
  facet normal -0.156435 0.987688 0
    outer loop
      vertex -0.501332 3.96846 20
      vertex -0.749525 3.92915 23.85
      vertex -0.501332 3.96846 23.85
    endloop
  endfacet
  facet normal -0.156435 0.987688 0
    outer loop
      vertex -0.749525 3.92915 23.85
      vertex -0.501332 3.96846 20
      vertex -0.749525 3.92915 20
    endloop
  endfacet
  facet normal 0.940881 -0.338738 0
    outer loop
      vertex 3.71911 -1.4725 23.85
      vertex 3.80423 -1.23607 20
      vertex 3.80423 -1.23607 23.85
    endloop
  endfacet
  facet normal 0.940881 -0.338738 0
    outer loop
      vertex 3.80423 -1.23607 20
      vertex 3.71911 -1.4725 23.85
      vertex 3.71911 -1.4725 20
    endloop
  endfacet
  facet normal -0.707107 -0.707107 0
    outer loop
      vertex -2.73819 -2.91587 0
      vertex -2.91587 -2.73819 23.85
      vertex -2.91587 -2.73819 0
    endloop
  endfacet
  facet normal -0.707107 -0.707107 0
    outer loop
      vertex -2.91587 -2.73819 23.85
      vertex -2.73819 -2.91587 0
      vertex -2.73819 -2.91587 23.85
    endloop
  endfacet
  facet normal 0 0 -1
    outer loop
      vertex -2.73819 -2.91587 0
      vertex -2.48 -3.13611 0
      vertex -2.5497 -3.08205 0
    endloop
  endfacet
  facet normal 0 0 -1
    outer loop
      vertex -2.48 -3.13611 0
      vertex -2.73819 -2.91587 0
      vertex -2.48 3.13611 0
    endloop
  endfacet
  facet normal 0 0 -1
    outer loop
      vertex -2.73819 2.91587 0
      vertex -2.48 3.13611 0
      vertex -2.73819 -2.91587 0
    endloop
  endfacet
  facet normal 0 0 -1
    outer loop
      vertex -2.48 3.13611 0
      vertex -2.73819 2.91587 0
      vertex -2.5497 3.08205 0
    endloop
  endfacet
  facet normal 0 0 -1
    outer loop
      vertex -2.91587 -2.73819 0
      vertex -2.73819 2.91587 0
      vertex -2.73819 -2.91587 0
    endloop
  endfacet
  facet normal 0 0 -1
    outer loop
      vertex -2.91587 -2.73819 0
      vertex -2.91587 2.73819 0
      vertex -2.73819 2.91587 0
    endloop
  endfacet
  facet normal 0 0 -1
    outer loop
      vertex -3.13611 -2.48 0
      vertex -2.91587 -2.73819 0
      vertex -3.08205 -2.5497 0
    endloop
  endfacet
  facet normal 0 0 -1
    outer loop
      vertex -2.91587 -2.73819 0
      vertex -3.13611 -2.48 0
      vertex -2.91587 2.73819 0
    endloop
  endfacet
  facet normal 0 0 -1
    outer loop
      vertex -3.13611 2.48 0
      vertex -2.91587 2.73819 0
      vertex -3.13611 -2.48 0
    endloop
  endfacet
  facet normal 0 0 -1
    outer loop
      vertex -2.91587 2.73819 0
      vertex -3.13611 2.48 0
      vertex -3.08205 2.5497 0
    endloop
  endfacet
  facet normal 0 0 -1
    outer loop
      vertex -9.7 -2.48 0
      vertex -3.13611 2.48 0
      vertex -3.13611 -2.48 0
    endloop
  endfacet
  facet normal -0 0 -1
    outer loop
      vertex -3.13611 2.48 0
      vertex -9.7 -2.48 0
      vertex -9.7 2.48 0
    endloop
  endfacet
  facet normal 0 0 -1
    outer loop
      vertex -2.48 -3.13611 0
      vertex 2.48 -3.13611 0
      vertex 2.48 -9.7 0
    endloop
  endfacet
  facet normal 0 0 -1
    outer loop
      vertex 2.48 -3.13611 0
      vertex -2.48 -3.13611 0
      vertex 2.48 3.13611 0
    endloop
  endfacet
  facet normal 0 0 -1
    outer loop
      vertex -2.48 -3.13611 0
      vertex 2.48 -9.7 0
      vertex -2.48 -9.7 0
    endloop
  endfacet
  facet normal 0 0 -1
    outer loop
      vertex -2.48 3.13611 0
      vertex 2.48 3.13611 0
      vertex -2.48 -3.13611 0
    endloop
  endfacet
  facet normal 0 0 -1
    outer loop
      vertex 2.48 3.13611 0
      vertex -2.48 3.13611 0
      vertex 2.48 9.7 0
    endloop
  endfacet
  facet normal -0 0 -1
    outer loop
      vertex 2.48 9.7 0
      vertex -2.48 3.13611 0
      vertex -2.48 9.7 0
    endloop
  endfacet
  facet normal 0 0 -1
    outer loop
      vertex 3.13611 -2.48 0
      vertex 9.7 2.48 0
      vertex 9.7 -2.48 0
    endloop
  endfacet
  facet normal 0 0 -1
    outer loop
      vertex 3.13611 -2.48 0
      vertex 3.13611 2.48 0
      vertex 9.7 2.48 0
    endloop
  endfacet
  facet normal 0 0 -1
    outer loop
      vertex 2.91587 -2.73819 0
      vertex 3.13611 -2.48 0
      vertex 3.08205 -2.5497 0
    endloop
  endfacet
  facet normal -0 0 -1
    outer loop
      vertex 3.13611 -2.48 0
      vertex 2.91587 -2.73819 0
      vertex 3.13611 2.48 0
    endloop
  endfacet
  facet normal 0 0 -1
    outer loop
      vertex 2.91587 2.73819 0
      vertex 3.13611 2.48 0
      vertex 2.91587 -2.73819 0
    endloop
  endfacet
  facet normal 0 0 -1
    outer loop
      vertex 3.13611 2.48 0
      vertex 2.91587 2.73819 0
      vertex 3.08205 2.5497 0
    endloop
  endfacet
  facet normal 0 0 -1
    outer loop
      vertex 2.73819 -2.91587 0
      vertex 2.91587 2.73819 0
      vertex 2.91587 -2.73819 0
    endloop
  endfacet
  facet normal 0 0 -1
    outer loop
      vertex 2.73819 -2.91587 0
      vertex 2.73819 2.91587 0
      vertex 2.91587 2.73819 0
    endloop
  endfacet
  facet normal 0 0 -1
    outer loop
      vertex 2.48 -3.13611 0
      vertex 2.73819 -2.91587 0
      vertex 2.5497 -3.08205 0
    endloop
  endfacet
  facet normal -0 0 -1
    outer loop
      vertex 2.73819 -2.91587 0
      vertex 2.48 -3.13611 0
      vertex 2.73819 2.91587 0
    endloop
  endfacet
  facet normal 0 0 -1
    outer loop
      vertex 2.48 3.13611 0
      vertex 2.73819 2.91587 0
      vertex 2.48 -3.13611 0
    endloop
  endfacet
  facet normal 0 0 -1
    outer loop
      vertex 2.73819 2.91587 0
      vertex 2.48 3.13611 0
      vertex 2.5497 3.08205 0
    endloop
  endfacet
  facet normal 0.975914 0.218157 0
    outer loop
      vertex 3.92915 0.749525 23.85
      vertex 3.87433 0.994759 20
      vertex 3.87433 0.994759 23.85
    endloop
  endfacet
  facet normal 0.975914 0.218157 0
    outer loop
      vertex 3.87433 0.994759 20
      vertex 3.92915 0.749525 23.85
      vertex 3.92915 0.749525 20
    endloop
  endfacet
  facet normal 0.827083 0.56208 0
    outer loop
      vertex 3.37731 2.14331 23.85
      vertex 3.23607 2.35114 20
      vertex 3.23607 2.35114 23.85
    endloop
  endfacet
  facet normal 0.827083 0.56208 0
    outer loop
      vertex 3.23607 2.35114 20
      vertex 3.37731 2.14331 23.85
      vertex 3.37731 2.14331 20
    endloop
  endfacet
  facet normal 0.707107 0.707107 0
    outer loop
      vertex 2.91587 2.73819 23.85
      vertex 2.73819 2.91587 0
      vertex 2.73819 2.91587 23.85
    endloop
  endfacet
  facet normal 0.707107 0.707107 0
    outer loop
      vertex 2.73819 2.91587 0
      vertex 2.91587 2.73819 23.85
      vertex 2.91587 2.73819 0
    endloop
  endfacet
  facet normal 0.56208 0.827083 -0
    outer loop
      vertex 2.35114 3.23607 20
      vertex 2.14331 3.37731 23.85
      vertex 2.35114 3.23607 23.85
    endloop
  endfacet
  facet normal 0.56208 0.827083 0
    outer loop
      vertex 2.14331 3.37731 23.85
      vertex 2.35114 3.23607 20
      vertex 2.14331 3.37731 20
    endloop
  endfacet
  facet normal 0.0313985 0.999507 -0
    outer loop
      vertex 0.251162 3.99211 20
      vertex 0 4 23.85
      vertex 0.251162 3.99211 23.85
    endloop
  endfacet
  facet normal 0.0313985 0.999507 0
    outer loop
      vertex 0 4 23.85
      vertex 0.251162 3.99211 20
      vertex 0 4 20
    endloop
  endfacet
  facet normal 0.509043 0.860741 -0
    outer loop
      vertex 2.14331 3.37731 20
      vertex 1.92701 3.50523 23.85
      vertex 2.14331 3.37731 23.85
    endloop
  endfacet
  facet normal 0.509043 0.860741 0
    outer loop
      vertex 1.92701 3.50523 23.85
      vertex 2.14331 3.37731 20
      vertex 1.92701 3.50523 20
    endloop
  endfacet
  facet normal 0.338738 0.940881 -0
    outer loop
      vertex 1.4725 3.71911 20
      vertex 1.23607 3.80423 23.85
      vertex 1.4725 3.71911 23.85
    endloop
  endfacet
  facet normal 0.338738 0.940881 0
    outer loop
      vertex 1.23607 3.80423 23.85
      vertex 1.4725 3.71911 20
      vertex 1.23607 3.80423 20
    endloop
  endfacet
  facet normal 0.218157 0.975914 -0
    outer loop
      vertex 0.994759 3.87433 20
      vertex 0.749525 3.92915 23.85
      vertex 0.994759 3.87433 23.85
    endloop
  endfacet
  facet normal 0.218157 0.975914 0
    outer loop
      vertex 0.749525 3.92915 23.85
      vertex 0.994759 3.87433 20
      vertex 0.749525 3.92915 20
    endloop
  endfacet
  facet normal -0.999507 0.0313985 0
    outer loop
      vertex -4 0 20
      vertex -3.99211 0.251162 23.85
      vertex -3.99211 0.251162 20
    endloop
  endfacet
  facet normal -0.999507 0.0313985 0
    outer loop
      vertex -3.99211 0.251162 23.85
      vertex -4 0 20
      vertex -4 0 23.85
    endloop
  endfacet
  facet normal 0 0 1
    outer loop
      vertex 3.99211 0.251162 23.85
      vertex 3.99211 -0.251162 23.85
      vertex 4 0 23.85
    endloop
  endfacet
  facet normal 0 0 1
    outer loop
      vertex 3.96846 0.501332 23.85
      vertex 3.99211 -0.251162 23.85
      vertex 3.99211 0.251162 23.85
    endloop
  endfacet
  facet normal 0 0 1
    outer loop
      vertex 3.96846 0.501332 23.85
      vertex 3.96846 -0.501332 23.85
      vertex 3.99211 -0.251162 23.85
    endloop
  endfacet
  facet normal 0 0 1
    outer loop
      vertex 3.92915 0.749525 23.85
      vertex 3.96846 -0.501332 23.85
      vertex 3.96846 0.501332 23.85
    endloop
  endfacet
  facet normal 0 0 1
    outer loop
      vertex 3.92915 0.749525 23.85
      vertex 3.92915 -0.749525 23.85
      vertex 3.96846 -0.501332 23.85
    endloop
  endfacet
  facet normal 0 0 1
    outer loop
      vertex 3.87433 0.994759 23.85
      vertex 3.92915 -0.749525 23.85
      vertex 3.92915 0.749525 23.85
    endloop
  endfacet
  facet normal 0 0 1
    outer loop
      vertex 3.87433 0.994759 23.85
      vertex 3.87433 -0.994759 23.85
      vertex 3.92915 -0.749525 23.85
    endloop
  endfacet
  facet normal 0 0 1
    outer loop
      vertex 3.80423 1.23607 23.85
      vertex 3.87433 -0.994759 23.85
      vertex 3.87433 0.994759 23.85
    endloop
  endfacet
  facet normal 0 0 1
    outer loop
      vertex 3.80423 1.23607 23.85
      vertex 3.80423 -1.23607 23.85
      vertex 3.87433 -0.994759 23.85
    endloop
  endfacet
  facet normal 0 0 1
    outer loop
      vertex 3.71911 1.4725 23.85
      vertex 3.80423 -1.23607 23.85
      vertex 3.80423 1.23607 23.85
    endloop
  endfacet
  facet normal 0 0 1
    outer loop
      vertex 3.71911 1.4725 23.85
      vertex 3.71911 -1.4725 23.85
      vertex 3.80423 -1.23607 23.85
    endloop
  endfacet
  facet normal 0 0 1
    outer loop
      vertex 3.61931 1.70312 23.85
      vertex 3.71911 -1.4725 23.85
      vertex 3.71911 1.4725 23.85
    endloop
  endfacet
  facet normal 0 0 1
    outer loop
      vertex 3.61931 1.70312 23.85
      vertex 3.61931 -1.70312 23.85
      vertex 3.71911 -1.4725 23.85
    endloop
  endfacet
  facet normal 0 0 1
    outer loop
      vertex 3.50523 1.92701 23.85
      vertex 3.61931 -1.70312 23.85
      vertex 3.61931 1.70312 23.85
    endloop
  endfacet
  facet normal 0 0 1
    outer loop
      vertex 3.50523 1.92701 23.85
      vertex 3.50523 -1.92701 23.85
      vertex 3.61931 -1.70312 23.85
    endloop
  endfacet
  facet normal 0 0 1
    outer loop
      vertex 3.37731 2.14331 23.85
      vertex 3.50523 -1.92701 23.85
      vertex 3.50523 1.92701 23.85
    endloop
  endfacet
  facet normal 0 0 1
    outer loop
      vertex 3.37731 2.14331 23.85
      vertex 3.37731 -2.14331 23.85
      vertex 3.50523 -1.92701 23.85
    endloop
  endfacet
  facet normal 0 0 1
    outer loop
      vertex 3.23607 2.35114 23.85
      vertex 3.37731 -2.14331 23.85
      vertex 3.37731 2.14331 23.85
    endloop
  endfacet
  facet normal 0 0 1
    outer loop
      vertex 3.23607 2.35114 23.85
      vertex 3.23607 -2.35114 23.85
      vertex 3.37731 -2.14331 23.85
    endloop
  endfacet
  facet normal 0 0 1
    outer loop
      vertex 3.08205 2.5497 23.85
      vertex 3.23607 -2.35114 23.85
      vertex 3.23607 2.35114 23.85
    endloop
  endfacet
  facet normal 0 0 1
    outer loop
      vertex 3.08205 2.5497 23.85
      vertex 3.08205 -2.5497 23.85
      vertex 3.23607 -2.35114 23.85
    endloop
  endfacet
  facet normal 0 0 1
    outer loop
      vertex 2.91587 2.73819 23.85
      vertex 3.08205 -2.5497 23.85
      vertex 3.08205 2.5497 23.85
    endloop
  endfacet
  facet normal 0 0 1
    outer loop
      vertex 2.91587 2.73819 23.85
      vertex 2.91587 -2.73819 23.85
      vertex 3.08205 -2.5497 23.85
    endloop
  endfacet
  facet normal 0 0 1
    outer loop
      vertex 2.73819 2.91587 23.85
      vertex 2.91587 -2.73819 23.85
      vertex 2.91587 2.73819 23.85
    endloop
  endfacet
  facet normal 0 0 1
    outer loop
      vertex 2.73819 2.91587 23.85
      vertex 2.73819 -2.91587 23.85
      vertex 2.91587 -2.73819 23.85
    endloop
  endfacet
  facet normal 0 0 1
    outer loop
      vertex 2.5497 3.08205 23.85
      vertex 2.73819 -2.91587 23.85
      vertex 2.73819 2.91587 23.85
    endloop
  endfacet
  facet normal 0 0 1
    outer loop
      vertex 2.5497 3.08205 23.85
      vertex 2.5497 -3.08205 23.85
      vertex 2.73819 -2.91587 23.85
    endloop
  endfacet
  facet normal 0 0 1
    outer loop
      vertex 2.35114 3.23607 23.85
      vertex 2.5497 -3.08205 23.85
      vertex 2.5497 3.08205 23.85
    endloop
  endfacet
  facet normal 0 0 1
    outer loop
      vertex 2.35114 3.23607 23.85
      vertex 2.35114 -3.23607 23.85
      vertex 2.5497 -3.08205 23.85
    endloop
  endfacet
  facet normal 0 0 1
    outer loop
      vertex 2.14331 3.37731 23.85
      vertex 2.35114 -3.23607 23.85
      vertex 2.35114 3.23607 23.85
    endloop
  endfacet
  facet normal 0 0 1
    outer loop
      vertex 2.14331 3.37731 23.85
      vertex 2.14331 -3.37731 23.85
      vertex 2.35114 -3.23607 23.85
    endloop
  endfacet
  facet normal 0 0 1
    outer loop
      vertex 1.92701 3.50523 23.85
      vertex 2.14331 -3.37731 23.85
      vertex 2.14331 3.37731 23.85
    endloop
  endfacet
  facet normal 0 0 1
    outer loop
      vertex 1.92701 3.50523 23.85
      vertex 1.92701 -3.50523 23.85
      vertex 2.14331 -3.37731 23.85
    endloop
  endfacet
  facet normal 0 0 1
    outer loop
      vertex 1.70312 3.61931 23.85
      vertex 1.92701 -3.50523 23.85
      vertex 1.92701 3.50523 23.85
    endloop
  endfacet
  facet normal 0 0 1
    outer loop
      vertex 1.70312 3.61931 23.85
      vertex 1.70312 -3.61931 23.85
      vertex 1.92701 -3.50523 23.85
    endloop
  endfacet
  facet normal 0 0 1
    outer loop
      vertex 1.4725 3.71911 23.85
      vertex 1.70312 -3.61931 23.85
      vertex 1.70312 3.61931 23.85
    endloop
  endfacet
  facet normal 0 0 1
    outer loop
      vertex 1.4725 3.71911 23.85
      vertex 1.4725 -3.71911 23.85
      vertex 1.70312 -3.61931 23.85
    endloop
  endfacet
  facet normal 0 0 1
    outer loop
      vertex 1.23607 3.80423 23.85
      vertex 1.4725 -3.71911 23.85
      vertex 1.4725 3.71911 23.85
    endloop
  endfacet
  facet normal 0 0 1
    outer loop
      vertex 1.23607 3.80423 23.85
      vertex 1.23607 -3.80423 23.85
      vertex 1.4725 -3.71911 23.85
    endloop
  endfacet
  facet normal 0 0 1
    outer loop
      vertex 0.994759 3.87433 23.85
      vertex 1.23607 -3.80423 23.85
      vertex 1.23607 3.80423 23.85
    endloop
  endfacet
  facet normal 0 0 1
    outer loop
      vertex 0.994759 3.87433 23.85
      vertex 0.994759 -3.87433 23.85
      vertex 1.23607 -3.80423 23.85
    endloop
  endfacet
  facet normal 0 0 1
    outer loop
      vertex 0.749525 3.92915 23.85
      vertex 0.994759 -3.87433 23.85
      vertex 0.994759 3.87433 23.85
    endloop
  endfacet
  facet normal 0 0 1
    outer loop
      vertex 0.749525 3.92915 23.85
      vertex 0.749525 -3.92915 23.85
      vertex 0.994759 -3.87433 23.85
    endloop
  endfacet
  facet normal 0 0 1
    outer loop
      vertex 0.501332 3.96846 23.85
      vertex 0.749525 -3.92915 23.85
      vertex 0.749525 3.92915 23.85
    endloop
  endfacet
  facet normal 0 0 1
    outer loop
      vertex 0.501332 3.96846 23.85
      vertex 0.501332 -3.96846 23.85
      vertex 0.749525 -3.92915 23.85
    endloop
  endfacet
  facet normal 0 0 1
    outer loop
      vertex 0.251162 3.99211 23.85
      vertex 0.501332 -3.96846 23.85
      vertex 0.501332 3.96846 23.85
    endloop
  endfacet
  facet normal 0 0 1
    outer loop
      vertex 0.251162 3.99211 23.85
      vertex 0.251162 -3.99211 23.85
      vertex 0.501332 -3.96846 23.85
    endloop
  endfacet
  facet normal 0 0 1
    outer loop
      vertex 0 4 23.85
      vertex 0.251162 -3.99211 23.85
      vertex 0.251162 3.99211 23.85
    endloop
  endfacet
  facet normal 0 0 1
    outer loop
      vertex 0 4 23.85
      vertex 0 -4 23.85
      vertex 0.251162 -3.99211 23.85
    endloop
  endfacet
  facet normal -0 0 1
    outer loop
      vertex -0.251162 3.99211 23.85
      vertex 0 -4 23.85
      vertex 0 4 23.85
    endloop
  endfacet
  facet normal 0 0 1
    outer loop
      vertex -0.251162 3.99211 23.85
      vertex -0.251162 -3.99211 23.85
      vertex 0 -4 23.85
    endloop
  endfacet
  facet normal -0 0 1
    outer loop
      vertex -0.501332 3.96846 23.85
      vertex -0.251162 -3.99211 23.85
      vertex -0.251162 3.99211 23.85
    endloop
  endfacet
  facet normal 0 0 1
    outer loop
      vertex -0.501332 3.96846 23.85
      vertex -0.501332 -3.96846 23.85
      vertex -0.251162 -3.99211 23.85
    endloop
  endfacet
  facet normal -0 0 1
    outer loop
      vertex -0.749525 3.92915 23.85
      vertex -0.501332 -3.96846 23.85
      vertex -0.501332 3.96846 23.85
    endloop
  endfacet
  facet normal 0 0 1
    outer loop
      vertex -0.749525 3.92915 23.85
      vertex -0.749525 -3.92915 23.85
      vertex -0.501332 -3.96846 23.85
    endloop
  endfacet
  facet normal -0 0 1
    outer loop
      vertex -0.994759 3.87433 23.85
      vertex -0.749525 -3.92915 23.85
      vertex -0.749525 3.92915 23.85
    endloop
  endfacet
  facet normal 0 0 1
    outer loop
      vertex -0.994759 3.87433 23.85
      vertex -0.994759 -3.87433 23.85
      vertex -0.749525 -3.92915 23.85
    endloop
  endfacet
  facet normal -0 0 1
    outer loop
      vertex -1.23607 3.80423 23.85
      vertex -0.994759 -3.87433 23.85
      vertex -0.994759 3.87433 23.85
    endloop
  endfacet
  facet normal 0 0 1
    outer loop
      vertex -1.23607 3.80423 23.85
      vertex -1.23607 -3.80423 23.85
      vertex -0.994759 -3.87433 23.85
    endloop
  endfacet
  facet normal -0 0 1
    outer loop
      vertex -1.4725 3.71911 23.85
      vertex -1.23607 -3.80423 23.85
      vertex -1.23607 3.80423 23.85
    endloop
  endfacet
  facet normal 0 0 1
    outer loop
      vertex -1.4725 3.71911 23.85
      vertex -1.4725 -3.71911 23.85
      vertex -1.23607 -3.80423 23.85
    endloop
  endfacet
  facet normal -0 0 1
    outer loop
      vertex -1.70312 3.61931 23.85
      vertex -1.4725 -3.71911 23.85
      vertex -1.4725 3.71911 23.85
    endloop
  endfacet
  facet normal 0 0 1
    outer loop
      vertex -1.70312 3.61931 23.85
      vertex -1.70312 -3.61931 23.85
      vertex -1.4725 -3.71911 23.85
    endloop
  endfacet
  facet normal -0 0 1
    outer loop
      vertex -1.92701 3.50523 23.85
      vertex -1.70312 -3.61931 23.85
      vertex -1.70312 3.61931 23.85
    endloop
  endfacet
  facet normal 0 0 1
    outer loop
      vertex -1.92701 3.50523 23.85
      vertex -1.92701 -3.50523 23.85
      vertex -1.70312 -3.61931 23.85
    endloop
  endfacet
  facet normal -0 0 1
    outer loop
      vertex -2.14331 3.37731 23.85
      vertex -1.92701 -3.50523 23.85
      vertex -1.92701 3.50523 23.85
    endloop
  endfacet
  facet normal 0 0 1
    outer loop
      vertex -2.14331 3.37731 23.85
      vertex -2.14331 -3.37731 23.85
      vertex -1.92701 -3.50523 23.85
    endloop
  endfacet
  facet normal -0 0 1
    outer loop
      vertex -2.35114 3.23607 23.85
      vertex -2.14331 -3.37731 23.85
      vertex -2.14331 3.37731 23.85
    endloop
  endfacet
  facet normal 0 0 1
    outer loop
      vertex -2.35114 3.23607 23.85
      vertex -2.35114 -3.23607 23.85
      vertex -2.14331 -3.37731 23.85
    endloop
  endfacet
  facet normal -0 0 1
    outer loop
      vertex -2.5497 3.08205 23.85
      vertex -2.35114 -3.23607 23.85
      vertex -2.35114 3.23607 23.85
    endloop
  endfacet
  facet normal 0 0 1
    outer loop
      vertex -2.5497 3.08205 23.85
      vertex -2.5497 -3.08205 23.85
      vertex -2.35114 -3.23607 23.85
    endloop
  endfacet
  facet normal -0 0 1
    outer loop
      vertex -2.73819 2.91587 23.85
      vertex -2.5497 -3.08205 23.85
      vertex -2.5497 3.08205 23.85
    endloop
  endfacet
  facet normal 0 0 1
    outer loop
      vertex -2.73819 2.91587 23.85
      vertex -2.73819 -2.91587 23.85
      vertex -2.5497 -3.08205 23.85
    endloop
  endfacet
  facet normal -0 0 1
    outer loop
      vertex -2.91587 2.73819 23.85
      vertex -2.73819 -2.91587 23.85
      vertex -2.73819 2.91587 23.85
    endloop
  endfacet
  facet normal 0 0 1
    outer loop
      vertex -2.91587 2.73819 23.85
      vertex -2.91587 -2.73819 23.85
      vertex -2.73819 -2.91587 23.85
    endloop
  endfacet
  facet normal -0 0 1
    outer loop
      vertex -3.08205 2.5497 23.85
      vertex -2.91587 -2.73819 23.85
      vertex -2.91587 2.73819 23.85
    endloop
  endfacet
  facet normal 0 0 1
    outer loop
      vertex -3.08205 2.5497 23.85
      vertex -3.08205 -2.5497 23.85
      vertex -2.91587 -2.73819 23.85
    endloop
  endfacet
  facet normal -0 0 1
    outer loop
      vertex -3.23607 2.35114 23.85
      vertex -3.08205 -2.5497 23.85
      vertex -3.08205 2.5497 23.85
    endloop
  endfacet
  facet normal 0 0 1
    outer loop
      vertex -3.23607 2.35114 23.85
      vertex -3.23607 -2.35114 23.85
      vertex -3.08205 -2.5497 23.85
    endloop
  endfacet
  facet normal -0 0 1
    outer loop
      vertex -3.37731 2.14331 23.85
      vertex -3.23607 -2.35114 23.85
      vertex -3.23607 2.35114 23.85
    endloop
  endfacet
  facet normal 0 0 1
    outer loop
      vertex -3.37731 2.14331 23.85
      vertex -3.37731 -2.14331 23.85
      vertex -3.23607 -2.35114 23.85
    endloop
  endfacet
  facet normal -0 0 1
    outer loop
      vertex -3.50523 1.92701 23.85
      vertex -3.37731 -2.14331 23.85
      vertex -3.37731 2.14331 23.85
    endloop
  endfacet
  facet normal 0 0 1
    outer loop
      vertex -3.50523 1.92701 23.85
      vertex -3.50523 -1.92701 23.85
      vertex -3.37731 -2.14331 23.85
    endloop
  endfacet
  facet normal -0 0 1
    outer loop
      vertex -3.61931 1.70312 23.85
      vertex -3.50523 -1.92701 23.85
      vertex -3.50523 1.92701 23.85
    endloop
  endfacet
  facet normal 0 0 1
    outer loop
      vertex -3.61931 1.70312 23.85
      vertex -3.61931 -1.70312 23.85
      vertex -3.50523 -1.92701 23.85
    endloop
  endfacet
  facet normal -0 0 1
    outer loop
      vertex -3.71911 1.4725 23.85
      vertex -3.61931 -1.70312 23.85
      vertex -3.61931 1.70312 23.85
    endloop
  endfacet
  facet normal 0 0 1
    outer loop
      vertex -3.71911 1.4725 23.85
      vertex -3.71911 -1.4725 23.85
      vertex -3.61931 -1.70312 23.85
    endloop
  endfacet
  facet normal -0 0 1
    outer loop
      vertex -3.80423 1.23607 23.85
      vertex -3.71911 -1.4725 23.85
      vertex -3.71911 1.4725 23.85
    endloop
  endfacet
  facet normal 0 0 1
    outer loop
      vertex -3.80423 1.23607 23.85
      vertex -3.80423 -1.23607 23.85
      vertex -3.71911 -1.4725 23.85
    endloop
  endfacet
  facet normal -0 0 1
    outer loop
      vertex -3.87433 0.994759 23.85
      vertex -3.80423 -1.23607 23.85
      vertex -3.80423 1.23607 23.85
    endloop
  endfacet
  facet normal 0 0 1
    outer loop
      vertex -3.87433 0.994759 23.85
      vertex -3.87433 -0.994759 23.85
      vertex -3.80423 -1.23607 23.85
    endloop
  endfacet
  facet normal -0 0 1
    outer loop
      vertex -3.92915 0.749525 23.85
      vertex -3.87433 -0.994759 23.85
      vertex -3.87433 0.994759 23.85
    endloop
  endfacet
  facet normal 0 0 1
    outer loop
      vertex -3.92915 0.749525 23.85
      vertex -3.92915 -0.749525 23.85
      vertex -3.87433 -0.994759 23.85
    endloop
  endfacet
  facet normal -0 0 1
    outer loop
      vertex -3.96846 0.501332 23.85
      vertex -3.92915 -0.749525 23.85
      vertex -3.92915 0.749525 23.85
    endloop
  endfacet
  facet normal 0 0 1
    outer loop
      vertex -3.96846 0.501332 23.85
      vertex -3.96846 -0.501332 23.85
      vertex -3.92915 -0.749525 23.85
    endloop
  endfacet
  facet normal -0 0 1
    outer loop
      vertex -3.99211 0.251162 23.85
      vertex -3.96846 -0.501332 23.85
      vertex -3.96846 0.501332 23.85
    endloop
  endfacet
  facet normal 0 0 1
    outer loop
      vertex -3.99211 0.251162 23.85
      vertex -3.99211 -0.251162 23.85
      vertex -3.96846 -0.501332 23.85
    endloop
  endfacet
  facet normal 0 -0 1
    outer loop
      vertex -3.99211 -0.251162 23.85
      vertex -3.99211 0.251162 23.85
      vertex -4 0 23.85
    endloop
  endfacet
  facet normal -0.940881 0.338738 0
    outer loop
      vertex -3.80423 1.23607 20
      vertex -3.71911 1.4725 23.85
      vertex -3.71911 1.4725 20
    endloop
  endfacet
  facet normal -0.940881 0.338738 0
    outer loop
      vertex -3.71911 1.4725 23.85
      vertex -3.80423 1.23607 20
      vertex -3.80423 1.23607 23.85
    endloop
  endfacet
  facet normal -0.975914 0.218157 0
    outer loop
      vertex -3.92915 0.749525 20
      vertex -3.87433 0.994759 23.85
      vertex -3.87433 0.994759 20
    endloop
  endfacet
  facet normal -0.975914 0.218157 0
    outer loop
      vertex -3.87433 0.994759 23.85
      vertex -3.92915 0.749525 20
      vertex -3.92915 0.749525 23.85
    endloop
  endfacet
  facet normal -0.790182 0.612873 0
    outer loop
      vertex -3.13611 2.48 20
      vertex -3.08205 2.5497 0
      vertex -3.13611 2.48 0
    endloop
  endfacet
  facet normal -0.790182 0.612873 0
    outer loop
      vertex -3.08205 2.5497 0
      vertex -3.13611 2.48 20
      vertex -3.08205 2.5497 23.85
    endloop
  endfacet
  facet normal -0.790137 0.61293 0
    outer loop
      vertex -3.23607 2.35114 23.85
      vertex -3.13611 2.48 20
      vertex -3.23607 2.35114 20
    endloop
  endfacet
  facet normal -0.790153 0.61291 -1.07537e-06
    outer loop
      vertex -3.13611 2.48 20
      vertex -3.23607 2.35114 23.85
      vertex -3.08205 2.5497 23.85
    endloop
  endfacet
  facet normal -0.0313985 0.999507 0
    outer loop
      vertex 0 4 20
      vertex -0.251162 3.99211 23.85
      vertex 0 4 23.85
    endloop
  endfacet
  facet normal -0.0313985 0.999507 0
    outer loop
      vertex -0.251162 3.99211 23.85
      vertex 0 4 20
      vertex -0.251162 3.99211 20
    endloop
  endfacet
  facet normal -0.509043 0.860741 0
    outer loop
      vertex -1.92701 3.50523 20
      vertex -2.14331 3.37731 23.85
      vertex -1.92701 3.50523 23.85
    endloop
  endfacet
  facet normal -0.509043 0.860741 0
    outer loop
      vertex -2.14331 3.37731 23.85
      vertex -1.92701 3.50523 20
      vertex -2.14331 3.37731 20
    endloop
  endfacet
  facet normal -0.56208 0.827083 0
    outer loop
      vertex -2.14331 3.37731 20
      vertex -2.35114 3.23607 23.85
      vertex -2.14331 3.37731 23.85
    endloop
  endfacet
  facet normal -0.56208 0.827083 0
    outer loop
      vertex -2.35114 3.23607 23.85
      vertex -2.14331 3.37731 20
      vertex -2.35114 3.23607 20
    endloop
  endfacet
  facet normal -0.453998 0.891003 0
    outer loop
      vertex -1.70312 3.61931 20
      vertex -1.92701 3.50523 23.85
      vertex -1.70312 3.61931 23.85
    endloop
  endfacet
  facet normal -0.453998 0.891003 0
    outer loop
      vertex -1.92701 3.50523 23.85
      vertex -1.70312 3.61931 20
      vertex -1.92701 3.50523 20
    endloop
  endfacet
  facet normal 0.999507 0.0313985 0
    outer loop
      vertex 4 0 23.85
      vertex 3.99211 0.251162 20
      vertex 3.99211 0.251162 23.85
    endloop
  endfacet
  facet normal 0.999507 0.0313985 0
    outer loop
      vertex 3.99211 0.251162 20
      vertex 4 0 23.85
      vertex 4 0 20
    endloop
  endfacet
  facet normal 0.0313985 -0.999507 0
    outer loop
      vertex 0 -4 20
      vertex 0.251162 -3.99211 23.85
      vertex 0 -4 23.85
    endloop
  endfacet
  facet normal 0.0313985 -0.999507 0
    outer loop
      vertex 0.251162 -3.99211 23.85
      vertex 0 -4 20
      vertex 0.251162 -3.99211 20
    endloop
  endfacet
  facet normal 0.750104 -0.66132 0
    outer loop
      vertex 2.91587 -2.73819 23.85
      vertex 3.08205 -2.5497 0
      vertex 3.08205 -2.5497 23.85
    endloop
  endfacet
  facet normal 0.750104 -0.66132 0
    outer loop
      vertex 3.08205 -2.5497 0
      vertex 2.91587 -2.73819 23.85
      vertex 2.91587 -2.73819 0
    endloop
  endfacet
  facet normal -0.338738 -0.940881 0
    outer loop
      vertex -1.4725 -3.71911 20
      vertex -1.23607 -3.80423 23.85
      vertex -1.4725 -3.71911 23.85
    endloop
  endfacet
  facet normal -0.338738 -0.940881 -0
    outer loop
      vertex -1.23607 -3.80423 23.85
      vertex -1.4725 -3.71911 20
      vertex -1.23607 -3.80423 20
    endloop
  endfacet
  facet normal -0.999507 -0.0313985 0
    outer loop
      vertex -3.99211 -0.251162 20
      vertex -4 0 23.85
      vertex -4 0 20
    endloop
  endfacet
  facet normal -0.999507 -0.0313985 0
    outer loop
      vertex -4 0 23.85
      vertex -3.99211 -0.251162 20
      vertex -3.99211 -0.251162 23.85
    endloop
  endfacet
  facet normal -0.827083 -0.56208 0
    outer loop
      vertex -3.23607 -2.35114 20
      vertex -3.37731 -2.14331 23.85
      vertex -3.37731 -2.14331 20
    endloop
  endfacet
  facet normal -0.827083 -0.56208 0
    outer loop
      vertex -3.37731 -2.14331 23.85
      vertex -3.23607 -2.35114 20
      vertex -3.23607 -2.35114 23.85
    endloop
  endfacet
  facet normal 0.987688 0.156435 0
    outer loop
      vertex 3.96846 0.501332 23.85
      vertex 3.92915 0.749525 20
      vertex 3.92915 0.749525 23.85
    endloop
  endfacet
  facet normal 0.987688 0.156435 0
    outer loop
      vertex 3.92915 0.749525 20
      vertex 3.96846 0.501332 23.85
      vertex 3.96846 0.501332 20
    endloop
  endfacet
  facet normal 0.995561 0.0941161 0
    outer loop
      vertex 3.99211 0.251162 23.85
      vertex 3.96846 0.501332 20
      vertex 3.96846 0.501332 23.85
    endloop
  endfacet
  facet normal 0.995561 0.0941161 0
    outer loop
      vertex 3.96846 0.501332 20
      vertex 3.99211 0.251162 23.85
      vertex 3.99211 0.251162 20
    endloop
  endfacet
  facet normal 0.940881 0.338738 0
    outer loop
      vertex 3.80423 1.23607 23.85
      vertex 3.71911 1.4725 20
      vertex 3.71911 1.4725 23.85
    endloop
  endfacet
  facet normal 0.940881 0.338738 0
    outer loop
      vertex 3.71911 1.4725 20
      vertex 3.80423 1.23607 23.85
      vertex 3.80423 1.23607 20
    endloop
  endfacet
  facet normal 0.960301 0.278964 0
    outer loop
      vertex 3.87433 0.994759 23.85
      vertex 3.80423 1.23607 20
      vertex 3.80423 1.23607 23.85
    endloop
  endfacet
  facet normal 0.960301 0.278964 0
    outer loop
      vertex 3.80423 1.23607 20
      vertex 3.87433 0.994759 23.85
      vertex 3.87433 0.994759 20
    endloop
  endfacet
  facet normal 0.750104 0.66132 0
    outer loop
      vertex 3.08205 2.5497 23.85
      vertex 2.91587 2.73819 0
      vertex 2.91587 2.73819 23.85
    endloop
  endfacet
  facet normal 0.750104 0.66132 0
    outer loop
      vertex 2.91587 2.73819 0
      vertex 3.08205 2.5497 23.85
      vertex 3.08205 2.5497 0
    endloop
  endfacet
  facet normal 0.790182 0.612873 0
    outer loop
      vertex 3.08205 2.5497 23.85
      vertex 3.13611 2.48 20
      vertex 3.08205 2.5497 0
    endloop
  endfacet
  facet normal 0.790153 0.61291 -1.07537e-06
    outer loop
      vertex 3.23607 2.35114 23.85
      vertex 3.13611 2.48 20
      vertex 3.08205 2.5497 23.85
    endloop
  endfacet
  facet normal 0.790137 0.61293 0
    outer loop
      vertex 3.13611 2.48 20
      vertex 3.23607 2.35114 23.85
      vertex 3.23607 2.35114 20
    endloop
  endfacet
  facet normal 0.790182 0.612873 0
    outer loop
      vertex 3.08205 2.5497 0
      vertex 3.13611 2.48 20
      vertex 3.13611 2.48 0
    endloop
  endfacet
  facet normal 0.61291 0.790153 -1.07537e-06
    outer loop
      vertex 2.5497 3.08205 23.85
      vertex 2.48 3.13611 20
      vertex 2.35114 3.23607 23.85
    endloop
  endfacet
  facet normal 0.612873 0.790182 -0
    outer loop
      vertex 2.5497 3.08205 0
      vertex 2.48 3.13611 20
      vertex 2.5497 3.08205 23.85
    endloop
  endfacet
  facet normal 0.612873 0.790182 0
    outer loop
      vertex 2.48 3.13611 20
      vertex 2.5497 3.08205 0
      vertex 2.48 3.13611 0
    endloop
  endfacet
  facet normal 0.61293 0.790137 0
    outer loop
      vertex 2.35114 3.23607 23.85
      vertex 2.48 3.13611 20
      vertex 2.35114 3.23607 20
    endloop
  endfacet
  facet normal 0.453998 0.891003 -0
    outer loop
      vertex 1.92701 3.50523 20
      vertex 1.70312 3.61931 23.85
      vertex 1.92701 3.50523 23.85
    endloop
  endfacet
  facet normal 0.453998 0.891003 0
    outer loop
      vertex 1.70312 3.61931 23.85
      vertex 1.92701 3.50523 20
      vertex 1.70312 3.61931 20
    endloop
  endfacet
  facet normal 0.0941161 0.995561 -0
    outer loop
      vertex 0.501332 3.96846 20
      vertex 0.251162 3.99211 23.85
      vertex 0.501332 3.96846 23.85
    endloop
  endfacet
  facet normal 0.0941161 0.995561 0
    outer loop
      vertex 0.251162 3.99211 23.85
      vertex 0.501332 3.96846 20
      vertex 0.251162 3.99211 20
    endloop
  endfacet
  facet normal 0.278964 0.960301 -0
    outer loop
      vertex 1.23607 3.80423 20
      vertex 0.994759 3.87433 23.85
      vertex 1.23607 3.80423 23.85
    endloop
  endfacet
  facet normal 0.278964 0.960301 0
    outer loop
      vertex 0.994759 3.87433 23.85
      vertex 1.23607 3.80423 20
      vertex 0.994759 3.87433 20
    endloop
  endfacet
  facet normal -0.995561 0.0941161 0
    outer loop
      vertex -3.99211 0.251162 20
      vertex -3.96846 0.501332 23.85
      vertex -3.96846 0.501332 20
    endloop
  endfacet
  facet normal -0.995561 0.0941161 0
    outer loop
      vertex -3.96846 0.501332 23.85
      vertex -3.99211 0.251162 20
      vertex -3.99211 0.251162 23.85
    endloop
  endfacet
  facet normal -0.960301 0.278964 0
    outer loop
      vertex -3.87433 0.994759 20
      vertex -3.80423 1.23607 23.85
      vertex -3.80423 1.23607 20
    endloop
  endfacet
  facet normal -0.960301 0.278964 0
    outer loop
      vertex -3.80423 1.23607 23.85
      vertex -3.87433 0.994759 20
      vertex -3.87433 0.994759 23.85
    endloop
  endfacet
  facet normal -0.860741 0.509043 0
    outer loop
      vertex -3.50523 1.92701 20
      vertex -3.37731 2.14331 23.85
      vertex -3.37731 2.14331 20
    endloop
  endfacet
  facet normal -0.860741 0.509043 0
    outer loop
      vertex -3.37731 2.14331 23.85
      vertex -3.50523 1.92701 20
      vertex -3.50523 1.92701 23.85
    endloop
  endfacet
  facet normal -0.891003 0.453998 0
    outer loop
      vertex -3.61931 1.70312 20
      vertex -3.50523 1.92701 23.85
      vertex -3.50523 1.92701 20
    endloop
  endfacet
  facet normal -0.891003 0.453998 0
    outer loop
      vertex -3.50523 1.92701 23.85
      vertex -3.61931 1.70312 20
      vertex -3.61931 1.70312 23.85
    endloop
  endfacet
  facet normal -0.278964 0.960301 0
    outer loop
      vertex -0.994759 3.87433 20
      vertex -1.23607 3.80423 23.85
      vertex -0.994759 3.87433 23.85
    endloop
  endfacet
  facet normal -0.278964 0.960301 0
    outer loop
      vertex -1.23607 3.80423 23.85
      vertex -0.994759 3.87433 20
      vertex -1.23607 3.80423 20
    endloop
  endfacet
  facet normal -0.397154 0.917752 0
    outer loop
      vertex -1.4725 3.71911 20
      vertex -1.70312 3.61931 23.85
      vertex -1.4725 3.71911 23.85
    endloop
  endfacet
  facet normal -0.397154 0.917752 0
    outer loop
      vertex -1.70312 3.61931 23.85
      vertex -1.4725 3.71911 20
      vertex -1.70312 3.61931 20
    endloop
  endfacet
  facet normal -0.61293 0.790137 0
    outer loop
      vertex -2.48 3.13611 20
      vertex -2.35114 3.23607 23.85
      vertex -2.35114 3.23607 20
    endloop
  endfacet
  facet normal -0.61291 0.790153 -1.07537e-06
    outer loop
      vertex -2.35114 3.23607 23.85
      vertex -2.48 3.13611 20
      vertex -2.5497 3.08205 23.85
    endloop
  endfacet
  facet normal -0.612873 0.790182 0
    outer loop
      vertex -2.5497 3.08205 0
      vertex -2.48 3.13611 20
      vertex -2.48 3.13611 0
    endloop
  endfacet
  facet normal -0.612873 0.790182 0
    outer loop
      vertex -2.48 3.13611 20
      vertex -2.5497 3.08205 0
      vertex -2.5497 3.08205 23.85
    endloop
  endfacet
  facet normal -0.66132 0.750104 0
    outer loop
      vertex -2.5497 3.08205 0
      vertex -2.73819 2.91587 23.85
      vertex -2.5497 3.08205 23.85
    endloop
  endfacet
  facet normal -0.66132 0.750104 0
    outer loop
      vertex -2.73819 2.91587 23.85
      vertex -2.5497 3.08205 0
      vertex -2.73819 2.91587 0
    endloop
  endfacet
  facet normal 0.999507 -0.0313985 0
    outer loop
      vertex 3.99211 -0.251162 23.85
      vertex 4 0 20
      vertex 4 0 23.85
    endloop
  endfacet
  facet normal 0.999507 -0.0313985 0
    outer loop
      vertex 4 0 20
      vertex 3.99211 -0.251162 23.85
      vertex 3.99211 -0.251162 20
    endloop
  endfacet
  facet normal 0.987688 -0.156435 0
    outer loop
      vertex 3.92915 -0.749525 23.85
      vertex 3.96846 -0.501332 20
      vertex 3.96846 -0.501332 23.85
    endloop
  endfacet
  facet normal 0.987688 -0.156435 0
    outer loop
      vertex 3.96846 -0.501332 20
      vertex 3.92915 -0.749525 23.85
      vertex 3.92915 -0.749525 20
    endloop
  endfacet
  facet normal 0.0941161 -0.995561 0
    outer loop
      vertex 0.251162 -3.99211 20
      vertex 0.501332 -3.96846 23.85
      vertex 0.251162 -3.99211 23.85
    endloop
  endfacet
  facet normal 0.0941161 -0.995561 0
    outer loop
      vertex 0.501332 -3.96846 23.85
      vertex 0.251162 -3.99211 20
      vertex 0.501332 -3.96846 20
    endloop
  endfacet
  facet normal 0.338738 -0.940881 0
    outer loop
      vertex 1.23607 -3.80423 20
      vertex 1.4725 -3.71911 23.85
      vertex 1.23607 -3.80423 23.85
    endloop
  endfacet
  facet normal 0.338738 -0.940881 0
    outer loop
      vertex 1.4725 -3.71911 23.85
      vertex 1.23607 -3.80423 20
      vertex 1.4725 -3.71911 20
    endloop
  endfacet
  facet normal 0.218157 -0.975914 0
    outer loop
      vertex 0.749525 -3.92915 20
      vertex 0.994759 -3.87433 23.85
      vertex 0.749525 -3.92915 23.85
    endloop
  endfacet
  facet normal 0.218157 -0.975914 0
    outer loop
      vertex 0.994759 -3.87433 23.85
      vertex 0.749525 -3.92915 20
      vertex 0.994759 -3.87433 20
    endloop
  endfacet
  facet normal 0.66132 -0.750104 0
    outer loop
      vertex 2.5497 -3.08205 0
      vertex 2.73819 -2.91587 23.85
      vertex 2.5497 -3.08205 23.85
    endloop
  endfacet
  facet normal 0.66132 -0.750104 0
    outer loop
      vertex 2.73819 -2.91587 23.85
      vertex 2.5497 -3.08205 0
      vertex 2.73819 -2.91587 0
    endloop
  endfacet
  facet normal 0.61293 -0.790137 0
    outer loop
      vertex 2.48 -3.13611 20
      vertex 2.35114 -3.23607 23.85
      vertex 2.35114 -3.23607 20
    endloop
  endfacet
  facet normal 0.61291 -0.790153 -1.07537e-06
    outer loop
      vertex 2.35114 -3.23607 23.85
      vertex 2.48 -3.13611 20
      vertex 2.5497 -3.08205 23.85
    endloop
  endfacet
  facet normal 0.612873 -0.790182 0
    outer loop
      vertex 2.5497 -3.08205 0
      vertex 2.48 -3.13611 20
      vertex 2.48 -3.13611 0
    endloop
  endfacet
  facet normal 0.612873 -0.790182 0
    outer loop
      vertex 2.48 -3.13611 20
      vertex 2.5497 -3.08205 0
      vertex 2.5497 -3.08205 23.85
    endloop
  endfacet
  facet normal 0.707107 -0.707107 0
    outer loop
      vertex 2.73819 -2.91587 23.85
      vertex 2.91587 -2.73819 0
      vertex 2.91587 -2.73819 23.85
    endloop
  endfacet
  facet normal 0.707107 -0.707107 0
    outer loop
      vertex 2.91587 -2.73819 0
      vertex 2.73819 -2.91587 23.85
      vertex 2.73819 -2.91587 0
    endloop
  endfacet
  facet normal 0.509043 -0.860741 0
    outer loop
      vertex 1.92701 -3.50523 20
      vertex 2.14331 -3.37731 23.85
      vertex 1.92701 -3.50523 23.85
    endloop
  endfacet
  facet normal 0.509043 -0.860741 0
    outer loop
      vertex 2.14331 -3.37731 23.85
      vertex 1.92701 -3.50523 20
      vertex 2.14331 -3.37731 20
    endloop
  endfacet
  facet normal 0.56208 -0.827083 0
    outer loop
      vertex 2.14331 -3.37731 20
      vertex 2.35114 -3.23607 23.85
      vertex 2.14331 -3.37731 23.85
    endloop
  endfacet
  facet normal 0.56208 -0.827083 0
    outer loop
      vertex 2.35114 -3.23607 23.85
      vertex 2.14331 -3.37731 20
      vertex 2.35114 -3.23607 20
    endloop
  endfacet
  facet normal 0.397154 -0.917752 0
    outer loop
      vertex 1.4725 -3.71911 20
      vertex 1.70312 -3.61931 23.85
      vertex 1.4725 -3.71911 23.85
    endloop
  endfacet
  facet normal 0.397154 -0.917752 0
    outer loop
      vertex 1.70312 -3.61931 23.85
      vertex 1.4725 -3.71911 20
      vertex 1.70312 -3.61931 20
    endloop
  endfacet
  facet normal -0.0941161 -0.995561 0
    outer loop
      vertex -0.501332 -3.96846 20
      vertex -0.251162 -3.99211 23.85
      vertex -0.501332 -3.96846 23.85
    endloop
  endfacet
  facet normal -0.0941161 -0.995561 -0
    outer loop
      vertex -0.251162 -3.99211 23.85
      vertex -0.501332 -3.96846 20
      vertex -0.251162 -3.99211 20
    endloop
  endfacet
  facet normal -0.156435 -0.987688 0
    outer loop
      vertex -0.749525 -3.92915 20
      vertex -0.501332 -3.96846 23.85
      vertex -0.749525 -3.92915 23.85
    endloop
  endfacet
  facet normal -0.156435 -0.987688 -0
    outer loop
      vertex -0.501332 -3.96846 23.85
      vertex -0.749525 -3.92915 20
      vertex -0.501332 -3.96846 20
    endloop
  endfacet
  facet normal -0.0313985 -0.999507 0
    outer loop
      vertex -0.251162 -3.99211 20
      vertex 0 -4 23.85
      vertex -0.251162 -3.99211 23.85
    endloop
  endfacet
  facet normal -0.0313985 -0.999507 -0
    outer loop
      vertex 0 -4 23.85
      vertex -0.251162 -3.99211 20
      vertex 0 -4 20
    endloop
  endfacet
  facet normal -0.278964 -0.960301 0
    outer loop
      vertex -1.23607 -3.80423 20
      vertex -0.994759 -3.87433 23.85
      vertex -1.23607 -3.80423 23.85
    endloop
  endfacet
  facet normal -0.278964 -0.960301 -0
    outer loop
      vertex -0.994759 -3.87433 23.85
      vertex -1.23607 -3.80423 20
      vertex -0.994759 -3.87433 20
    endloop
  endfacet
  facet normal -0.509043 -0.860741 0
    outer loop
      vertex -2.14331 -3.37731 20
      vertex -1.92701 -3.50523 23.85
      vertex -2.14331 -3.37731 23.85
    endloop
  endfacet
  facet normal -0.509043 -0.860741 -0
    outer loop
      vertex -1.92701 -3.50523 23.85
      vertex -2.14331 -3.37731 20
      vertex -1.92701 -3.50523 20
    endloop
  endfacet
  facet normal -0.56208 -0.827083 0
    outer loop
      vertex -2.35114 -3.23607 20
      vertex -2.14331 -3.37731 23.85
      vertex -2.35114 -3.23607 23.85
    endloop
  endfacet
  facet normal -0.56208 -0.827083 -0
    outer loop
      vertex -2.14331 -3.37731 23.85
      vertex -2.35114 -3.23607 20
      vertex -2.14331 -3.37731 20
    endloop
  endfacet
  facet normal -0.453998 -0.891003 0
    outer loop
      vertex -1.92701 -3.50523 20
      vertex -1.70312 -3.61931 23.85
      vertex -1.92701 -3.50523 23.85
    endloop
  endfacet
  facet normal -0.453998 -0.891003 -0
    outer loop
      vertex -1.70312 -3.61931 23.85
      vertex -1.92701 -3.50523 20
      vertex -1.70312 -3.61931 20
    endloop
  endfacet
  facet normal -0.66132 -0.750104 0
    outer loop
      vertex -2.73819 -2.91587 0
      vertex -2.5497 -3.08205 23.85
      vertex -2.73819 -2.91587 23.85
    endloop
  endfacet
  facet normal -0.66132 -0.750104 -0
    outer loop
      vertex -2.5497 -3.08205 23.85
      vertex -2.73819 -2.91587 0
      vertex -2.5497 -3.08205 0
    endloop
  endfacet
  facet normal -0.61291 -0.790153 -1.07537e-06
    outer loop
      vertex -2.5497 -3.08205 23.85
      vertex -2.48 -3.13611 20
      vertex -2.35114 -3.23607 23.85
    endloop
  endfacet
  facet normal -0.612873 -0.790182 0
    outer loop
      vertex -2.5497 -3.08205 0
      vertex -2.48 -3.13611 20
      vertex -2.5497 -3.08205 23.85
    endloop
  endfacet
  facet normal -0.612873 -0.790182 -0
    outer loop
      vertex -2.48 -3.13611 20
      vertex -2.5497 -3.08205 0
      vertex -2.48 -3.13611 0
    endloop
  endfacet
  facet normal -0.61293 -0.790137 -0
    outer loop
      vertex -2.35114 -3.23607 23.85
      vertex -2.48 -3.13611 20
      vertex -2.35114 -3.23607 20
    endloop
  endfacet
  facet normal -0.940881 -0.338738 0
    outer loop
      vertex -3.71911 -1.4725 20
      vertex -3.80423 -1.23607 23.85
      vertex -3.80423 -1.23607 20
    endloop
  endfacet
  facet normal -0.940881 -0.338738 0
    outer loop
      vertex -3.80423 -1.23607 23.85
      vertex -3.71911 -1.4725 20
      vertex -3.71911 -1.4725 23.85
    endloop
  endfacet
  facet normal -0.975914 -0.218157 0
    outer loop
      vertex -3.87433 -0.994759 20
      vertex -3.92915 -0.749525 23.85
      vertex -3.92915 -0.749525 20
    endloop
  endfacet
  facet normal -0.975914 -0.218157 0
    outer loop
      vertex -3.92915 -0.749525 23.85
      vertex -3.87433 -0.994759 20
      vertex -3.87433 -0.994759 23.85
    endloop
  endfacet
  facet normal -0.960301 -0.278964 0
    outer loop
      vertex -3.80423 -1.23607 20
      vertex -3.87433 -0.994759 23.85
      vertex -3.87433 -0.994759 20
    endloop
  endfacet
  facet normal -0.960301 -0.278964 0
    outer loop
      vertex -3.87433 -0.994759 23.85
      vertex -3.80423 -1.23607 20
      vertex -3.80423 -1.23607 23.85
    endloop
  endfacet
  facet normal -0.995561 -0.0941161 0
    outer loop
      vertex -3.96846 -0.501332 20
      vertex -3.99211 -0.251162 23.85
      vertex -3.99211 -0.251162 20
    endloop
  endfacet
  facet normal -0.995561 -0.0941161 0
    outer loop
      vertex -3.99211 -0.251162 23.85
      vertex -3.96846 -0.501332 20
      vertex -3.96846 -0.501332 23.85
    endloop
  endfacet
  facet normal -0.860741 -0.509043 0
    outer loop
      vertex -3.37731 -2.14331 20
      vertex -3.50523 -1.92701 23.85
      vertex -3.50523 -1.92701 20
    endloop
  endfacet
  facet normal -0.860741 -0.509043 0
    outer loop
      vertex -3.50523 -1.92701 23.85
      vertex -3.37731 -2.14331 20
      vertex -3.37731 -2.14331 23.85
    endloop
  endfacet
  facet normal -0.917752 -0.397154 0
    outer loop
      vertex -3.61931 -1.70312 20
      vertex -3.71911 -1.4725 23.85
      vertex -3.71911 -1.4725 20
    endloop
  endfacet
  facet normal -0.917752 -0.397154 0
    outer loop
      vertex -3.71911 -1.4725 23.85
      vertex -3.61931 -1.70312 20
      vertex -3.61931 -1.70312 23.85
    endloop
  endfacet
  facet normal -0.790182 -0.612873 0
    outer loop
      vertex -3.13611 -2.48 0
      vertex -3.08205 -2.5497 0
      vertex -3.13611 -2.48 20
    endloop
  endfacet
  facet normal -0.790137 -0.61293 0
    outer loop
      vertex -3.13611 -2.48 20
      vertex -3.23607 -2.35114 23.85
      vertex -3.23607 -2.35114 20
    endloop
  endfacet
  facet normal -0.790153 -0.61291 -1.07537e-06
    outer loop
      vertex -3.13611 -2.48 20
      vertex -3.08205 -2.5497 23.85
      vertex -3.23607 -2.35114 23.85
    endloop
  endfacet
  facet normal -0.790182 -0.612873 -0
    outer loop
      vertex -3.08205 -2.5497 23.85
      vertex -3.13611 -2.48 20
      vertex -3.08205 -2.5497 0
    endloop
  endfacet
  facet normal -0.750104 -0.66132 0
    outer loop
      vertex -2.91587 -2.73819 0
      vertex -3.08205 -2.5497 23.85
      vertex -3.08205 -2.5497 0
    endloop
  endfacet
  facet normal -0.750104 -0.66132 0
    outer loop
      vertex -3.08205 -2.5497 23.85
      vertex -2.91587 -2.73819 0
      vertex -2.91587 -2.73819 23.85
    endloop
  endfacet
  facet normal 0.860741 0.509043 0
    outer loop
      vertex 3.50523 1.92701 23.85
      vertex 3.37731 2.14331 20
      vertex 3.37731 2.14331 23.85
    endloop
  endfacet
  facet normal 0.860741 0.509043 0
    outer loop
      vertex 3.37731 2.14331 20
      vertex 3.50523 1.92701 23.85
      vertex 3.50523 1.92701 20
    endloop
  endfacet
  facet normal 0.156435 0.987688 -0
    outer loop
      vertex 0.749525 3.92915 20
      vertex 0.501332 3.96846 23.85
      vertex 0.749525 3.92915 23.85
    endloop
  endfacet
  facet normal 0.156435 0.987688 0
    outer loop
      vertex 0.501332 3.96846 23.85
      vertex 0.749525 3.92915 20
      vertex 0.501332 3.96846 20
    endloop
  endfacet
  facet normal -0.987688 0.156435 0
    outer loop
      vertex -3.96846 0.501332 20
      vertex -3.92915 0.749525 23.85
      vertex -3.92915 0.749525 20
    endloop
  endfacet
  facet normal -0.987688 0.156435 0
    outer loop
      vertex -3.92915 0.749525 23.85
      vertex -3.96846 0.501332 20
      vertex -3.96846 0.501332 23.85
    endloop
  endfacet
  facet normal -0.827083 0.56208 0
    outer loop
      vertex -3.37731 2.14331 20
      vertex -3.23607 2.35114 23.85
      vertex -3.23607 2.35114 20
    endloop
  endfacet
  facet normal -0.827083 0.56208 0
    outer loop
      vertex -3.23607 2.35114 23.85
      vertex -3.37731 2.14331 20
      vertex -3.37731 2.14331 23.85
    endloop
  endfacet
  facet normal -0.750104 0.66132 0
    outer loop
      vertex -3.08205 2.5497 0
      vertex -2.91587 2.73819 23.85
      vertex -2.91587 2.73819 0
    endloop
  endfacet
  facet normal -0.750104 0.66132 0
    outer loop
      vertex -2.91587 2.73819 23.85
      vertex -3.08205 2.5497 0
      vertex -3.08205 2.5497 23.85
    endloop
  endfacet
  facet normal -0.218157 0.975914 0
    outer loop
      vertex -0.749525 3.92915 20
      vertex -0.994759 3.87433 23.85
      vertex -0.749525 3.92915 23.85
    endloop
  endfacet
  facet normal -0.218157 0.975914 0
    outer loop
      vertex -0.994759 3.87433 23.85
      vertex -0.749525 3.92915 20
      vertex -0.994759 3.87433 20
    endloop
  endfacet
  facet normal -0.0941161 0.995561 0
    outer loop
      vertex -0.251162 3.99211 20
      vertex -0.501332 3.96846 23.85
      vertex -0.251162 3.99211 23.85
    endloop
  endfacet
  facet normal -0.0941161 0.995561 0
    outer loop
      vertex -0.501332 3.96846 23.85
      vertex -0.251162 3.99211 20
      vertex -0.501332 3.96846 20
    endloop
  endfacet
  facet normal 0.995561 -0.0941161 0
    outer loop
      vertex 3.96846 -0.501332 23.85
      vertex 3.99211 -0.251162 20
      vertex 3.99211 -0.251162 23.85
    endloop
  endfacet
  facet normal 0.995561 -0.0941161 0
    outer loop
      vertex 3.99211 -0.251162 20
      vertex 3.96846 -0.501332 23.85
      vertex 3.96846 -0.501332 20
    endloop
  endfacet
  facet normal 0.975914 -0.218157 0
    outer loop
      vertex 3.87433 -0.994759 23.85
      vertex 3.92915 -0.749525 20
      vertex 3.92915 -0.749525 23.85
    endloop
  endfacet
  facet normal 0.975914 -0.218157 0
    outer loop
      vertex 3.92915 -0.749525 20
      vertex 3.87433 -0.994759 23.85
      vertex 3.87433 -0.994759 20
    endloop
  endfacet
  facet normal 0.960301 -0.278964 0
    outer loop
      vertex 3.80423 -1.23607 23.85
      vertex 3.87433 -0.994759 20
      vertex 3.87433 -0.994759 23.85
    endloop
  endfacet
  facet normal 0.960301 -0.278964 0
    outer loop
      vertex 3.87433 -0.994759 20
      vertex 3.80423 -1.23607 23.85
      vertex 3.80423 -1.23607 20
    endloop
  endfacet
  facet normal 0.891003 -0.453998 0
    outer loop
      vertex 3.50523 -1.92701 23.85
      vertex 3.61931 -1.70312 20
      vertex 3.61931 -1.70312 23.85
    endloop
  endfacet
  facet normal 0.891003 -0.453998 0
    outer loop
      vertex 3.61931 -1.70312 20
      vertex 3.50523 -1.92701 23.85
      vertex 3.50523 -1.92701 20
    endloop
  endfacet
  facet normal 0.827083 -0.56208 0
    outer loop
      vertex 3.23607 -2.35114 23.85
      vertex 3.37731 -2.14331 20
      vertex 3.37731 -2.14331 23.85
    endloop
  endfacet
  facet normal 0.827083 -0.56208 0
    outer loop
      vertex 3.37731 -2.14331 20
      vertex 3.23607 -2.35114 23.85
      vertex 3.23607 -2.35114 20
    endloop
  endfacet
  facet normal 0.156435 -0.987688 0
    outer loop
      vertex 0.501332 -3.96846 20
      vertex 0.749525 -3.92915 23.85
      vertex 0.501332 -3.96846 23.85
    endloop
  endfacet
  facet normal 0.156435 -0.987688 0
    outer loop
      vertex 0.749525 -3.92915 23.85
      vertex 0.501332 -3.96846 20
      vertex 0.749525 -3.92915 20
    endloop
  endfacet
  facet normal 0.278964 -0.960301 0
    outer loop
      vertex 0.994759 -3.87433 20
      vertex 1.23607 -3.80423 23.85
      vertex 0.994759 -3.87433 23.85
    endloop
  endfacet
  facet normal 0.278964 -0.960301 0
    outer loop
      vertex 1.23607 -3.80423 23.85
      vertex 0.994759 -3.87433 20
      vertex 1.23607 -3.80423 20
    endloop
  endfacet
  facet normal 0.453998 -0.891003 0
    outer loop
      vertex 1.70312 -3.61931 20
      vertex 1.92701 -3.50523 23.85
      vertex 1.70312 -3.61931 23.85
    endloop
  endfacet
  facet normal 0.453998 -0.891003 0
    outer loop
      vertex 1.92701 -3.50523 23.85
      vertex 1.70312 -3.61931 20
      vertex 1.92701 -3.50523 20
    endloop
  endfacet
  facet normal -0.218157 -0.975914 0
    outer loop
      vertex -0.994759 -3.87433 20
      vertex -0.749525 -3.92915 23.85
      vertex -0.994759 -3.87433 23.85
    endloop
  endfacet
  facet normal -0.218157 -0.975914 -0
    outer loop
      vertex -0.749525 -3.92915 23.85
      vertex -0.994759 -3.87433 20
      vertex -0.749525 -3.92915 20
    endloop
  endfacet
  facet normal -0.397154 -0.917752 0
    outer loop
      vertex -1.70312 -3.61931 20
      vertex -1.4725 -3.71911 23.85
      vertex -1.70312 -3.61931 23.85
    endloop
  endfacet
  facet normal -0.397154 -0.917752 -0
    outer loop
      vertex -1.4725 -3.71911 23.85
      vertex -1.70312 -3.61931 20
      vertex -1.4725 -3.71911 20
    endloop
  endfacet
  facet normal -0.987688 -0.156435 0
    outer loop
      vertex -3.92915 -0.749525 20
      vertex -3.96846 -0.501332 23.85
      vertex -3.96846 -0.501332 20
    endloop
  endfacet
  facet normal -0.987688 -0.156435 0
    outer loop
      vertex -3.96846 -0.501332 23.85
      vertex -3.92915 -0.749525 20
      vertex -3.92915 -0.749525 23.85
    endloop
  endfacet
  facet normal -0.891003 -0.453998 0
    outer loop
      vertex -3.50523 -1.92701 20
      vertex -3.61931 -1.70312 23.85
      vertex -3.61931 -1.70312 20
    endloop
  endfacet
  facet normal -0.891003 -0.453998 0
    outer loop
      vertex -3.61931 -1.70312 23.85
      vertex -3.50523 -1.92701 20
      vertex -3.50523 -1.92701 23.85
    endloop
  endfacet
  facet normal 0.917752 -0.397154 0
    outer loop
      vertex 3.61931 -1.70312 23.85
      vertex 3.71911 -1.4725 20
      vertex 3.71911 -1.4725 23.85
    endloop
  endfacet
  facet normal 0.917752 -0.397154 0
    outer loop
      vertex 3.71911 -1.4725 20
      vertex 3.61931 -1.70312 23.85
      vertex 3.61931 -1.70312 20
    endloop
  endfacet
  facet normal 0.860741 -0.509043 0
    outer loop
      vertex 3.37731 -2.14331 23.85
      vertex 3.50523 -1.92701 20
      vertex 3.50523 -1.92701 23.85
    endloop
  endfacet
  facet normal 0.860741 -0.509043 0
    outer loop
      vertex 3.50523 -1.92701 20
      vertex 3.37731 -2.14331 23.85
      vertex 3.37731 -2.14331 20
    endloop
  endfacet
  facet normal 0.790137 -0.61293 0
    outer loop
      vertex 3.23607 -2.35114 23.85
      vertex 3.13611 -2.48 20
      vertex 3.23607 -2.35114 20
    endloop
  endfacet
  facet normal 0.790153 -0.61291 -1.07537e-06
    outer loop
      vertex 3.08205 -2.5497 23.85
      vertex 3.13611 -2.48 20
      vertex 3.23607 -2.35114 23.85
    endloop
  endfacet
  facet normal 0.790182 -0.612873 0
    outer loop
      vertex 3.08205 -2.5497 0
      vertex 3.13611 -2.48 20
      vertex 3.08205 -2.5497 23.85
    endloop
  endfacet
  facet normal 0.790182 -0.612873 0
    outer loop
      vertex 3.13611 -2.48 20
      vertex 3.08205 -2.5497 0
      vertex 3.13611 -2.48 0
    endloop
  endfacet
  facet normal -1 0 0
    outer loop
      vertex -9.7 -2.48 0
      vertex -9.7 2.48 20
      vertex -9.7 2.48 0
    endloop
  endfacet
  facet normal -1 -0 0
    outer loop
      vertex -9.7 2.48 20
      vertex -9.7 -2.48 0
      vertex -9.7 -2.48 20
    endloop
  endfacet
  facet normal 0 0 1
    outer loop
      vertex 9.7 2.48 20
      vertex 4 0 20
      vertex 9.7 -2.48 20
    endloop
  endfacet
  facet normal 0 0 1
    outer loop
      vertex 9.7 2.48 20
      vertex 3.99211 0.251162 20
      vertex 4 0 20
    endloop
  endfacet
  facet normal 0 0 1
    outer loop
      vertex 9.7 2.48 20
      vertex 3.96846 0.501332 20
      vertex 3.99211 0.251162 20
    endloop
  endfacet
  facet normal 0 0 1
    outer loop
      vertex 9.7 2.48 20
      vertex 3.92915 0.749525 20
      vertex 3.96846 0.501332 20
    endloop
  endfacet
  facet normal 0 0 1
    outer loop
      vertex 9.7 2.48 20
      vertex 3.87433 0.994759 20
      vertex 3.92915 0.749525 20
    endloop
  endfacet
  facet normal 0 0 1
    outer loop
      vertex 9.7 2.48 20
      vertex 3.80423 1.23607 20
      vertex 3.87433 0.994759 20
    endloop
  endfacet
  facet normal 0 0 1
    outer loop
      vertex 9.7 2.48 20
      vertex 3.71911 1.4725 20
      vertex 3.80423 1.23607 20
    endloop
  endfacet
  facet normal 0 0 1
    outer loop
      vertex 9.7 2.48 20
      vertex 3.61931 1.70312 20
      vertex 3.71911 1.4725 20
    endloop
  endfacet
  facet normal 0 0 1
    outer loop
      vertex 9.7 2.48 20
      vertex 3.50523 1.92701 20
      vertex 3.61931 1.70312 20
    endloop
  endfacet
  facet normal 0 0 1
    outer loop
      vertex 9.7 2.48 20
      vertex 3.37731 2.14331 20
      vertex 3.50523 1.92701 20
    endloop
  endfacet
  facet normal 0 0 1
    outer loop
      vertex 9.7 2.48 20
      vertex 3.23607 2.35114 20
      vertex 3.37731 2.14331 20
    endloop
  endfacet
  facet normal 0 -0 1
    outer loop
      vertex 3.23607 2.35114 20
      vertex 9.7 2.48 20
      vertex 3.13611 2.48 20
    endloop
  endfacet
  facet normal -0 0 1
    outer loop
      vertex 3.99211 -0.251162 20
      vertex 9.7 -2.48 20
      vertex 4 0 20
    endloop
  endfacet
  facet normal -0 0 1
    outer loop
      vertex 3.96846 -0.501332 20
      vertex 9.7 -2.48 20
      vertex 3.99211 -0.251162 20
    endloop
  endfacet
  facet normal -0 0 1
    outer loop
      vertex 3.92915 -0.749525 20
      vertex 9.7 -2.48 20
      vertex 3.96846 -0.501332 20
    endloop
  endfacet
  facet normal -0 0 1
    outer loop
      vertex 3.87433 -0.994759 20
      vertex 9.7 -2.48 20
      vertex 3.92915 -0.749525 20
    endloop
  endfacet
  facet normal -0 0 1
    outer loop
      vertex 3.80423 -1.23607 20
      vertex 9.7 -2.48 20
      vertex 3.87433 -0.994759 20
    endloop
  endfacet
  facet normal -0 0 1
    outer loop
      vertex 3.71911 -1.4725 20
      vertex 9.7 -2.48 20
      vertex 3.80423 -1.23607 20
    endloop
  endfacet
  facet normal -0 0 1
    outer loop
      vertex 3.61931 -1.70312 20
      vertex 9.7 -2.48 20
      vertex 3.71911 -1.4725 20
    endloop
  endfacet
  facet normal -0 0 1
    outer loop
      vertex 3.50523 -1.92701 20
      vertex 9.7 -2.48 20
      vertex 3.61931 -1.70312 20
    endloop
  endfacet
  facet normal -0 0 1
    outer loop
      vertex 3.37731 -2.14331 20
      vertex 9.7 -2.48 20
      vertex 3.50523 -1.92701 20
    endloop
  endfacet
  facet normal -0 0 1
    outer loop
      vertex 3.23607 -2.35114 20
      vertex 9.7 -2.48 20
      vertex 3.37731 -2.14331 20
    endloop
  endfacet
  facet normal 0 0 1
    outer loop
      vertex 9.7 -2.48 20
      vertex 3.23607 -2.35114 20
      vertex 3.13611 -2.48 20
    endloop
  endfacet
  facet normal 0 0 1
    outer loop
      vertex -3.99211 0.251162 20
      vertex -9.7 2.48 20
      vertex -4 0 20
    endloop
  endfacet
  facet normal 0 0 1
    outer loop
      vertex -3.96846 0.501332 20
      vertex -9.7 2.48 20
      vertex -3.99211 0.251162 20
    endloop
  endfacet
  facet normal 0 0 1
    outer loop
      vertex -3.92915 0.749525 20
      vertex -9.7 2.48 20
      vertex -3.96846 0.501332 20
    endloop
  endfacet
  facet normal 0 0 1
    outer loop
      vertex -3.87433 0.994759 20
      vertex -9.7 2.48 20
      vertex -3.92915 0.749525 20
    endloop
  endfacet
  facet normal 0 0 1
    outer loop
      vertex -3.80423 1.23607 20
      vertex -9.7 2.48 20
      vertex -3.87433 0.994759 20
    endloop
  endfacet
  facet normal 0 0 1
    outer loop
      vertex -3.71911 1.4725 20
      vertex -9.7 2.48 20
      vertex -3.80423 1.23607 20
    endloop
  endfacet
  facet normal 0 0 1
    outer loop
      vertex -3.61931 1.70312 20
      vertex -9.7 2.48 20
      vertex -3.71911 1.4725 20
    endloop
  endfacet
  facet normal 0 0 1
    outer loop
      vertex -3.50523 1.92701 20
      vertex -9.7 2.48 20
      vertex -3.61931 1.70312 20
    endloop
  endfacet
  facet normal 0 0 1
    outer loop
      vertex -3.37731 2.14331 20
      vertex -9.7 2.48 20
      vertex -3.50523 1.92701 20
    endloop
  endfacet
  facet normal 0 0 1
    outer loop
      vertex -3.23607 2.35114 20
      vertex -9.7 2.48 20
      vertex -3.37731 2.14331 20
    endloop
  endfacet
  facet normal -0 0 1
    outer loop
      vertex -9.7 2.48 20
      vertex -3.23607 2.35114 20
      vertex -3.13611 2.48 20
    endloop
  endfacet
  facet normal 0 0 1
    outer loop
      vertex -9.7 -2.48 20
      vertex -4 0 20
      vertex -9.7 2.48 20
    endloop
  endfacet
  facet normal 0 0 1
    outer loop
      vertex -4 0 20
      vertex -9.7 -2.48 20
      vertex -3.99211 -0.251162 20
    endloop
  endfacet
  facet normal 0 0 1
    outer loop
      vertex -3.99211 -0.251162 20
      vertex -9.7 -2.48 20
      vertex -3.96846 -0.501332 20
    endloop
  endfacet
  facet normal 0 0 1
    outer loop
      vertex -3.96846 -0.501332 20
      vertex -9.7 -2.48 20
      vertex -3.92915 -0.749525 20
    endloop
  endfacet
  facet normal 0 0 1
    outer loop
      vertex -3.92915 -0.749525 20
      vertex -9.7 -2.48 20
      vertex -3.87433 -0.994759 20
    endloop
  endfacet
  facet normal 0 0 1
    outer loop
      vertex -3.87433 -0.994759 20
      vertex -9.7 -2.48 20
      vertex -3.80423 -1.23607 20
    endloop
  endfacet
  facet normal 0 0 1
    outer loop
      vertex -3.80423 -1.23607 20
      vertex -9.7 -2.48 20
      vertex -3.71911 -1.4725 20
    endloop
  endfacet
  facet normal 0 0 1
    outer loop
      vertex -3.71911 -1.4725 20
      vertex -9.7 -2.48 20
      vertex -3.61931 -1.70312 20
    endloop
  endfacet
  facet normal 0 0 1
    outer loop
      vertex -3.61931 -1.70312 20
      vertex -9.7 -2.48 20
      vertex -3.50523 -1.92701 20
    endloop
  endfacet
  facet normal 0 0 1
    outer loop
      vertex -3.50523 -1.92701 20
      vertex -9.7 -2.48 20
      vertex -3.37731 -2.14331 20
    endloop
  endfacet
  facet normal 0 0 1
    outer loop
      vertex -3.37731 -2.14331 20
      vertex -9.7 -2.48 20
      vertex -3.23607 -2.35114 20
    endloop
  endfacet
  facet normal 0 0 1
    outer loop
      vertex -3.23607 -2.35114 20
      vertex -9.7 -2.48 20
      vertex -3.13611 -2.48 20
    endloop
  endfacet
  facet normal 0 0 1
    outer loop
      vertex 2.48 9.7 20
      vertex 2.35114 3.23607 20
      vertex 2.48 3.13611 20
    endloop
  endfacet
  facet normal 0 0 1
    outer loop
      vertex 2.48 9.7 20
      vertex 2.14331 3.37731 20
      vertex 2.35114 3.23607 20
    endloop
  endfacet
  facet normal 0 0 1
    outer loop
      vertex 2.48 9.7 20
      vertex 1.92701 3.50523 20
      vertex 2.14331 3.37731 20
    endloop
  endfacet
  facet normal 0 0 1
    outer loop
      vertex 2.48 9.7 20
      vertex 1.70312 3.61931 20
      vertex 1.92701 3.50523 20
    endloop
  endfacet
  facet normal 0 0 1
    outer loop
      vertex 2.48 9.7 20
      vertex 1.4725 3.71911 20
      vertex 1.70312 3.61931 20
    endloop
  endfacet
  facet normal 0 0 1
    outer loop
      vertex 2.48 9.7 20
      vertex 1.23607 3.80423 20
      vertex 1.4725 3.71911 20
    endloop
  endfacet
  facet normal 0 0 1
    outer loop
      vertex 2.48 9.7 20
      vertex 0.994759 3.87433 20
      vertex 1.23607 3.80423 20
    endloop
  endfacet
  facet normal 0 0 1
    outer loop
      vertex 2.48 9.7 20
      vertex 0.749525 3.92915 20
      vertex 0.994759 3.87433 20
    endloop
  endfacet
  facet normal 0 0 1
    outer loop
      vertex 2.48 9.7 20
      vertex 0.501332 3.96846 20
      vertex 0.749525 3.92915 20
    endloop
  endfacet
  facet normal 0 0 1
    outer loop
      vertex 2.48 9.7 20
      vertex 0.251162 3.99211 20
      vertex 0.501332 3.96846 20
    endloop
  endfacet
  facet normal 0 0 1
    outer loop
      vertex 2.48 9.7 20
      vertex 0 4 20
      vertex 0.251162 3.99211 20
    endloop
  endfacet
  facet normal -0 0 1
    outer loop
      vertex -2.48 9.7 20
      vertex 0 4 20
      vertex 2.48 9.7 20
    endloop
  endfacet
  facet normal 0 0 1
    outer loop
      vertex 0 4 20
      vertex -2.48 9.7 20
      vertex -0.251162 3.99211 20
    endloop
  endfacet
  facet normal 0 0 1
    outer loop
      vertex -0.251162 3.99211 20
      vertex -2.48 9.7 20
      vertex -0.501332 3.96846 20
    endloop
  endfacet
  facet normal 0 0 1
    outer loop
      vertex -0.501332 3.96846 20
      vertex -2.48 9.7 20
      vertex -0.749525 3.92915 20
    endloop
  endfacet
  facet normal 0 0 1
    outer loop
      vertex -0.749525 3.92915 20
      vertex -2.48 9.7 20
      vertex -0.994759 3.87433 20
    endloop
  endfacet
  facet normal 0 0 1
    outer loop
      vertex -0.994759 3.87433 20
      vertex -2.48 9.7 20
      vertex -1.23607 3.80423 20
    endloop
  endfacet
  facet normal 0 0 1
    outer loop
      vertex -1.23607 3.80423 20
      vertex -2.48 9.7 20
      vertex -1.4725 3.71911 20
    endloop
  endfacet
  facet normal 0 0 1
    outer loop
      vertex -1.4725 3.71911 20
      vertex -2.48 9.7 20
      vertex -1.70312 3.61931 20
    endloop
  endfacet
  facet normal 0 0 1
    outer loop
      vertex -1.70312 3.61931 20
      vertex -2.48 9.7 20
      vertex -1.92701 3.50523 20
    endloop
  endfacet
  facet normal 0 0 1
    outer loop
      vertex -1.92701 3.50523 20
      vertex -2.48 9.7 20
      vertex -2.14331 3.37731 20
    endloop
  endfacet
  facet normal 0 0 1
    outer loop
      vertex -2.14331 3.37731 20
      vertex -2.48 9.7 20
      vertex -2.35114 3.23607 20
    endloop
  endfacet
  facet normal 0 0 1
    outer loop
      vertex -2.35114 3.23607 20
      vertex -2.48 9.7 20
      vertex -2.48 3.13611 20
    endloop
  endfacet
  facet normal -0 0 1
    outer loop
      vertex 2.35114 -3.23607 20
      vertex 2.48 -9.7 20
      vertex 2.48 -3.13611 20
    endloop
  endfacet
  facet normal -0 0 1
    outer loop
      vertex 2.14331 -3.37731 20
      vertex 2.48 -9.7 20
      vertex 2.35114 -3.23607 20
    endloop
  endfacet
  facet normal -0 0 1
    outer loop
      vertex 1.92701 -3.50523 20
      vertex 2.48 -9.7 20
      vertex 2.14331 -3.37731 20
    endloop
  endfacet
  facet normal -0 0 1
    outer loop
      vertex 1.70312 -3.61931 20
      vertex 2.48 -9.7 20
      vertex 1.92701 -3.50523 20
    endloop
  endfacet
  facet normal -0 0 1
    outer loop
      vertex 1.4725 -3.71911 20
      vertex 2.48 -9.7 20
      vertex 1.70312 -3.61931 20
    endloop
  endfacet
  facet normal -0 0 1
    outer loop
      vertex 1.23607 -3.80423 20
      vertex 2.48 -9.7 20
      vertex 1.4725 -3.71911 20
    endloop
  endfacet
  facet normal -0 0 1
    outer loop
      vertex 0.994759 -3.87433 20
      vertex 2.48 -9.7 20
      vertex 1.23607 -3.80423 20
    endloop
  endfacet
  facet normal -0 0 1
    outer loop
      vertex 0.749525 -3.92915 20
      vertex 2.48 -9.7 20
      vertex 0.994759 -3.87433 20
    endloop
  endfacet
  facet normal -0 0 1
    outer loop
      vertex 0.501332 -3.96846 20
      vertex 2.48 -9.7 20
      vertex 0.749525 -3.92915 20
    endloop
  endfacet
  facet normal -0 0 1
    outer loop
      vertex 0.251162 -3.99211 20
      vertex 2.48 -9.7 20
      vertex 0.501332 -3.96846 20
    endloop
  endfacet
  facet normal -0 0 1
    outer loop
      vertex 0 -4 20
      vertex 2.48 -9.7 20
      vertex 0.251162 -3.99211 20
    endloop
  endfacet
  facet normal 0 0 1
    outer loop
      vertex -2.48 -9.7 20
      vertex 0 -4 20
      vertex -0.251162 -3.99211 20
    endloop
  endfacet
  facet normal 0 0 1
    outer loop
      vertex -2.48 -9.7 20
      vertex -0.251162 -3.99211 20
      vertex -0.501332 -3.96846 20
    endloop
  endfacet
  facet normal 0 0 1
    outer loop
      vertex -2.48 -9.7 20
      vertex -0.501332 -3.96846 20
      vertex -0.749525 -3.92915 20
    endloop
  endfacet
  facet normal 0 0 1
    outer loop
      vertex -2.48 -9.7 20
      vertex -0.749525 -3.92915 20
      vertex -0.994759 -3.87433 20
    endloop
  endfacet
  facet normal 0 0 1
    outer loop
      vertex -2.48 -9.7 20
      vertex -0.994759 -3.87433 20
      vertex -1.23607 -3.80423 20
    endloop
  endfacet
  facet normal 0 0 1
    outer loop
      vertex -2.48 -9.7 20
      vertex -1.23607 -3.80423 20
      vertex -1.4725 -3.71911 20
    endloop
  endfacet
  facet normal 0 0 1
    outer loop
      vertex -2.48 -9.7 20
      vertex -1.4725 -3.71911 20
      vertex -1.70312 -3.61931 20
    endloop
  endfacet
  facet normal 0 0 1
    outer loop
      vertex -2.48 -9.7 20
      vertex -1.70312 -3.61931 20
      vertex -1.92701 -3.50523 20
    endloop
  endfacet
  facet normal 0 0 1
    outer loop
      vertex -2.48 -9.7 20
      vertex -1.92701 -3.50523 20
      vertex -2.14331 -3.37731 20
    endloop
  endfacet
  facet normal 0 0 1
    outer loop
      vertex -2.48 -9.7 20
      vertex -2.14331 -3.37731 20
      vertex -2.35114 -3.23607 20
    endloop
  endfacet
  facet normal 0 0 1
    outer loop
      vertex -2.48 -9.7 20
      vertex -2.35114 -3.23607 20
      vertex -2.48 -3.13611 20
    endloop
  endfacet
  facet normal 0 0 1
    outer loop
      vertex 0 -4 20
      vertex -2.48 -9.7 20
      vertex 2.48 -9.7 20
    endloop
  endfacet
  facet normal 1 -0 0
    outer loop
      vertex 9.7 -2.48 20
      vertex 9.7 2.48 0
      vertex 9.7 2.48 20
    endloop
  endfacet
  facet normal 1 0 0
    outer loop
      vertex 9.7 2.48 0
      vertex 9.7 -2.48 20
      vertex 9.7 -2.48 0
    endloop
  endfacet
  facet normal 0 -1 0
    outer loop
      vertex 3.13611 -2.48 0
      vertex 9.7 -2.48 20
      vertex 3.13611 -2.48 20
    endloop
  endfacet
  facet normal 0 -1 -0
    outer loop
      vertex 9.7 -2.48 20
      vertex 3.13611 -2.48 0
      vertex 9.7 -2.48 0
    endloop
  endfacet
  facet normal 0 -1 0
    outer loop
      vertex -9.7 -2.48 0
      vertex -3.13611 -2.48 20
      vertex -9.7 -2.48 20
    endloop
  endfacet
  facet normal 0 -1 -0
    outer loop
      vertex -3.13611 -2.48 20
      vertex -9.7 -2.48 0
      vertex -3.13611 -2.48 0
    endloop
  endfacet
  facet normal 0 1 -0
    outer loop
      vertex 9.7 2.48 0
      vertex 3.13611 2.48 20
      vertex 9.7 2.48 20
    endloop
  endfacet
  facet normal 0 1 0
    outer loop
      vertex 3.13611 2.48 20
      vertex 9.7 2.48 0
      vertex 3.13611 2.48 0
    endloop
  endfacet
  facet normal 0 1 -0
    outer loop
      vertex -3.13611 2.48 0
      vertex -9.7 2.48 20
      vertex -3.13611 2.48 20
    endloop
  endfacet
  facet normal 0 1 0
    outer loop
      vertex -9.7 2.48 20
      vertex -3.13611 2.48 0
      vertex -9.7 2.48 0
    endloop
  endfacet
  facet normal 0 1 -0
    outer loop
      vertex 2.48 9.7 0
      vertex -2.48 9.7 20
      vertex 2.48 9.7 20
    endloop
  endfacet
  facet normal 0 1 0
    outer loop
      vertex -2.48 9.7 20
      vertex 2.48 9.7 0
      vertex -2.48 9.7 0
    endloop
  endfacet
  facet normal 0 -1 0
    outer loop
      vertex -2.48 -9.7 0
      vertex 2.48 -9.7 20
      vertex -2.48 -9.7 20
    endloop
  endfacet
  facet normal 0 -1 -0
    outer loop
      vertex 2.48 -9.7 20
      vertex -2.48 -9.7 0
      vertex 2.48 -9.7 0
    endloop
  endfacet
  facet normal 1 -0 0
    outer loop
      vertex 2.48 3.13611 20
      vertex 2.48 9.7 0
      vertex 2.48 9.7 20
    endloop
  endfacet
  facet normal 1 0 0
    outer loop
      vertex 2.48 9.7 0
      vertex 2.48 3.13611 20
      vertex 2.48 3.13611 0
    endloop
  endfacet
  facet normal 1 -0 0
    outer loop
      vertex 2.48 -9.7 20
      vertex 2.48 -3.13611 0
      vertex 2.48 -3.13611 20
    endloop
  endfacet
  facet normal 1 0 0
    outer loop
      vertex 2.48 -3.13611 0
      vertex 2.48 -9.7 20
      vertex 2.48 -9.7 0
    endloop
  endfacet
  facet normal -1 0 0
    outer loop
      vertex -2.48 3.13611 0
      vertex -2.48 9.7 20
      vertex -2.48 9.7 0
    endloop
  endfacet
  facet normal -1 -0 0
    outer loop
      vertex -2.48 9.7 20
      vertex -2.48 3.13611 0
      vertex -2.48 3.13611 20
    endloop
  endfacet
  facet normal -1 0 0
    outer loop
      vertex -2.48 -9.7 0
      vertex -2.48 -3.13611 20
      vertex -2.48 -3.13611 0
    endloop
  endfacet
  facet normal -1 -0 0
    outer loop
      vertex -2.48 -3.13611 20
      vertex -2.48 -9.7 0
      vertex -2.48 -9.7 20
    endloop
  endfacet
endsolid OpenSCAD_Model
