solid OpenSCAD_Model
  facet normal 0.999506 0.0314224 0
    outer loop
      vertex 5 0 23.75
      vertex 4.99013 0.313952 20
      vertex 4.99013 0.313952 23.75
    endloop
  endfacet
  facet normal 0.999506 0.0314224 0
    outer loop
      vertex 4.99013 0.313952 20
      vertex 5 0 23.75
      vertex 5 0 20
    endloop
  endfacet
  facet normal -0.999506 0.0314224 0
    outer loop
      vertex -5 0 20
      vertex -4.99013 0.313952 23.75
      vertex -4.99013 0.313952 20
    endloop
  endfacet
  facet normal -0.999506 0.0314224 0
    outer loop
      vertex -4.99013 0.313952 23.75
      vertex -5 0 20
      vertex -5 0 23.75
    endloop
  endfacet
  facet normal 0.0314224 0.999506 -0
    outer loop
      vertex 0.313952 4.99013 20
      vertex 0 5 23.75
      vertex 0.313952 4.99013 23.75
    endloop
  endfacet
  facet normal 0.0314224 0.999506 0
    outer loop
      vertex 0 5 23.75
      vertex 0.313952 4.99013 20
      vertex 0 5 20
    endloop
  endfacet
  facet normal 0.707107 0.707107 0
    outer loop
      vertex 3.64484 3.42274 23.75
      vertex 3.42274 3.64484 0
      vertex 3.42274 3.64484 23.75
    endloop
  endfacet
  facet normal 0.707107 0.707107 0
    outer loop
      vertex 3.42274 3.64484 0
      vertex 3.64484 3.42274 23.75
      vertex 3.64484 3.42274 0
    endloop
  endfacet
  facet normal -0.661317 0.750106 0
    outer loop
      vertex -3.18712 3.85257 0
      vertex -3.42274 3.64484 23.75
      vertex -3.18712 3.85257 23.75
    endloop
  endfacet
  facet normal -0.661317 0.750106 0
    outer loop
      vertex -3.42274 3.64484 23.75
      vertex -3.18712 3.85257 0
      vertex -3.42274 3.64484 0
    endloop
  endfacet
  facet normal -0.338735 0.940882 0
    outer loop
      vertex -1.54508 4.75528 20
      vertex -1.84062 4.64888 23.75
      vertex -1.54508 4.75528 23.75
    endloop
  endfacet
  facet normal -0.338735 0.940882 0
    outer loop
      vertex -1.84062 4.64888 23.75
      vertex -1.54508 4.75528 20
      vertex -1.84062 4.64888 20
    endloop
  endfacet
  facet normal 0.917755 0.397148 0
    outer loop
      vertex 4.64888 1.84062 23.75
      vertex 4.52413 2.1289 20
      vertex 4.52413 2.1289 23.75
    endloop
  endfacet
  facet normal 0.917755 0.397148 0
    outer loop
      vertex 4.52413 2.1289 20
      vertex 4.64888 1.84062 23.75
      vertex 4.64888 1.84062 20
    endloop
  endfacet
  facet normal 0.397148 0.917755 -0
    outer loop
      vertex 2.1289 4.52413 20
      vertex 1.84062 4.64888 23.75
      vertex 2.1289 4.52413 23.75
    endloop
  endfacet
  facet normal 0.397148 0.917755 0
    outer loop
      vertex 1.84062 4.64888 23.75
      vertex 2.1289 4.52413 20
      vertex 1.84062 4.64888 20
    endloop
  endfacet
  facet normal 0.562084 0.82708 -0
    outer loop
      vertex 2.93893 4.04508 0
      vertex 2.67913 4.22164 23.75
      vertex 2.93893 4.04508 23.75
    endloop
  endfacet
  facet normal 0.562084 0.82708 0
    outer loop
      vertex 2.67913 4.22164 23.75
      vertex 2.93893 4.04508 0
      vertex 2.67913 4.22164 0
    endloop
  endfacet
  facet normal -0.917755 0.397148 0
    outer loop
      vertex -4.64888 1.84062 20
      vertex -4.52413 2.1289 23.75
      vertex -4.52413 2.1289 20
    endloop
  endfacet
  facet normal -0.917755 0.397148 0
    outer loop
      vertex -4.52413 2.1289 23.75
      vertex -4.64888 1.84062 20
      vertex -4.64888 1.84062 23.75
    endloop
  endfacet
  facet normal -0.156412 0.987692 0
    outer loop
      vertex -0.626666 4.96057 20
      vertex -0.936906 4.91144 23.75
      vertex -0.626666 4.96057 23.75
    endloop
  endfacet
  facet normal -0.156412 0.987692 0
    outer loop
      vertex -0.936906 4.91144 23.75
      vertex -0.626666 4.96057 20
      vertex -0.936906 4.91144 20
    endloop
  endfacet
  facet normal 0.975917 0.218141 0
    outer loop
      vertex 4.91144 0.936906 23.75
      vertex 4.84292 1.24345 20
      vertex 4.84292 1.24345 23.75
    endloop
  endfacet
  facet normal 0.975917 0.218141 0
    outer loop
      vertex 4.84292 1.24345 20
      vertex 4.91144 0.936906 23.75
      vertex 4.91144 0.936906 20
    endloop
  endfacet
  facet normal 0.960287 0.279016 0
    outer loop
      vertex 4.84292 1.24345 23.75
      vertex 4.75528 1.54508 20
      vertex 4.75528 1.54508 23.75
    endloop
  endfacet
  facet normal 0.960287 0.279016 0
    outer loop
      vertex 4.75528 1.54508 20
      vertex 4.84292 1.24345 23.75
      vertex 4.84292 1.24345 20
    endloop
  endfacet
  facet normal 0.82708 0.562084 0
    outer loop
      vertex 4.22164 2.67913 23.75
      vertex 4.04508 2.93893 0
      vertex 4.04508 2.93893 23.75
    endloop
  endfacet
  facet normal 0.82708 0.562084 0
    outer loop
      vertex 4.04508 2.93893 0
      vertex 4.22164 2.67913 23.75
      vertex 4.22164 2.67913 0
    endloop
  endfacet
  facet normal 0.891008 0.453988 0
    outer loop
      vertex 4.52413 2.1289 23.75
      vertex 4.38153 2.40877 20
      vertex 4.38153 2.40877 23.75
    endloop
  endfacet
  facet normal 0.891008 0.453988 0
    outer loop
      vertex 4.38153 2.40877 20
      vertex 4.52413 2.1289 23.75
      vertex 4.52413 2.1289 20
    endloop
  endfacet
  facet normal 0.218141 0.975917 -0
    outer loop
      vertex 1.24345 4.84292 20
      vertex 0.936906 4.91144 23.75
      vertex 1.24345 4.84292 23.75
    endloop
  endfacet
  facet normal 0.218141 0.975917 0
    outer loop
      vertex 0.936906 4.91144 23.75
      vertex 1.24345 4.84292 20
      vertex 0.936906 4.91144 20
    endloop
  endfacet
  facet normal 0.338735 0.940882 -0
    outer loop
      vertex 1.84062 4.64888 20
      vertex 1.54508 4.75528 23.75
      vertex 1.84062 4.64888 23.75
    endloop
  endfacet
  facet normal 0.338735 0.940882 0
    outer loop
      vertex 1.54508 4.75528 23.75
      vertex 1.84062 4.64888 20
      vertex 1.54508 4.75528 20
    endloop
  endfacet
  facet normal 0.156412 0.987692 -0
    outer loop
      vertex 0.936906 4.91144 20
      vertex 0.626666 4.96057 23.75
      vertex 0.936906 4.91144 23.75
    endloop
  endfacet
  facet normal 0.156412 0.987692 0
    outer loop
      vertex 0.626666 4.96057 23.75
      vertex 0.936906 4.91144 20
      vertex 0.626666 4.96057 20
    endloop
  endfacet
  facet normal 0.50904 0.860743 1.18985e-06
    outer loop
      vertex 2.67913 4.22164 23.75
      vertex 2.48 4.33941 20
      vertex 2.40877 4.38153 23.75
    endloop
  endfacet
  facet normal 0.509057 0.860733 -0
    outer loop
      vertex 2.67913 4.22164 0
      vertex 2.48 4.33941 20
      vertex 2.67913 4.22164 23.75
    endloop
  endfacet
  facet normal 0.509057 0.860733 0
    outer loop
      vertex 2.48 4.33941 20
      vertex 2.67913 4.22164 0
      vertex 2.48 4.33941 0
    endloop
  endfacet
  facet normal 0.508994 0.86077 0
    outer loop
      vertex 2.40877 4.38153 23.75
      vertex 2.48 4.33941 20
      vertex 2.40877 4.38153 20
    endloop
  endfacet
  facet normal 0.612895 0.790164 -0
    outer loop
      vertex 3.18712 3.85257 0
      vertex 2.93893 4.04508 23.75
      vertex 3.18712 3.85257 23.75
    endloop
  endfacet
  facet normal 0.612895 0.790164 0
    outer loop
      vertex 2.93893 4.04508 23.75
      vertex 3.18712 3.85257 0
      vertex 2.93893 4.04508 0
    endloop
  endfacet
  facet normal -0.975917 0.218141 0
    outer loop
      vertex -4.91144 0.936906 20
      vertex -4.84292 1.24345 23.75
      vertex -4.84292 1.24345 20
    endloop
  endfacet
  facet normal -0.975917 0.218141 0
    outer loop
      vertex -4.84292 1.24345 23.75
      vertex -4.91144 0.936906 20
      vertex -4.91144 0.936906 23.75
    endloop
  endfacet
  facet normal -0.790164 0.612895 0
    outer loop
      vertex -4.04508 2.93893 0
      vertex -3.85257 3.18712 23.75
      vertex -3.85257 3.18712 0
    endloop
  endfacet
  facet normal -0.790164 0.612895 0
    outer loop
      vertex -3.85257 3.18712 23.75
      vertex -4.04508 2.93893 0
      vertex -4.04508 2.93893 23.75
    endloop
  endfacet
  facet normal -0.707107 0.707107 0
    outer loop
      vertex -3.64484 3.42274 0
      vertex -3.42274 3.64484 23.75
      vertex -3.42274 3.64484 0
    endloop
  endfacet
  facet normal -0.707107 0.707107 0
    outer loop
      vertex -3.42274 3.64484 23.75
      vertex -3.64484 3.42274 0
      vertex -3.64484 3.42274 23.75
    endloop
  endfacet
  facet normal -0.940882 0.338735 0
    outer loop
      vertex -4.75528 1.54508 20
      vertex -4.64888 1.84062 23.75
      vertex -4.64888 1.84062 20
    endloop
  endfacet
  facet normal -0.940882 0.338735 0
    outer loop
      vertex -4.64888 1.84062 23.75
      vertex -4.75528 1.54508 20
      vertex -4.75528 1.54508 23.75
    endloop
  endfacet
  facet normal -0.987692 0.156412 0
    outer loop
      vertex -4.96057 0.626666 20
      vertex -4.91144 0.936906 23.75
      vertex -4.91144 0.936906 20
    endloop
  endfacet
  facet normal -0.987692 0.156412 0
    outer loop
      vertex -4.91144 0.936906 23.75
      vertex -4.96057 0.626666 20
      vertex -4.96057 0.626666 23.75
    endloop
  endfacet
  facet normal -0.508994 0.86077 0
    outer loop
      vertex -2.48 4.33941 20
      vertex -2.40877 4.38153 23.75
      vertex -2.40877 4.38153 20
    endloop
  endfacet
  facet normal -0.50904 0.860743 1.18985e-06
    outer loop
      vertex -2.40877 4.38153 23.75
      vertex -2.48 4.33941 20
      vertex -2.67913 4.22164 23.75
    endloop
  endfacet
  facet normal -0.509057 0.860733 0
    outer loop
      vertex -2.67913 4.22164 0
      vertex -2.48 4.33941 20
      vertex -2.48 4.33941 0
    endloop
  endfacet
  facet normal -0.509057 0.860733 0
    outer loop
      vertex -2.48 4.33941 20
      vertex -2.67913 4.22164 0
      vertex -2.67913 4.22164 23.75
    endloop
  endfacet
  facet normal -0.562084 0.82708 0
    outer loop
      vertex -2.67913 4.22164 0
      vertex -2.93893 4.04508 23.75
      vertex -2.67913 4.22164 23.75
    endloop
  endfacet
  facet normal -0.562084 0.82708 0
    outer loop
      vertex -2.93893 4.04508 23.75
      vertex -2.67913 4.22164 0
      vertex -2.93893 4.04508 0
    endloop
  endfacet
  facet normal -0.0941078 0.995562 0
    outer loop
      vertex -0.313952 4.99013 20
      vertex -0.626666 4.96057 23.75
      vertex -0.313952 4.99013 23.75
    endloop
  endfacet
  facet normal -0.0941078 0.995562 0
    outer loop
      vertex -0.626666 4.96057 23.75
      vertex -0.313952 4.99013 20
      vertex -0.626666 4.96057 20
    endloop
  endfacet
  facet normal 0.891008 -0.453988 0
    outer loop
      vertex 4.38153 -2.40877 23.75
      vertex 4.52413 -2.1289 20
      vertex 4.52413 -2.1289 23.75
    endloop
  endfacet
  facet normal 0.891008 -0.453988 0
    outer loop
      vertex 4.52413 -2.1289 20
      vertex 4.38153 -2.40877 23.75
      vertex 4.38153 -2.40877 20
    endloop
  endfacet
  facet normal -0.661317 -0.750106 0
    outer loop
      vertex -3.42274 -3.64484 0
      vertex -3.18712 -3.85257 23.75
      vertex -3.42274 -3.64484 23.75
    endloop
  endfacet
  facet normal -0.661317 -0.750106 -0
    outer loop
      vertex -3.18712 -3.85257 23.75
      vertex -3.42274 -3.64484 0
      vertex -3.18712 -3.85257 0
    endloop
  endfacet
  facet normal -0.707107 -0.707107 0
    outer loop
      vertex -3.42274 -3.64484 0
      vertex -3.64484 -3.42274 23.75
      vertex -3.64484 -3.42274 0
    endloop
  endfacet
  facet normal -0.707107 -0.707107 0
    outer loop
      vertex -3.64484 -3.42274 23.75
      vertex -3.42274 -3.64484 0
      vertex -3.42274 -3.64484 23.75
    endloop
  endfacet
  facet normal -0.397148 -0.917755 0
    outer loop
      vertex -2.1289 -4.52413 20
      vertex -1.84062 -4.64888 23.75
      vertex -2.1289 -4.52413 23.75
    endloop
  endfacet
  facet normal -0.397148 -0.917755 -0
    outer loop
      vertex -1.84062 -4.64888 23.75
      vertex -2.1289 -4.52413 20
      vertex -1.84062 -4.64888 20
    endloop
  endfacet
  facet normal -0.338735 -0.940882 0
    outer loop
      vertex -1.84062 -4.64888 20
      vertex -1.54508 -4.75528 23.75
      vertex -1.84062 -4.64888 23.75
    endloop
  endfacet
  facet normal -0.338735 -0.940882 -0
    outer loop
      vertex -1.54508 -4.75528 23.75
      vertex -1.84062 -4.64888 20
      vertex -1.54508 -4.75528 20
    endloop
  endfacet
  facet normal -0.156412 -0.987692 0
    outer loop
      vertex -0.936906 -4.91144 20
      vertex -0.626666 -4.96057 23.75
      vertex -0.936906 -4.91144 23.75
    endloop
  endfacet
  facet normal -0.156412 -0.987692 -0
    outer loop
      vertex -0.626666 -4.96057 23.75
      vertex -0.936906 -4.91144 20
      vertex -0.626666 -4.96057 20
    endloop
  endfacet
  facet normal -0.82708 -0.562084 0
    outer loop
      vertex -4.04508 -2.93893 0
      vertex -4.22164 -2.67913 23.75
      vertex -4.22164 -2.67913 0
    endloop
  endfacet
  facet normal -0.82708 -0.562084 0
    outer loop
      vertex -4.22164 -2.67913 23.75
      vertex -4.04508 -2.93893 0
      vertex -4.04508 -2.93893 23.75
    endloop
  endfacet
  facet normal -0.940882 -0.338735 0
    outer loop
      vertex -4.64888 -1.84062 20
      vertex -4.75528 -1.54508 23.75
      vertex -4.75528 -1.54508 20
    endloop
  endfacet
  facet normal -0.940882 -0.338735 0
    outer loop
      vertex -4.75528 -1.54508 23.75
      vertex -4.64888 -1.84062 20
      vertex -4.64888 -1.84062 23.75
    endloop
  endfacet
  facet normal 0 0 -1
    outer loop
      vertex -2.67913 -4.22164 0
      vertex -2.48 4.33941 0
      vertex -2.48 -4.33941 0
    endloop
  endfacet
  facet normal 0 0 -1
    outer loop
      vertex -2.67913 -4.22164 0
      vertex -2.67913 4.22164 0
      vertex -2.48 4.33941 0
    endloop
  endfacet
  facet normal 0 0 -1
    outer loop
      vertex -2.93893 -4.04508 0
      vertex -2.67913 4.22164 0
      vertex -2.67913 -4.22164 0
    endloop
  endfacet
  facet normal 0 0 -1
    outer loop
      vertex -2.93893 -4.04508 0
      vertex -2.93893 4.04508 0
      vertex -2.67913 4.22164 0
    endloop
  endfacet
  facet normal 0 0 -1
    outer loop
      vertex -3.18712 -3.85257 0
      vertex -2.93893 4.04508 0
      vertex -2.93893 -4.04508 0
    endloop
  endfacet
  facet normal 0 0 -1
    outer loop
      vertex -3.18712 -3.85257 0
      vertex -3.18712 3.85257 0
      vertex -2.93893 4.04508 0
    endloop
  endfacet
  facet normal 0 0 -1
    outer loop
      vertex -3.42274 -3.64484 0
      vertex -3.18712 3.85257 0
      vertex -3.18712 -3.85257 0
    endloop
  endfacet
  facet normal 0 0 -1
    outer loop
      vertex -3.42274 -3.64484 0
      vertex -3.42274 3.64484 0
      vertex -3.18712 3.85257 0
    endloop
  endfacet
  facet normal 0 0 -1
    outer loop
      vertex -3.64484 -3.42274 0
      vertex -3.42274 3.64484 0
      vertex -3.42274 -3.64484 0
    endloop
  endfacet
  facet normal 0 0 -1
    outer loop
      vertex -3.64484 -3.42274 0
      vertex -3.64484 3.42274 0
      vertex -3.42274 3.64484 0
    endloop
  endfacet
  facet normal 0 0 -1
    outer loop
      vertex -3.85257 -3.18712 0
      vertex -3.64484 3.42274 0
      vertex -3.64484 -3.42274 0
    endloop
  endfacet
  facet normal 0 0 -1
    outer loop
      vertex -3.85257 -3.18712 0
      vertex -3.85257 3.18712 0
      vertex -3.64484 3.42274 0
    endloop
  endfacet
  facet normal 0 0 -1
    outer loop
      vertex -4.04508 -2.93893 0
      vertex -3.85257 3.18712 0
      vertex -3.85257 -3.18712 0
    endloop
  endfacet
  facet normal 0 0 -1
    outer loop
      vertex -4.04508 -2.93893 0
      vertex -4.04508 2.93893 0
      vertex -3.85257 3.18712 0
    endloop
  endfacet
  facet normal 0 0 -1
    outer loop
      vertex -4.22164 -2.67913 0
      vertex -4.04508 2.93893 0
      vertex -4.04508 -2.93893 0
    endloop
  endfacet
  facet normal 0 0 -1
    outer loop
      vertex -4.22164 -2.67913 0
      vertex -4.22164 2.67913 0
      vertex -4.04508 2.93893 0
    endloop
  endfacet
  facet normal 0 0 -1
    outer loop
      vertex -4.33941 -2.48 0
      vertex -4.22164 2.67913 0
      vertex -4.22164 -2.67913 0
    endloop
  endfacet
  facet normal 0 0 -1
    outer loop
      vertex -4.33941 -2.48 0
      vertex -4.33941 2.48 0
      vertex -4.22164 2.67913 0
    endloop
  endfacet
  facet normal 0 0 -1
    outer loop
      vertex -9.7 -2.48 0
      vertex -4.33941 2.48 0
      vertex -4.33941 -2.48 0
    endloop
  endfacet
  facet normal -0 0 -1
    outer loop
      vertex -4.33941 2.48 0
      vertex -9.7 -2.48 0
      vertex -9.7 2.48 0
    endloop
  endfacet
  facet normal 0 0 -1
    outer loop
      vertex -2.48 -4.33941 0
      vertex 2.48 -4.33941 0
      vertex 2.48 -9.7 0
    endloop
  endfacet
  facet normal 0 0 -1
    outer loop
      vertex 2.48 -4.33941 0
      vertex -2.48 -4.33941 0
      vertex 2.48 4.33941 0
    endloop
  endfacet
  facet normal 0 0 -1
    outer loop
      vertex -2.48 -4.33941 0
      vertex 2.48 -9.7 0
      vertex -2.48 -9.7 0
    endloop
  endfacet
  facet normal 0 0 -1
    outer loop
      vertex -2.48 4.33941 0
      vertex 2.48 4.33941 0
      vertex -2.48 -4.33941 0
    endloop
  endfacet
  facet normal 0 0 -1
    outer loop
      vertex 2.48 4.33941 0
      vertex -2.48 4.33941 0
      vertex 2.48 9.7 0
    endloop
  endfacet
  facet normal -0 0 -1
    outer loop
      vertex 2.48 9.7 0
      vertex -2.48 4.33941 0
      vertex -2.48 9.7 0
    endloop
  endfacet
  facet normal 0 0 -1
    outer loop
      vertex 4.33941 -2.48 0
      vertex 9.7 2.48 0
      vertex 9.7 -2.48 0
    endloop
  endfacet
  facet normal 0 0 -1
    outer loop
      vertex 4.33941 -2.48 0
      vertex 4.33941 2.48 0
      vertex 9.7 2.48 0
    endloop
  endfacet
  facet normal 0 0 -1
    outer loop
      vertex 4.22164 -2.67913 0
      vertex 4.33941 2.48 0
      vertex 4.33941 -2.48 0
    endloop
  endfacet
  facet normal 0 0 -1
    outer loop
      vertex 4.22164 -2.67913 0
      vertex 4.22164 2.67913 0
      vertex 4.33941 2.48 0
    endloop
  endfacet
  facet normal 0 0 -1
    outer loop
      vertex 4.04508 -2.93893 0
      vertex 4.22164 2.67913 0
      vertex 4.22164 -2.67913 0
    endloop
  endfacet
  facet normal 0 0 -1
    outer loop
      vertex 4.04508 -2.93893 0
      vertex 4.04508 2.93893 0
      vertex 4.22164 2.67913 0
    endloop
  endfacet
  facet normal 0 0 -1
    outer loop
      vertex 3.85257 -3.18712 0
      vertex 4.04508 2.93893 0
      vertex 4.04508 -2.93893 0
    endloop
  endfacet
  facet normal 0 0 -1
    outer loop
      vertex 3.85257 -3.18712 0
      vertex 3.85257 3.18712 0
      vertex 4.04508 2.93893 0
    endloop
  endfacet
  facet normal 0 0 -1
    outer loop
      vertex 3.64484 -3.42274 0
      vertex 3.85257 3.18712 0
      vertex 3.85257 -3.18712 0
    endloop
  endfacet
  facet normal 0 0 -1
    outer loop
      vertex 3.64484 -3.42274 0
      vertex 3.64484 3.42274 0
      vertex 3.85257 3.18712 0
    endloop
  endfacet
  facet normal 0 0 -1
    outer loop
      vertex 3.42274 -3.64484 0
      vertex 3.64484 3.42274 0
      vertex 3.64484 -3.42274 0
    endloop
  endfacet
  facet normal 0 0 -1
    outer loop
      vertex 3.42274 -3.64484 0
      vertex 3.42274 3.64484 0
      vertex 3.64484 3.42274 0
    endloop
  endfacet
  facet normal 0 0 -1
    outer loop
      vertex 3.18712 -3.85257 0
      vertex 3.42274 3.64484 0
      vertex 3.42274 -3.64484 0
    endloop
  endfacet
  facet normal 0 0 -1
    outer loop
      vertex 3.18712 -3.85257 0
      vertex 3.18712 3.85257 0
      vertex 3.42274 3.64484 0
    endloop
  endfacet
  facet normal 0 0 -1
    outer loop
      vertex 2.93893 -4.04508 0
      vertex 3.18712 3.85257 0
      vertex 3.18712 -3.85257 0
    endloop
  endfacet
  facet normal 0 0 -1
    outer loop
      vertex 2.93893 -4.04508 0
      vertex 2.93893 4.04508 0
      vertex 3.18712 3.85257 0
    endloop
  endfacet
  facet normal 0 0 -1
    outer loop
      vertex 2.67913 -4.22164 0
      vertex 2.93893 4.04508 0
      vertex 2.93893 -4.04508 0
    endloop
  endfacet
  facet normal 0 0 -1
    outer loop
      vertex 2.67913 -4.22164 0
      vertex 2.67913 4.22164 0
      vertex 2.93893 4.04508 0
    endloop
  endfacet
  facet normal 0 0 -1
    outer loop
      vertex 2.48 -4.33941 0
      vertex 2.67913 4.22164 0
      vertex 2.67913 -4.22164 0
    endloop
  endfacet
  facet normal -0 0 -1
    outer loop
      vertex 2.67913 4.22164 0
      vertex 2.48 -4.33941 0
      vertex 2.48 4.33941 0
    endloop
  endfacet
  facet normal 0.987692 0.156412 0
    outer loop
      vertex 4.96057 0.626666 23.75
      vertex 4.91144 0.936906 20
      vertex 4.91144 0.936906 23.75
    endloop
  endfacet
  facet normal 0.987692 0.156412 0
    outer loop
      vertex 4.91144 0.936906 20
      vertex 4.96057 0.626666 23.75
      vertex 4.96057 0.626666 20
    endloop
  endfacet
  facet normal 0.995562 0.0941078 0
    outer loop
      vertex 4.99013 0.313952 23.75
      vertex 4.96057 0.626666 20
      vertex 4.96057 0.626666 23.75
    endloop
  endfacet
  facet normal 0.995562 0.0941078 0
    outer loop
      vertex 4.96057 0.626666 20
      vertex 4.99013 0.313952 23.75
      vertex 4.99013 0.313952 20
    endloop
  endfacet
  facet normal 0.940882 0.338735 0
    outer loop
      vertex 4.75528 1.54508 23.75
      vertex 4.64888 1.84062 20
      vertex 4.64888 1.84062 23.75
    endloop
  endfacet
  facet normal 0.940882 0.338735 0
    outer loop
      vertex 4.64888 1.84062 20
      vertex 4.75528 1.54508 23.75
      vertex 4.75528 1.54508 20
    endloop
  endfacet
  facet normal 0.790164 0.612895 0
    outer loop
      vertex 4.04508 2.93893 23.75
      vertex 3.85257 3.18712 0
      vertex 3.85257 3.18712 23.75
    endloop
  endfacet
  facet normal 0.790164 0.612895 0
    outer loop
      vertex 3.85257 3.18712 0
      vertex 4.04508 2.93893 23.75
      vertex 4.04508 2.93893 0
    endloop
  endfacet
  facet normal 0.750106 0.661317 0
    outer loop
      vertex 3.85257 3.18712 23.75
      vertex 3.64484 3.42274 0
      vertex 3.64484 3.42274 23.75
    endloop
  endfacet
  facet normal 0.750106 0.661317 0
    outer loop
      vertex 3.64484 3.42274 0
      vertex 3.85257 3.18712 23.75
      vertex 3.85257 3.18712 0
    endloop
  endfacet
  facet normal 0.279016 0.960287 -0
    outer loop
      vertex 1.54508 4.75528 20
      vertex 1.24345 4.84292 23.75
      vertex 1.54508 4.75528 23.75
    endloop
  endfacet
  facet normal 0.279016 0.960287 0
    outer loop
      vertex 1.24345 4.84292 23.75
      vertex 1.54508 4.75528 20
      vertex 1.24345 4.84292 20
    endloop
  endfacet
  facet normal 0.0941078 0.995562 -0
    outer loop
      vertex 0.626666 4.96057 20
      vertex 0.313952 4.99013 23.75
      vertex 0.626666 4.96057 23.75
    endloop
  endfacet
  facet normal 0.0941078 0.995562 0
    outer loop
      vertex 0.313952 4.99013 23.75
      vertex 0.626666 4.96057 20
      vertex 0.313952 4.99013 20
    endloop
  endfacet
  facet normal 0.453988 0.891008 -0
    outer loop
      vertex 2.40877 4.38153 20
      vertex 2.1289 4.52413 23.75
      vertex 2.40877 4.38153 23.75
    endloop
  endfacet
  facet normal 0.453988 0.891008 0
    outer loop
      vertex 2.1289 4.52413 23.75
      vertex 2.40877 4.38153 20
      vertex 2.1289 4.52413 20
    endloop
  endfacet
  facet normal 0.661317 0.750106 -0
    outer loop
      vertex 3.42274 3.64484 0
      vertex 3.18712 3.85257 23.75
      vertex 3.42274 3.64484 23.75
    endloop
  endfacet
  facet normal 0.661317 0.750106 0
    outer loop
      vertex 3.18712 3.85257 23.75
      vertex 3.42274 3.64484 0
      vertex 3.18712 3.85257 0
    endloop
  endfacet
  facet normal -0.750106 0.661317 0
    outer loop
      vertex -3.85257 3.18712 0
      vertex -3.64484 3.42274 23.75
      vertex -3.64484 3.42274 0
    endloop
  endfacet
  facet normal -0.750106 0.661317 0
    outer loop
      vertex -3.64484 3.42274 23.75
      vertex -3.85257 3.18712 0
      vertex -3.85257 3.18712 23.75
    endloop
  endfacet
  facet normal -0.860733 0.509057 0
    outer loop
      vertex -4.33941 2.48 20
      vertex -4.22164 2.67913 0
      vertex -4.33941 2.48 0
    endloop
  endfacet
  facet normal -0.860733 0.509057 0
    outer loop
      vertex -4.22164 2.67913 0
      vertex -4.33941 2.48 20
      vertex -4.22164 2.67913 23.75
    endloop
  endfacet
  facet normal -0.86077 0.508994 0
    outer loop
      vertex -4.38153 2.40877 23.75
      vertex -4.33941 2.48 20
      vertex -4.38153 2.40877 20
    endloop
  endfacet
  facet normal -0.860743 0.50904 1.18985e-06
    outer loop
      vertex -4.33941 2.48 20
      vertex -4.38153 2.40877 23.75
      vertex -4.22164 2.67913 23.75
    endloop
  endfacet
  facet normal -0.891008 0.453988 0
    outer loop
      vertex -4.52413 2.1289 20
      vertex -4.38153 2.40877 23.75
      vertex -4.38153 2.40877 20
    endloop
  endfacet
  facet normal -0.891008 0.453988 0
    outer loop
      vertex -4.38153 2.40877 23.75
      vertex -4.52413 2.1289 20
      vertex -4.52413 2.1289 23.75
    endloop
  endfacet
  facet normal -0.82708 0.562084 0
    outer loop
      vertex -4.22164 2.67913 0
      vertex -4.04508 2.93893 23.75
      vertex -4.04508 2.93893 0
    endloop
  endfacet
  facet normal -0.82708 0.562084 0
    outer loop
      vertex -4.04508 2.93893 23.75
      vertex -4.22164 2.67913 0
      vertex -4.22164 2.67913 23.75
    endloop
  endfacet
  facet normal -0.960287 0.279016 0
    outer loop
      vertex -4.84292 1.24345 20
      vertex -4.75528 1.54508 23.75
      vertex -4.75528 1.54508 20
    endloop
  endfacet
  facet normal -0.960287 0.279016 0
    outer loop
      vertex -4.75528 1.54508 23.75
      vertex -4.84292 1.24345 20
      vertex -4.84292 1.24345 23.75
    endloop
  endfacet
  facet normal -0.995562 0.0941078 0
    outer loop
      vertex -4.99013 0.313952 20
      vertex -4.96057 0.626666 23.75
      vertex -4.96057 0.626666 20
    endloop
  endfacet
  facet normal -0.995562 0.0941078 0
    outer loop
      vertex -4.96057 0.626666 23.75
      vertex -4.99013 0.313952 20
      vertex -4.99013 0.313952 23.75
    endloop
  endfacet
  facet normal 0 0 1
    outer loop
      vertex 4.99013 0.313952 23.75
      vertex 4.99013 -0.313952 23.75
      vertex 5 0 23.75
    endloop
  endfacet
  facet normal 0 0 1
    outer loop
      vertex 4.96057 0.626666 23.75
      vertex 4.99013 -0.313952 23.75
      vertex 4.99013 0.313952 23.75
    endloop
  endfacet
  facet normal 0 0 1
    outer loop
      vertex 4.96057 0.626666 23.75
      vertex 4.96057 -0.626666 23.75
      vertex 4.99013 -0.313952 23.75
    endloop
  endfacet
  facet normal 0 0 1
    outer loop
      vertex 4.91144 0.936906 23.75
      vertex 4.96057 -0.626666 23.75
      vertex 4.96057 0.626666 23.75
    endloop
  endfacet
  facet normal 0 0 1
    outer loop
      vertex 4.91144 0.936906 23.75
      vertex 4.91144 -0.936906 23.75
      vertex 4.96057 -0.626666 23.75
    endloop
  endfacet
  facet normal 0 0 1
    outer loop
      vertex 4.84292 1.24345 23.75
      vertex 4.91144 -0.936906 23.75
      vertex 4.91144 0.936906 23.75
    endloop
  endfacet
  facet normal 0 0 1
    outer loop
      vertex 4.84292 1.24345 23.75
      vertex 4.84292 -1.24345 23.75
      vertex 4.91144 -0.936906 23.75
    endloop
  endfacet
  facet normal 0 0 1
    outer loop
      vertex 4.75528 1.54508 23.75
      vertex 4.84292 -1.24345 23.75
      vertex 4.84292 1.24345 23.75
    endloop
  endfacet
  facet normal 0 0 1
    outer loop
      vertex 4.75528 1.54508 23.75
      vertex 4.75528 -1.54508 23.75
      vertex 4.84292 -1.24345 23.75
    endloop
  endfacet
  facet normal 0 0 1
    outer loop
      vertex 4.64888 1.84062 23.75
      vertex 4.75528 -1.54508 23.75
      vertex 4.75528 1.54508 23.75
    endloop
  endfacet
  facet normal 0 0 1
    outer loop
      vertex 4.64888 1.84062 23.75
      vertex 4.64888 -1.84062 23.75
      vertex 4.75528 -1.54508 23.75
    endloop
  endfacet
  facet normal 0 0 1
    outer loop
      vertex 4.52413 2.1289 23.75
      vertex 4.64888 -1.84062 23.75
      vertex 4.64888 1.84062 23.75
    endloop
  endfacet
  facet normal 0 0 1
    outer loop
      vertex 4.52413 2.1289 23.75
      vertex 4.52413 -2.1289 23.75
      vertex 4.64888 -1.84062 23.75
    endloop
  endfacet
  facet normal 0 0 1
    outer loop
      vertex 4.38153 2.40877 23.75
      vertex 4.52413 -2.1289 23.75
      vertex 4.52413 2.1289 23.75
    endloop
  endfacet
  facet normal 0 0 1
    outer loop
      vertex 4.38153 2.40877 23.75
      vertex 4.38153 -2.40877 23.75
      vertex 4.52413 -2.1289 23.75
    endloop
  endfacet
  facet normal 0 0 1
    outer loop
      vertex 4.22164 2.67913 23.75
      vertex 4.38153 -2.40877 23.75
      vertex 4.38153 2.40877 23.75
    endloop
  endfacet
  facet normal 0 0 1
    outer loop
      vertex 4.22164 2.67913 23.75
      vertex 4.22164 -2.67913 23.75
      vertex 4.38153 -2.40877 23.75
    endloop
  endfacet
  facet normal 0 0 1
    outer loop
      vertex 4.04508 2.93893 23.75
      vertex 4.22164 -2.67913 23.75
      vertex 4.22164 2.67913 23.75
    endloop
  endfacet
  facet normal 0 0 1
    outer loop
      vertex 4.04508 2.93893 23.75
      vertex 4.04508 -2.93893 23.75
      vertex 4.22164 -2.67913 23.75
    endloop
  endfacet
  facet normal 0 0 1
    outer loop
      vertex 3.85257 3.18712 23.75
      vertex 4.04508 -2.93893 23.75
      vertex 4.04508 2.93893 23.75
    endloop
  endfacet
  facet normal 0 0 1
    outer loop
      vertex 3.85257 3.18712 23.75
      vertex 3.85257 -3.18712 23.75
      vertex 4.04508 -2.93893 23.75
    endloop
  endfacet
  facet normal 0 0 1
    outer loop
      vertex 3.64484 3.42274 23.75
      vertex 3.85257 -3.18712 23.75
      vertex 3.85257 3.18712 23.75
    endloop
  endfacet
  facet normal 0 0 1
    outer loop
      vertex 3.64484 3.42274 23.75
      vertex 3.64484 -3.42274 23.75
      vertex 3.85257 -3.18712 23.75
    endloop
  endfacet
  facet normal 0 0 1
    outer loop
      vertex 3.42274 3.64484 23.75
      vertex 3.64484 -3.42274 23.75
      vertex 3.64484 3.42274 23.75
    endloop
  endfacet
  facet normal 0 0 1
    outer loop
      vertex 3.42274 3.64484 23.75
      vertex 3.42274 -3.64484 23.75
      vertex 3.64484 -3.42274 23.75
    endloop
  endfacet
  facet normal 0 0 1
    outer loop
      vertex 3.18712 3.85257 23.75
      vertex 3.42274 -3.64484 23.75
      vertex 3.42274 3.64484 23.75
    endloop
  endfacet
  facet normal 0 0 1
    outer loop
      vertex 3.18712 3.85257 23.75
      vertex 3.18712 -3.85257 23.75
      vertex 3.42274 -3.64484 23.75
    endloop
  endfacet
  facet normal 0 0 1
    outer loop
      vertex 2.93893 4.04508 23.75
      vertex 3.18712 -3.85257 23.75
      vertex 3.18712 3.85257 23.75
    endloop
  endfacet
  facet normal 0 0 1
    outer loop
      vertex 2.93893 4.04508 23.75
      vertex 2.93893 -4.04508 23.75
      vertex 3.18712 -3.85257 23.75
    endloop
  endfacet
  facet normal 0 0 1
    outer loop
      vertex 2.67913 4.22164 23.75
      vertex 2.93893 -4.04508 23.75
      vertex 2.93893 4.04508 23.75
    endloop
  endfacet
  facet normal 0 0 1
    outer loop
      vertex 2.67913 4.22164 23.75
      vertex 2.67913 -4.22164 23.75
      vertex 2.93893 -4.04508 23.75
    endloop
  endfacet
  facet normal 0 0 1
    outer loop
      vertex 2.40877 4.38153 23.75
      vertex 2.67913 -4.22164 23.75
      vertex 2.67913 4.22164 23.75
    endloop
  endfacet
  facet normal 0 0 1
    outer loop
      vertex 2.40877 4.38153 23.75
      vertex 2.40877 -4.38153 23.75
      vertex 2.67913 -4.22164 23.75
    endloop
  endfacet
  facet normal 0 0 1
    outer loop
      vertex 2.1289 4.52413 23.75
      vertex 2.40877 -4.38153 23.75
      vertex 2.40877 4.38153 23.75
    endloop
  endfacet
  facet normal 0 0 1
    outer loop
      vertex 2.1289 4.52413 23.75
      vertex 2.1289 -4.52413 23.75
      vertex 2.40877 -4.38153 23.75
    endloop
  endfacet
  facet normal 0 0 1
    outer loop
      vertex 1.84062 4.64888 23.75
      vertex 2.1289 -4.52413 23.75
      vertex 2.1289 4.52413 23.75
    endloop
  endfacet
  facet normal 0 0 1
    outer loop
      vertex 1.84062 4.64888 23.75
      vertex 1.84062 -4.64888 23.75
      vertex 2.1289 -4.52413 23.75
    endloop
  endfacet
  facet normal 0 0 1
    outer loop
      vertex 1.54508 4.75528 23.75
      vertex 1.84062 -4.64888 23.75
      vertex 1.84062 4.64888 23.75
    endloop
  endfacet
  facet normal 0 0 1
    outer loop
      vertex 1.54508 4.75528 23.75
      vertex 1.54508 -4.75528 23.75
      vertex 1.84062 -4.64888 23.75
    endloop
  endfacet
  facet normal 0 0 1
    outer loop
      vertex 1.24345 4.84292 23.75
      vertex 1.54508 -4.75528 23.75
      vertex 1.54508 4.75528 23.75
    endloop
  endfacet
  facet normal 0 0 1
    outer loop
      vertex 1.24345 4.84292 23.75
      vertex 1.24345 -4.84292 23.75
      vertex 1.54508 -4.75528 23.75
    endloop
  endfacet
  facet normal 0 0 1
    outer loop
      vertex 0.936906 4.91144 23.75
      vertex 1.24345 -4.84292 23.75
      vertex 1.24345 4.84292 23.75
    endloop
  endfacet
  facet normal 0 0 1
    outer loop
      vertex 0.936906 4.91144 23.75
      vertex 0.936906 -4.91144 23.75
      vertex 1.24345 -4.84292 23.75
    endloop
  endfacet
  facet normal 0 0 1
    outer loop
      vertex 0.626666 4.96057 23.75
      vertex 0.936906 -4.91144 23.75
      vertex 0.936906 4.91144 23.75
    endloop
  endfacet
  facet normal 0 0 1
    outer loop
      vertex 0.626666 4.96057 23.75
      vertex 0.626666 -4.96057 23.75
      vertex 0.936906 -4.91144 23.75
    endloop
  endfacet
  facet normal 0 0 1
    outer loop
      vertex 0.313952 4.99013 23.75
      vertex 0.626666 -4.96057 23.75
      vertex 0.626666 4.96057 23.75
    endloop
  endfacet
  facet normal 0 0 1
    outer loop
      vertex 0.313952 4.99013 23.75
      vertex 0.313952 -4.99013 23.75
      vertex 0.626666 -4.96057 23.75
    endloop
  endfacet
  facet normal 0 0 1
    outer loop
      vertex 0 5 23.75
      vertex 0.313952 -4.99013 23.75
      vertex 0.313952 4.99013 23.75
    endloop
  endfacet
  facet normal 0 0 1
    outer loop
      vertex 0 5 23.75
      vertex 0 -5 23.75
      vertex 0.313952 -4.99013 23.75
    endloop
  endfacet
  facet normal -0 0 1
    outer loop
      vertex -0.313952 4.99013 23.75
      vertex 0 -5 23.75
      vertex 0 5 23.75
    endloop
  endfacet
  facet normal 0 0 1
    outer loop
      vertex -0.313952 4.99013 23.75
      vertex -0.313952 -4.99013 23.75
      vertex 0 -5 23.75
    endloop
  endfacet
  facet normal -0 0 1
    outer loop
      vertex -0.626666 4.96057 23.75
      vertex -0.313952 -4.99013 23.75
      vertex -0.313952 4.99013 23.75
    endloop
  endfacet
  facet normal 0 0 1
    outer loop
      vertex -0.626666 4.96057 23.75
      vertex -0.626666 -4.96057 23.75
      vertex -0.313952 -4.99013 23.75
    endloop
  endfacet
  facet normal -0 0 1
    outer loop
      vertex -0.936906 4.91144 23.75
      vertex -0.626666 -4.96057 23.75
      vertex -0.626666 4.96057 23.75
    endloop
  endfacet
  facet normal 0 0 1
    outer loop
      vertex -0.936906 4.91144 23.75
      vertex -0.936906 -4.91144 23.75
      vertex -0.626666 -4.96057 23.75
    endloop
  endfacet
  facet normal -0 0 1
    outer loop
      vertex -1.24345 4.84292 23.75
      vertex -0.936906 -4.91144 23.75
      vertex -0.936906 4.91144 23.75
    endloop
  endfacet
  facet normal 0 0 1
    outer loop
      vertex -1.24345 4.84292 23.75
      vertex -1.24345 -4.84292 23.75
      vertex -0.936906 -4.91144 23.75
    endloop
  endfacet
  facet normal -0 0 1
    outer loop
      vertex -1.54508 4.75528 23.75
      vertex -1.24345 -4.84292 23.75
      vertex -1.24345 4.84292 23.75
    endloop
  endfacet
  facet normal 0 0 1
    outer loop
      vertex -1.54508 4.75528 23.75
      vertex -1.54508 -4.75528 23.75
      vertex -1.24345 -4.84292 23.75
    endloop
  endfacet
  facet normal -0 0 1
    outer loop
      vertex -1.84062 4.64888 23.75
      vertex -1.54508 -4.75528 23.75
      vertex -1.54508 4.75528 23.75
    endloop
  endfacet
  facet normal 0 0 1
    outer loop
      vertex -1.84062 4.64888 23.75
      vertex -1.84062 -4.64888 23.75
      vertex -1.54508 -4.75528 23.75
    endloop
  endfacet
  facet normal -0 0 1
    outer loop
      vertex -2.1289 4.52413 23.75
      vertex -1.84062 -4.64888 23.75
      vertex -1.84062 4.64888 23.75
    endloop
  endfacet
  facet normal 0 0 1
    outer loop
      vertex -2.1289 4.52413 23.75
      vertex -2.1289 -4.52413 23.75
      vertex -1.84062 -4.64888 23.75
    endloop
  endfacet
  facet normal -0 0 1
    outer loop
      vertex -2.40877 4.38153 23.75
      vertex -2.1289 -4.52413 23.75
      vertex -2.1289 4.52413 23.75
    endloop
  endfacet
  facet normal 0 0 1
    outer loop
      vertex -2.40877 4.38153 23.75
      vertex -2.40877 -4.38153 23.75
      vertex -2.1289 -4.52413 23.75
    endloop
  endfacet
  facet normal -0 0 1
    outer loop
      vertex -2.67913 4.22164 23.75
      vertex -2.40877 -4.38153 23.75
      vertex -2.40877 4.38153 23.75
    endloop
  endfacet
  facet normal 0 0 1
    outer loop
      vertex -2.67913 4.22164 23.75
      vertex -2.67913 -4.22164 23.75
      vertex -2.40877 -4.38153 23.75
    endloop
  endfacet
  facet normal -0 0 1
    outer loop
      vertex -2.93893 4.04508 23.75
      vertex -2.67913 -4.22164 23.75
      vertex -2.67913 4.22164 23.75
    endloop
  endfacet
  facet normal 0 0 1
    outer loop
      vertex -2.93893 4.04508 23.75
      vertex -2.93893 -4.04508 23.75
      vertex -2.67913 -4.22164 23.75
    endloop
  endfacet
  facet normal -0 0 1
    outer loop
      vertex -3.18712 3.85257 23.75
      vertex -2.93893 -4.04508 23.75
      vertex -2.93893 4.04508 23.75
    endloop
  endfacet
  facet normal 0 0 1
    outer loop
      vertex -3.18712 3.85257 23.75
      vertex -3.18712 -3.85257 23.75
      vertex -2.93893 -4.04508 23.75
    endloop
  endfacet
  facet normal -0 0 1
    outer loop
      vertex -3.42274 3.64484 23.75
      vertex -3.18712 -3.85257 23.75
      vertex -3.18712 3.85257 23.75
    endloop
  endfacet
  facet normal 0 0 1
    outer loop
      vertex -3.42274 3.64484 23.75
      vertex -3.42274 -3.64484 23.75
      vertex -3.18712 -3.85257 23.75
    endloop
  endfacet
  facet normal -0 0 1
    outer loop
      vertex -3.64484 3.42274 23.75
      vertex -3.42274 -3.64484 23.75
      vertex -3.42274 3.64484 23.75
    endloop
  endfacet
  facet normal 0 0 1
    outer loop
      vertex -3.64484 3.42274 23.75
      vertex -3.64484 -3.42274 23.75
      vertex -3.42274 -3.64484 23.75
    endloop
  endfacet
  facet normal -0 0 1
    outer loop
      vertex -3.85257 3.18712 23.75
      vertex -3.64484 -3.42274 23.75
      vertex -3.64484 3.42274 23.75
    endloop
  endfacet
  facet normal 0 0 1
    outer loop
      vertex -3.85257 3.18712 23.75
      vertex -3.85257 -3.18712 23.75
      vertex -3.64484 -3.42274 23.75
    endloop
  endfacet
  facet normal -0 0 1
    outer loop
      vertex -4.04508 2.93893 23.75
      vertex -3.85257 -3.18712 23.75
      vertex -3.85257 3.18712 23.75
    endloop
  endfacet
  facet normal 0 0 1
    outer loop
      vertex -4.04508 2.93893 23.75
      vertex -4.04508 -2.93893 23.75
      vertex -3.85257 -3.18712 23.75
    endloop
  endfacet
  facet normal -0 0 1
    outer loop
      vertex -4.22164 2.67913 23.75
      vertex -4.04508 -2.93893 23.75
      vertex -4.04508 2.93893 23.75
    endloop
  endfacet
  facet normal 0 0 1
    outer loop
      vertex -4.22164 2.67913 23.75
      vertex -4.22164 -2.67913 23.75
      vertex -4.04508 -2.93893 23.75
    endloop
  endfacet
  facet normal -0 0 1
    outer loop
      vertex -4.38153 2.40877 23.75
      vertex -4.22164 -2.67913 23.75
      vertex -4.22164 2.67913 23.75
    endloop
  endfacet
  facet normal 0 0 1
    outer loop
      vertex -4.38153 2.40877 23.75
      vertex -4.38153 -2.40877 23.75
      vertex -4.22164 -2.67913 23.75
    endloop
  endfacet
  facet normal -0 0 1
    outer loop
      vertex -4.52413 2.1289 23.75
      vertex -4.38153 -2.40877 23.75
      vertex -4.38153 2.40877 23.75
    endloop
  endfacet
  facet normal 0 0 1
    outer loop
      vertex -4.52413 2.1289 23.75
      vertex -4.52413 -2.1289 23.75
      vertex -4.38153 -2.40877 23.75
    endloop
  endfacet
  facet normal -0 0 1
    outer loop
      vertex -4.64888 1.84062 23.75
      vertex -4.52413 -2.1289 23.75
      vertex -4.52413 2.1289 23.75
    endloop
  endfacet
  facet normal 0 0 1
    outer loop
      vertex -4.64888 1.84062 23.75
      vertex -4.64888 -1.84062 23.75
      vertex -4.52413 -2.1289 23.75
    endloop
  endfacet
  facet normal -0 0 1
    outer loop
      vertex -4.75528 1.54508 23.75
      vertex -4.64888 -1.84062 23.75
      vertex -4.64888 1.84062 23.75
    endloop
  endfacet
  facet normal 0 0 1
    outer loop
      vertex -4.75528 1.54508 23.75
      vertex -4.75528 -1.54508 23.75
      vertex -4.64888 -1.84062 23.75
    endloop
  endfacet
  facet normal -0 0 1
    outer loop
      vertex -4.84292 1.24345 23.75
      vertex -4.75528 -1.54508 23.75
      vertex -4.75528 1.54508 23.75
    endloop
  endfacet
  facet normal 0 0 1
    outer loop
      vertex -4.84292 1.24345 23.75
      vertex -4.84292 -1.24345 23.75
      vertex -4.75528 -1.54508 23.75
    endloop
  endfacet
  facet normal -0 0 1
    outer loop
      vertex -4.91144 0.936906 23.75
      vertex -4.84292 -1.24345 23.75
      vertex -4.84292 1.24345 23.75
    endloop
  endfacet
  facet normal 0 0 1
    outer loop
      vertex -4.91144 0.936906 23.75
      vertex -4.91144 -0.936906 23.75
      vertex -4.84292 -1.24345 23.75
    endloop
  endfacet
  facet normal -0 0 1
    outer loop
      vertex -4.96057 0.626666 23.75
      vertex -4.91144 -0.936906 23.75
      vertex -4.91144 0.936906 23.75
    endloop
  endfacet
  facet normal 0 0 1
    outer loop
      vertex -4.96057 0.626666 23.75
      vertex -4.96057 -0.626666 23.75
      vertex -4.91144 -0.936906 23.75
    endloop
  endfacet
  facet normal -0 0 1
    outer loop
      vertex -4.99013 0.313952 23.75
      vertex -4.96057 -0.626666 23.75
      vertex -4.96057 0.626666 23.75
    endloop
  endfacet
  facet normal 0 0 1
    outer loop
      vertex -4.99013 0.313952 23.75
      vertex -4.99013 -0.313952 23.75
      vertex -4.96057 -0.626666 23.75
    endloop
  endfacet
  facet normal 0 -0 1
    outer loop
      vertex -4.99013 -0.313952 23.75
      vertex -4.99013 0.313952 23.75
      vertex -5 0 23.75
    endloop
  endfacet
  facet normal -0.453988 0.891008 0
    outer loop
      vertex -2.1289 4.52413 20
      vertex -2.40877 4.38153 23.75
      vertex -2.1289 4.52413 23.75
    endloop
  endfacet
  facet normal -0.453988 0.891008 0
    outer loop
      vertex -2.40877 4.38153 23.75
      vertex -2.1289 4.52413 20
      vertex -2.40877 4.38153 20
    endloop
  endfacet
  facet normal -0.397148 0.917755 0
    outer loop
      vertex -1.84062 4.64888 20
      vertex -2.1289 4.52413 23.75
      vertex -1.84062 4.64888 23.75
    endloop
  endfacet
  facet normal -0.397148 0.917755 0
    outer loop
      vertex -2.1289 4.52413 23.75
      vertex -1.84062 4.64888 20
      vertex -2.1289 4.52413 20
    endloop
  endfacet
  facet normal -0.612895 0.790164 0
    outer loop
      vertex -2.93893 4.04508 0
      vertex -3.18712 3.85257 23.75
      vertex -2.93893 4.04508 23.75
    endloop
  endfacet
  facet normal -0.612895 0.790164 0
    outer loop
      vertex -3.18712 3.85257 23.75
      vertex -2.93893 4.04508 0
      vertex -3.18712 3.85257 0
    endloop
  endfacet
  facet normal -0.279016 0.960287 0
    outer loop
      vertex -1.24345 4.84292 20
      vertex -1.54508 4.75528 23.75
      vertex -1.24345 4.84292 23.75
    endloop
  endfacet
  facet normal -0.279016 0.960287 0
    outer loop
      vertex -1.54508 4.75528 23.75
      vertex -1.24345 4.84292 20
      vertex -1.54508 4.75528 20
    endloop
  endfacet
  facet normal -0.0314224 0.999506 0
    outer loop
      vertex 0 5 20
      vertex -0.313952 4.99013 23.75
      vertex 0 5 23.75
    endloop
  endfacet
  facet normal -0.0314224 0.999506 0
    outer loop
      vertex -0.313952 4.99013 23.75
      vertex 0 5 20
      vertex -0.313952 4.99013 20
    endloop
  endfacet
  facet normal 0.999506 -0.0314224 0
    outer loop
      vertex 4.99013 -0.313952 23.75
      vertex 5 0 20
      vertex 5 0 23.75
    endloop
  endfacet
  facet normal 0.999506 -0.0314224 0
    outer loop
      vertex 5 0 20
      vertex 4.99013 -0.313952 23.75
      vertex 4.99013 -0.313952 20
    endloop
  endfacet
  facet normal 0.0314224 -0.999506 0
    outer loop
      vertex 0 -5 20
      vertex 0.313952 -4.99013 23.75
      vertex 0 -5 23.75
    endloop
  endfacet
  facet normal 0.0314224 -0.999506 0
    outer loop
      vertex 0.313952 -4.99013 23.75
      vertex 0 -5 20
      vertex 0.313952 -4.99013 20
    endloop
  endfacet
  facet normal 0.156412 -0.987692 0
    outer loop
      vertex 0.626666 -4.96057 20
      vertex 0.936906 -4.91144 23.75
      vertex 0.626666 -4.96057 23.75
    endloop
  endfacet
  facet normal 0.156412 -0.987692 0
    outer loop
      vertex 0.936906 -4.91144 23.75
      vertex 0.626666 -4.96057 20
      vertex 0.936906 -4.91144 20
    endloop
  endfacet
  facet normal 0.279016 -0.960287 0
    outer loop
      vertex 1.24345 -4.84292 20
      vertex 1.54508 -4.75528 23.75
      vertex 1.24345 -4.84292 23.75
    endloop
  endfacet
  facet normal 0.279016 -0.960287 0
    outer loop
      vertex 1.54508 -4.75528 23.75
      vertex 1.24345 -4.84292 20
      vertex 1.54508 -4.75528 20
    endloop
  endfacet
  facet normal 0.338735 -0.940882 0
    outer loop
      vertex 1.54508 -4.75528 20
      vertex 1.84062 -4.64888 23.75
      vertex 1.54508 -4.75528 23.75
    endloop
  endfacet
  facet normal 0.338735 -0.940882 0
    outer loop
      vertex 1.84062 -4.64888 23.75
      vertex 1.54508 -4.75528 20
      vertex 1.84062 -4.64888 20
    endloop
  endfacet
  facet normal 0.218141 -0.975917 0
    outer loop
      vertex 0.936906 -4.91144 20
      vertex 1.24345 -4.84292 23.75
      vertex 0.936906 -4.91144 23.75
    endloop
  endfacet
  facet normal 0.218141 -0.975917 0
    outer loop
      vertex 1.24345 -4.84292 23.75
      vertex 0.936906 -4.91144 20
      vertex 1.24345 -4.84292 20
    endloop
  endfacet
  facet normal 0.661317 -0.750106 0
    outer loop
      vertex 3.18712 -3.85257 0
      vertex 3.42274 -3.64484 23.75
      vertex 3.18712 -3.85257 23.75
    endloop
  endfacet
  facet normal 0.661317 -0.750106 0
    outer loop
      vertex 3.42274 -3.64484 23.75
      vertex 3.18712 -3.85257 0
      vertex 3.42274 -3.64484 0
    endloop
  endfacet
  facet normal 0.612895 -0.790164 0
    outer loop
      vertex 2.93893 -4.04508 0
      vertex 3.18712 -3.85257 23.75
      vertex 2.93893 -4.04508 23.75
    endloop
  endfacet
  facet normal 0.612895 -0.790164 0
    outer loop
      vertex 3.18712 -3.85257 23.75
      vertex 2.93893 -4.04508 0
      vertex 3.18712 -3.85257 0
    endloop
  endfacet
  facet normal 0.707107 -0.707107 0
    outer loop
      vertex 3.42274 -3.64484 23.75
      vertex 3.64484 -3.42274 0
      vertex 3.64484 -3.42274 23.75
    endloop
  endfacet
  facet normal 0.707107 -0.707107 0
    outer loop
      vertex 3.64484 -3.42274 0
      vertex 3.42274 -3.64484 23.75
      vertex 3.42274 -3.64484 0
    endloop
  endfacet
  facet normal 0.508994 -0.86077 0
    outer loop
      vertex 2.48 -4.33941 20
      vertex 2.40877 -4.38153 23.75
      vertex 2.40877 -4.38153 20
    endloop
  endfacet
  facet normal 0.50904 -0.860743 1.18985e-06
    outer loop
      vertex 2.40877 -4.38153 23.75
      vertex 2.48 -4.33941 20
      vertex 2.67913 -4.22164 23.75
    endloop
  endfacet
  facet normal 0.509057 -0.860733 0
    outer loop
      vertex 2.67913 -4.22164 0
      vertex 2.48 -4.33941 20
      vertex 2.48 -4.33941 0
    endloop
  endfacet
  facet normal 0.509057 -0.860733 0
    outer loop
      vertex 2.48 -4.33941 20
      vertex 2.67913 -4.22164 0
      vertex 2.67913 -4.22164 23.75
    endloop
  endfacet
  facet normal 0.562084 -0.82708 0
    outer loop
      vertex 2.67913 -4.22164 0
      vertex 2.93893 -4.04508 23.75
      vertex 2.67913 -4.22164 23.75
    endloop
  endfacet
  facet normal 0.562084 -0.82708 0
    outer loop
      vertex 2.93893 -4.04508 23.75
      vertex 2.67913 -4.22164 0
      vertex 2.93893 -4.04508 0
    endloop
  endfacet
  facet normal 0.397148 -0.917755 0
    outer loop
      vertex 1.84062 -4.64888 20
      vertex 2.1289 -4.52413 23.75
      vertex 1.84062 -4.64888 23.75
    endloop
  endfacet
  facet normal 0.397148 -0.917755 0
    outer loop
      vertex 2.1289 -4.52413 23.75
      vertex 1.84062 -4.64888 20
      vertex 2.1289 -4.52413 20
    endloop
  endfacet
  facet normal 0.750106 -0.661317 0
    outer loop
      vertex 3.64484 -3.42274 23.75
      vertex 3.85257 -3.18712 0
      vertex 3.85257 -3.18712 23.75
    endloop
  endfacet
  facet normal 0.750106 -0.661317 0
    outer loop
      vertex 3.85257 -3.18712 0
      vertex 3.64484 -3.42274 23.75
      vertex 3.64484 -3.42274 0
    endloop
  endfacet
  facet normal 0.82708 -0.562084 0
    outer loop
      vertex 4.04508 -2.93893 23.75
      vertex 4.22164 -2.67913 0
      vertex 4.22164 -2.67913 23.75
    endloop
  endfacet
  facet normal 0.82708 -0.562084 0
    outer loop
      vertex 4.22164 -2.67913 0
      vertex 4.04508 -2.93893 23.75
      vertex 4.04508 -2.93893 0
    endloop
  endfacet
  facet normal 0.917755 -0.397148 0
    outer loop
      vertex 4.52413 -2.1289 23.75
      vertex 4.64888 -1.84062 20
      vertex 4.64888 -1.84062 23.75
    endloop
  endfacet
  facet normal 0.917755 -0.397148 0
    outer loop
      vertex 4.64888 -1.84062 20
      vertex 4.52413 -2.1289 23.75
      vertex 4.52413 -2.1289 20
    endloop
  endfacet
  facet normal 0.987692 -0.156412 0
    outer loop
      vertex 4.91144 -0.936906 23.75
      vertex 4.96057 -0.626666 20
      vertex 4.96057 -0.626666 23.75
    endloop
  endfacet
  facet normal 0.987692 -0.156412 0
    outer loop
      vertex 4.96057 -0.626666 20
      vertex 4.91144 -0.936906 23.75
      vertex 4.91144 -0.936906 20
    endloop
  endfacet
  facet normal 0.960287 -0.279016 0
    outer loop
      vertex 4.75528 -1.54508 23.75
      vertex 4.84292 -1.24345 20
      vertex 4.84292 -1.24345 23.75
    endloop
  endfacet
  facet normal 0.960287 -0.279016 0
    outer loop
      vertex 4.84292 -1.24345 20
      vertex 4.75528 -1.54508 23.75
      vertex 4.75528 -1.54508 20
    endloop
  endfacet
  facet normal -0.562084 -0.82708 0
    outer loop
      vertex -2.93893 -4.04508 0
      vertex -2.67913 -4.22164 23.75
      vertex -2.93893 -4.04508 23.75
    endloop
  endfacet
  facet normal -0.562084 -0.82708 -0
    outer loop
      vertex -2.67913 -4.22164 23.75
      vertex -2.93893 -4.04508 0
      vertex -2.67913 -4.22164 0
    endloop
  endfacet
  facet normal -0.453988 -0.891008 0
    outer loop
      vertex -2.40877 -4.38153 20
      vertex -2.1289 -4.52413 23.75
      vertex -2.40877 -4.38153 23.75
    endloop
  endfacet
  facet normal -0.453988 -0.891008 -0
    outer loop
      vertex -2.1289 -4.52413 23.75
      vertex -2.40877 -4.38153 20
      vertex -2.1289 -4.52413 20
    endloop
  endfacet
  facet normal -0.279016 -0.960287 0
    outer loop
      vertex -1.54508 -4.75528 20
      vertex -1.24345 -4.84292 23.75
      vertex -1.54508 -4.75528 23.75
    endloop
  endfacet
  facet normal -0.279016 -0.960287 -0
    outer loop
      vertex -1.24345 -4.84292 23.75
      vertex -1.54508 -4.75528 20
      vertex -1.24345 -4.84292 20
    endloop
  endfacet
  facet normal -0.0941078 -0.995562 0
    outer loop
      vertex -0.626666 -4.96057 20
      vertex -0.313952 -4.99013 23.75
      vertex -0.626666 -4.96057 23.75
    endloop
  endfacet
  facet normal -0.0941078 -0.995562 -0
    outer loop
      vertex -0.313952 -4.99013 23.75
      vertex -0.626666 -4.96057 20
      vertex -0.313952 -4.99013 20
    endloop
  endfacet
  facet normal -0.860733 -0.509057 0
    outer loop
      vertex -4.33941 -2.48 0
      vertex -4.22164 -2.67913 0
      vertex -4.33941 -2.48 20
    endloop
  endfacet
  facet normal -0.86077 -0.508994 0
    outer loop
      vertex -4.33941 -2.48 20
      vertex -4.38153 -2.40877 23.75
      vertex -4.38153 -2.40877 20
    endloop
  endfacet
  facet normal -0.860743 -0.50904 1.18985e-06
    outer loop
      vertex -4.33941 -2.48 20
      vertex -4.22164 -2.67913 23.75
      vertex -4.38153 -2.40877 23.75
    endloop
  endfacet
  facet normal -0.860733 -0.509057 -0
    outer loop
      vertex -4.22164 -2.67913 23.75
      vertex -4.33941 -2.48 20
      vertex -4.22164 -2.67913 0
    endloop
  endfacet
  facet normal -0.917755 -0.397148 0
    outer loop
      vertex -4.52413 -2.1289 20
      vertex -4.64888 -1.84062 23.75
      vertex -4.64888 -1.84062 20
    endloop
  endfacet
  facet normal -0.917755 -0.397148 0
    outer loop
      vertex -4.64888 -1.84062 23.75
      vertex -4.52413 -2.1289 20
      vertex -4.52413 -2.1289 23.75
    endloop
  endfacet
  facet normal -0.891008 -0.453988 0
    outer loop
      vertex -4.38153 -2.40877 20
      vertex -4.52413 -2.1289 23.75
      vertex -4.52413 -2.1289 20
    endloop
  endfacet
  facet normal -0.891008 -0.453988 0
    outer loop
      vertex -4.52413 -2.1289 23.75
      vertex -4.38153 -2.40877 20
      vertex -4.38153 -2.40877 23.75
    endloop
  endfacet
  facet normal -0.790164 -0.612895 0
    outer loop
      vertex -3.85257 -3.18712 0
      vertex -4.04508 -2.93893 23.75
      vertex -4.04508 -2.93893 0
    endloop
  endfacet
  facet normal -0.790164 -0.612895 0
    outer loop
      vertex -4.04508 -2.93893 23.75
      vertex -3.85257 -3.18712 0
      vertex -3.85257 -3.18712 23.75
    endloop
  endfacet
  facet normal -0.975917 -0.218141 0
    outer loop
      vertex -4.84292 -1.24345 20
      vertex -4.91144 -0.936906 23.75
      vertex -4.91144 -0.936906 20
    endloop
  endfacet
  facet normal -0.975917 -0.218141 0
    outer loop
      vertex -4.91144 -0.936906 23.75
      vertex -4.84292 -1.24345 20
      vertex -4.84292 -1.24345 23.75
    endloop
  endfacet
  facet normal -0.960287 -0.279016 0
    outer loop
      vertex -4.75528 -1.54508 20
      vertex -4.84292 -1.24345 23.75
      vertex -4.84292 -1.24345 20
    endloop
  endfacet
  facet normal -0.960287 -0.279016 0
    outer loop
      vertex -4.84292 -1.24345 23.75
      vertex -4.75528 -1.54508 20
      vertex -4.75528 -1.54508 23.75
    endloop
  endfacet
  facet normal -0.987692 -0.156412 0
    outer loop
      vertex -4.91144 -0.936906 20
      vertex -4.96057 -0.626666 23.75
      vertex -4.96057 -0.626666 20
    endloop
  endfacet
  facet normal -0.987692 -0.156412 0
    outer loop
      vertex -4.96057 -0.626666 23.75
      vertex -4.91144 -0.936906 20
      vertex -4.91144 -0.936906 23.75
    endloop
  endfacet
  facet normal -0.999506 -0.0314224 0
    outer loop
      vertex -4.99013 -0.313952 20
      vertex -5 0 23.75
      vertex -5 0 20
    endloop
  endfacet
  facet normal -0.999506 -0.0314224 0
    outer loop
      vertex -5 0 23.75
      vertex -4.99013 -0.313952 20
      vertex -4.99013 -0.313952 23.75
    endloop
  endfacet
  facet normal 0.860733 0.509057 0
    outer loop
      vertex 4.22164 2.67913 23.75
      vertex 4.33941 2.48 20
      vertex 4.22164 2.67913 0
    endloop
  endfacet
  facet normal 0.860743 0.50904 1.18985e-06
    outer loop
      vertex 4.38153 2.40877 23.75
      vertex 4.33941 2.48 20
      vertex 4.22164 2.67913 23.75
    endloop
  endfacet
  facet normal 0.86077 0.508994 0
    outer loop
      vertex 4.33941 2.48 20
      vertex 4.38153 2.40877 23.75
      vertex 4.38153 2.40877 20
    endloop
  endfacet
  facet normal 0.860733 0.509057 0
    outer loop
      vertex 4.22164 2.67913 0
      vertex 4.33941 2.48 20
      vertex 4.33941 2.48 0
    endloop
  endfacet
  facet normal -0.218141 0.975917 0
    outer loop
      vertex -0.936906 4.91144 20
      vertex -1.24345 4.84292 23.75
      vertex -0.936906 4.91144 23.75
    endloop
  endfacet
  facet normal -0.218141 0.975917 0
    outer loop
      vertex -1.24345 4.84292 23.75
      vertex -0.936906 4.91144 20
      vertex -1.24345 4.84292 20
    endloop
  endfacet
  facet normal 0.0941078 -0.995562 0
    outer loop
      vertex 0.313952 -4.99013 20
      vertex 0.626666 -4.96057 23.75
      vertex 0.313952 -4.99013 23.75
    endloop
  endfacet
  facet normal 0.0941078 -0.995562 0
    outer loop
      vertex 0.626666 -4.96057 23.75
      vertex 0.313952 -4.99013 20
      vertex 0.626666 -4.96057 20
    endloop
  endfacet
  facet normal 0.453988 -0.891008 0
    outer loop
      vertex 2.1289 -4.52413 20
      vertex 2.40877 -4.38153 23.75
      vertex 2.1289 -4.52413 23.75
    endloop
  endfacet
  facet normal 0.453988 -0.891008 0
    outer loop
      vertex 2.40877 -4.38153 23.75
      vertex 2.1289 -4.52413 20
      vertex 2.40877 -4.38153 20
    endloop
  endfacet
  facet normal 0.790164 -0.612895 0
    outer loop
      vertex 3.85257 -3.18712 23.75
      vertex 4.04508 -2.93893 0
      vertex 4.04508 -2.93893 23.75
    endloop
  endfacet
  facet normal 0.790164 -0.612895 0
    outer loop
      vertex 4.04508 -2.93893 0
      vertex 3.85257 -3.18712 23.75
      vertex 3.85257 -3.18712 0
    endloop
  endfacet
  facet normal 0.86077 -0.508994 0
    outer loop
      vertex 4.38153 -2.40877 23.75
      vertex 4.33941 -2.48 20
      vertex 4.38153 -2.40877 20
    endloop
  endfacet
  facet normal 0.860743 -0.50904 1.18985e-06
    outer loop
      vertex 4.22164 -2.67913 23.75
      vertex 4.33941 -2.48 20
      vertex 4.38153 -2.40877 23.75
    endloop
  endfacet
  facet normal 0.860733 -0.509057 0
    outer loop
      vertex 4.22164 -2.67913 0
      vertex 4.33941 -2.48 20
      vertex 4.22164 -2.67913 23.75
    endloop
  endfacet
  facet normal 0.860733 -0.509057 0
    outer loop
      vertex 4.33941 -2.48 20
      vertex 4.22164 -2.67913 0
      vertex 4.33941 -2.48 0
    endloop
  endfacet
  facet normal 0.940882 -0.338735 0
    outer loop
      vertex 4.64888 -1.84062 23.75
      vertex 4.75528 -1.54508 20
      vertex 4.75528 -1.54508 23.75
    endloop
  endfacet
  facet normal 0.940882 -0.338735 0
    outer loop
      vertex 4.75528 -1.54508 20
      vertex 4.64888 -1.84062 23.75
      vertex 4.64888 -1.84062 20
    endloop
  endfacet
  facet normal 0.995562 -0.0941078 0
    outer loop
      vertex 4.96057 -0.626666 23.75
      vertex 4.99013 -0.313952 20
      vertex 4.99013 -0.313952 23.75
    endloop
  endfacet
  facet normal 0.995562 -0.0941078 0
    outer loop
      vertex 4.99013 -0.313952 20
      vertex 4.96057 -0.626666 23.75
      vertex 4.96057 -0.626666 20
    endloop
  endfacet
  facet normal 0.975917 -0.218141 0
    outer loop
      vertex 4.84292 -1.24345 23.75
      vertex 4.91144 -0.936906 20
      vertex 4.91144 -0.936906 23.75
    endloop
  endfacet
  facet normal 0.975917 -0.218141 0
    outer loop
      vertex 4.91144 -0.936906 20
      vertex 4.84292 -1.24345 23.75
      vertex 4.84292 -1.24345 20
    endloop
  endfacet
  facet normal -0.612895 -0.790164 0
    outer loop
      vertex -3.18712 -3.85257 0
      vertex -2.93893 -4.04508 23.75
      vertex -3.18712 -3.85257 23.75
    endloop
  endfacet
  facet normal -0.612895 -0.790164 -0
    outer loop
      vertex -2.93893 -4.04508 23.75
      vertex -3.18712 -3.85257 0
      vertex -2.93893 -4.04508 0
    endloop
  endfacet
  facet normal -0.50904 -0.860743 1.18985e-06
    outer loop
      vertex -2.67913 -4.22164 23.75
      vertex -2.48 -4.33941 20
      vertex -2.40877 -4.38153 23.75
    endloop
  endfacet
  facet normal -0.509057 -0.860733 0
    outer loop
      vertex -2.67913 -4.22164 0
      vertex -2.48 -4.33941 20
      vertex -2.67913 -4.22164 23.75
    endloop
  endfacet
  facet normal -0.509057 -0.860733 -0
    outer loop
      vertex -2.48 -4.33941 20
      vertex -2.67913 -4.22164 0
      vertex -2.48 -4.33941 0
    endloop
  endfacet
  facet normal -0.508994 -0.86077 -0
    outer loop
      vertex -2.40877 -4.38153 23.75
      vertex -2.48 -4.33941 20
      vertex -2.40877 -4.38153 20
    endloop
  endfacet
  facet normal -0.218141 -0.975917 0
    outer loop
      vertex -1.24345 -4.84292 20
      vertex -0.936906 -4.91144 23.75
      vertex -1.24345 -4.84292 23.75
    endloop
  endfacet
  facet normal -0.218141 -0.975917 -0
    outer loop
      vertex -0.936906 -4.91144 23.75
      vertex -1.24345 -4.84292 20
      vertex -0.936906 -4.91144 20
    endloop
  endfacet
  facet normal -0.0314224 -0.999506 0
    outer loop
      vertex -0.313952 -4.99013 20
      vertex 0 -5 23.75
      vertex -0.313952 -4.99013 23.75
    endloop
  endfacet
  facet normal -0.0314224 -0.999506 -0
    outer loop
      vertex 0 -5 23.75
      vertex -0.313952 -4.99013 20
      vertex 0 -5 20
    endloop
  endfacet
  facet normal -0.750106 -0.661317 0
    outer loop
      vertex -3.64484 -3.42274 0
      vertex -3.85257 -3.18712 23.75
      vertex -3.85257 -3.18712 0
    endloop
  endfacet
  facet normal -0.750106 -0.661317 0
    outer loop
      vertex -3.85257 -3.18712 23.75
      vertex -3.64484 -3.42274 0
      vertex -3.64484 -3.42274 23.75
    endloop
  endfacet
  facet normal -0.995562 -0.0941078 0
    outer loop
      vertex -4.96057 -0.626666 20
      vertex -4.99013 -0.313952 23.75
      vertex -4.99013 -0.313952 20
    endloop
  endfacet
  facet normal -0.995562 -0.0941078 0
    outer loop
      vertex -4.99013 -0.313952 23.75
      vertex -4.96057 -0.626666 20
      vertex -4.96057 -0.626666 23.75
    endloop
  endfacet
  facet normal -1 0 0
    outer loop
      vertex -9.7 -2.48 0
      vertex -9.7 2.48 20
      vertex -9.7 2.48 0
    endloop
  endfacet
  facet normal -1 -0 0
    outer loop
      vertex -9.7 2.48 20
      vertex -9.7 -2.48 0
      vertex -9.7 -2.48 20
    endloop
  endfacet
  facet normal 0 0 1
    outer loop
      vertex 9.7 2.48 20
      vertex 5 0 20
      vertex 9.7 -2.48 20
    endloop
  endfacet
  facet normal 0 0 1
    outer loop
      vertex 9.7 2.48 20
      vertex 4.99013 0.313952 20
      vertex 5 0 20
    endloop
  endfacet
  facet normal 0 0 1
    outer loop
      vertex 9.7 2.48 20
      vertex 4.96057 0.626666 20
      vertex 4.99013 0.313952 20
    endloop
  endfacet
  facet normal 0 0 1
    outer loop
      vertex 9.7 2.48 20
      vertex 4.91144 0.936906 20
      vertex 4.96057 0.626666 20
    endloop
  endfacet
  facet normal 0 0 1
    outer loop
      vertex 9.7 2.48 20
      vertex 4.84292 1.24345 20
      vertex 4.91144 0.936906 20
    endloop
  endfacet
  facet normal 0 0 1
    outer loop
      vertex 9.7 2.48 20
      vertex 4.75528 1.54508 20
      vertex 4.84292 1.24345 20
    endloop
  endfacet
  facet normal 0 0 1
    outer loop
      vertex 9.7 2.48 20
      vertex 4.64888 1.84062 20
      vertex 4.75528 1.54508 20
    endloop
  endfacet
  facet normal 0 0 1
    outer loop
      vertex 9.7 2.48 20
      vertex 4.52413 2.1289 20
      vertex 4.64888 1.84062 20
    endloop
  endfacet
  facet normal 0 0 1
    outer loop
      vertex 9.7 2.48 20
      vertex 4.38153 2.40877 20
      vertex 4.52413 2.1289 20
    endloop
  endfacet
  facet normal 0 -0 1
    outer loop
      vertex 4.38153 2.40877 20
      vertex 9.7 2.48 20
      vertex 4.33941 2.48 20
    endloop
  endfacet
  facet normal -0 0 1
    outer loop
      vertex 4.99013 -0.313952 20
      vertex 9.7 -2.48 20
      vertex 5 0 20
    endloop
  endfacet
  facet normal -0 0 1
    outer loop
      vertex 4.96057 -0.626666 20
      vertex 9.7 -2.48 20
      vertex 4.99013 -0.313952 20
    endloop
  endfacet
  facet normal -0 0 1
    outer loop
      vertex 4.91144 -0.936906 20
      vertex 9.7 -2.48 20
      vertex 4.96057 -0.626666 20
    endloop
  endfacet
  facet normal -0 0 1
    outer loop
      vertex 4.84292 -1.24345 20
      vertex 9.7 -2.48 20
      vertex 4.91144 -0.936906 20
    endloop
  endfacet
  facet normal -0 0 1
    outer loop
      vertex 4.75528 -1.54508 20
      vertex 9.7 -2.48 20
      vertex 4.84292 -1.24345 20
    endloop
  endfacet
  facet normal -0 0 1
    outer loop
      vertex 4.64888 -1.84062 20
      vertex 9.7 -2.48 20
      vertex 4.75528 -1.54508 20
    endloop
  endfacet
  facet normal -0 0 1
    outer loop
      vertex 4.52413 -2.1289 20
      vertex 9.7 -2.48 20
      vertex 4.64888 -1.84062 20
    endloop
  endfacet
  facet normal -0 0 1
    outer loop
      vertex 4.38153 -2.40877 20
      vertex 9.7 -2.48 20
      vertex 4.52413 -2.1289 20
    endloop
  endfacet
  facet normal 0 0 1
    outer loop
      vertex 9.7 -2.48 20
      vertex 4.38153 -2.40877 20
      vertex 4.33941 -2.48 20
    endloop
  endfacet
  facet normal 0 0 1
    outer loop
      vertex -4.99013 0.313952 20
      vertex -9.7 2.48 20
      vertex -5 0 20
    endloop
  endfacet
  facet normal 0 0 1
    outer loop
      vertex -4.96057 0.626666 20
      vertex -9.7 2.48 20
      vertex -4.99013 0.313952 20
    endloop
  endfacet
  facet normal 0 0 1
    outer loop
      vertex -4.91144 0.936906 20
      vertex -9.7 2.48 20
      vertex -4.96057 0.626666 20
    endloop
  endfacet
  facet normal 0 0 1
    outer loop
      vertex -4.84292 1.24345 20
      vertex -9.7 2.48 20
      vertex -4.91144 0.936906 20
    endloop
  endfacet
  facet normal 0 0 1
    outer loop
      vertex -4.75528 1.54508 20
      vertex -9.7 2.48 20
      vertex -4.84292 1.24345 20
    endloop
  endfacet
  facet normal 0 0 1
    outer loop
      vertex -4.64888 1.84062 20
      vertex -9.7 2.48 20
      vertex -4.75528 1.54508 20
    endloop
  endfacet
  facet normal 0 0 1
    outer loop
      vertex -4.52413 2.1289 20
      vertex -9.7 2.48 20
      vertex -4.64888 1.84062 20
    endloop
  endfacet
  facet normal 0 0 1
    outer loop
      vertex -4.38153 2.40877 20
      vertex -9.7 2.48 20
      vertex -4.52413 2.1289 20
    endloop
  endfacet
  facet normal -0 0 1
    outer loop
      vertex -9.7 2.48 20
      vertex -4.38153 2.40877 20
      vertex -4.33941 2.48 20
    endloop
  endfacet
  facet normal 0 0 1
    outer loop
      vertex -9.7 -2.48 20
      vertex -5 0 20
      vertex -9.7 2.48 20
    endloop
  endfacet
  facet normal 0 0 1
    outer loop
      vertex -5 0 20
      vertex -9.7 -2.48 20
      vertex -4.99013 -0.313952 20
    endloop
  endfacet
  facet normal 0 0 1
    outer loop
      vertex -4.99013 -0.313952 20
      vertex -9.7 -2.48 20
      vertex -4.96057 -0.626666 20
    endloop
  endfacet
  facet normal 0 0 1
    outer loop
      vertex -4.96057 -0.626666 20
      vertex -9.7 -2.48 20
      vertex -4.91144 -0.936906 20
    endloop
  endfacet
  facet normal 0 0 1
    outer loop
      vertex -4.91144 -0.936906 20
      vertex -9.7 -2.48 20
      vertex -4.84292 -1.24345 20
    endloop
  endfacet
  facet normal 0 0 1
    outer loop
      vertex -4.84292 -1.24345 20
      vertex -9.7 -2.48 20
      vertex -4.75528 -1.54508 20
    endloop
  endfacet
  facet normal 0 0 1
    outer loop
      vertex -4.75528 -1.54508 20
      vertex -9.7 -2.48 20
      vertex -4.64888 -1.84062 20
    endloop
  endfacet
  facet normal 0 0 1
    outer loop
      vertex -4.64888 -1.84062 20
      vertex -9.7 -2.48 20
      vertex -4.52413 -2.1289 20
    endloop
  endfacet
  facet normal 0 0 1
    outer loop
      vertex -4.52413 -2.1289 20
      vertex -9.7 -2.48 20
      vertex -4.38153 -2.40877 20
    endloop
  endfacet
  facet normal 0 0 1
    outer loop
      vertex -4.38153 -2.40877 20
      vertex -9.7 -2.48 20
      vertex -4.33941 -2.48 20
    endloop
  endfacet
  facet normal 0 0 1
    outer loop
      vertex 2.48 9.7 20
      vertex 2.40877 4.38153 20
      vertex 2.48 4.33941 20
    endloop
  endfacet
  facet normal 0 0 1
    outer loop
      vertex 2.48 9.7 20
      vertex 2.1289 4.52413 20
      vertex 2.40877 4.38153 20
    endloop
  endfacet
  facet normal 0 0 1
    outer loop
      vertex 2.48 9.7 20
      vertex 1.84062 4.64888 20
      vertex 2.1289 4.52413 20
    endloop
  endfacet
  facet normal 0 0 1
    outer loop
      vertex 2.48 9.7 20
      vertex 1.54508 4.75528 20
      vertex 1.84062 4.64888 20
    endloop
  endfacet
  facet normal 0 0 1
    outer loop
      vertex 2.48 9.7 20
      vertex 1.24345 4.84292 20
      vertex 1.54508 4.75528 20
    endloop
  endfacet
  facet normal 0 0 1
    outer loop
      vertex 2.48 9.7 20
      vertex 0.936906 4.91144 20
      vertex 1.24345 4.84292 20
    endloop
  endfacet
  facet normal 0 0 1
    outer loop
      vertex 2.48 9.7 20
      vertex 0.626666 4.96057 20
      vertex 0.936906 4.91144 20
    endloop
  endfacet
  facet normal 0 0 1
    outer loop
      vertex 2.48 9.7 20
      vertex 0.313952 4.99013 20
      vertex 0.626666 4.96057 20
    endloop
  endfacet
  facet normal 0 0 1
    outer loop
      vertex 2.48 9.7 20
      vertex 0 5 20
      vertex 0.313952 4.99013 20
    endloop
  endfacet
  facet normal -0 0 1
    outer loop
      vertex -2.48 9.7 20
      vertex 0 5 20
      vertex 2.48 9.7 20
    endloop
  endfacet
  facet normal 0 0 1
    outer loop
      vertex 0 5 20
      vertex -2.48 9.7 20
      vertex -0.313952 4.99013 20
    endloop
  endfacet
  facet normal 0 0 1
    outer loop
      vertex -0.313952 4.99013 20
      vertex -2.48 9.7 20
      vertex -0.626666 4.96057 20
    endloop
  endfacet
  facet normal 0 0 1
    outer loop
      vertex -0.626666 4.96057 20
      vertex -2.48 9.7 20
      vertex -0.936906 4.91144 20
    endloop
  endfacet
  facet normal 0 0 1
    outer loop
      vertex -0.936906 4.91144 20
      vertex -2.48 9.7 20
      vertex -1.24345 4.84292 20
    endloop
  endfacet
  facet normal 0 0 1
    outer loop
      vertex -1.24345 4.84292 20
      vertex -2.48 9.7 20
      vertex -1.54508 4.75528 20
    endloop
  endfacet
  facet normal 0 0 1
    outer loop
      vertex -1.54508 4.75528 20
      vertex -2.48 9.7 20
      vertex -1.84062 4.64888 20
    endloop
  endfacet
  facet normal 0 0 1
    outer loop
      vertex -1.84062 4.64888 20
      vertex -2.48 9.7 20
      vertex -2.1289 4.52413 20
    endloop
  endfacet
  facet normal 0 0 1
    outer loop
      vertex -2.1289 4.52413 20
      vertex -2.48 9.7 20
      vertex -2.40877 4.38153 20
    endloop
  endfacet
  facet normal 0 0 1
    outer loop
      vertex -2.40877 4.38153 20
      vertex -2.48 9.7 20
      vertex -2.48 4.33941 20
    endloop
  endfacet
  facet normal -0 0 1
    outer loop
      vertex 2.40877 -4.38153 20
      vertex 2.48 -9.7 20
      vertex 2.48 -4.33941 20
    endloop
  endfacet
  facet normal -0 0 1
    outer loop
      vertex 2.1289 -4.52413 20
      vertex 2.48 -9.7 20
      vertex 2.40877 -4.38153 20
    endloop
  endfacet
  facet normal -0 0 1
    outer loop
      vertex 1.84062 -4.64888 20
      vertex 2.48 -9.7 20
      vertex 2.1289 -4.52413 20
    endloop
  endfacet
  facet normal -0 0 1
    outer loop
      vertex 1.54508 -4.75528 20
      vertex 2.48 -9.7 20
      vertex 1.84062 -4.64888 20
    endloop
  endfacet
  facet normal -0 0 1
    outer loop
      vertex 1.24345 -4.84292 20
      vertex 2.48 -9.7 20
      vertex 1.54508 -4.75528 20
    endloop
  endfacet
  facet normal -0 0 1
    outer loop
      vertex 0.936906 -4.91144 20
      vertex 2.48 -9.7 20
      vertex 1.24345 -4.84292 20
    endloop
  endfacet
  facet normal -0 0 1
    outer loop
      vertex 0.626666 -4.96057 20
      vertex 2.48 -9.7 20
      vertex 0.936906 -4.91144 20
    endloop
  endfacet
  facet normal -0 0 1
    outer loop
      vertex 0.313952 -4.99013 20
      vertex 2.48 -9.7 20
      vertex 0.626666 -4.96057 20
    endloop
  endfacet
  facet normal -0 0 1
    outer loop
      vertex 0 -5 20
      vertex 2.48 -9.7 20
      vertex 0.313952 -4.99013 20
    endloop
  endfacet
  facet normal 0 0 1
    outer loop
      vertex -2.48 -9.7 20
      vertex 0 -5 20
      vertex -0.313952 -4.99013 20
    endloop
  endfacet
  facet normal 0 0 1
    outer loop
      vertex -2.48 -9.7 20
      vertex -0.313952 -4.99013 20
      vertex -0.626666 -4.96057 20
    endloop
  endfacet
  facet normal 0 0 1
    outer loop
      vertex -2.48 -9.7 20
      vertex -0.626666 -4.96057 20
      vertex -0.936906 -4.91144 20
    endloop
  endfacet
  facet normal 0 0 1
    outer loop
      vertex -2.48 -9.7 20
      vertex -0.936906 -4.91144 20
      vertex -1.24345 -4.84292 20
    endloop
  endfacet
  facet normal 0 0 1
    outer loop
      vertex -2.48 -9.7 20
      vertex -1.24345 -4.84292 20
      vertex -1.54508 -4.75528 20
    endloop
  endfacet
  facet normal 0 0 1
    outer loop
      vertex -2.48 -9.7 20
      vertex -1.54508 -4.75528 20
      vertex -1.84062 -4.64888 20
    endloop
  endfacet
  facet normal 0 0 1
    outer loop
      vertex -2.48 -9.7 20
      vertex -1.84062 -4.64888 20
      vertex -2.1289 -4.52413 20
    endloop
  endfacet
  facet normal 0 0 1
    outer loop
      vertex -2.48 -9.7 20
      vertex -2.1289 -4.52413 20
      vertex -2.40877 -4.38153 20
    endloop
  endfacet
  facet normal 0 0 1
    outer loop
      vertex -2.48 -9.7 20
      vertex -2.40877 -4.38153 20
      vertex -2.48 -4.33941 20
    endloop
  endfacet
  facet normal 0 0 1
    outer loop
      vertex 0 -5 20
      vertex -2.48 -9.7 20
      vertex 2.48 -9.7 20
    endloop
  endfacet
  facet normal 1 -0 0
    outer loop
      vertex 9.7 -2.48 20
      vertex 9.7 2.48 0
      vertex 9.7 2.48 20
    endloop
  endfacet
  facet normal 1 0 0
    outer loop
      vertex 9.7 2.48 0
      vertex 9.7 -2.48 20
      vertex 9.7 -2.48 0
    endloop
  endfacet
  facet normal 0 1 -0
    outer loop
      vertex 9.7 2.48 0
      vertex 4.33941 2.48 20
      vertex 9.7 2.48 20
    endloop
  endfacet
  facet normal 0 1 0
    outer loop
      vertex 4.33941 2.48 20
      vertex 9.7 2.48 0
      vertex 4.33941 2.48 0
    endloop
  endfacet
  facet normal 0 1 -0
    outer loop
      vertex -4.33941 2.48 0
      vertex -9.7 2.48 20
      vertex -4.33941 2.48 20
    endloop
  endfacet
  facet normal 0 1 0
    outer loop
      vertex -9.7 2.48 20
      vertex -4.33941 2.48 0
      vertex -9.7 2.48 0
    endloop
  endfacet
  facet normal 0 -1 0
    outer loop
      vertex 4.33941 -2.48 0
      vertex 9.7 -2.48 20
      vertex 4.33941 -2.48 20
    endloop
  endfacet
  facet normal 0 -1 -0
    outer loop
      vertex 9.7 -2.48 20
      vertex 4.33941 -2.48 0
      vertex 9.7 -2.48 0
    endloop
  endfacet
  facet normal 0 -1 0
    outer loop
      vertex -9.7 -2.48 0
      vertex -4.33941 -2.48 20
      vertex -9.7 -2.48 20
    endloop
  endfacet
  facet normal 0 -1 -0
    outer loop
      vertex -4.33941 -2.48 20
      vertex -9.7 -2.48 0
      vertex -4.33941 -2.48 0
    endloop
  endfacet
  facet normal 0 1 -0
    outer loop
      vertex 2.48 9.7 0
      vertex -2.48 9.7 20
      vertex 2.48 9.7 20
    endloop
  endfacet
  facet normal 0 1 0
    outer loop
      vertex -2.48 9.7 20
      vertex 2.48 9.7 0
      vertex -2.48 9.7 0
    endloop
  endfacet
  facet normal -1 0 0
    outer loop
      vertex -2.48 4.33941 0
      vertex -2.48 9.7 20
      vertex -2.48 9.7 0
    endloop
  endfacet
  facet normal -1 -0 0
    outer loop
      vertex -2.48 9.7 20
      vertex -2.48 4.33941 0
      vertex -2.48 4.33941 20
    endloop
  endfacet
  facet normal -1 0 0
    outer loop
      vertex -2.48 -9.7 0
      vertex -2.48 -4.33941 20
      vertex -2.48 -4.33941 0
    endloop
  endfacet
  facet normal -1 -0 0
    outer loop
      vertex -2.48 -4.33941 20
      vertex -2.48 -9.7 0
      vertex -2.48 -9.7 20
    endloop
  endfacet
  facet normal 0 -1 0
    outer loop
      vertex -2.48 -9.7 0
      vertex 2.48 -9.7 20
      vertex -2.48 -9.7 20
    endloop
  endfacet
  facet normal 0 -1 -0
    outer loop
      vertex 2.48 -9.7 20
      vertex -2.48 -9.7 0
      vertex 2.48 -9.7 0
    endloop
  endfacet
  facet normal 1 -0 0
    outer loop
      vertex 2.48 4.33941 20
      vertex 2.48 9.7 0
      vertex 2.48 9.7 20
    endloop
  endfacet
  facet normal 1 0 0
    outer loop
      vertex 2.48 9.7 0
      vertex 2.48 4.33941 20
      vertex 2.48 4.33941 0
    endloop
  endfacet
  facet normal 1 -0 0
    outer loop
      vertex 2.48 -9.7 20
      vertex 2.48 -4.33941 0
      vertex 2.48 -4.33941 20
    endloop
  endfacet
  facet normal 1 0 0
    outer loop
      vertex 2.48 -4.33941 0
      vertex 2.48 -9.7 20
      vertex 2.48 -9.7 0
    endloop
  endfacet
endsolid OpenSCAD_Model
