solid OpenSCAD_Model
  facet normal -0.707107 -0.707107 0
    outer loop
      vertex 3.71774 3.49119 0
      vertex 3.49119 3.71774 10
      vertex 3.49119 3.71774 0
    endloop
  endfacet
  facet normal -0.707107 -0.707107 0
    outer loop
      vertex 3.49119 3.71774 10
      vertex 3.71774 3.49119 0
      vertex 3.71774 3.49119 10
    endloop
  endfacet
  facet normal 0.661313 -0.75011 0
    outer loop
      vertex -3.49119 3.71774 0
      vertex -3.25086 3.92962 10
      vertex -3.49119 3.71774 10
    endloop
  endfacet
  facet normal 0.661313 -0.75011 0
    outer loop
      vertex -3.25086 3.92962 10
      vertex -3.49119 3.71774 0
      vertex -3.25086 3.92962 0
    endloop
  endfacet
  facet normal 0.827081 -0.562083 0
    outer loop
      vertex -4.30607 2.73272 10
      vertex -4.12599 2.9977 0
      vertex -4.12599 2.9977 10
    endloop
  endfacet
  facet normal 0.827081 -0.562083 0
    outer loop
      vertex -4.12599 2.9977 0
      vertex -4.30607 2.73272 10
      vertex -4.30607 2.73272 0
    endloop
  endfacet
  facet normal 0.612905 -0.790157 0
    outer loop
      vertex -3.25086 3.92962 0
      vertex -2.9977 4.12599 10
      vertex -3.25086 3.92962 10
    endloop
  endfacet
  facet normal 0.612905 -0.790157 0
    outer loop
      vertex -2.9977 4.12599 10
      vertex -3.25086 3.92962 0
      vertex -2.9977 4.12599 0
    endloop
  endfacet
  facet normal -0.707107 0.707107 0
    outer loop
      vertex 3.49119 -3.71774 0
      vertex 3.71774 -3.49119 10
      vertex 3.71774 -3.49119 0
    endloop
  endfacet
  facet normal -0.707107 0.707107 0
    outer loop
      vertex 3.71774 -3.49119 10
      vertex 3.49119 -3.71774 0
      vertex 3.49119 -3.71774 10
    endloop
  endfacet
  facet normal 0.827081 0.562083 0
    outer loop
      vertex -4.12599 -2.9977 10
      vertex -4.30607 -2.73272 0
      vertex -4.30607 -2.73272 10
    endloop
  endfacet
  facet normal 0.827081 0.562083 0
    outer loop
      vertex -4.30607 -2.73272 0
      vertex -4.12599 -2.9977 10
      vertex -4.12599 -2.9977 0
    endloop
  endfacet
  facet normal -0.75011 -0.661313 0
    outer loop
      vertex 3.92962 3.25086 0
      vertex 3.71774 3.49119 10
      vertex 3.71774 3.49119 0
    endloop
  endfacet
  facet normal -0.75011 -0.661313 0
    outer loop
      vertex 3.71774 3.49119 10
      vertex 3.92962 3.25086 0
      vertex 3.92962 3.25086 10
    endloop
  endfacet
  facet normal -0.562083 -0.827081 0
    outer loop
      vertex 2.73272 4.30607 0
      vertex 2.9977 4.12599 10
      vertex 2.73272 4.30607 10
    endloop
  endfacet
  facet normal -0.562083 -0.827081 -0
    outer loop
      vertex 2.9977 4.12599 10
      vertex 2.73272 4.30607 0
      vertex 2.9977 4.12599 0
    endloop
  endfacet
  facet normal 0.509026 -0.860751 0
    outer loop
      vertex -2.73272 4.30607 0
      vertex -2.5296 4.42619 10
      vertex -2.73272 4.30607 10
    endloop
  endfacet
  facet normal 0.509026 -0.860751 0
    outer loop
      vertex -2.5296 4.42619 10
      vertex -2.73272 4.30607 0
      vertex -2.5296 4.42619 0
    endloop
  endfacet
  facet normal 0.707107 0.707107 0
    outer loop
      vertex -3.49119 -3.71774 10
      vertex -3.71774 -3.49119 0
      vertex -3.71774 -3.49119 10
    endloop
  endfacet
  facet normal 0.707107 0.707107 0
    outer loop
      vertex -3.71774 -3.49119 0
      vertex -3.49119 -3.71774 10
      vertex -3.49119 -3.71774 0
    endloop
  endfacet
  facet normal -0 0 -1
    outer loop
      vertex -2.5296 4.42619 0
      vertex -2.73272 4.30607 0
      vertex -2.5296 9.894 0
    endloop
  endfacet
  facet normal 0 0 -1
    outer loop
      vertex 9.894 -2.5296 0
      vertex 59.5491 -3.97583 0
      vertex 58.8365 -7.89168 0
    endloop
  endfacet
  facet normal 0 0 -1
    outer loop
      vertex 9.894 -2.5296 0
      vertex 58.8365 -7.89168 0
      vertex 57.8681 -11.7304 0
    endloop
  endfacet
  facet normal 0 0 -1
    outer loop
      vertex 9.894 -2.5296 0
      vertex 57.8681 -11.7304 0
      vertex 56.651 -15.4755 0
    endloop
  endfacet
  facet normal 0 0 -1
    outer loop
      vertex 9.894 -2.5296 0
      vertex 56.651 -15.4755 0
      vertex 55.1935 -19.1109 0
    endloop
  endfacet
  facet normal 0 0 -1
    outer loop
      vertex 9.894 -2.5296 0
      vertex 55.1935 -19.1109 0
      vertex 53.5046 -22.6214 0
    endloop
  endfacet
  facet normal 0 0 -1
    outer loop
      vertex 9.894 -2.5296 0
      vertex 53.5046 -22.6214 0
      vertex 51.5945 -25.9922 0
    endloop
  endfacet
  facet normal 0 0 -1
    outer loop
      vertex 9.894 -2.5296 0
      vertex 51.5945 -25.9922 0
      vertex 49.4742 -29.2097 0
    endloop
  endfacet
  facet normal 0 0 -1
    outer loop
      vertex 9.894 -2.5296 0
      vertex 49.4742 -29.2097 0
      vertex 47.1557 -32.261 0
    endloop
  endfacet
  facet normal 0 0 -1
    outer loop
      vertex 9.894 -2.5296 0
      vertex 47.1557 -32.261 0
      vertex 44.6517 -35.1339 0
    endloop
  endfacet
  facet normal 0 0 -1
    outer loop
      vertex 9.894 -2.5296 0
      vertex 44.6517 -35.1339 0
      vertex 41.9755 -37.8173 0
    endloop
  endfacet
  facet normal 0 0 -1
    outer loop
      vertex 9.894 -2.5296 0
      vertex 41.9755 -37.8173 0
      vertex 39.1412 -40.3013 0
    endloop
  endfacet
  facet normal 0 0 -1
    outer loop
      vertex 9.894 -2.5296 0
      vertex 39.1412 -40.3013 0
      vertex 36.1634 -42.5766 0
    endloop
  endfacet
  facet normal 0 0 -1
    outer loop
      vertex 2.5296 -9.894 0
      vertex 36.1634 -42.5766 0
      vertex 33.0573 -44.6353 0
    endloop
  endfacet
  facet normal 0 0 -1
    outer loop
      vertex 2.5296 -9.894 0
      vertex 33.0573 -44.6353 0
      vertex 29.8384 -46.4705 0
    endloop
  endfacet
  facet normal 0 0 -1
    outer loop
      vertex 2.5296 -9.894 0
      vertex 29.8384 -46.4705 0
      vertex 26.5226 -48.0763 0
    endloop
  endfacet
  facet normal 0 0 -1
    outer loop
      vertex 2.5296 -9.894 0
      vertex 26.5226 -48.0763 0
      vertex 23.1261 -49.4481 0
    endloop
  endfacet
  facet normal 0 0 -1
    outer loop
      vertex 2.5296 -9.894 0
      vertex 23.1261 -49.4481 0
      vertex 19.6653 -50.5822 0
    endloop
  endfacet
  facet normal 0 0 -1
    outer loop
      vertex 9.894 2.5296 0
      vertex 59.5491 -3.97583 0
      vertex 9.894 -2.5296 0
    endloop
  endfacet
  facet normal 0 0 -1
    outer loop
      vertex 2.5296 -9.894 0
      vertex 19.6653 -50.5822 0
      vertex 16.1566 -51.4761 0
    endloop
  endfacet
  facet normal 0 0 -1
    outer loop
      vertex 59.5491 -3.97583 0
      vertex 9.894 2.5296 0
      vertex 60 0 0
    endloop
  endfacet
  facet normal 0 0 -1
    outer loop
      vertex 2.5296 -9.894 0
      vertex 16.1566 -51.4761 0
      vertex 12.6167 -52.1287 0
    endloop
  endfacet
  facet normal 0 0 -1
    outer loop
      vertex 60 0 0
      vertex 9.894 2.5296 0
      vertex 16.4786 31.0727 0
    endloop
  endfacet
  facet normal 0 0 -1
    outer loop
      vertex 2.5296 9.894 0
      vertex 16.4786 31.0727 0
      vertex 9.894 2.5296 0
    endloop
  endfacet
  facet normal -0 0 -1
    outer loop
      vertex 16.4786 31.0727 0
      vertex 2.5296 9.894 0
      vertex 14.5021 32.392 0
    endloop
  endfacet
  facet normal 0 0 -1
    outer loop
      vertex 2.5296 -9.894 0
      vertex 12.6167 -52.1287 0
      vertex 9.06187 -52.5397 0
    endloop
  endfacet
  facet normal 0 0 -1
    outer loop
      vertex 2.5296 -9.894 0
      vertex 9.06187 -52.5397 0
      vertex 5.50861 -52.7101 0
    endloop
  endfacet
  facet normal 0 0 -1
    outer loop
      vertex 36.1634 -42.5766 0
      vertex 2.5296 -9.894 0
      vertex 9.894 -2.5296 0
    endloop
  endfacet
  facet normal 0 -0 -1
    outer loop
      vertex 3.71774 -3.49119 0
      vertex 9.894 -2.5296 0
      vertex 2.5296 -9.894 0
    endloop
  endfacet
  facet normal -0 0 -1
    outer loop
      vertex 9.894 -2.5296 0
      vertex 4.30607 -2.73272 0
      vertex 4.42619 -2.5296 0
    endloop
  endfacet
  facet normal 0 0 -1
    outer loop
      vertex 9.894 -2.5296 0
      vertex 4.12599 -2.9977 0
      vertex 4.30607 -2.73272 0
    endloop
  endfacet
  facet normal 0 0 -1
    outer loop
      vertex 9.894 -2.5296 0
      vertex 3.92962 -3.25086 0
      vertex 4.12599 -2.9977 0
    endloop
  endfacet
  facet normal 0 0 -1
    outer loop
      vertex 9.894 -2.5296 0
      vertex 3.71774 -3.49119 0
      vertex 3.92962 -3.25086 0
    endloop
  endfacet
  facet normal 0 0 -1
    outer loop
      vertex 3.71774 -3.49119 0
      vertex 2.5296 -9.894 0
      vertex 3.49119 -3.71774 0
    endloop
  endfacet
  facet normal 0 0 -1
    outer loop
      vertex 3.49119 -3.71774 0
      vertex 2.5296 -9.894 0
      vertex 3.25086 -3.92962 0
    endloop
  endfacet
  facet normal 0 0 -1
    outer loop
      vertex 3.25086 -3.92962 0
      vertex 2.5296 -9.894 0
      vertex 2.9977 -4.12599 0
    endloop
  endfacet
  facet normal 0 0 -1
    outer loop
      vertex 2.9977 -4.12599 0
      vertex 2.5296 -9.894 0
      vertex 2.73272 -4.30607 0
    endloop
  endfacet
  facet normal 0 0 -1
    outer loop
      vertex 1.97304 -52.6419 0
      vertex 2.5296 -9.894 0
      vertex 5.50861 -52.7101 0
    endloop
  endfacet
  facet normal 0 0 -1
    outer loop
      vertex -1.5289 -52.3382 0
      vertex 2.5296 -9.894 0
      vertex 1.97304 -52.6419 0
    endloop
  endfacet
  facet normal 0 0 -1
    outer loop
      vertex -1.5289 -52.3382 0
      vertex -2.5296 -9.894 0
      vertex 2.5296 -9.894 0
    endloop
  endfacet
  facet normal 0 0 -1
    outer loop
      vertex -2.5296 -9.894 0
      vertex -2.73272 -4.30607 0
      vertex -2.5296 -4.42619 0
    endloop
  endfacet
  facet normal 0 0 -1
    outer loop
      vertex -4.98166 -51.8033 0
      vertex -2.5296 -9.894 0
      vertex -1.5289 -52.3382 0
    endloop
  endfacet
  facet normal 0 0 -1
    outer loop
      vertex -8.37009 -51.0422 0
      vertex -2.5296 -9.894 0
      vertex -4.98166 -51.8033 0
    endloop
  endfacet
  facet normal 0 0 -1
    outer loop
      vertex -11.6795 -50.0612 0
      vertex -2.5296 -9.894 0
      vertex -8.37009 -51.0422 0
    endloop
  endfacet
  facet normal 0 0 -1
    outer loop
      vertex -14.8956 -48.8675 0
      vertex -2.5296 -9.894 0
      vertex -11.6795 -50.0612 0
    endloop
  endfacet
  facet normal 0 0 -1
    outer loop
      vertex -18.0051 -47.469 0
      vertex -2.5296 -9.894 0
      vertex -14.8956 -48.8675 0
    endloop
  endfacet
  facet normal 0 0 -1
    outer loop
      vertex -20.9949 -45.8747 0
      vertex -2.5296 -9.894 0
      vertex -18.0051 -47.469 0
    endloop
  endfacet
  facet normal 0 0 -1
    outer loop
      vertex -23.8529 -44.0942 0
      vertex -2.5296 -9.894 0
      vertex -20.9949 -45.8747 0
    endloop
  endfacet
  facet normal 0 0 -1
    outer loop
      vertex -26.5675 -42.138 0
      vertex -2.5296 -9.894 0
      vertex -23.8529 -44.0942 0
    endloop
  endfacet
  facet normal -0 -0 -1
    outer loop
      vertex -3.49119 -3.71774 0
      vertex -2.5296 -9.894 0
      vertex -9.894 -2.5296 0
    endloop
  endfacet
  facet normal 0 0 -1
    outer loop
      vertex -2.5296 -9.894 0
      vertex -2.9977 -4.12599 0
      vertex -2.73272 -4.30607 0
    endloop
  endfacet
  facet normal 0 0 -1
    outer loop
      vertex -2.5296 -9.894 0
      vertex -3.25086 -3.92962 0
      vertex -2.9977 -4.12599 0
    endloop
  endfacet
  facet normal 0 0 -1
    outer loop
      vertex -3.49119 -3.71774 0
      vertex -9.894 -2.5296 0
      vertex -3.71774 -3.49119 0
    endloop
  endfacet
  facet normal 0 0 -1
    outer loop
      vertex -4.12599 -2.9977 0
      vertex -9.894 -2.5296 0
      vertex -4.30607 -2.73272 0
    endloop
  endfacet
  facet normal 0 0 -1
    outer loop
      vertex -3.71774 -3.49119 0
      vertex -9.894 -2.5296 0
      vertex -3.92962 -3.25086 0
    endloop
  endfacet
  facet normal -0 0 -1
    outer loop
      vertex 14.5021 32.392 0
      vertex 2.5296 9.894 0
      vertex 12.4224 33.5846 0
    endloop
  endfacet
  facet normal -0 0 -1
    outer loop
      vertex 12.4224 33.5846 0
      vertex 2.5296 9.894 0
      vertex 10.2478 34.6428 0
    endloop
  endfacet
  facet normal -0 0 -1
    outer loop
      vertex 10.2478 34.6428 0
      vertex 2.5296 9.894 0
      vertex 7.98697 35.5591 0
    endloop
  endfacet
  facet normal 0 0 -1
    outer loop
      vertex 4.30607 2.73272 0
      vertex 9.894 2.5296 0
      vertex 4.42619 2.5296 0
    endloop
  endfacet
  facet normal 0 0 -1
    outer loop
      vertex 4.12599 2.9977 0
      vertex 9.894 2.5296 0
      vertex 4.30607 2.73272 0
    endloop
  endfacet
  facet normal 0 0 -1
    outer loop
      vertex 3.92962 3.25086 0
      vertex 9.894 2.5296 0
      vertex 4.12599 2.9977 0
    endloop
  endfacet
  facet normal 0 0 -1
    outer loop
      vertex 3.71774 3.49119 0
      vertex 9.894 2.5296 0
      vertex 3.92962 3.25086 0
    endloop
  endfacet
  facet normal 0 0 -1
    outer loop
      vertex 9.894 2.5296 0
      vertex 3.71774 3.49119 0
      vertex 2.5296 9.894 0
    endloop
  endfacet
  facet normal 0 0 -1
    outer loop
      vertex 2.5296 9.894 0
      vertex 3.71774 3.49119 0
      vertex 3.49119 3.71774 0
    endloop
  endfacet
  facet normal 0 0 -1
    outer loop
      vertex 2.5296 9.894 0
      vertex 3.49119 3.71774 0
      vertex 3.25086 3.92962 0
    endloop
  endfacet
  facet normal -0 0 -1
    outer loop
      vertex 7.98697 35.5591 0
      vertex 2.5296 9.894 0
      vertex 5.64929 36.3267 0
    endloop
  endfacet
  facet normal 0 0 -1
    outer loop
      vertex 2.5296 9.894 0
      vertex 3.25086 3.92962 0
      vertex 2.9977 4.12599 0
    endloop
  endfacet
  facet normal 0 0 -1
    outer loop
      vertex 2.5296 9.894 0
      vertex 2.9977 4.12599 0
      vertex 2.73272 4.30607 0
    endloop
  endfacet
  facet normal 0 0 -1
    outer loop
      vertex 2.5296 9.894 0
      vertex 2.73272 4.30607 0
      vertex 2.5296 4.42619 0
    endloop
  endfacet
  facet normal -0 0 -1
    outer loop
      vertex 5.64929 36.3267 0
      vertex 2.5296 9.894 0
      vertex 3.2446 36.9395 0
    endloop
  endfacet
  facet normal 0 0 -1
    outer loop
      vertex -2.5296 9.894 0
      vertex 3.2446 36.9395 0
      vertex 2.5296 9.894 0
    endloop
  endfacet
  facet normal -0 0 -1
    outer loop
      vertex 3.2446 36.9395 0
      vertex -2.5296 9.894 0
      vertex 0.783249 37.3918 0
    endloop
  endfacet
  facet normal -0 0 -1
    outer loop
      vertex 0.783249 37.3918 0
      vertex -2.5296 9.894 0
      vertex -1.72395 37.6789 0
    endloop
  endfacet
  facet normal 0 0 -1
    outer loop
      vertex -2.9977 4.12599 0
      vertex -2.5296 9.894 0
      vertex -2.73272 4.30607 0
    endloop
  endfacet
  facet normal 0 0 -1
    outer loop
      vertex -3.25086 3.92962 0
      vertex -2.5296 9.894 0
      vertex -2.9977 4.12599 0
    endloop
  endfacet
  facet normal 0 0 -1
    outer loop
      vertex -3.49119 3.71774 0
      vertex -2.5296 9.894 0
      vertex -3.25086 3.92962 0
    endloop
  endfacet
  facet normal 0 0 -1
    outer loop
      vertex -2.5296 9.894 0
      vertex -3.49119 3.71774 0
      vertex -9.894 2.5296 0
    endloop
  endfacet
  facet normal 0 0 -1
    outer loop
      vertex -9.894 2.5296 0
      vertex -3.49119 3.71774 0
      vertex -3.71774 3.49119 0
    endloop
  endfacet
  facet normal 0 0 -1
    outer loop
      vertex -9.894 2.5296 0
      vertex -3.71774 3.49119 0
      vertex -3.92962 3.25086 0
    endloop
  endfacet
  facet normal 0 0 -1
    outer loop
      vertex -9.894 2.5296 0
      vertex -3.92962 3.25086 0
      vertex -4.12599 2.9977 0
    endloop
  endfacet
  facet normal 0 0 -1
    outer loop
      vertex -2.5296 9.894 0
      vertex -4.2659 37.7966 0
      vertex -1.72395 37.6789 0
    endloop
  endfacet
  facet normal 0 0 -1
    outer loop
      vertex -9.894 2.5296 0
      vertex -4.12599 2.9977 0
      vertex -4.30607 2.73272 0
    endloop
  endfacet
  facet normal 0 0 -1
    outer loop
      vertex -9.894 2.5296 0
      vertex -4.30607 2.73272 0
      vertex -4.42619 2.5296 0
    endloop
  endfacet
  facet normal 0 0 -1
    outer loop
      vertex -2.5296 9.894 0
      vertex -6.83102 37.7417 0
      vertex -4.2659 37.7966 0
    endloop
  endfacet
  facet normal 0 0 -1
    outer loop
      vertex -2.5296 9.894 0
      vertex -9.40753 37.5116 0
      vertex -6.83102 37.7417 0
    endloop
  endfacet
  facet normal 0 0 -1
    outer loop
      vertex -26.7349 30.9543 0
      vertex -2.5296 9.894 0
      vertex -9.894 2.5296 0
    endloop
  endfacet
  facet normal 0 0 -1
    outer loop
      vertex -4.30607 -2.73272 0
      vertex -9.894 -2.5296 0
      vertex -4.42619 -2.5296 0
    endloop
  endfacet
  facet normal 0 0 -1
    outer loop
      vertex -3.92962 -3.25086 0
      vertex -9.894 -2.5296 0
      vertex -4.12599 -2.9977 0
    endloop
  endfacet
  facet normal 0 0 -1
    outer loop
      vertex -2.5296 -9.894 0
      vertex -3.49119 -3.71774 0
      vertex -3.25086 -3.92962 0
    endloop
  endfacet
  facet normal 0 0 -1
    outer loop
      vertex -29.1283 -40.0172 0
      vertex -2.5296 -9.894 0
      vertex -26.5675 -42.138 0
    endloop
  endfacet
  facet normal 0 0 -1
    outer loop
      vertex -31.5254 -37.7435 0
      vertex -2.5296 -9.894 0
      vertex -29.1283 -40.0172 0
    endloop
  endfacet
  facet normal 0 0 -1
    outer loop
      vertex -33.7498 -35.3294 0
      vertex -2.5296 -9.894 0
      vertex -31.5254 -37.7435 0
    endloop
  endfacet
  facet normal 0 0 -1
    outer loop
      vertex -35.7937 -32.7876 0
      vertex -2.5296 -9.894 0
      vertex -33.7498 -35.3294 0
    endloop
  endfacet
  facet normal -0 0 -1
    outer loop
      vertex -2.5296 -9.894 0
      vertex -35.7937 -32.7876 0
      vertex -9.894 -2.5296 0
    endloop
  endfacet
  facet normal 0 0 -1
    outer loop
      vertex -37.6499 -30.1313 0
      vertex -9.894 -2.5296 0
      vertex -35.7937 -32.7876 0
    endloop
  endfacet
  facet normal 0 0 -1
    outer loop
      vertex -39.3123 -27.3744 0
      vertex -9.894 -2.5296 0
      vertex -37.6499 -30.1313 0
    endloop
  endfacet
  facet normal 0 0 -1
    outer loop
      vertex -40.7758 -24.5306 0
      vertex -9.894 -2.5296 0
      vertex -39.3123 -27.3744 0
    endloop
  endfacet
  facet normal 0 0 -1
    outer loop
      vertex -42.0363 -21.6142 0
      vertex -9.894 -2.5296 0
      vertex -40.7758 -24.5306 0
    endloop
  endfacet
  facet normal 0 0 -1
    outer loop
      vertex -43.0907 -18.6394 0
      vertex -9.894 -2.5296 0
      vertex -42.0363 -21.6142 0
    endloop
  endfacet
  facet normal 0 0 -1
    outer loop
      vertex -43.9368 -15.6208 0
      vertex -9.894 -2.5296 0
      vertex -43.0907 -18.6394 0
    endloop
  endfacet
  facet normal 0 0 -1
    outer loop
      vertex -2.5296 9.894 0
      vertex -11.9834 37.1044 0
      vertex -9.40753 37.5116 0
    endloop
  endfacet
  facet normal 0 0 -1
    outer loop
      vertex -2.5296 9.894 0
      vertex -14.5463 36.5194 0
      vertex -11.9834 37.1044 0
    endloop
  endfacet
  facet normal 0 0 -1
    outer loop
      vertex -2.5296 9.894 0
      vertex -17.0841 35.7565 0
      vertex -14.5463 36.5194 0
    endloop
  endfacet
  facet normal 0 0 -1
    outer loop
      vertex -2.5296 9.894 0
      vertex -19.5842 34.8164 0
      vertex -17.0841 35.7565 0
    endloop
  endfacet
  facet normal 0 0 -1
    outer loop
      vertex -2.5296 9.894 0
      vertex -22.0342 33.7008 0
      vertex -19.5842 34.8164 0
    endloop
  endfacet
  facet normal 0 0 -1
    outer loop
      vertex -2.5296 9.894 0
      vertex -24.4219 32.4123 0
      vertex -22.0342 33.7008 0
    endloop
  endfacet
  facet normal 0 0 -1
    outer loop
      vertex -2.5296 9.894 0
      vertex -26.7349 30.9543 0
      vertex -24.4219 32.4123 0
    endloop
  endfacet
  facet normal 0 0 -1
    outer loop
      vertex -9.894 2.5296 0
      vertex -28.9613 29.331 0
      vertex -26.7349 30.9543 0
    endloop
  endfacet
  facet normal 0 0 -1
    outer loop
      vertex -9.894 2.5296 0
      vertex -31.0891 27.5476 0
      vertex -28.9613 29.331 0
    endloop
  endfacet
  facet normal 0 0 -1
    outer loop
      vertex -9.894 2.5296 0
      vertex -33.107 25.6101 0
      vertex -31.0891 27.5476 0
    endloop
  endfacet
  facet normal 0 0 -1
    outer loop
      vertex -9.894 2.5296 0
      vertex -35.0037 23.5253 0
      vertex -33.107 25.6101 0
    endloop
  endfacet
  facet normal 0 0 -1
    outer loop
      vertex -9.894 2.5296 0
      vertex -36.7686 21.3007 0
      vertex -35.0037 23.5253 0
    endloop
  endfacet
  facet normal 0 0 -1
    outer loop
      vertex -9.894 2.5296 0
      vertex -38.3914 18.9449 0
      vertex -36.7686 21.3007 0
    endloop
  endfacet
  facet normal 0 0 -1
    outer loop
      vertex -9.894 2.5296 0
      vertex -39.8623 16.4668 0
      vertex -38.3914 18.9449 0
    endloop
  endfacet
  facet normal 0 0 -1
    outer loop
      vertex -9.894 2.5296 0
      vertex -41.1724 13.8763 0
      vertex -39.8623 16.4668 0
    endloop
  endfacet
  facet normal 0 0 -1
    outer loop
      vertex -9.894 2.5296 0
      vertex -42.3131 11.1841 0
      vertex -41.1724 13.8763 0
    endloop
  endfacet
  facet normal 0 0 -1
    outer loop
      vertex -44.5734 -12.5728 0
      vertex -9.894 -2.5296 0
      vertex -43.9368 -15.6208 0
    endloop
  endfacet
  facet normal 0 0 -1
    outer loop
      vertex -9.894 2.5296 0
      vertex -43.2766 8.40109 0
      vertex -42.3131 11.1841 0
    endloop
  endfacet
  facet normal 0 0 -1
    outer loop
      vertex -45.0005 -9.50966 0
      vertex -9.894 -2.5296 0
      vertex -44.5734 -12.5728 0
    endloop
  endfacet
  facet normal 0 0 -1
    outer loop
      vertex -9.894 2.5296 0
      vertex -44.056 5.53917 0
      vertex -43.2766 8.40109 0
    endloop
  endfacet
  facet normal 0 0 -1
    outer loop
      vertex -45.2189 -6.4458 0
      vertex -9.894 -2.5296 0
      vertex -45.0005 -9.50966 0
    endloop
  endfacet
  facet normal 0 0 -1
    outer loop
      vertex -9.894 2.5296 0
      vertex -44.6449 2.61055 0
      vertex -44.056 5.53917 0
    endloop
  endfacet
  facet normal 0 0 -1
    outer loop
      vertex -45.2305 -3.39529 0
      vertex -9.894 -2.5296 0
      vertex -45.2189 -6.4458 0
    endloop
  endfacet
  facet normal 0 0 -1
    outer loop
      vertex -9.894 -2.5296 0
      vertex -44.6449 2.61055 0
      vertex -9.894 2.5296 0
    endloop
  endfacet
  facet normal 0 -0 -1
    outer loop
      vertex -45.0379 -0.371979 0
      vertex -9.894 -2.5296 0
      vertex -45.2305 -3.39529 0
    endloop
  endfacet
  facet normal 0 -0 -1
    outer loop
      vertex -44.6449 2.61055 0
      vertex -9.894 -2.5296 0
      vertex -45.0379 -0.371979 0
    endloop
  endfacet
  facet normal 0 0 -1
    outer loop
      vertex 2.73272 -4.30607 0
      vertex 2.5296 -9.894 0
      vertex 2.5296 -4.42619 0
    endloop
  endfacet
  facet normal -0.790157 -0.612905 0
    outer loop
      vertex 4.12599 2.9977 0
      vertex 3.92962 3.25086 10
      vertex 3.92962 3.25086 0
    endloop
  endfacet
  facet normal -0.790157 -0.612905 0
    outer loop
      vertex 3.92962 3.25086 10
      vertex 4.12599 2.9977 0
      vertex 4.12599 2.9977 10
    endloop
  endfacet
  facet normal -0.827081 -0.562083 0
    outer loop
      vertex 4.30607 2.73272 0
      vertex 4.12599 2.9977 10
      vertex 4.12599 2.9977 0
    endloop
  endfacet
  facet normal -0.827081 -0.562083 0
    outer loop
      vertex 4.12599 2.9977 10
      vertex 4.30607 2.73272 0
      vertex 4.30607 2.73272 10
    endloop
  endfacet
  facet normal -0.860751 -0.509026 0
    outer loop
      vertex 4.42619 2.5296 0
      vertex 4.30607 2.73272 10
      vertex 4.30607 2.73272 0
    endloop
  endfacet
  facet normal -0.860751 -0.509026 0
    outer loop
      vertex 4.30607 2.73272 10
      vertex 4.42619 2.5296 0
      vertex 4.42619 2.5296 10
    endloop
  endfacet
  facet normal -0.509026 -0.860751 0
    outer loop
      vertex 2.5296 4.42619 0
      vertex 2.73272 4.30607 10
      vertex 2.5296 4.42619 10
    endloop
  endfacet
  facet normal -0.509026 -0.860751 -0
    outer loop
      vertex 2.73272 4.30607 10
      vertex 2.5296 4.42619 0
      vertex 2.73272 4.30607 0
    endloop
  endfacet
  facet normal -0.612905 -0.790157 0
    outer loop
      vertex 2.9977 4.12599 0
      vertex 3.25086 3.92962 10
      vertex 2.9977 4.12599 10
    endloop
  endfacet
  facet normal -0.612905 -0.790157 -0
    outer loop
      vertex 3.25086 3.92962 10
      vertex 2.9977 4.12599 0
      vertex 3.25086 3.92962 0
    endloop
  endfacet
  facet normal -0.661313 -0.75011 0
    outer loop
      vertex 3.25086 3.92962 0
      vertex 3.49119 3.71774 10
      vertex 3.25086 3.92962 10
    endloop
  endfacet
  facet normal -0.661313 -0.75011 -0
    outer loop
      vertex 3.49119 3.71774 10
      vertex 3.25086 3.92962 0
      vertex 3.49119 3.71774 0
    endloop
  endfacet
  facet normal 0.860751 -0.509026 0
    outer loop
      vertex -4.42619 2.5296 10
      vertex -4.30607 2.73272 0
      vertex -4.30607 2.73272 10
    endloop
  endfacet
  facet normal 0.860751 -0.509026 0
    outer loop
      vertex -4.30607 2.73272 0
      vertex -4.42619 2.5296 10
      vertex -4.42619 2.5296 0
    endloop
  endfacet
  facet normal 0.562083 -0.827081 0
    outer loop
      vertex -2.9977 4.12599 0
      vertex -2.73272 4.30607 10
      vertex -2.9977 4.12599 10
    endloop
  endfacet
  facet normal 0.562083 -0.827081 0
    outer loop
      vertex -2.73272 4.30607 10
      vertex -2.9977 4.12599 0
      vertex -2.73272 4.30607 0
    endloop
  endfacet
  facet normal -0.612905 0.790157 0
    outer loop
      vertex 3.25086 -3.92962 0
      vertex 2.9977 -4.12599 10
      vertex 3.25086 -3.92962 10
    endloop
  endfacet
  facet normal -0.612905 0.790157 0
    outer loop
      vertex 2.9977 -4.12599 10
      vertex 3.25086 -3.92962 0
      vertex 2.9977 -4.12599 0
    endloop
  endfacet
  facet normal -0.509026 0.860751 0
    outer loop
      vertex 2.73272 -4.30607 0
      vertex 2.5296 -4.42619 10
      vertex 2.73272 -4.30607 10
    endloop
  endfacet
  facet normal -0.509026 0.860751 0
    outer loop
      vertex 2.5296 -4.42619 10
      vertex 2.73272 -4.30607 0
      vertex 2.5296 -4.42619 0
    endloop
  endfacet
  facet normal -0.75011 0.661313 0
    outer loop
      vertex 3.71774 -3.49119 0
      vertex 3.92962 -3.25086 10
      vertex 3.92962 -3.25086 0
    endloop
  endfacet
  facet normal -0.75011 0.661313 0
    outer loop
      vertex 3.92962 -3.25086 10
      vertex 3.71774 -3.49119 0
      vertex 3.71774 -3.49119 10
    endloop
  endfacet
  facet normal -0.827081 0.562083 0
    outer loop
      vertex 4.12599 -2.9977 0
      vertex 4.30607 -2.73272 10
      vertex 4.30607 -2.73272 0
    endloop
  endfacet
  facet normal -0.827081 0.562083 0
    outer loop
      vertex 4.30607 -2.73272 10
      vertex 4.12599 -2.9977 0
      vertex 4.12599 -2.9977 10
    endloop
  endfacet
  facet normal 0.661313 0.75011 -0
    outer loop
      vertex -3.25086 -3.92962 0
      vertex -3.49119 -3.71774 10
      vertex -3.25086 -3.92962 10
    endloop
  endfacet
  facet normal 0.661313 0.75011 0
    outer loop
      vertex -3.49119 -3.71774 10
      vertex -3.25086 -3.92962 0
      vertex -3.49119 -3.71774 0
    endloop
  endfacet
  facet normal 0.562083 0.827081 -0
    outer loop
      vertex -2.73272 -4.30607 0
      vertex -2.9977 -4.12599 10
      vertex -2.73272 -4.30607 10
    endloop
  endfacet
  facet normal 0.562083 0.827081 0
    outer loop
      vertex -2.9977 -4.12599 10
      vertex -2.73272 -4.30607 0
      vertex -2.9977 -4.12599 0
    endloop
  endfacet
  facet normal 0.790157 0.612905 0
    outer loop
      vertex -3.92962 -3.25086 10
      vertex -4.12599 -2.9977 0
      vertex -4.12599 -2.9977 10
    endloop
  endfacet
  facet normal 0.790157 0.612905 0
    outer loop
      vertex -4.12599 -2.9977 0
      vertex -3.92962 -3.25086 10
      vertex -3.92962 -3.25086 0
    endloop
  endfacet
  facet normal 0.860751 0.509026 0
    outer loop
      vertex -4.30607 -2.73272 10
      vertex -4.42619 -2.5296 0
      vertex -4.42619 -2.5296 10
    endloop
  endfacet
  facet normal 0.860751 0.509026 0
    outer loop
      vertex -4.42619 -2.5296 0
      vertex -4.30607 -2.73272 10
      vertex -4.30607 -2.73272 0
    endloop
  endfacet
  facet normal 0.790157 -0.612905 0
    outer loop
      vertex -4.12599 2.9977 10
      vertex -3.92962 3.25086 0
      vertex -3.92962 3.25086 10
    endloop
  endfacet
  facet normal 0.790157 -0.612905 0
    outer loop
      vertex -3.92962 3.25086 0
      vertex -4.12599 2.9977 10
      vertex -4.12599 2.9977 0
    endloop
  endfacet
  facet normal 0.75011 -0.661313 0
    outer loop
      vertex -3.92962 3.25086 10
      vertex -3.71774 3.49119 0
      vertex -3.71774 3.49119 10
    endloop
  endfacet
  facet normal 0.75011 -0.661313 0
    outer loop
      vertex -3.71774 3.49119 0
      vertex -3.92962 3.25086 10
      vertex -3.92962 3.25086 0
    endloop
  endfacet
  facet normal 0.707107 -0.707107 0
    outer loop
      vertex -3.71774 3.49119 10
      vertex -3.49119 3.71774 0
      vertex -3.49119 3.71774 10
    endloop
  endfacet
  facet normal 0.707107 -0.707107 0
    outer loop
      vertex -3.49119 3.71774 0
      vertex -3.71774 3.49119 10
      vertex -3.71774 3.49119 0
    endloop
  endfacet
  facet normal -0.661313 0.75011 0
    outer loop
      vertex 3.49119 -3.71774 0
      vertex 3.25086 -3.92962 10
      vertex 3.49119 -3.71774 10
    endloop
  endfacet
  facet normal -0.661313 0.75011 0
    outer loop
      vertex 3.25086 -3.92962 10
      vertex 3.49119 -3.71774 0
      vertex 3.25086 -3.92962 0
    endloop
  endfacet
  facet normal -0.562083 0.827081 0
    outer loop
      vertex 2.9977 -4.12599 0
      vertex 2.73272 -4.30607 10
      vertex 2.9977 -4.12599 10
    endloop
  endfacet
  facet normal -0.562083 0.827081 0
    outer loop
      vertex 2.73272 -4.30607 10
      vertex 2.9977 -4.12599 0
      vertex 2.73272 -4.30607 0
    endloop
  endfacet
  facet normal -0.860751 0.509026 0
    outer loop
      vertex 4.30607 -2.73272 0
      vertex 4.42619 -2.5296 10
      vertex 4.42619 -2.5296 0
    endloop
  endfacet
  facet normal -0.860751 0.509026 0
    outer loop
      vertex 4.42619 -2.5296 10
      vertex 4.30607 -2.73272 0
      vertex 4.30607 -2.73272 10
    endloop
  endfacet
  facet normal 0.612905 0.790157 -0
    outer loop
      vertex -2.9977 -4.12599 0
      vertex -3.25086 -3.92962 10
      vertex -2.9977 -4.12599 10
    endloop
  endfacet
  facet normal 0.612905 0.790157 0
    outer loop
      vertex -3.25086 -3.92962 10
      vertex -2.9977 -4.12599 0
      vertex -3.25086 -3.92962 0
    endloop
  endfacet
  facet normal 0.509026 0.860751 -0
    outer loop
      vertex -2.5296 -4.42619 0
      vertex -2.73272 -4.30607 10
      vertex -2.5296 -4.42619 10
    endloop
  endfacet
  facet normal 0.509026 0.860751 0
    outer loop
      vertex -2.73272 -4.30607 10
      vertex -2.5296 -4.42619 0
      vertex -2.73272 -4.30607 0
    endloop
  endfacet
  facet normal 0.75011 0.661313 0
    outer loop
      vertex -3.71774 -3.49119 10
      vertex -3.92962 -3.25086 0
      vertex -3.92962 -3.25086 10
    endloop
  endfacet
  facet normal 0.75011 0.661313 0
    outer loop
      vertex -3.92962 -3.25086 0
      vertex -3.71774 -3.49119 10
      vertex -3.71774 -3.49119 0
    endloop
  endfacet
  facet normal -0.790157 0.612905 0
    outer loop
      vertex 3.92962 -3.25086 0
      vertex 4.12599 -2.9977 10
      vertex 4.12599 -2.9977 0
    endloop
  endfacet
  facet normal -0.790157 0.612905 0
    outer loop
      vertex 4.12599 -2.9977 10
      vertex 3.92962 -3.25086 0
      vertex 3.92962 -3.25086 10
    endloop
  endfacet
  facet normal 1 -0 0
    outer loop
      vertex -9.894 -2.5296 10
      vertex -9.894 2.5296 0
      vertex -9.894 2.5296 10
    endloop
  endfacet
  facet normal 1 0 0
    outer loop
      vertex -9.894 2.5296 0
      vertex -9.894 -2.5296 10
      vertex -9.894 -2.5296 0
    endloop
  endfacet
  facet normal -1 0 0
    outer loop
      vertex 9.894 -2.5296 0
      vertex 9.894 2.5296 10
      vertex 9.894 2.5296 0
    endloop
  endfacet
  facet normal -1 -0 0
    outer loop
      vertex 9.894 2.5296 10
      vertex 9.894 -2.5296 0
      vertex 9.894 -2.5296 10
    endloop
  endfacet
  facet normal 0 1 -0
    outer loop
      vertex 9.894 -2.5296 0
      vertex 4.42619 -2.5296 10
      vertex 9.894 -2.5296 10
    endloop
  endfacet
  facet normal 0 1 0
    outer loop
      vertex 4.42619 -2.5296 10
      vertex 9.894 -2.5296 0
      vertex 4.42619 -2.5296 0
    endloop
  endfacet
  facet normal 0 1 -0
    outer loop
      vertex -4.42619 -2.5296 0
      vertex -9.894 -2.5296 10
      vertex -4.42619 -2.5296 10
    endloop
  endfacet
  facet normal 0 1 0
    outer loop
      vertex -9.894 -2.5296 10
      vertex -4.42619 -2.5296 0
      vertex -9.894 -2.5296 0
    endloop
  endfacet
  facet normal 0 -1 0
    outer loop
      vertex 4.42619 2.5296 0
      vertex 9.894 2.5296 10
      vertex 4.42619 2.5296 10
    endloop
  endfacet
  facet normal 0 -1 -0
    outer loop
      vertex 9.894 2.5296 10
      vertex 4.42619 2.5296 0
      vertex 9.894 2.5296 0
    endloop
  endfacet
  facet normal 0 -1 0
    outer loop
      vertex -9.894 2.5296 0
      vertex -4.42619 2.5296 10
      vertex -9.894 2.5296 10
    endloop
  endfacet
  facet normal 0 -1 -0
    outer loop
      vertex -4.42619 2.5296 10
      vertex -9.894 2.5296 0
      vertex -4.42619 2.5296 0
    endloop
  endfacet
  facet normal 0 -1 0
    outer loop
      vertex -2.5296 9.894 0
      vertex 2.5296 9.894 10
      vertex -2.5296 9.894 10
    endloop
  endfacet
  facet normal 0 -1 -0
    outer loop
      vertex 2.5296 9.894 10
      vertex -2.5296 9.894 0
      vertex 2.5296 9.894 0
    endloop
  endfacet
  facet normal 1 -0 0
    outer loop
      vertex -2.5296 4.42619 10
      vertex -2.5296 9.894 0
      vertex -2.5296 9.894 10
    endloop
  endfacet
  facet normal 1 0 0
    outer loop
      vertex -2.5296 9.894 0
      vertex -2.5296 4.42619 10
      vertex -2.5296 4.42619 0
    endloop
  endfacet
  facet normal 1 -0 0
    outer loop
      vertex -2.5296 -9.894 10
      vertex -2.5296 -4.42619 0
      vertex -2.5296 -4.42619 10
    endloop
  endfacet
  facet normal 1 0 0
    outer loop
      vertex -2.5296 -4.42619 0
      vertex -2.5296 -9.894 10
      vertex -2.5296 -9.894 0
    endloop
  endfacet
  facet normal 0 1 -0
    outer loop
      vertex 2.5296 -9.894 0
      vertex -2.5296 -9.894 10
      vertex 2.5296 -9.894 10
    endloop
  endfacet
  facet normal 0 1 0
    outer loop
      vertex -2.5296 -9.894 10
      vertex 2.5296 -9.894 0
      vertex -2.5296 -9.894 0
    endloop
  endfacet
  facet normal -1 0 0
    outer loop
      vertex 2.5296 4.42619 0
      vertex 2.5296 9.894 10
      vertex 2.5296 9.894 0
    endloop
  endfacet
  facet normal -1 -0 0
    outer loop
      vertex 2.5296 9.894 10
      vertex 2.5296 4.42619 0
      vertex 2.5296 4.42619 10
    endloop
  endfacet
  facet normal -1 0 0
    outer loop
      vertex 2.5296 -9.894 0
      vertex 2.5296 -4.42619 10
      vertex 2.5296 -4.42619 0
    endloop
  endfacet
  facet normal -1 -0 0
    outer loop
      vertex 2.5296 -4.42619 10
      vertex 2.5296 -9.894 0
      vertex 2.5296 -9.894 10
    endloop
  endfacet
  facet normal 0.0479009 -0.998852 0
    outer loop
      vertex 5.50861 -52.7101 0
      vertex 9.06187 -52.5397 10
      vertex 5.50861 -52.7101 10
    endloop
  endfacet
  facet normal 0.0479009 -0.998852 0
    outer loop
      vertex 9.06187 -52.5397 10
      vertex 5.50861 -52.7101 0
      vertex 9.06187 -52.5397 0
    endloop
  endfacet
  facet normal 0.114852 -0.993383 0
    outer loop
      vertex 9.06187 -52.5397 0
      vertex 12.6167 -52.1287 10
      vertex 9.06187 -52.5397 10
    endloop
  endfacet
  facet normal 0.114852 -0.993383 0
    outer loop
      vertex 12.6167 -52.1287 10
      vertex 9.06187 -52.5397 0
      vertex 12.6167 -52.1287 0
    endloop
  endfacet
  facet normal 0.951038 -0.309073 0
    outer loop
      vertex 56.651 -15.4755 10
      vertex 57.8681 -11.7304 0
      vertex 57.8681 -11.7304 10
    endloop
  endfacet
  facet normal 0.951038 -0.309073 0
    outer loop
      vertex 57.8681 -11.7304 0
      vertex 56.651 -15.4755 10
      vertex 56.651 -15.4755 0
    endloop
  endfacet
  facet normal 0.311405 -0.950277 0
    outer loop
      vertex 19.6653 -50.5822 0
      vertex 23.1261 -49.4481 10
      vertex 19.6653 -50.5822 10
    endloop
  endfacet
  facet normal 0.311405 -0.950277 0
    outer loop
      vertex 23.1261 -49.4481 10
      vertex 19.6653 -50.5822 0
      vertex 23.1261 -49.4481 0
    endloop
  endfacet
  facet normal 0.901136 -0.433536 0
    outer loop
      vertex 53.5046 -22.6214 10
      vertex 55.1935 -19.1109 0
      vertex 55.1935 -19.1109 10
    endloop
  endfacet
  facet normal 0.901136 -0.433536 0
    outer loop
      vertex 55.1935 -19.1109 0
      vertex 53.5046 -22.6214 10
      vertex 53.5046 -22.6214 0
    endloop
  endfacet
  facet normal -0.0863991 -0.996261 0
    outer loop
      vertex -1.5289 -52.3382 0
      vertex 1.97304 -52.6419 10
      vertex -1.5289 -52.3382 10
    endloop
  endfacet
  facet normal -0.0863991 -0.996261 -0
    outer loop
      vertex 1.97304 -52.6419 10
      vertex -1.5289 -52.3382 0
      vertex 1.97304 -52.6419 0
    endloop
  endfacet
  facet normal 0.1813 -0.983428 0
    outer loop
      vertex 12.6167 -52.1287 0
      vertex 16.1566 -51.4761 10
      vertex 12.6167 -52.1287 10
    endloop
  endfacet
  facet normal 0.1813 -0.983428 0
    outer loop
      vertex 16.1566 -51.4761 10
      vertex 12.6167 -52.1287 0
      vertex 16.1566 -51.4761 0
    endloop
  endfacet
  facet normal 0.983842 -0.179038 0
    outer loop
      vertex 58.8365 -7.89168 10
      vertex 59.5491 -3.97583 0
      vertex 59.5491 -3.97583 10
    endloop
  endfacet
  facet normal 0.983842 -0.179038 0
    outer loop
      vertex 59.5491 -3.97583 0
      vertex 58.8365 -7.89168 10
      vertex 58.8365 -7.89168 0
    endloop
  endfacet
  facet normal 0.99363 -0.112688 0
    outer loop
      vertex 59.5491 -3.97583 10
      vertex 60 0 0
      vertex 60 0 10
    endloop
  endfacet
  facet normal 0.99363 -0.112688 0
    outer loop
      vertex 60 0 0
      vertex 59.5491 -3.97583 10
      vertex 59.5491 -3.97583 0
    endloop
  endfacet
  facet normal 0.928182 -0.372126 0
    outer loop
      vertex 55.1935 -19.1109 10
      vertex 56.651 -15.4755 0
      vertex 56.651 -15.4755 10
    endloop
  endfacet
  facet normal 0.928182 -0.372126 0
    outer loop
      vertex 56.651 -15.4755 0
      vertex 55.1935 -19.1109 10
      vertex 55.1935 -19.1109 0
    endloop
  endfacet
  facet normal -0.73541 -0.677622 0
    outer loop
      vertex -31.5254 -37.7435 0
      vertex -33.7498 -35.3294 10
      vertex -33.7498 -35.3294 0
    endloop
  endfacet
  facet normal -0.73541 -0.677622 0
    outer loop
      vertex -33.7498 -35.3294 10
      vertex -31.5254 -37.7435 0
      vertex -31.5254 -37.7435 10
    endloop
  endfacet
  facet normal -0.978878 -0.204447 0
    outer loop
      vertex -43.9368 -15.6208 0
      vertex -44.5734 -12.5728 10
      vertex -44.5734 -12.5728 0
    endloop
  endfacet
  facet normal -0.978878 -0.204447 0
    outer loop
      vertex -44.5734 -12.5728 10
      vertex -43.9368 -15.6208 0
      vertex -43.9368 -15.6208 10
    endloop
  endfacet
  facet normal -0.52877 -0.848765 0
    outer loop
      vertex -23.8529 -44.0942 0
      vertex -20.9949 -45.8747 10
      vertex -23.8529 -44.0942 10
    endloop
  endfacet
  facet normal -0.52877 -0.848765 -0
    outer loop
      vertex -20.9949 -45.8747 10
      vertex -23.8529 -44.0942 0
      vertex -20.9949 -45.8747 0
    endloop
  endfacet
  facet normal -0.920759 0.390131 0
    outer loop
      vertex -42.3131 11.1841 0
      vertex -41.1724 13.8763 10
      vertex -41.1724 13.8763 0
    endloop
  endfacet
  facet normal -0.920759 0.390131 0
    outer loop
      vertex -41.1724 13.8763 10
      vertex -42.3131 11.1841 0
      vertex -42.3131 11.1841 10
    endloop
  endfacet
  facet normal 0.796224 -0.605003 0
    outer loop
      vertex 47.1557 -32.261 10
      vertex 49.4742 -29.2097 0
      vertex 49.4742 -29.2097 10
    endloop
  endfacet
  facet normal 0.796224 -0.605003 0
    outer loop
      vertex 49.4742 -29.2097 0
      vertex 47.1557 -32.261 10
      vertex 47.1557 -32.261 0
    endloop
  endfacet
  facet normal 0.552463 -0.833538 0
    outer loop
      vertex 33.0573 -44.6353 0
      vertex 36.1634 -42.5766 10
      vertex 33.0573 -44.6353 10
    endloop
  endfacet
  facet normal 0.552463 -0.833538 0
    outer loop
      vertex 36.1634 -42.5766 10
      vertex 33.0573 -44.6353 0
      vertex 36.1634 -42.5766 0
    endloop
  endfacet
  facet normal 0.435865 -0.900012 0
    outer loop
      vertex 26.5226 -48.0763 0
      vertex 29.8384 -46.4705 10
      vertex 26.5226 -48.0763 10
    endloop
  endfacet
  facet normal 0.435865 -0.900012 0
    outer loop
      vertex 29.8384 -46.4705 10
      vertex 26.5226 -48.0763 0
      vertex 29.8384 -46.4705 0
    endloop
  endfacet
  facet normal 0.969622 -0.244608 0
    outer loop
      vertex 57.8681 -11.7304 10
      vertex 58.8365 -7.89168 0
      vertex 58.8365 -7.89168 10
    endloop
  endfacet
  facet normal 0.969622 -0.244608 0
    outer loop
      vertex 58.8365 -7.89168 0
      vertex 57.8681 -11.7304 10
      vertex 57.8681 -11.7304 0
    endloop
  endfacet
  facet normal 0.555176 0.831733 -0
    outer loop
      vertex 16.4786 31.0727 0
      vertex 14.5021 32.392 10
      vertex 16.4786 31.0727 10
    endloop
  endfacet
  facet normal 0.555176 0.831733 0
    outer loop
      vertex 14.5021 32.392 10
      vertex 16.4786 31.0727 0
      vertex 14.5021 32.392 0
    endloop
  endfacet
  facet normal 0.581065 0.813857 -0
    outer loop
      vertex 60 0 0
      vertex 16.4786 31.0727 10
      vertex 60 0 10
    endloop
  endfacet
  facet normal 0.581065 0.813857 0
    outer loop
      vertex 16.4786 31.0727 10
      vertex 60 0 0
      vertex 16.4786 31.0727 0
    endloop
  endfacet
  facet normal 0.180735 0.983532 -0
    outer loop
      vertex 3.2446 36.9395 0
      vertex 0.783249 37.3918 10
      vertex 3.2446 36.9395 10
    endloop
  endfacet
  facet normal 0.180735 0.983532 0
    outer loop
      vertex 0.783249 37.3918 10
      vertex 3.2446 36.9395 0
      vertex 0.783249 37.3918 0
    endloop
  endfacet
  facet normal 0.834997 -0.550255 0
    outer loop
      vertex 49.4742 -29.2097 10
      vertex 51.5945 -25.9922 0
      vertex 51.5945 -25.9922 10
    endloop
  endfacet
  facet normal 0.834997 -0.550255 0
    outer loop
      vertex 51.5945 -25.9922 0
      vertex 49.4742 -29.2097 10
      vertex 49.4742 -29.2097 0
    endloop
  endfacet
  facet normal -0.0192861 -0.999814 0
    outer loop
      vertex 1.97304 -52.6419 0
      vertex 5.50861 -52.7101 10
      vertex 1.97304 -52.6419 10
    endloop
  endfacet
  facet normal -0.0192861 -0.999814 -0
    outer loop
      vertex 5.50861 -52.7101 10
      vertex 1.97304 -52.6419 0
      vertex 5.50861 -52.7101 0
    endloop
  endfacet
  facet normal -0.889164 -0.457589 0
    outer loop
      vertex -39.3123 -27.3744 0
      vertex -40.7758 -24.5306 10
      vertex -40.7758 -24.5306 0
    endloop
  endfacet
  facet normal -0.889164 -0.457589 0
    outer loop
      vertex -40.7758 -24.5306 10
      vertex -39.3123 -27.3744 0
      vertex -39.3123 -27.3744 10
    endloop
  endfacet
  facet normal -0.410176 -0.912007 0
    outer loop
      vertex -18.0051 -47.469 0
      vertex -14.8956 -48.8675 10
      vertex -18.0051 -47.469 10
    endloop
  endfacet
  facet normal -0.410176 -0.912007 -0
    outer loop
      vertex -14.8956 -48.8675 10
      vertex -18.0051 -47.469 0
      vertex -14.8956 -48.8675 0
    endloop
  endfacet
  facet normal -0.219157 -0.97569 0
    outer loop
      vertex -8.37009 -51.0422 0
      vertex -4.98166 -51.8033 10
      vertex -8.37009 -51.0422 10
    endloop
  endfacet
  facet normal -0.219157 -0.97569 -0
    outer loop
      vertex -4.98166 -51.8033 10
      vertex -8.37009 -51.0422 0
      vertex -4.98166 -51.8033 0
    endloop
  endfacet
  facet normal -0.997469 -0.0711022 0
    outer loop
      vertex -45.0005 -9.50966 0
      vertex -45.2189 -6.4458 10
      vertex -45.2189 -6.4458 0
    endloop
  endfacet
  facet normal -0.997469 -0.0711022 0
    outer loop
      vertex -45.2189 -6.4458 10
      vertex -45.0005 -9.50966 0
      vertex -45.0005 -9.50966 10
    endloop
  endfacet
  facet normal -0.980376 0.197138 0
    outer loop
      vertex -44.6449 2.61055 0
      vertex -44.056 5.53917 10
      vertex -44.056 5.53917 0
    endloop
  endfacet
  facet normal -0.980376 0.197138 0
    outer loop
      vertex -44.056 5.53917 10
      vertex -44.6449 2.61055 0
      vertex -44.6449 2.61055 10
    endloop
  endfacet
  facet normal 0.659104 -0.752052 0
    outer loop
      vertex 39.1412 -40.3013 0
      vertex 41.9755 -37.8173 10
      vertex 39.1412 -40.3013 10
    endloop
  endfacet
  facet normal 0.659104 -0.752052 0
    outer loop
      vertex 41.9755 -37.8173 10
      vertex 39.1412 -40.3013 0
      vertex 41.9755 -37.8173 0
    endloop
  endfacet
  facet normal 0.49529 -0.868728 0
    outer loop
      vertex 29.8384 -46.4705 0
      vertex 33.0573 -44.6353 10
      vertex 29.8384 -46.4705 10
    endloop
  endfacet
  facet normal 0.49529 -0.868728 0
    outer loop
      vertex 33.0573 -44.6353 10
      vertex 29.8384 -46.4705 0
      vertex 33.0573 -44.6353 0
    endloop
  endfacet
  facet normal 0.375616 0.926775 -0
    outer loop
      vertex 10.2478 34.6428 0
      vertex 7.98697 35.5591 10
      vertex 10.2478 34.6428 10
    endloop
  endfacet
  facet normal 0.375616 0.926775 0
    outer loop
      vertex 7.98697 35.5591 10
      vertex 10.2478 34.6428 0
      vertex 7.98697 35.5591 0
    endloop
  endfacet
  facet normal 0.870024 -0.493009 0
    outer loop
      vertex 51.5945 -25.9922 10
      vertex 53.5046 -22.6214 0
      vertex 53.5046 -22.6214 10
    endloop
  endfacet
  facet normal 0.870024 -0.493009 0
    outer loop
      vertex 53.5046 -22.6214 0
      vertex 51.5945 -25.9922 10
      vertex 51.5945 -25.9922 0
    endloop
  endfacet
  facet normal -0.584637 -0.811295 0
    outer loop
      vertex -26.5675 -42.138 0
      vertex -23.8529 -44.0942 10
      vertex -26.5675 -42.138 10
    endloop
  endfacet
  facet normal -0.584637 -0.811295 -0
    outer loop
      vertex -23.8529 -44.0942 10
      vertex -26.5675 -42.138 0
      vertex -23.8529 -44.0942 0
    endloop
  endfacet
  facet normal -0.688185 -0.725535 0
    outer loop
      vertex -31.5254 -37.7435 0
      vertex -29.1283 -40.0172 10
      vertex -31.5254 -37.7435 10
    endloop
  endfacet
  facet normal -0.688185 -0.725535 -0
    outer loop
      vertex -29.1283 -40.0172 10
      vertex -31.5254 -37.7435 0
      vertex -29.1283 -40.0172 0
    endloop
  endfacet
  facet normal -0.779302 -0.626649 0
    outer loop
      vertex -33.7498 -35.3294 0
      vertex -35.7937 -32.7876 10
      vertex -35.7937 -32.7876 0
    endloop
  endfacet
  facet normal -0.779302 -0.626649 0
    outer loop
      vertex -35.7937 -32.7876 10
      vertex -33.7498 -35.3294 0
      vertex -33.7498 -35.3294 10
    endloop
  endfacet
  facet normal -0.819697 -0.572797 0
    outer loop
      vertex -35.7937 -32.7876 0
      vertex -37.6499 -30.1313 10
      vertex -37.6499 -30.1313 0
    endloop
  endfacet
  facet normal -0.819697 -0.572797 0
    outer loop
      vertex -37.6499 -30.1313 10
      vertex -35.7937 -32.7876 0
      vertex -35.7937 -32.7876 10
    endloop
  endfacet
  facet normal -0.917931 -0.39674 0
    outer loop
      vertex -40.7758 -24.5306 0
      vertex -42.0363 -21.6142 10
      vertex -42.0363 -21.6142 0
    endloop
  endfacet
  facet normal -0.917931 -0.39674 0
    outer loop
      vertex -42.0363 -21.6142 10
      vertex -40.7758 -24.5306 0
      vertex -40.7758 -24.5306 10
    endloop
  endfacet
  facet normal -0.856359 -0.516381 0
    outer loop
      vertex -37.6499 -30.1313 0
      vertex -39.3123 -27.3744 10
      vertex -39.3123 -27.3744 0
    endloop
  endfacet
  facet normal -0.856359 -0.516381 0
    outer loop
      vertex -39.3123 -27.3744 10
      vertex -37.6499 -30.1313 0
      vertex -37.6499 -30.1313 10
    endloop
  endfacet
  facet normal -0.942545 -0.334079 0
    outer loop
      vertex -42.0363 -21.6142 0
      vertex -43.0907 -18.6394 10
      vertex -43.0907 -18.6394 0
    endloop
  endfacet
  facet normal -0.942545 -0.334079 0
    outer loop
      vertex -43.0907 -18.6394 10
      vertex -42.0363 -21.6142 0
      vertex -42.0363 -21.6142 10
    endloop
  endfacet
  facet normal -0.284204 -0.958764 0
    outer loop
      vertex -11.6795 -50.0612 0
      vertex -8.37009 -51.0422 10
      vertex -11.6795 -50.0612 10
    endloop
  endfacet
  facet normal -0.284204 -0.958764 -0
    outer loop
      vertex -8.37009 -51.0422 10
      vertex -11.6795 -50.0612 0
      vertex -8.37009 -51.0422 0
    endloop
  endfacet
  facet normal -0.347968 -0.937506 0
    outer loop
      vertex -14.8956 -48.8675 0
      vertex -11.6795 -50.0612 10
      vertex -14.8956 -48.8675 10
    endloop
  endfacet
  facet normal -0.347968 -0.937506 -0
    outer loop
      vertex -11.6795 -50.0612 10
      vertex -14.8956 -48.8675 0
      vertex -11.6795 -50.0612 0
    endloop
  endfacet
  facet normal -0.470528 -0.882385 0
    outer loop
      vertex -20.9949 -45.8747 0
      vertex -18.0051 -47.469 10
      vertex -20.9949 -45.8747 10
    endloop
  endfacet
  facet normal -0.470528 -0.882385 -0
    outer loop
      vertex -18.0051 -47.469 10
      vertex -20.9949 -45.8747 0
      vertex -18.0051 -47.469 0
    endloop
  endfacet
  facet normal -0.153093 -0.988212 0
    outer loop
      vertex -4.98166 -51.8033 0
      vertex -1.5289 -52.3382 10
      vertex -4.98166 -51.8033 10
    endloop
  endfacet
  facet normal -0.153093 -0.988212 -0
    outer loop
      vertex -1.5289 -52.3382 10
      vertex -4.98166 -51.8033 0
      vertex -1.5289 -52.3382 0
    endloop
  endfacet
  facet normal -0.990419 -0.138096 0
    outer loop
      vertex -44.5734 -12.5728 0
      vertex -45.0005 -9.50966 10
      vertex -45.0005 -9.50966 0
    endloop
  endfacet
  facet normal -0.990419 -0.138096 0
    outer loop
      vertex -45.0005 -9.50966 10
      vertex -44.5734 -12.5728 0
      vertex -44.5734 -12.5728 10
    endloop
  endfacet
  facet normal -0.99143 0.130638 0
    outer loop
      vertex -45.0379 -0.371979 0
      vertex -44.6449 2.61055 10
      vertex -44.6449 2.61055 0
    endloop
  endfacet
  facet normal -0.99143 0.130638 0
    outer loop
      vertex -44.6449 2.61055 10
      vertex -45.0379 -0.371979 0
      vertex -45.0379 -0.371979 10
    endloop
  endfacet
  facet normal -0.96486 0.262765 0
    outer loop
      vertex -44.056 5.53917 0
      vertex -43.2766 8.40109 10
      vertex -43.2766 8.40109 0
    endloop
  endfacet
  facet normal -0.96486 0.262765 0
    outer loop
      vertex -43.2766 8.40109 10
      vertex -44.056 5.53917 0
      vertex -44.056 5.53917 10
    endloop
  endfacet
  facet normal -0.94497 0.327156 0
    outer loop
      vertex -43.2766 8.40109 0
      vertex -42.3131 11.1841 10
      vertex -42.3131 11.1841 0
    endloop
  endfacet
  facet normal -0.94497 0.327156 0
    outer loop
      vertex -42.3131 11.1841 10
      vertex -43.2766 8.40109 0
      vertex -43.2766 8.40109 10
    endloop
  endfacet
  facet normal -0.156144 0.987734 0
    outer loop
      vertex -9.40753 37.5116 0
      vertex -11.9834 37.1044 10
      vertex -9.40753 37.5116 10
    endloop
  endfacet
  facet normal -0.156144 0.987734 0
    outer loop
      vertex -11.9834 37.1044 10
      vertex -9.40753 37.5116 0
      vertex -11.9834 37.1044 0
    endloop
  endfacet
  facet normal -0.0213976 0.999771 0
    outer loop
      vertex -4.2659 37.7966 0
      vertex -6.83102 37.7417 10
      vertex -4.2659 37.7966 10
    endloop
  endfacet
  facet normal -0.0213976 0.999771 0
    outer loop
      vertex -6.83102 37.7417 10
      vertex -4.2659 37.7966 0
      vertex -6.83102 37.7417 0
    endloop
  endfacet
  facet normal 0.60714 -0.794595 0
    outer loop
      vertex 36.1634 -42.5766 0
      vertex 39.1412 -40.3013 10
      vertex 36.1634 -42.5766 10
    endloop
  endfacet
  facet normal 0.60714 -0.794595 0
    outer loop
      vertex 39.1412 -40.3013 10
      vertex 36.1634 -42.5766 0
      vertex 39.1412 -40.3013 0
    endloop
  endfacet
  facet normal 0.753848 -0.657049 0
    outer loop
      vertex 44.6517 -35.1339 10
      vertex 47.1557 -32.261 0
      vertex 47.1557 -32.261 10
    endloop
  endfacet
  facet normal 0.753848 -0.657049 0
    outer loop
      vertex 47.1557 -32.261 0
      vertex 44.6517 -35.1339 10
      vertex 44.6517 -35.1339 0
    endloop
  endfacet
  facet normal 0.708056 -0.706156 0
    outer loop
      vertex 41.9755 -37.8173 10
      vertex 44.6517 -35.1339 0
      vertex 44.6517 -35.1339 10
    endloop
  endfacet
  facet normal 0.708056 -0.706156 0
    outer loop
      vertex 44.6517 -35.1339 0
      vertex 41.9755 -37.8173 10
      vertex 41.9755 -37.8173 0
    endloop
  endfacet
  facet normal 0.437562 0.899188 -0
    outer loop
      vertex 12.4224 33.5846 0
      vertex 10.2478 34.6428 10
      vertex 12.4224 33.5846 10
    endloop
  endfacet
  facet normal 0.437562 0.899188 0
    outer loop
      vertex 10.2478 34.6428 10
      vertex 12.4224 33.5846 0
      vertex 10.2478 34.6428 0
    endloop
  endfacet
  facet normal 0.497459 0.867487 -0
    outer loop
      vertex 14.5021 32.392 0
      vertex 12.4224 33.5846 10
      vertex 14.5021 32.392 10
    endloop
  endfacet
  facet normal 0.497459 0.867487 0
    outer loop
      vertex 12.4224 33.5846 10
      vertex 14.5021 32.392 0
      vertex 12.4224 33.5846 0
    endloop
  endfacet
  facet normal 0.246943 0.96903 -0
    outer loop
      vertex 5.64929 36.3267 0
      vertex 3.2446 36.9395 10
      vertex 5.64929 36.3267 10
    endloop
  endfacet
  facet normal 0.246943 0.96903 0
    outer loop
      vertex 3.2446 36.9395 10
      vertex 5.64929 36.3267 0
      vertex 3.2446 36.9395 0
    endloop
  endfacet
  facet normal 0.311972 0.950091 -0
    outer loop
      vertex 7.98697 35.5591 0
      vertex 5.64929 36.3267 10
      vertex 7.98697 35.5591 10
    endloop
  endfacet
  facet normal 0.311972 0.950091 0
    outer loop
      vertex 5.64929 36.3267 10
      vertex 7.98697 35.5591 0
      vertex 5.64929 36.3267 0
    endloop
  endfacet
  facet normal -0.637839 -0.77017 0
    outer loop
      vertex -29.1283 -40.0172 0
      vertex -26.5675 -42.138 10
      vertex -29.1283 -40.0172 10
    endloop
  endfacet
  facet normal -0.637839 -0.77017 -0
    outer loop
      vertex -26.5675 -42.138 10
      vertex -29.1283 -40.0172 0
      vertex -26.5675 -42.138 0
    endloop
  endfacet
  facet normal 0 0 1
    outer loop
      vertex -2.5296 -4.42619 10
      vertex -2.73272 -4.30607 10
      vertex -2.5296 -9.894 10
    endloop
  endfacet
  facet normal 0 0 1
    outer loop
      vertex 2.5296 9.894 10
      vertex 10.2478 34.6428 10
      vertex 7.98697 35.5591 10
    endloop
  endfacet
  facet normal 0 0 1
    outer loop
      vertex 2.5296 9.894 10
      vertex 7.98697 35.5591 10
      vertex 5.64929 36.3267 10
    endloop
  endfacet
  facet normal 0 0 1
    outer loop
      vertex 10.2478 34.6428 10
      vertex 2.5296 9.894 10
      vertex 9.894 2.5296 10
    endloop
  endfacet
  facet normal -0 -0 1
    outer loop
      vertex 3.71774 3.49119 10
      vertex 9.894 2.5296 10
      vertex 2.5296 9.894 10
    endloop
  endfacet
  facet normal 0 0 1
    outer loop
      vertex 9.894 2.5296 10
      vertex 4.30607 2.73272 10
      vertex 4.42619 2.5296 10
    endloop
  endfacet
  facet normal 0 0 1
    outer loop
      vertex 9.894 2.5296 10
      vertex 4.12599 2.9977 10
      vertex 4.30607 2.73272 10
    endloop
  endfacet
  facet normal 0 0 1
    outer loop
      vertex 9.894 2.5296 10
      vertex 3.92962 3.25086 10
      vertex 4.12599 2.9977 10
    endloop
  endfacet
  facet normal 0 0 1
    outer loop
      vertex 9.894 2.5296 10
      vertex 3.71774 3.49119 10
      vertex 3.92962 3.25086 10
    endloop
  endfacet
  facet normal 0 0 1
    outer loop
      vertex 3.71774 3.49119 10
      vertex 2.5296 9.894 10
      vertex 3.49119 3.71774 10
    endloop
  endfacet
  facet normal 0 0 1
    outer loop
      vertex 2.5296 9.894 10
      vertex 5.64929 36.3267 10
      vertex 3.2446 36.9395 10
    endloop
  endfacet
  facet normal 0 0 1
    outer loop
      vertex 3.49119 3.71774 10
      vertex 2.5296 9.894 10
      vertex 3.25086 3.92962 10
    endloop
  endfacet
  facet normal 0 0 1
    outer loop
      vertex 3.25086 3.92962 10
      vertex 2.5296 9.894 10
      vertex 2.9977 4.12599 10
    endloop
  endfacet
  facet normal 0 0 1
    outer loop
      vertex 2.9977 4.12599 10
      vertex 2.5296 9.894 10
      vertex 2.73272 4.30607 10
    endloop
  endfacet
  facet normal 0 0 1
    outer loop
      vertex -2.5296 9.894 10
      vertex 3.2446 36.9395 10
      vertex 0.783249 37.3918 10
    endloop
  endfacet
  facet normal 0 0 1
    outer loop
      vertex -2.5296 9.894 10
      vertex 0.783249 37.3918 10
      vertex -1.72395 37.6789 10
    endloop
  endfacet
  facet normal 0 0 1
    outer loop
      vertex 3.2446 36.9395 10
      vertex -2.5296 9.894 10
      vertex 2.5296 9.894 10
    endloop
  endfacet
  facet normal 0 0 1
    outer loop
      vertex -2.5296 9.894 10
      vertex -2.73272 4.30607 10
      vertex -2.5296 4.42619 10
    endloop
  endfacet
  facet normal 0 0 1
    outer loop
      vertex -4.2659 37.7966 10
      vertex -2.5296 9.894 10
      vertex -1.72395 37.6789 10
    endloop
  endfacet
  facet normal -0 0 1
    outer loop
      vertex -6.83102 37.7417 10
      vertex -2.5296 9.894 10
      vertex -4.2659 37.7966 10
    endloop
  endfacet
  facet normal -0 0 1
    outer loop
      vertex -9.40753 37.5116 10
      vertex -2.5296 9.894 10
      vertex -6.83102 37.7417 10
    endloop
  endfacet
  facet normal -0 0 1
    outer loop
      vertex -11.9834 37.1044 10
      vertex -2.5296 9.894 10
      vertex -9.40753 37.5116 10
    endloop
  endfacet
  facet normal -0 0 1
    outer loop
      vertex -14.5463 36.5194 10
      vertex -2.5296 9.894 10
      vertex -11.9834 37.1044 10
    endloop
  endfacet
  facet normal -0 0 1
    outer loop
      vertex -17.0841 35.7565 10
      vertex -2.5296 9.894 10
      vertex -14.5463 36.5194 10
    endloop
  endfacet
  facet normal 0 -0 1
    outer loop
      vertex -3.49119 3.71774 10
      vertex -2.5296 9.894 10
      vertex -9.894 2.5296 10
    endloop
  endfacet
  facet normal 0 0 1
    outer loop
      vertex -2.5296 9.894 10
      vertex -2.9977 4.12599 10
      vertex -2.73272 4.30607 10
    endloop
  endfacet
  facet normal 0 0 1
    outer loop
      vertex -2.5296 9.894 10
      vertex -3.25086 3.92962 10
      vertex -2.9977 4.12599 10
    endloop
  endfacet
  facet normal 0 0 1
    outer loop
      vertex -3.49119 3.71774 10
      vertex -9.894 2.5296 10
      vertex -3.71774 3.49119 10
    endloop
  endfacet
  facet normal 0 0 1
    outer loop
      vertex -3.71774 3.49119 10
      vertex -9.894 2.5296 10
      vertex -3.92962 3.25086 10
    endloop
  endfacet
  facet normal 0 0 1
    outer loop
      vertex -4.12599 2.9977 10
      vertex -9.894 2.5296 10
      vertex -4.30607 2.73272 10
    endloop
  endfacet
  facet normal 0 0 1
    outer loop
      vertex -4.30607 2.73272 10
      vertex -9.894 2.5296 10
      vertex -4.42619 2.5296 10
    endloop
  endfacet
  facet normal 0 0 1
    outer loop
      vertex -44.6449 2.61055 10
      vertex -9.894 -2.5296 10
      vertex -9.894 2.5296 10
    endloop
  endfacet
  facet normal 0 0 1
    outer loop
      vertex -3.92962 3.25086 10
      vertex -9.894 2.5296 10
      vertex -4.12599 2.9977 10
    endloop
  endfacet
  facet normal 0 0 1
    outer loop
      vertex -2.5296 9.894 10
      vertex -3.49119 3.71774 10
      vertex -3.25086 3.92962 10
    endloop
  endfacet
  facet normal -0 0 1
    outer loop
      vertex -19.5842 34.8164 10
      vertex -2.5296 9.894 10
      vertex -17.0841 35.7565 10
    endloop
  endfacet
  facet normal 0 0 1
    outer loop
      vertex -9.894 -2.5296 10
      vertex -14.8956 -48.8675 10
      vertex -11.6795 -50.0612 10
    endloop
  endfacet
  facet normal -0 0 1
    outer loop
      vertex -22.0342 33.7008 10
      vertex -2.5296 9.894 10
      vertex -19.5842 34.8164 10
    endloop
  endfacet
  facet normal 0 0 1
    outer loop
      vertex -9.894 -2.5296 10
      vertex -18.0051 -47.469 10
      vertex -14.8956 -48.8675 10
    endloop
  endfacet
  facet normal -0 0 1
    outer loop
      vertex -24.4219 32.4123 10
      vertex -2.5296 9.894 10
      vertex -22.0342 33.7008 10
    endloop
  endfacet
  facet normal 0 0 1
    outer loop
      vertex -9.894 -2.5296 10
      vertex -20.9949 -45.8747 10
      vertex -18.0051 -47.469 10
    endloop
  endfacet
  facet normal -0 0 1
    outer loop
      vertex -26.7349 30.9543 10
      vertex -2.5296 9.894 10
      vertex -24.4219 32.4123 10
    endloop
  endfacet
  facet normal 0 0 1
    outer loop
      vertex -9.894 -2.5296 10
      vertex -23.8529 -44.0942 10
      vertex -20.9949 -45.8747 10
    endloop
  endfacet
  facet normal 0 0 1
    outer loop
      vertex -2.5296 9.894 10
      vertex -26.7349 30.9543 10
      vertex -9.894 2.5296 10
    endloop
  endfacet
  facet normal 0 0 1
    outer loop
      vertex -9.894 -2.5296 10
      vertex -26.5675 -42.138 10
      vertex -23.8529 -44.0942 10
    endloop
  endfacet
  facet normal -0 0 1
    outer loop
      vertex -28.9613 29.331 10
      vertex -9.894 2.5296 10
      vertex -26.7349 30.9543 10
    endloop
  endfacet
  facet normal -0 0 1
    outer loop
      vertex -31.0891 27.5476 10
      vertex -9.894 2.5296 10
      vertex -28.9613 29.331 10
    endloop
  endfacet
  facet normal 0 0 1
    outer loop
      vertex -9.894 -2.5296 10
      vertex -29.1283 -40.0172 10
      vertex -26.5675 -42.138 10
    endloop
  endfacet
  facet normal -0 0 1
    outer loop
      vertex -33.107 25.6101 10
      vertex -9.894 2.5296 10
      vertex -31.0891 27.5476 10
    endloop
  endfacet
  facet normal 0 0 1
    outer loop
      vertex -9.894 -2.5296 10
      vertex -31.5254 -37.7435 10
      vertex -29.1283 -40.0172 10
    endloop
  endfacet
  facet normal -0 0 1
    outer loop
      vertex -35.0037 23.5253 10
      vertex -9.894 2.5296 10
      vertex -33.107 25.6101 10
    endloop
  endfacet
  facet normal 0 0 1
    outer loop
      vertex -9.894 -2.5296 10
      vertex -33.7498 -35.3294 10
      vertex -31.5254 -37.7435 10
    endloop
  endfacet
  facet normal -0 0 1
    outer loop
      vertex -36.7686 21.3007 10
      vertex -9.894 2.5296 10
      vertex -35.0037 23.5253 10
    endloop
  endfacet
  facet normal 0 0 1
    outer loop
      vertex -9.894 -2.5296 10
      vertex -35.7937 -32.7876 10
      vertex -33.7498 -35.3294 10
    endloop
  endfacet
  facet normal -0 0 1
    outer loop
      vertex -38.3914 18.9449 10
      vertex -9.894 2.5296 10
      vertex -36.7686 21.3007 10
    endloop
  endfacet
  facet normal 0 0 1
    outer loop
      vertex -9.894 -2.5296 10
      vertex -37.6499 -30.1313 10
      vertex -35.7937 -32.7876 10
    endloop
  endfacet
  facet normal -0 0 1
    outer loop
      vertex -39.8623 16.4668 10
      vertex -9.894 2.5296 10
      vertex -38.3914 18.9449 10
    endloop
  endfacet
  facet normal 0 0 1
    outer loop
      vertex -9.894 -2.5296 10
      vertex -39.3123 -27.3744 10
      vertex -37.6499 -30.1313 10
    endloop
  endfacet
  facet normal -0 0 1
    outer loop
      vertex -41.1724 13.8763 10
      vertex -9.894 2.5296 10
      vertex -39.8623 16.4668 10
    endloop
  endfacet
  facet normal 0 0 1
    outer loop
      vertex -9.894 -2.5296 10
      vertex -40.7758 -24.5306 10
      vertex -39.3123 -27.3744 10
    endloop
  endfacet
  facet normal -0 0 1
    outer loop
      vertex -42.3131 11.1841 10
      vertex -9.894 2.5296 10
      vertex -41.1724 13.8763 10
    endloop
  endfacet
  facet normal 0 0 1
    outer loop
      vertex -9.894 -2.5296 10
      vertex -42.0363 -21.6142 10
      vertex -40.7758 -24.5306 10
    endloop
  endfacet
  facet normal -0 0 1
    outer loop
      vertex -43.2766 8.40109 10
      vertex -9.894 2.5296 10
      vertex -42.3131 11.1841 10
    endloop
  endfacet
  facet normal 0 0 1
    outer loop
      vertex -9.894 -2.5296 10
      vertex -43.0907 -18.6394 10
      vertex -42.0363 -21.6142 10
    endloop
  endfacet
  facet normal -0 0 1
    outer loop
      vertex -44.056 5.53917 10
      vertex -9.894 2.5296 10
      vertex -43.2766 8.40109 10
    endloop
  endfacet
  facet normal 0 0 1
    outer loop
      vertex -9.894 -2.5296 10
      vertex -43.9368 -15.6208 10
      vertex -43.0907 -18.6394 10
    endloop
  endfacet
  facet normal -0 0 1
    outer loop
      vertex -44.6449 2.61055 10
      vertex -9.894 2.5296 10
      vertex -44.056 5.53917 10
    endloop
  endfacet
  facet normal 0 0 1
    outer loop
      vertex -9.894 -2.5296 10
      vertex -44.5734 -12.5728 10
      vertex -43.9368 -15.6208 10
    endloop
  endfacet
  facet normal 0 0 1
    outer loop
      vertex -9.894 -2.5296 10
      vertex -44.6449 2.61055 10
      vertex -45.0379 -0.371979 10
    endloop
  endfacet
  facet normal 0 0 1
    outer loop
      vertex -9.894 -2.5296 10
      vertex -45.0005 -9.50966 10
      vertex -44.5734 -12.5728 10
    endloop
  endfacet
  facet normal 0 0 1
    outer loop
      vertex -9.894 -2.5296 10
      vertex -45.0379 -0.371979 10
      vertex -45.2305 -3.39529 10
    endloop
  endfacet
  facet normal 0 0 1
    outer loop
      vertex -9.894 -2.5296 10
      vertex -45.2189 -6.4458 10
      vertex -45.0005 -9.50966 10
    endloop
  endfacet
  facet normal 0 0 1
    outer loop
      vertex -9.894 -2.5296 10
      vertex -45.2305 -3.39529 10
      vertex -45.2189 -6.4458 10
    endloop
  endfacet
  facet normal 0 0 1
    outer loop
      vertex 9.894 2.5296 10
      vertex 59.5491 -3.97583 10
      vertex 60 0 10
    endloop
  endfacet
  facet normal 0 0 1
    outer loop
      vertex 59.5491 -3.97583 10
      vertex 9.894 -2.5296 10
      vertex 58.8365 -7.89168 10
    endloop
  endfacet
  facet normal 0 0 1
    outer loop
      vertex 58.8365 -7.89168 10
      vertex 9.894 -2.5296 10
      vertex 57.8681 -11.7304 10
    endloop
  endfacet
  facet normal 0 0 1
    outer loop
      vertex 57.8681 -11.7304 10
      vertex 9.894 -2.5296 10
      vertex 56.651 -15.4755 10
    endloop
  endfacet
  facet normal 0 0 1
    outer loop
      vertex 56.651 -15.4755 10
      vertex 9.894 -2.5296 10
      vertex 55.1935 -19.1109 10
    endloop
  endfacet
  facet normal 0 0 1
    outer loop
      vertex 55.1935 -19.1109 10
      vertex 9.894 -2.5296 10
      vertex 53.5046 -22.6214 10
    endloop
  endfacet
  facet normal 0 0 1
    outer loop
      vertex 53.5046 -22.6214 10
      vertex 9.894 -2.5296 10
      vertex 51.5945 -25.9922 10
    endloop
  endfacet
  facet normal 0 0 1
    outer loop
      vertex 51.5945 -25.9922 10
      vertex 9.894 -2.5296 10
      vertex 49.4742 -29.2097 10
    endloop
  endfacet
  facet normal 0 0 1
    outer loop
      vertex 49.4742 -29.2097 10
      vertex 9.894 -2.5296 10
      vertex 47.1557 -32.261 10
    endloop
  endfacet
  facet normal 0 0 1
    outer loop
      vertex 47.1557 -32.261 10
      vertex 9.894 -2.5296 10
      vertex 44.6517 -35.1339 10
    endloop
  endfacet
  facet normal 0 0 1
    outer loop
      vertex 44.6517 -35.1339 10
      vertex 9.894 -2.5296 10
      vertex 41.9755 -37.8173 10
    endloop
  endfacet
  facet normal 0 0 1
    outer loop
      vertex 41.9755 -37.8173 10
      vertex 9.894 -2.5296 10
      vertex 39.1412 -40.3013 10
    endloop
  endfacet
  facet normal 0 0 1
    outer loop
      vertex 39.1412 -40.3013 10
      vertex 9.894 -2.5296 10
      vertex 36.1634 -42.5766 10
    endloop
  endfacet
  facet normal -0 0 1
    outer loop
      vertex 2.5296 -9.894 10
      vertex 36.1634 -42.5766 10
      vertex 9.894 -2.5296 10
    endloop
  endfacet
  facet normal 0 0 1
    outer loop
      vertex 36.1634 -42.5766 10
      vertex 2.5296 -9.894 10
      vertex 33.0573 -44.6353 10
    endloop
  endfacet
  facet normal 0 0 1
    outer loop
      vertex 33.0573 -44.6353 10
      vertex 2.5296 -9.894 10
      vertex 29.8384 -46.4705 10
    endloop
  endfacet
  facet normal 0 0 1
    outer loop
      vertex 29.8384 -46.4705 10
      vertex 2.5296 -9.894 10
      vertex 26.5226 -48.0763 10
    endloop
  endfacet
  facet normal -0 0 1
    outer loop
      vertex 9.894 2.5296 10
      vertex 60 0 10
      vertex 16.4786 31.0727 10
    endloop
  endfacet
  facet normal 0 0 1
    outer loop
      vertex 26.5226 -48.0763 10
      vertex 2.5296 -9.894 10
      vertex 23.1261 -49.4481 10
    endloop
  endfacet
  facet normal 0 0 1
    outer loop
      vertex 9.894 2.5296 10
      vertex 16.4786 31.0727 10
      vertex 14.5021 32.392 10
    endloop
  endfacet
  facet normal 0 0 1
    outer loop
      vertex 23.1261 -49.4481 10
      vertex 2.5296 -9.894 10
      vertex 19.6653 -50.5822 10
    endloop
  endfacet
  facet normal 0 0 1
    outer loop
      vertex 9.894 2.5296 10
      vertex 14.5021 32.392 10
      vertex 12.4224 33.5846 10
    endloop
  endfacet
  facet normal 0 0 1
    outer loop
      vertex 9.894 2.5296 10
      vertex 12.4224 33.5846 10
      vertex 10.2478 34.6428 10
    endloop
  endfacet
  facet normal 0 0 1
    outer loop
      vertex 59.5491 -3.97583 10
      vertex 9.894 2.5296 10
      vertex 9.894 -2.5296 10
    endloop
  endfacet
  facet normal 0 0 1
    outer loop
      vertex 19.6653 -50.5822 10
      vertex 2.5296 -9.894 10
      vertex 16.1566 -51.4761 10
    endloop
  endfacet
  facet normal 0 0 1
    outer loop
      vertex 16.1566 -51.4761 10
      vertex 2.5296 -9.894 10
      vertex 12.6167 -52.1287 10
    endloop
  endfacet
  facet normal 0 0 1
    outer loop
      vertex 12.6167 -52.1287 10
      vertex 2.5296 -9.894 10
      vertex 9.06187 -52.5397 10
    endloop
  endfacet
  facet normal 0 0 1
    outer loop
      vertex 4.30607 -2.73272 10
      vertex 9.894 -2.5296 10
      vertex 4.42619 -2.5296 10
    endloop
  endfacet
  facet normal 0 0 1
    outer loop
      vertex 4.12599 -2.9977 10
      vertex 9.894 -2.5296 10
      vertex 4.30607 -2.73272 10
    endloop
  endfacet
  facet normal 0 0 1
    outer loop
      vertex 3.92962 -3.25086 10
      vertex 9.894 -2.5296 10
      vertex 4.12599 -2.9977 10
    endloop
  endfacet
  facet normal 0 0 1
    outer loop
      vertex 3.71774 -3.49119 10
      vertex 9.894 -2.5296 10
      vertex 3.92962 -3.25086 10
    endloop
  endfacet
  facet normal 0 0 1
    outer loop
      vertex 9.894 -2.5296 10
      vertex 3.71774 -3.49119 10
      vertex 2.5296 -9.894 10
    endloop
  endfacet
  facet normal 0 0 1
    outer loop
      vertex 2.5296 -9.894 10
      vertex 3.71774 -3.49119 10
      vertex 3.49119 -3.71774 10
    endloop
  endfacet
  facet normal 0 0 1
    outer loop
      vertex 2.5296 -9.894 10
      vertex 3.49119 -3.71774 10
      vertex 3.25086 -3.92962 10
    endloop
  endfacet
  facet normal 0 0 1
    outer loop
      vertex 2.5296 -9.894 10
      vertex 3.25086 -3.92962 10
      vertex 2.9977 -4.12599 10
    endloop
  endfacet
  facet normal 0 0 1
    outer loop
      vertex 2.5296 -9.894 10
      vertex 2.9977 -4.12599 10
      vertex 2.73272 -4.30607 10
    endloop
  endfacet
  facet normal 0 0 1
    outer loop
      vertex 2.5296 -9.894 10
      vertex 2.73272 -4.30607 10
      vertex 2.5296 -4.42619 10
    endloop
  endfacet
  facet normal 0 0 1
    outer loop
      vertex 9.06187 -52.5397 10
      vertex 2.5296 -9.894 10
      vertex 5.50861 -52.7101 10
    endloop
  endfacet
  facet normal 0 0 1
    outer loop
      vertex 2.5296 -9.894 10
      vertex 1.97304 -52.6419 10
      vertex 5.50861 -52.7101 10
    endloop
  endfacet
  facet normal 0 0 1
    outer loop
      vertex 2.5296 -9.894 10
      vertex -1.5289 -52.3382 10
      vertex 1.97304 -52.6419 10
    endloop
  endfacet
  facet normal -0 0 1
    outer loop
      vertex -2.5296 -9.894 10
      vertex -1.5289 -52.3382 10
      vertex 2.5296 -9.894 10
    endloop
  endfacet
  facet normal 0 0 1
    outer loop
      vertex -2.9977 -4.12599 10
      vertex -2.5296 -9.894 10
      vertex -2.73272 -4.30607 10
    endloop
  endfacet
  facet normal 0 0 1
    outer loop
      vertex -3.25086 -3.92962 10
      vertex -2.5296 -9.894 10
      vertex -2.9977 -4.12599 10
    endloop
  endfacet
  facet normal 0 0 1
    outer loop
      vertex -3.49119 -3.71774 10
      vertex -2.5296 -9.894 10
      vertex -3.25086 -3.92962 10
    endloop
  endfacet
  facet normal 0 0 1
    outer loop
      vertex -2.5296 -9.894 10
      vertex -3.49119 -3.71774 10
      vertex -9.894 -2.5296 10
    endloop
  endfacet
  facet normal 0 0 1
    outer loop
      vertex -9.894 -2.5296 10
      vertex -3.49119 -3.71774 10
      vertex -3.71774 -3.49119 10
    endloop
  endfacet
  facet normal 0 0 1
    outer loop
      vertex -9.894 -2.5296 10
      vertex -3.71774 -3.49119 10
      vertex -3.92962 -3.25086 10
    endloop
  endfacet
  facet normal 0 0 1
    outer loop
      vertex -9.894 -2.5296 10
      vertex -3.92962 -3.25086 10
      vertex -4.12599 -2.9977 10
    endloop
  endfacet
  facet normal 0 0 1
    outer loop
      vertex -9.894 -2.5296 10
      vertex -4.12599 -2.9977 10
      vertex -4.30607 -2.73272 10
    endloop
  endfacet
  facet normal -0 0 1
    outer loop
      vertex -9.894 -2.5296 10
      vertex -4.30607 -2.73272 10
      vertex -4.42619 -2.5296 10
    endloop
  endfacet
  facet normal 0 0 1
    outer loop
      vertex -2.5296 -9.894 10
      vertex -4.98166 -51.8033 10
      vertex -1.5289 -52.3382 10
    endloop
  endfacet
  facet normal 0 0 1
    outer loop
      vertex -2.5296 -9.894 10
      vertex -8.37009 -51.0422 10
      vertex -4.98166 -51.8033 10
    endloop
  endfacet
  facet normal 0 0 1
    outer loop
      vertex -2.5296 -9.894 10
      vertex -9.894 -2.5296 10
      vertex -11.6795 -50.0612 10
    endloop
  endfacet
  facet normal 0 0 1
    outer loop
      vertex -2.5296 -9.894 10
      vertex -11.6795 -50.0612 10
      vertex -8.37009 -51.0422 10
    endloop
  endfacet
  facet normal 0 0 1
    outer loop
      vertex 2.73272 4.30607 10
      vertex 2.5296 9.894 10
      vertex 2.5296 4.42619 10
    endloop
  endfacet
  facet normal -0.892372 0.451301 0
    outer loop
      vertex -41.1724 13.8763 0
      vertex -39.8623 16.4668 10
      vertex -39.8623 16.4668 0
    endloop
  endfacet
  facet normal -0.892372 0.451301 0
    outer loop
      vertex -39.8623 16.4668 10
      vertex -41.1724 13.8763 0
      vertex -41.1724 13.8763 10
    endloop
  endfacet
  facet normal -0.823521 0.567285 0
    outer loop
      vertex -38.3914 18.9449 0
      vertex -36.7686 21.3007 10
      vertex -36.7686 21.3007 0
    endloop
  endfacet
  facet normal -0.823521 0.567285 0
    outer loop
      vertex -36.7686 21.3007 10
      vertex -38.3914 18.9449 0
      vertex -38.3914 18.9449 10
    endloop
  endfacet
  facet normal -0.589145 0.808028 0
    outer loop
      vertex -26.7349 30.9543 0
      vertex -28.9613 29.331 10
      vertex -26.7349 30.9543 10
    endloop
  endfacet
  facet normal -0.589145 0.808028 0
    outer loop
      vertex -28.9613 29.331 10
      vertex -26.7349 30.9543 0
      vertex -28.9613 29.331 0
    endloop
  endfacet
  facet normal 0.374495 -0.927229 0
    outer loop
      vertex 23.1261 -49.4481 0
      vertex 26.5226 -48.0763 10
      vertex 23.1261 -49.4481 10
    endloop
  endfacet
  facet normal 0.374495 -0.927229 0
    outer loop
      vertex 26.5226 -48.0763 10
      vertex 23.1261 -49.4481 0
      vertex 26.5226 -48.0763 0
    endloop
  endfacet
  facet normal 0.246881 -0.969046 0
    outer loop
      vertex 16.1566 -51.4761 0
      vertex 19.6653 -50.5822 10
      vertex 16.1566 -51.4761 10
    endloop
  endfacet
  facet normal 0.246881 -0.969046 0
    outer loop
      vertex 19.6653 -50.5822 10
      vertex 16.1566 -51.4761 0
      vertex 19.6653 -50.5822 0
    endloop
  endfacet
  facet normal -0.96289 -0.269894 0
    outer loop
      vertex -43.0907 -18.6394 0
      vertex -43.9368 -15.6208 10
      vertex -43.9368 -15.6208 0
    endloop
  endfacet
  facet normal -0.96289 -0.269894 0
    outer loop
      vertex -43.9368 -15.6208 10
      vertex -43.0907 -18.6394 0
      vertex -43.0907 -18.6394 10
    endloop
  endfacet
  facet normal -0.999993 -0.00380262 0
    outer loop
      vertex -45.2189 -6.4458 0
      vertex -45.2305 -3.39529 10
      vertex -45.2305 -3.39529 0
    endloop
  endfacet
  facet normal -0.999993 -0.00380262 0
    outer loop
      vertex -45.2305 -3.39529 10
      vertex -45.2189 -6.4458 0
      vertex -45.2189 -6.4458 10
    endloop
  endfacet
  facet normal -0.997977 0.0635761 0
    outer loop
      vertex -45.2305 -3.39529 0
      vertex -45.0379 -0.371979 10
      vertex -45.0379 -0.371979 0
    endloop
  endfacet
  facet normal -0.997977 0.0635761 0
    outer loop
      vertex -45.0379 -0.371979 10
      vertex -45.2305 -3.39529 0
      vertex -45.2305 -3.39529 10
    endloop
  endfacet
  facet normal -0.739688 0.67295 0
    outer loop
      vertex -35.0037 23.5253 0
      vertex -33.107 25.6101 10
      vertex -33.107 25.6101 0
    endloop
  endfacet
  facet normal -0.739688 0.67295 0
    outer loop
      vertex -33.107 25.6101 10
      vertex -35.0037 23.5253 0
      vertex -35.0037 23.5253 10
    endloop
  endfacet
  facet normal -0.859927 0.510418 0
    outer loop
      vertex -39.8623 16.4668 0
      vertex -38.3914 18.9449 10
      vertex -38.3914 18.9449 0
    endloop
  endfacet
  facet normal -0.859927 0.510418 0
    outer loop
      vertex -38.3914 18.9449 10
      vertex -39.8623 16.4668 0
      vertex -39.8623 16.4668 10
    endloop
  endfacet
  facet normal -0.414407 0.910091 0
    outer loop
      vertex -19.5842 34.8164 0
      vertex -22.0342 33.7008 10
      vertex -19.5842 34.8164 10
    endloop
  endfacet
  facet normal -0.414407 0.910091 0
    outer loop
      vertex -22.0342 33.7008 10
      vertex -19.5842 34.8164 0
      vertex -22.0342 33.7008 0
    endloop
  endfacet
  facet normal -0.474904 0.880038 0
    outer loop
      vertex -22.0342 33.7008 0
      vertex -24.4219 32.4123 10
      vertex -22.0342 33.7008 10
    endloop
  endfacet
  facet normal -0.474904 0.880038 0
    outer loop
      vertex -24.4219 32.4123 10
      vertex -22.0342 33.7008 0
      vertex -24.4219 32.4123 0
    endloop
  endfacet
  facet normal -0.222534 0.974925 0
    outer loop
      vertex -11.9834 37.1044 0
      vertex -14.5463 36.5194 10
      vertex -11.9834 37.1044 10
    endloop
  endfacet
  facet normal -0.222534 0.974925 0
    outer loop
      vertex -14.5463 36.5194 10
      vertex -11.9834 37.1044 0
      vertex -14.5463 36.5194 0
    endloop
  endfacet
  facet normal 0.0462535 0.99893 -0
    outer loop
      vertex -1.72395 37.6789 0
      vertex -4.2659 37.7966 10
      vertex -1.72395 37.6789 10
    endloop
  endfacet
  facet normal 0.0462535 0.99893 0
    outer loop
      vertex -4.2659 37.7966 10
      vertex -1.72395 37.6789 0
      vertex -4.2659 37.7966 0
    endloop
  endfacet
  facet normal 0.113767 0.993507 -0
    outer loop
      vertex 0.783249 37.3918 0
      vertex -1.72395 37.6789 10
      vertex 0.783249 37.3918 10
    endloop
  endfacet
  facet normal 0.113767 0.993507 0
    outer loop
      vertex -1.72395 37.6789 10
      vertex 0.783249 37.3918 0
      vertex -1.72395 37.6789 0
    endloop
  endfacet
  facet normal -0.692591 0.721331 0
    outer loop
      vertex -31.0891 27.5476 0
      vertex -33.107 25.6101 10
      vertex -31.0891 27.5476 10
    endloop
  endfacet
  facet normal -0.692591 0.721331 0
    outer loop
      vertex -33.107 25.6101 10
      vertex -31.0891 27.5476 0
      vertex -33.107 25.6101 0
    endloop
  endfacet
  facet normal -0.642357 0.766405 0
    outer loop
      vertex -28.9613 29.331 0
      vertex -31.0891 27.5476 10
      vertex -28.9613 29.331 10
    endloop
  endfacet
  facet normal -0.642357 0.766405 0
    outer loop
      vertex -31.0891 27.5476 10
      vertex -28.9613 29.331 0
      vertex -31.0891 27.5476 0
    endloop
  endfacet
  facet normal -0.783401 0.621516 0
    outer loop
      vertex -36.7686 21.3007 0
      vertex -35.0037 23.5253 10
      vertex -35.0037 23.5253 0
    endloop
  endfacet
  facet normal -0.783401 0.621516 0
    outer loop
      vertex -35.0037 23.5253 10
      vertex -36.7686 21.3007 0
      vertex -36.7686 21.3007 10
    endloop
  endfacet
  facet normal -0.351964 0.936013 0
    outer loop
      vertex -17.0841 35.7565 0
      vertex -19.5842 34.8164 10
      vertex -17.0841 35.7565 10
    endloop
  endfacet
  facet normal -0.351964 0.936013 0
    outer loop
      vertex -19.5842 34.8164 10
      vertex -17.0841 35.7565 0
      vertex -19.5842 34.8164 0
    endloop
  endfacet
  facet normal -0.287888 0.957664 0
    outer loop
      vertex -14.5463 36.5194 0
      vertex -17.0841 35.7565 10
      vertex -14.5463 36.5194 10
    endloop
  endfacet
  facet normal -0.287888 0.957664 0
    outer loop
      vertex -17.0841 35.7565 10
      vertex -14.5463 36.5194 0
      vertex -17.0841 35.7565 0
    endloop
  endfacet
  facet normal -0.53325 0.845958 0
    outer loop
      vertex -24.4219 32.4123 0
      vertex -26.7349 30.9543 10
      vertex -24.4219 32.4123 10
    endloop
  endfacet
  facet normal -0.53325 0.845958 0
    outer loop
      vertex -26.7349 30.9543 10
      vertex -24.4219 32.4123 0
      vertex -26.7349 30.9543 0
    endloop
  endfacet
  facet normal -0.0889528 0.996036 0
    outer loop
      vertex -6.83102 37.7417 0
      vertex -9.40753 37.5116 10
      vertex -6.83102 37.7417 10
    endloop
  endfacet
  facet normal -0.0889528 0.996036 0
    outer loop
      vertex -9.40753 37.5116 10
      vertex -6.83102 37.7417 0
      vertex -9.40753 37.5116 0
    endloop
  endfacet
endsolid OpenSCAD_Model
